<svg width="1703" height="1280" viewBox="0 0 1703 1280" fill="none" xmlns="http://www.w3.org/2000/svg">
<g clip-path="url(#clip0)">
<path d="M1702.4 0H0V1280H1702.4V0Z" fill="url(#paint0_linear)"/>
<path d="M0 174.475C227.55 68.4662 511.475 16.5309 851.775 18.6689C1205.26 20.8895 1488.47 57.9702 1701.4 129.911V1280H0V174.475Z" fill="url(#paint1_linear)" fill-opacity="0.5"/>
<path d="M-32.258 966.768C23.742 819.865 100.347 747.411 197.556 749.404C415.685 753.876 380.629 904.144 482.28 908.237C612.534 913.481 563.702 778.211 664.976 783.933C766.25 789.654 730.401 605.804 832.072 610.073C933.742 614.342 949.323 806.581 1073.97 765.918C1198.61 725.254 1241.46 680.531 1327.15 700.209C1474.72 734.096 1428.43 854.544 1514.12 881.133C1599.81 907.722 1638.77 794.949 1743.94 863.858C1814.05 909.797 1850.4 1123.58 1853 1505.22L-79 1537.42L-32.258 966.768Z" fill="url(#paint2_linear)" fill-opacity="0.5"/>
<path d="M649.667 757.341L949.667 930.546C963.334 938.136 976.667 938.136 989.667 930.546C1002.67 922.957 1102.67 865.222 1289.67 757.341C1303.44 750.668 1303.44 742.97 1289.67 734.247C1275.89 725.524 1175.89 667.789 989.667 561.042C978.334 553.629 965 553.629 949.667 561.042C926.667 572.162 669.667 722.662 649.667 734.247C636.776 741.714 636.776 749.412 649.667 757.341Z" fill="#C6B920"/>
<path d="M649.667 730.341L949.667 903.546C963.334 911.136 976.667 911.136 989.667 903.546C1002.67 895.957 1102.67 838.222 1289.67 730.341C1303.44 723.668 1303.44 715.97 1289.67 707.247C1275.89 698.524 1175.89 640.789 989.667 534.042C978.334 526.629 965 526.629 949.667 534.042C926.667 545.162 669.667 695.662 649.667 707.247C636.776 714.714 636.776 722.412 649.667 730.341Z" fill="#D9CB30"/>
<path d="M649.667 701.341L949.667 874.546C963.334 882.136 976.667 882.136 989.667 874.546C1002.67 866.957 1102.67 809.222 1289.67 701.341C1303.44 694.668 1303.44 686.97 1289.67 678.247C1275.89 669.524 1175.89 611.789 989.667 505.042C978.334 497.629 965 497.629 949.667 505.042C926.667 516.162 669.667 666.662 649.667 678.247C636.776 685.714 636.776 693.412 649.667 701.341Z" fill="#E3DB3A"/>
<path d="M1021.14 403.319L1261.14 541.883" stroke="#D6EDF4" stroke-width="3" stroke-miterlimit="3" stroke-linecap="round" stroke-linejoin="round"/>
<path d="M1016.71 585.322L1256.71 723.886" stroke="#D1C214" stroke-width="3" stroke-miterlimit="3" stroke-linecap="round" stroke-linejoin="round"/>
<path d="M1019.29 701.049L1136.71 767.549" stroke="#D1C214" stroke-width="3" stroke-miterlimit="3" stroke-linecap="round" stroke-linejoin="round"/>
<path d="M1021.14 730.341L1115 782.57" stroke="#D1C214" stroke-width="3" stroke-miterlimit="3" stroke-linecap="round" stroke-linejoin="round"/>
<path d="M1133 734.114L1065 772.797" stroke="#D1C214" stroke-width="3" stroke-miterlimit="3" stroke-linecap="round" stroke-linejoin="round"/>
<path d="M1156.14 751.455L1088.14 790.138" stroke="#D1C214" stroke-width="3" stroke-miterlimit="3" stroke-linecap="round" stroke-linejoin="round"/>
<path d="M904.139 401.204L1204.14 574.409C1217.81 581.998 1231.14 581.998 1244.14 574.409C1257.14 566.819 1357.14 509.084 1544.14 401.204C1557.92 394.531 1557.92 386.833 1544.14 378.11C1530.36 369.386 1430.36 311.651 1244.14 204.905C1232.81 197.492 1219.47 197.492 1204.14 204.905C1181.14 216.024 924.139 366.524 904.139 378.11C891.248 385.577 891.248 393.275 904.139 401.204Z" fill="url(#paint3_linear)"/>
<path d="M904.139 384.204L1204.14 557.409C1217.81 564.998 1231.14 564.998 1244.14 557.409C1257.14 549.819 1357.14 492.084 1544.14 384.204C1557.92 377.531 1557.92 369.833 1544.14 361.11C1530.36 352.386 1430.36 294.651 1244.14 187.905C1232.81 180.492 1219.47 180.492 1204.14 187.905C1181.14 199.024 924.139 349.524 904.139 361.11C891.248 368.577 891.248 376.275 904.139 384.204Z" fill="url(#paint4_linear)"/>
<path d="M1021.14 360.319L1261.14 498.883" stroke="#E3DB39" stroke-width="3" stroke-miterlimit="3" stroke-linecap="round" stroke-linejoin="round"/>
<path d="M1039.14 348.319L1280 488.162" stroke="#E3DB39" stroke-width="3" stroke-miterlimit="3" stroke-linecap="round" stroke-linejoin="round"/>
<path d="M1060 338.051L1300 476.615" stroke="#E3DB39" stroke-width="3" stroke-miterlimit="3" stroke-linecap="round" stroke-linejoin="round"/>
<path d="M1078 326.051L1280 441.974" stroke="#E3DB39" stroke-width="3" stroke-miterlimit="3" stroke-linecap="round" stroke-linejoin="round"/>
<path d="M1333.67 675.06L1633.67 848.265C1647.33 855.854 1660.67 855.854 1673.67 848.265C1686.67 840.675 1786.67 782.94 1973.67 675.06C1987.45 668.387 1987.45 660.689 1973.67 651.966C1959.89 643.242 1859.89 585.507 1673.67 478.761C1662.33 471.348 1649 471.348 1633.67 478.761C1610.67 489.88 1353.67 640.38 1333.67 651.966C1320.78 659.433 1320.78 667.131 1333.67 675.06Z" fill="url(#paint5_linear)"/>
<path d="M414.151 473.029L605.06 583.251C613.757 588.08 622.242 588.08 630.515 583.251C638.788 578.421 702.424 541.68 821.424 473.029C830.192 468.783 830.192 463.884 821.424 458.333C812.657 452.782 749.02 416.041 630.515 348.111C623.303 343.394 614.818 343.394 605.06 348.111C590.424 355.187 426.878 450.96 414.151 458.333C405.948 463.085 405.948 467.984 414.151 473.029Z" fill="url(#paint6_linear)"/>
<path d="M414.151 455.029L605.06 565.251C613.757 570.08 622.242 570.08 630.515 565.251C638.788 560.421 702.424 523.68 821.424 455.029C830.192 450.783 830.192 445.884 821.424 440.333C812.657 434.782 749.02 398.041 630.515 330.111C623.303 325.394 614.818 325.394 605.06 330.111C590.424 337.187 426.878 432.96 414.151 440.333C405.948 445.085 405.948 449.984 414.151 455.029Z" fill="url(#paint7_linear)"/>
<path d="M414.151 434.029L605.06 544.251C613.757 549.08 622.242 549.08 630.515 544.251C638.788 539.421 702.424 502.68 821.424 434.029C830.192 429.783 830.192 424.884 821.424 419.333C812.657 413.782 749.02 377.041 630.515 309.111C623.303 304.394 614.818 304.394 605.06 309.111C590.424 316.187 426.878 411.96 414.151 419.333C405.948 424.085 405.948 428.984 414.151 434.029Z" fill="url(#paint8_linear)"/>
<path d="M144.153 770.541L335.062 880.763C343.759 885.592 352.244 885.592 360.517 880.763C368.79 875.933 432.426 839.192 551.426 770.541C560.193 766.295 560.193 761.396 551.426 755.845C542.658 750.294 479.022 713.553 360.517 645.623C353.304 640.906 344.819 640.906 335.062 645.623C320.426 652.7 156.88 748.473 144.153 755.845C135.949 760.597 135.949 765.496 144.153 770.541Z" fill="url(#paint9_linear)"/>
<path d="M339 671.898L457 740" stroke="#BCAC00" stroke-width="3" stroke-miterlimit="3" stroke-linecap="round" stroke-linejoin="round"/>
<path d="M355 707.186C364.389 707.186 372 702.754 372 697.287C372 691.819 364.389 687.387 355 687.387C345.611 687.387 338 691.819 338 697.287C338 702.754 345.611 707.186 355 707.186Z" fill="#D1C214"/>
<path d="M355 700.386C364.389 700.386 372 695.954 372 690.487C372 685.02 364.389 680.587 355 680.587C345.611 680.587 338 685.02 338 690.487C338 695.954 345.611 700.386 355 700.386Z" fill="#EEE03C"/>
<path d="M355 693.586C364.389 693.586 372 689.154 372 683.687C372 678.219 364.389 673.787 355 673.787C345.611 673.787 338 678.219 338 683.687C338 689.154 345.611 693.586 355 693.586Z" fill="#FFF255"/>
<path d="M724 698.785C733.389 698.785 741 694.353 741 688.886C741 683.419 733.389 678.986 724 678.986C714.611 678.986 707 683.419 707 688.886C707 694.353 714.611 698.785 724 698.785Z" fill="#D1C214"/>
<path d="M724 691.985C733.389 691.985 741 687.553 741 682.086C741 676.618 733.389 672.186 724 672.186C714.611 672.186 707 676.618 707 682.086C707 687.553 714.611 691.985 724 691.985Z" fill="#EEE03C"/>
<path d="M724 685.185C733.389 685.185 741 680.753 741 675.286C741 669.818 733.389 665.386 724 665.386C714.611 665.386 707 669.818 707 675.286C707 680.753 714.611 685.185 724 685.185Z" fill="#FFF255"/>
<path d="M1111 772.538C1120.39 772.538 1128 768.106 1128 762.639C1128 757.172 1120.39 752.74 1111 752.74C1101.61 752.74 1094 757.172 1094 762.639C1094 768.106 1101.61 772.538 1111 772.538Z" fill="#D1C214"/>
<path d="M1111 765.738C1120.39 765.738 1128 761.306 1128 755.839C1128 750.372 1120.39 745.939 1111 745.939C1101.61 745.939 1094 750.372 1094 755.839C1094 761.306 1101.61 765.738 1111 765.738Z" fill="#EEE03C"/>
<path d="M1111 758.938C1120.39 758.938 1128 754.506 1128 749.039C1128 743.572 1120.39 739.139 1111 739.139C1101.61 739.139 1094 743.572 1094 749.039C1094 754.506 1101.61 758.938 1111 758.938Z" fill="#FFF255"/>
<path d="M-45.651 600.602L52.616 657.337C57.0927 659.823 61.46 659.823 65.718 657.337C69.9767 654.851 102.732 635.939 163.985 600.602C168.498 598.417 168.498 595.895 163.985 593.038C159.472 590.181 126.717 571.269 65.718 536.303C62.006 533.875 57.6387 533.875 52.616 536.303C45.082 539.946 -39.1 589.243 -45.651 593.038C-49.8737 595.484 -49.8737 598.005 -45.651 600.602Z" fill="url(#paint10_linear)"/>
<path d="M1505.92 329.83L1391.73 395.759C1387.05 399.086 1384.93 405.191 1385.38 414.073C1385.83 422.867 1385.82 499.425 1385.38 663.139C1385.37 665.605 1385.54 677.59 1391.73 681.453C1393.68 682.674 1400.02 685.536 1410.76 690.039L1493.23 542.269L1540.94 336.149L1524.95 326.167C1518.81 324.738 1512.47 325.959 1505.92 329.83Z" fill="#F4EC4A"/>
<path d="M1543.98 600.873V351.807C1545.03 335.774 1540.8 330.89 1531.29 337.156C1528.2 339.196 1490.13 361.172 1417.1 403.085C1410.31 406.91 1406.08 411.794 1404.41 417.736C1402.74 423.679 1402.74 509.143 1404.41 674.127C1404.42 688.559 1408.65 693.442 1417.1 688.778C1425.66 684.054 1459.5 664.519 1518.61 630.174C1523.28 627.446 1527.51 625.005 1531.29 622.849C1539.59 618.126 1543.82 610.801 1543.98 600.873Z" fill="#E3DB39"/>
<path d="M1537.15 592.287V367.419C1538.1 352.943 1534.28 348.534 1525.69 354.191C1524.21 355.17 1521.66 356.273 1502.34 367.419C1497.84 370.013 1500.95 376.569 1493.23 381.108C1485.48 385.664 1466.36 397.49 1455.17 403.085C1449.16 405.158 1450.61 397.69 1446.95 399.794C1438.22 404.807 1430.1 409.448 1422.6 413.715C1416.47 417.168 1412.65 421.577 1411.14 426.943C1409.63 432.308 1409.63 509.469 1411.14 658.425C1411.15 671.454 1414.96 675.863 1422.6 671.652C1430.32 667.387 1460.87 649.75 1514.24 618.742C1518.46 616.279 1522.27 614.074 1525.69 612.128C1533.19 607.864 1537 601.25 1537.15 592.287Z" fill="#B4AC0A"/>
<path d="M1426 471.427C1426.22 456.254 1432.89 444.707 1446 436.786C1458.45 429.263 1478.45 417.716 1506 402.145C1519.11 394.715 1525.77 398.415 1525.98 413.246C1526.14 423.849 1526.14 439.394 1526 459.88C1526.32 474.429 1521.32 484.859 1510.99 491.17C1500.66 497.481 1478.99 510.145 1446 529.162C1432.22 537.276 1425.56 533.427 1426 517.615C1426.31 506.494 1426.31 491.098 1426 471.427Z" fill="#D1C214"/>
<path d="M1426 577.373C1426.22 562.199 1432.89 550.652 1446 542.732C1458.45 535.209 1478.45 523.662 1506 508.091C1519.11 500.661 1525.77 504.361 1525.98 519.192C1526.14 529.795 1526.14 545.34 1526 565.826C1526.32 580.375 1521.32 590.805 1510.99 597.116C1500.66 603.426 1478.99 616.09 1446 635.108C1432.22 643.222 1425.56 639.373 1426 623.561C1426.31 612.44 1426.31 597.044 1426 577.373Z" fill="#D1C214"/>
<path d="M1436 583.373C1436.22 568.199 1442.89 556.652 1456 548.732C1468.45 541.209 1488.45 529.662 1516 514.091C1529.11 506.661 1535.77 510.361 1535.98 525.192C1536.14 535.795 1536.14 551.34 1536 571.826C1536.32 586.375 1531.32 596.805 1520.99 603.116C1510.66 609.426 1488.99 622.09 1456 641.108C1442.22 649.222 1435.56 645.373 1436 629.561C1436.31 618.44 1436.31 603.044 1436 583.373Z" fill="#EEE03C"/>
<path d="M1447 591.373C1447.22 576.199 1453.89 564.652 1467 556.732C1479.45 549.209 1499.45 537.662 1527 522.091C1540.11 514.661 1546.77 518.361 1546.98 533.192C1547.14 543.795 1547.14 559.34 1547 579.826C1547.32 594.375 1542.32 604.805 1531.99 611.116C1521.66 617.426 1499.99 630.09 1467 649.108C1453.22 657.222 1446.56 653.373 1447 637.561C1447.31 626.44 1447.31 611.044 1447 591.373Z" fill="#FFF255"/>
<path d="M243.389 393.454L299.18 425.664C301.721 427.076 304.201 427.076 306.618 425.664C309.036 424.253 327.633 413.516 362.408 393.454C364.971 392.213 364.971 390.782 362.408 389.159C359.846 387.537 341.249 376.8 306.618 356.949C304.511 355.57 302.031 355.57 299.18 356.949C294.902 359.017 247.109 387.005 243.389 389.159C240.992 390.548 240.992 391.979 243.389 393.454Z" fill="url(#paint11_linear)"/>
<path d="M174 760.077L338 855" stroke="#BCAC00" stroke-width="3" stroke-miterlimit="3" stroke-linecap="round" stroke-linejoin="round"/>
<path d="M246 787L355 724.887" stroke="#BCAC00" stroke-width="3" stroke-miterlimit="3" stroke-linecap="round" stroke-linejoin="round"/>
<path d="M174 759.59L283 697.477" stroke="#BCAC00" stroke-width="3" stroke-miterlimit="3" stroke-linecap="round" stroke-linejoin="round"/>
<path d="M334.5 769.299L443.5 707.186" stroke="#BCAC00" stroke-width="3" stroke-miterlimit="3" stroke-linecap="round" stroke-linejoin="round"/>
<path d="M437.061 665.336L492.851 697.547C495.393 698.958 497.873 698.958 500.29 697.547C502.707 696.136 521.304 685.399 556.08 665.336C558.642 664.095 558.642 662.664 556.08 661.042C553.518 659.419 534.921 648.682 500.29 628.831C498.183 627.452 495.703 627.452 492.851 628.831C488.574 630.899 440.781 658.887 437.061 661.042C434.664 662.431 434.664 663.862 437.061 665.336Z" fill="url(#paint12_linear)"/>
<path d="M364.999 721.154L385.758 733.14C386.704 733.665 387.627 733.665 388.526 733.14C389.425 732.615 396.345 728.619 409.285 721.154C410.238 720.693 410.238 720.16 409.285 719.556C408.332 718.953 401.412 714.958 388.526 707.571C387.742 707.058 386.819 707.058 385.758 707.571C384.167 708.341 366.383 718.755 364.999 719.556C364.107 720.073 364.107 720.605 364.999 721.154Z" fill="#D1C214"/>
<path d="M364.999 716.154L385.758 728.14C386.704 728.665 387.627 728.665 388.526 728.14C389.425 727.615 396.345 723.619 409.285 716.154C410.238 715.693 410.238 715.16 409.285 714.556C408.332 713.953 401.412 709.958 388.526 702.571C387.742 702.058 386.819 702.058 385.758 702.571C384.167 703.341 366.383 713.755 364.999 714.556C364.107 715.073 364.107 715.605 364.999 716.154Z" fill="#EEE03C"/>
<path d="M364.999 710.154L385.758 722.14C386.704 722.665 387.627 722.665 388.526 722.14C389.425 721.615 396.345 717.619 409.285 710.154C410.238 709.693 410.238 709.16 409.285 708.556C408.332 707.953 401.412 703.958 388.526 696.571C387.742 696.058 386.819 696.058 385.758 696.571C384.167 697.341 366.383 707.755 364.999 708.556C364.107 709.073 364.107 709.605 364.999 710.154Z" fill="#FFF255"/>
<path d="M404.669 592.098L425.428 604.083C426.374 604.608 427.297 604.608 428.196 604.083C429.095 603.558 436.015 599.563 448.955 592.098C449.908 591.636 449.908 591.103 448.955 590.5C448.002 589.896 441.082 585.901 428.196 578.514C427.412 578.001 426.489 578.001 425.428 578.514C423.837 579.284 406.053 589.698 404.669 590.5C403.777 591.017 403.777 591.549 404.669 592.098Z" fill="#D1C214"/>
<g filter="url(#filter0_f)">
<path d="M571.834 610.81L592.593 622.795C593.539 623.32 594.462 623.32 595.361 622.795C596.26 622.27 603.18 618.275 616.12 610.81C617.073 610.348 617.073 609.815 616.12 609.212C615.167 608.608 608.247 604.613 595.361 597.226C594.577 596.713 593.654 596.713 592.593 597.226C591.002 597.996 573.218 608.41 571.834 609.212C570.942 609.729 570.942 610.261 571.834 610.81Z" fill="#BCAC00"/>
</g>
<g filter="url(#filter1_f)">
<path d="M302.669 563.968L323.428 575.953C324.373 576.478 325.296 576.478 326.196 575.953C327.095 575.428 334.015 571.433 346.955 563.968C347.908 563.506 347.908 562.973 346.955 562.37C346.002 561.767 339.082 557.772 326.196 550.385C325.411 549.872 324.489 549.872 323.428 550.385C321.836 551.154 304.053 561.568 302.669 562.37C301.777 562.887 301.777 563.419 302.669 563.968Z" fill="#BCAC00"/>
</g>
<g filter="url(#filter2_f)">
<path d="M145.204 499.89L165.963 511.875C166.909 512.4 167.832 512.4 168.731 511.875C169.63 511.35 176.55 507.355 189.49 499.89C190.443 499.428 190.443 498.895 189.49 498.292C188.537 497.688 181.617 493.693 168.731 486.307C167.947 485.794 167.024 485.794 165.963 486.307C164.372 487.076 146.588 497.49 145.204 498.292C144.312 498.809 144.312 499.341 145.204 499.89Z" fill="#FEF255"/>
</g>
<g filter="url(#filter3_f)">
<path d="M690.73 620.398L711.489 632.383C712.434 632.908 713.357 632.908 714.256 632.383C715.156 631.858 722.076 627.863 735.015 620.398C735.969 619.937 735.969 619.404 735.015 618.8C734.062 618.197 727.142 614.202 714.256 606.815C713.472 606.302 712.55 606.302 711.489 606.815C709.897 607.584 692.113 617.999 690.73 618.8C689.837 619.317 689.837 619.849 690.73 620.398Z" fill="#BCAC00"/>
</g>
<g filter="url(#filter4_f)">
<path d="M837.158 395.019L857.917 407.004C858.862 407.529 859.785 407.529 860.684 407.004C861.584 406.479 868.504 402.484 881.444 395.019C882.397 394.558 882.397 394.025 881.444 393.421C880.49 392.818 873.57 388.823 860.684 381.436C859.9 380.923 858.978 380.923 857.917 381.436C856.325 382.205 838.542 392.619 837.158 393.421C836.266 393.938 836.266 394.47 837.158 395.019Z" fill="#BCAC00"/>
</g>
<path d="M404.669 587.098L425.428 599.083C426.374 599.608 427.297 599.608 428.196 599.083C429.095 598.558 436.015 594.563 448.955 587.098C449.908 586.636 449.908 586.103 448.955 585.5C448.002 584.896 441.082 580.901 428.196 573.514C427.412 573.001 426.489 573.001 425.428 573.514C423.837 574.284 406.053 584.698 404.669 585.5C403.777 586.017 403.777 586.549 404.669 587.098Z" fill="#EEE03C"/>
<path d="M404.669 581.098L425.428 593.083C426.374 593.608 427.297 593.608 428.196 593.083C429.095 592.558 436.015 588.563 448.955 581.098C449.908 580.636 449.908 580.103 448.955 579.5C448.002 578.896 441.082 574.901 428.196 567.514C427.412 567.001 426.489 567.001 425.428 567.514C423.837 568.284 406.053 578.698 404.669 579.5C403.777 580.017 403.777 580.549 404.669 581.098Z" fill="#FFF255"/>
<g filter="url(#filter5_f)">
<path d="M372.669 505.165L393.428 517.151C394.374 517.676 395.297 517.676 396.196 517.151C397.095 516.626 404.015 512.63 416.955 505.165C417.908 504.704 417.908 504.171 416.955 503.567C416.002 502.964 409.082 498.969 396.196 491.582C395.412 491.069 394.489 491.069 393.428 491.582C391.837 492.352 374.053 502.766 372.669 503.567C371.777 504.084 371.777 504.616 372.669 505.165Z" fill="#EEE03C"/>
</g>
<g filter="url(#filter6_f)">
<path d="M47.329 435.344L68.088 447.329C69.034 447.854 69.9567 447.854 70.856 447.329C71.7554 446.804 78.675 442.809 91.615 435.344C92.5684 434.882 92.5684 434.349 91.615 433.746C90.6617 433.142 83.742 429.147 70.856 421.761C70.072 421.248 69.1494 421.248 68.088 421.761C66.497 422.53 48.713 432.944 47.329 433.746C46.437 434.263 46.437 434.795 47.329 435.344Z" fill="#EEE03C"/>
</g>
<g filter="url(#filter7_f)">
<path d="M92.999 734.153L113.758 746.139C114.704 746.664 115.627 746.664 116.526 746.139C117.425 745.614 124.345 741.618 137.285 734.153C138.238 733.692 138.238 733.159 137.285 732.555C136.332 731.952 129.412 727.957 116.526 720.57C115.742 720.057 114.819 720.057 113.758 720.57C112.167 721.34 94.383 731.754 92.999 732.555C92.107 733.072 92.107 733.604 92.999 734.153Z" fill="#FFF255"/>
</g>
<g filter="url(#filter8_f)">
<path d="M548.999 740.794L569.758 752.78C570.704 753.305 571.627 753.305 572.526 752.78C573.425 752.255 580.345 748.259 593.285 740.794C594.238 740.333 594.238 739.8 593.285 739.196C592.332 738.593 585.412 734.598 572.526 727.211C571.742 726.698 570.819 726.698 569.758 727.211C568.167 727.981 550.383 738.395 548.999 739.196C548.107 739.713 548.107 740.245 548.999 740.794Z" fill="#EEE03C"/>
</g>
<g filter="url(#filter9_f)">
<path d="M736.399 550.62L757.159 562.605C758.104 563.13 759.027 563.13 759.926 562.605C760.826 562.08 767.746 558.085 780.685 550.62C781.638 550.158 781.638 549.625 780.685 549.022C779.732 548.418 772.812 544.423 759.926 537.036C759.142 536.523 758.22 536.523 757.159 537.036C755.567 537.806 737.783 548.22 736.399 549.022C735.507 549.538 735.507 550.071 736.399 550.62Z" fill="#EEE03C"/>
</g>
<g filter="url(#filter10_f)">
<path d="M1244.81 642.225L1265.57 654.21C1266.51 654.735 1267.44 654.735 1268.34 654.21C1269.23 653.685 1276.15 649.689 1289.09 642.225C1290.05 641.763 1290.05 641.23 1289.09 640.627C1288.14 640.023 1281.22 636.028 1268.34 628.641C1267.55 628.128 1266.63 628.128 1265.57 628.641C1263.98 629.411 1246.19 639.825 1244.81 640.627C1243.92 641.144 1243.92 641.676 1244.81 642.225Z" fill="#EEE03C"/>
</g>
<path d="M783.198 973.373L838.989 1005.58C841.53 1007 844.01 1007 846.427 1005.58C848.845 1004.17 867.442 993.436 902.217 973.373C904.78 972.132 904.78 970.701 902.217 969.079C899.655 967.456 881.058 956.719 846.427 936.868C844.32 935.489 841.84 935.489 838.989 936.868C834.711 938.936 786.918 966.924 783.198 969.079C780.801 970.468 780.801 971.899 783.198 973.373Z" fill="url(#paint13_linear)"/>
<path d="M1405.16 830.731L1460.95 862.941C1463.49 864.353 1465.97 864.353 1468.39 862.941C1470.81 861.53 1489.4 850.793 1524.18 830.731C1526.74 829.49 1526.74 828.059 1524.18 826.436C1521.62 824.814 1503.02 814.077 1468.39 794.226C1466.28 792.847 1463.8 792.847 1460.95 794.226C1456.67 796.294 1408.88 824.282 1405.16 826.436C1402.76 827.825 1402.76 829.256 1405.16 830.731Z" fill="url(#paint14_linear)"/>
<path d="M-40 1041.99C101.333 843.588 258.201 740.272 430.602 732.039C650.768 721.524 615.57 894.143 718.273 898.43C849.875 903.924 800.538 762.217 902.86 768.211C1005.18 774.205 968.963 581.605 1071.69 586.077C1174.41 590.549 1190.15 791.937 1316.09 749.338C1442.02 706.739 1485.31 659.888 1571.89 680.503C1720.99 716.002 1674.22 842.182 1760.8 870.037C1847.38 897.891 1886.73 779.751 1992.99 851.939C2063.83 900.065 2100.56 1124.02 2103.18 1523.82L-76 1482.76L-40 1041.99Z" fill="url(#paint15_linear)" fill-opacity="0.5"/>
<path d="M281.53 507.155L206.574 550.43C203.503 552.614 202.115 556.621 202.41 562.451C202.701 568.224 202.695 618.476 202.41 725.938C202.405 727.557 202.514 735.424 206.574 737.959C207.857 738.761 212.021 740.64 219.066 743.595L273.201 646.599L304.521 511.303L294.022 504.75C289.994 503.812 285.83 504.614 281.53 507.155Z" fill="#F4EC4A"/>
<path d="M306.515 685.066V521.58C307.206 511.056 304.43 507.85 298.187 511.963C296.155 513.302 271.17 527.727 223.231 555.239C218.776 557.749 215.999 560.955 214.902 564.856C213.805 568.757 213.805 624.855 214.902 733.151C214.907 742.624 217.683 745.829 223.231 742.767C228.85 739.666 251.059 726.844 289.858 704.3C292.925 702.509 295.701 700.907 298.187 699.492C303.634 696.391 306.41 691.583 306.515 685.066Z" fill="#E3DB3B"/>
<path d="M302.03 679.431V531.828C302.653 522.326 300.147 519.432 294.511 523.145C293.536 523.787 291.86 524.512 279.18 531.828C276.229 533.53 278.27 537.834 273.201 540.814C268.114 543.804 255.561 551.566 248.216 555.239C244.273 556.599 245.225 551.698 242.821 553.078C237.094 556.369 231.766 559.415 226.837 562.216C222.814 564.483 220.308 567.377 219.318 570.899C218.327 574.421 218.327 625.069 219.318 722.844C219.322 731.396 221.828 734.29 226.837 731.526C231.91 728.726 251.962 717.149 286.991 696.796C289.76 695.179 292.266 693.732 294.511 692.455C299.429 689.656 301.935 685.314 302.03 679.431Z" fill="#FBB57A"/>
<path d="M302.03 679.431V664C246.888 696.617 219.317 712.951 219.318 713C219.351 717.081 219.351 720.362 219.318 722.844C219.322 731.396 221.828 734.29 226.837 731.526C231.91 728.726 251.962 717.149 286.991 696.796C289.76 695.179 292.266 693.732 294.511 692.455C299.429 689.656 301.935 685.314 302.03 679.431Z" fill="url(#paint16_linear)"/>
<path d="M887.801 423.1L987.359 480.58C991.437 483.481 993.281 488.803 992.89 496.546C992.503 504.213 992.511 570.96 992.89 713.693C992.896 715.843 992.751 726.292 987.359 729.66C985.655 730.724 980.124 733.22 970.766 737.146L898.863 608.313L857.263 428.609L871.208 419.906C876.558 418.661 882.089 419.725 887.801 423.1Z" fill="#F4EC4A"/>
<path d="M854.615 659.406V442.26C853.698 428.281 857.385 424.023 865.677 429.486C868.376 431.265 901.562 450.425 965.235 486.966C971.152 490.301 974.84 494.559 976.297 499.74C977.754 504.921 977.754 579.432 976.297 723.273C976.29 735.855 972.603 740.113 965.235 736.046C957.771 731.927 928.272 714.896 876.739 684.953C872.666 682.574 868.978 680.445 865.677 678.566C858.442 674.449 854.754 668.062 854.615 659.406Z" fill="#B4AC0A"/>
<path d="M860.572 651.921V455.871C859.744 443.25 863.073 439.406 870.559 444.339C871.854 445.192 874.08 446.154 890.921 455.871C894.841 458.133 892.13 463.849 898.863 467.806C905.62 471.779 922.293 482.088 932.049 486.966C937.285 488.774 936.022 482.263 939.214 484.097C946.822 488.468 953.899 492.514 960.445 496.234C965.788 499.245 969.117 503.089 970.432 507.767C971.748 512.444 971.748 579.716 970.432 709.583C970.427 720.942 967.098 724.786 960.445 721.115C953.707 717.396 927.074 702.02 880.547 674.986C876.869 672.838 873.54 670.916 870.559 669.22C864.027 665.502 860.698 659.736 860.572 651.921Z" fill="#E3DB39"/>
<path d="M891 493.5L957 530.5" stroke="#D1C214" stroke-width="3" stroke-miterlimit="3" stroke-linecap="round" stroke-linejoin="round"/>
<path d="M871 496L957 543.5" stroke="#D1C214" stroke-width="3" stroke-miterlimit="3" stroke-linecap="round" stroke-linejoin="round"/>
<path d="M871 510L957 557.5" stroke="#D1C214" stroke-width="3" stroke-miterlimit="3" stroke-linecap="round" stroke-linejoin="round"/>
<path d="M871 523L957 570.5" stroke="#D1C214" stroke-width="3" stroke-miterlimit="3" stroke-linecap="round" stroke-linejoin="round"/>
<path d="M871 537L957 584.5" stroke="#D1C214" stroke-width="3" stroke-miterlimit="3" stroke-linecap="round" stroke-linejoin="round"/>
<path d="M887 569.5L957 609.5" stroke="#D1C214" stroke-width="3" stroke-miterlimit="3" stroke-linecap="round" stroke-linejoin="round"/>
<path d="M871 575L957 622.5" stroke="#D1C214" stroke-width="3" stroke-miterlimit="3" stroke-linecap="round" stroke-linejoin="round"/>
<path d="M871 589L957 636.5" stroke="#D1C214" stroke-width="3" stroke-miterlimit="3" stroke-linecap="round" stroke-linejoin="round"/>
<path d="M871 602L957 649.5" stroke="#D1C214" stroke-width="3" stroke-miterlimit="3" stroke-linecap="round" stroke-linejoin="round"/>
<path d="M871 616L957 663.5" stroke="#D1C214" stroke-width="3" stroke-miterlimit="3" stroke-linecap="round" stroke-linejoin="round"/>
</g>
<defs>
<filter id="filter0_f" x="567.558" y="593.235" width="52.8833" height="33.5607" filterUnits="userSpaceOnUse" color-interpolation-filters="sRGB">
<feFlood flood-opacity="0" result="BackgroundImageFix"/>
<feBlend mode="normal" in="SourceGraphic" in2="BackgroundImageFix" result="shape"/>
<feGaussianBlur stdDeviation="1.80332" result="effect1_foregroundBlur"/>
</filter>
<filter id="filter1_f" x="298.393" y="546.393" width="52.8832" height="33.5603" filterUnits="userSpaceOnUse" color-interpolation-filters="sRGB">
<feFlood flood-opacity="0" result="BackgroundImageFix"/>
<feBlend mode="normal" in="SourceGraphic" in2="BackgroundImageFix" result="shape"/>
<feGaussianBlur stdDeviation="1.80332" result="effect1_foregroundBlur"/>
</filter>
<filter id="filter2_f" x="140.928" y="482.315" width="52.8833" height="33.5603" filterUnits="userSpaceOnUse" color-interpolation-filters="sRGB">
<feFlood flood-opacity="0" result="BackgroundImageFix"/>
<feBlend mode="normal" in="SourceGraphic" in2="BackgroundImageFix" result="shape"/>
<feGaussianBlur stdDeviation="1.80332" result="effect1_foregroundBlur"/>
</filter>
<filter id="filter3_f" x="686.454" y="602.824" width="52.8833" height="33.5598" filterUnits="userSpaceOnUse" color-interpolation-filters="sRGB">
<feFlood flood-opacity="0" result="BackgroundImageFix"/>
<feBlend mode="normal" in="SourceGraphic" in2="BackgroundImageFix" result="shape"/>
<feGaussianBlur stdDeviation="1.80332" result="effect1_foregroundBlur"/>
</filter>
<filter id="filter4_f" x="832.882" y="377.444" width="52.8832" height="33.5603" filterUnits="userSpaceOnUse" color-interpolation-filters="sRGB">
<feFlood flood-opacity="0" result="BackgroundImageFix"/>
<feBlend mode="normal" in="SourceGraphic" in2="BackgroundImageFix" result="shape"/>
<feGaussianBlur stdDeviation="1.80332" result="effect1_foregroundBlur"/>
</filter>
<filter id="filter5_f" x="365.388" y="484.585" width="58.8943" height="39.5713" filterUnits="userSpaceOnUse" color-interpolation-filters="sRGB">
<feFlood flood-opacity="0" result="BackgroundImageFix"/>
<feBlend mode="normal" in="SourceGraphic" in2="BackgroundImageFix" result="shape"/>
<feGaussianBlur stdDeviation="3.30608" result="effect1_foregroundBlur"/>
</filter>
<filter id="filter6_f" x="40.0479" y="414.764" width="58.8943" height="39.5713" filterUnits="userSpaceOnUse" color-interpolation-filters="sRGB">
<feFlood flood-opacity="0" result="BackgroundImageFix"/>
<feBlend mode="normal" in="SourceGraphic" in2="BackgroundImageFix" result="shape"/>
<feGaussianBlur stdDeviation="3.30608" result="effect1_foregroundBlur"/>
</filter>
<filter id="filter7_f" x="85.7178" y="713.573" width="58.8943" height="39.5713" filterUnits="userSpaceOnUse" color-interpolation-filters="sRGB">
<feFlood flood-opacity="0" result="BackgroundImageFix"/>
<feBlend mode="normal" in="SourceGraphic" in2="BackgroundImageFix" result="shape"/>
<feGaussianBlur stdDeviation="3.30608" result="effect1_foregroundBlur"/>
</filter>
<filter id="filter8_f" x="544.723" y="723.22" width="52.8832" height="33.5603" filterUnits="userSpaceOnUse" color-interpolation-filters="sRGB">
<feFlood flood-opacity="0" result="BackgroundImageFix"/>
<feBlend mode="normal" in="SourceGraphic" in2="BackgroundImageFix" result="shape"/>
<feGaussianBlur stdDeviation="1.80332" result="effect1_foregroundBlur"/>
</filter>
<filter id="filter9_f" x="732.123" y="533.045" width="52.8833" height="33.5607" filterUnits="userSpaceOnUse" color-interpolation-filters="sRGB">
<feFlood flood-opacity="0" result="BackgroundImageFix"/>
<feBlend mode="normal" in="SourceGraphic" in2="BackgroundImageFix" result="shape"/>
<feGaussianBlur stdDeviation="1.80332" result="effect1_foregroundBlur"/>
</filter>
<filter id="filter10_f" x="1240.53" y="624.65" width="52.8833" height="33.5608" filterUnits="userSpaceOnUse" color-interpolation-filters="sRGB">
<feFlood flood-opacity="0" result="BackgroundImageFix"/>
<feBlend mode="normal" in="SourceGraphic" in2="BackgroundImageFix" result="shape"/>
<feGaussianBlur stdDeviation="1.80332" result="effect1_foregroundBlur"/>
</filter>
<linearGradient id="paint0_linear" x1="868" y1="748" x2="877.046" y2="11.9146" gradientUnits="userSpaceOnUse">
<stop stop-color="#F77FEB"/>
<stop offset="1" stop-color="white"/>
</linearGradient>
<linearGradient id="paint1_linear" x1="838.61" y1="1313.49" x2="827.915" y2="170.214" gradientUnits="userSpaceOnUse">
<stop offset="0.0304348" stop-color="#FFE608"/>
<stop offset="0.956522" stop-color="#FFE608"/>
</linearGradient>
<linearGradient id="paint2_linear" x1="692.242" y1="1204.68" x2="765.404" y2="561.202" gradientUnits="userSpaceOnUse">
<stop stop-color="#FFE608"/>
<stop offset="0.991304" stop-color="#FFF6A4"/>
</linearGradient>
<linearGradient id="paint3_linear" x1="1539.32" y1="386.606" x2="972.725" y2="467.46" gradientUnits="userSpaceOnUse">
<stop stop-color="#B8A600"/>
<stop offset="0.978261" stop-color="#E1D836"/>
</linearGradient>
<linearGradient id="paint4_linear" x1="1539.32" y1="369.606" x2="972.725" y2="450.46" gradientUnits="userSpaceOnUse">
<stop stop-color="#FFFAC4"/>
<stop offset="0.973913" stop-color="#FCF340"/>
</linearGradient>
<linearGradient id="paint5_linear" x1="1968.85" y1="660.462" x2="1402.25" y2="741.316" gradientUnits="userSpaceOnUse">
<stop stop-color="#E3DB3A"/>
<stop offset="0.973913" stop-color="#FFF9B1"/>
</linearGradient>
<linearGradient id="paint6_linear" x1="818.358" y1="463.739" x2="457.796" y2="515.192" gradientUnits="userSpaceOnUse">
<stop offset="0.026087" stop-color="#B8A600"/>
<stop offset="0.969565" stop-color="#D8CF2E"/>
</linearGradient>
<linearGradient id="paint7_linear" x1="505.5" y1="431" x2="713.725" y2="422.809" gradientUnits="userSpaceOnUse">
<stop stop-color="#D8CF2E"/>
<stop offset="0.965217" stop-color="#D8CA25"/>
</linearGradient>
<linearGradient id="paint8_linear" x1="818.358" y1="424.739" x2="457.796" y2="476.192" gradientUnits="userSpaceOnUse">
<stop stop-color="#FFF149"/>
<stop offset="0.973913" stop-color="#E0D626"/>
</linearGradient>
<linearGradient id="paint9_linear" x1="548.36" y1="761.251" x2="187.798" y2="812.704" gradientUnits="userSpaceOnUse">
<stop stop-color="#E3DB39"/>
<stop offset="0.973913" stop-color="#E7D21A"/>
</linearGradient>
<linearGradient id="paint10_linear" x1="162.407" y1="595.82" x2="-23.1853" y2="622.305" gradientUnits="userSpaceOnUse">
<stop stop-color="#D3C00D"/>
<stop offset="0.973913" stop-color="#E2D936"/>
</linearGradient>
<linearGradient id="paint11_linear" x1="361.512" y1="390.739" x2="256.144" y2="405.776" gradientUnits="userSpaceOnUse">
<stop stop-color="#E1D835"/>
<stop offset="0.973913" stop-color="#D3C00D"/>
</linearGradient>
<linearGradient id="paint12_linear" x1="555.184" y1="662.621" x2="449.816" y2="677.658" gradientUnits="userSpaceOnUse">
<stop stop-color="#E2D935"/>
<stop offset="0.973913" stop-color="#D3C00D"/>
</linearGradient>
<linearGradient id="paint13_linear" x1="901.321" y1="970.658" x2="795.953" y2="985.695" gradientUnits="userSpaceOnUse">
<stop stop-color="#D3C00D"/>
<stop offset="0.973913" stop-color="#E1D833"/>
</linearGradient>
<linearGradient id="paint14_linear" x1="1523.28" y1="828.016" x2="1417.92" y2="843.053" gradientUnits="userSpaceOnUse">
<stop stop-color="#E3DB3A"/>
<stop offset="0.973913" stop-color="#D9CB30"/>
</linearGradient>
<linearGradient id="paint15_linear" x1="1048.74" y1="1085.14" x2="1023.95" y2="449.531" gradientUnits="userSpaceOnUse">
<stop stop-color="#FFE608"/>
<stop offset="0.991304" stop-color="#FFE608"/>
</linearGradient>
<linearGradient id="paint16_linear" x1="280.961" y1="678.704" x2="251.209" y2="720.572" gradientUnits="userSpaceOnUse">
<stop offset="0.0173913" stop-color="#E6D420"/>
<stop offset="0.978261" stop-color="#E7D21A"/>
</linearGradient>
<clipPath id="clip0">
<rect width="1702.4" height="1280" fill="white"/>
</clipPath>
</defs>
</svg>
