<svg width="1703" height="1280" viewBox="0 0 1703 1280" fill="none" xmlns="http://www.w3.org/2000/svg">
<g clip-path="url(#clip0)">
<path d="M1701.4 0H-0.997986V1280H1701.4V0Z" fill="white"/>
<path d="M-3 718.37C224.646 475.17 534.426 375 826.5 375C1160.43 375 1470.5 470.277 1698 718.37V1272H-3V718.37Z" fill="url(#paint0_linear)" fill-opacity="0.5"/>
<path d="M-3 818.37C224.646 575.17 534.426 475 826.5 475C1160.43 475 1470.5 570.277 1698 818.37V1372H-3V818.37Z" fill="url(#paint1_linear)" fill-opacity="0.5"/>
<path d="M0 902.37C227.646 659.17 537.426 559 829.5 559C1163.43 559 1473.5 654.277 1701 902.37V1456H0V902.37Z" fill="url(#paint2_linear)"/>
<path fill-rule="evenodd" clip-rule="evenodd" d="M1057.76 539.469C1051.83 539.469 1047.02 534.659 1047.02 528.735C1047.02 522.81 1051.83 518 1057.76 518C1063.68 518 1068.49 522.81 1068.49 528.735C1068.49 534.659 1063.68 539.469 1057.76 539.469ZM1057.76 570.469C1051.83 570.469 1047.02 565.659 1047.02 559.735C1047.02 553.81 1051.83 549 1057.76 549C1063.68 549 1068.49 553.81 1068.49 559.735C1068.49 565.659 1063.68 570.469 1057.76 570.469ZM963.735 570.469C957.81 570.469 953 565.659 953 559.735C953 553.81 957.81 549 963.735 549C969.66 549 974.47 553.81 974.47 559.735C974.47 565.659 969.66 570.469 963.735 570.469ZM995.076 601.469C989.151 601.469 984.341 596.659 984.341 590.735C984.341 584.81 989.151 580 995.076 580C1001 580 1005.81 584.81 1005.81 590.735C1005.81 596.659 1001 601.469 995.076 601.469ZM995.076 539.469C989.151 539.469 984.341 534.659 984.341 528.735C984.341 522.81 989.151 518 995.076 518C1001 518 1005.81 522.81 1005.81 528.735C1005.81 534.659 1001 539.469 995.076 539.469ZM963.735 539.469C957.81 539.469 953 534.659 953 528.735C953 522.81 957.81 518 963.735 518C969.66 518 974.47 522.81 974.47 528.735C974.47 534.659 969.66 539.469 963.735 539.469ZM995.076 570.469C989.151 570.469 984.341 565.659 984.341 559.735C984.341 553.81 989.151 549 995.076 549C1001 549 1005.81 553.81 1005.81 559.735C1005.81 565.659 1001 570.469 995.076 570.469ZM963.735 601.469C957.81 601.469 953 596.659 953 590.735C953 584.81 957.81 580 963.735 580C969.66 580 974.47 584.81 974.47 590.735C974.47 596.659 969.66 601.469 963.735 601.469ZM1026.42 601.469C1020.49 601.469 1015.68 596.659 1015.68 590.735C1015.68 584.81 1020.49 580 1026.42 580C1032.34 580 1037.15 584.81 1037.15 590.735C1037.15 596.659 1032.34 601.469 1026.42 601.469ZM1026.42 539.469C1020.49 539.469 1015.68 534.659 1015.68 528.735C1015.68 522.81 1020.49 518 1026.42 518C1032.34 518 1037.15 522.81 1037.15 528.735C1037.15 534.659 1032.34 539.469 1026.42 539.469ZM1026.42 570.469C1020.49 570.469 1015.68 565.659 1015.68 559.735C1015.68 553.81 1020.49 549 1026.42 549C1032.34 549 1037.15 553.81 1037.15 559.735C1037.15 565.659 1032.34 570.469 1026.42 570.469ZM1057.76 601.469C1051.83 601.469 1047.02 596.659 1047.02 590.735C1047.02 584.81 1051.83 580 1057.76 580C1063.68 580 1068.49 584.81 1068.49 590.735C1068.49 596.659 1063.68 601.469 1057.76 601.469ZM963.735 508.469C957.81 508.469 953 503.659 953 497.735C953 491.81 957.81 487 963.735 487C969.66 487 974.47 491.81 974.47 497.735C974.47 503.659 969.66 508.469 963.735 508.469ZM963.735 446.469C957.81 446.469 953 441.659 953 435.735C953 429.81 957.81 425 963.735 425C969.66 425 974.47 429.81 974.47 435.735C974.47 441.659 969.66 446.469 963.735 446.469ZM963.735 477.469C957.81 477.469 953 472.659 953 466.735C953 460.81 957.81 456 963.735 456C969.66 456 974.47 460.81 974.47 466.735C974.47 472.659 969.66 477.469 963.735 477.469ZM995.076 508.469C989.151 508.469 984.341 503.659 984.341 497.735C984.341 491.81 989.151 487 995.076 487C1001 487 1005.81 491.81 1005.81 497.735C1005.81 503.659 1001 508.469 995.076 508.469ZM995.076 446.469C989.151 446.469 984.341 441.659 984.341 435.735C984.341 429.81 989.151 425 995.076 425C1001 425 1005.81 429.81 1005.81 435.735C1005.81 441.659 1001 446.469 995.076 446.469ZM995.076 477.469C989.151 477.469 984.341 472.659 984.341 466.735C984.341 460.81 989.151 456 995.076 456C1001 456 1005.81 460.81 1005.81 466.735C1005.81 472.659 1001 477.469 995.076 477.469ZM1026.42 508.469C1020.49 508.469 1015.68 503.659 1015.68 497.735C1015.68 491.81 1020.49 487 1026.42 487C1032.34 487 1037.15 491.81 1037.15 497.735C1037.15 503.659 1032.34 508.469 1026.42 508.469ZM1026.42 446.469C1020.49 446.469 1015.68 441.659 1015.68 435.735C1015.68 429.81 1020.49 425 1026.42 425C1032.34 425 1037.15 429.81 1037.15 435.735C1037.15 441.659 1032.34 446.469 1026.42 446.469ZM1026.42 477.469C1020.49 477.469 1015.68 472.659 1015.68 466.735C1015.68 460.81 1020.49 456 1026.42 456C1032.34 456 1037.15 460.81 1037.15 466.735C1037.15 472.659 1032.34 477.469 1026.42 477.469ZM1057.76 508.469C1051.83 508.469 1047.02 503.659 1047.02 497.735C1047.02 491.81 1051.83 487 1057.76 487C1063.68 487 1068.49 491.81 1068.49 497.735C1068.49 503.659 1063.68 508.469 1057.76 508.469ZM1057.76 446.469C1051.83 446.469 1047.02 441.659 1047.02 435.735C1047.02 429.81 1051.83 425 1057.76 425C1063.68 425 1068.49 429.81 1068.49 435.735C1068.49 441.659 1063.68 446.469 1057.76 446.469ZM1057.76 477.469C1051.83 477.469 1047.02 472.659 1047.02 466.735C1047.02 460.81 1051.83 456 1057.76 456C1063.68 456 1068.49 460.81 1068.49 466.735C1068.49 472.659 1063.68 477.469 1057.76 477.469Z" fill="#FFE609"/>
<rect x="709" y="414" width="257" height="416" rx="111" fill="#FFFDE7"/>
<ellipse cx="862.153" cy="581.757" rx="18.8685" ry="8.20369" transform="rotate(9.65678 862.153 581.757)" fill="#FFACA7" fill-opacity="0.8"/>
<ellipse cx="734.151" cy="750.479" rx="50.1462" ry="49.2052" transform="rotate(9.65678 734.151 750.479)" fill="#FFE608"/>
<ellipse cx="924.119" cy="780.666" rx="91.1952" ry="89.4838" transform="rotate(9.65678 924.119 780.666)" fill="#FFE608"/>
<ellipse cx="860.82" cy="553.08" rx="6.20152" ry="6.23468" transform="rotate(9.65678 860.82 553.08)" fill="#A3A4AF"/>
<ellipse cx="860.82" cy="553.08" rx="6.20152" ry="6.23468" transform="rotate(9.65678 860.82 553.08)" fill="#A3A4AF"/>
<ellipse cx="860.82" cy="553.08" rx="6.20152" ry="6.23468" transform="rotate(9.65678 860.82 553.08)" fill="#A3A4AF"/>
<ellipse cx="860.82" cy="553.08" rx="6.20152" ry="6.23468" transform="rotate(9.65678 860.82 553.08)" fill="#A3A4AF"/>
<ellipse cx="791.525" cy="537.768" rx="5.73105" ry="5.7617" transform="rotate(9.65678 791.525 537.768)" fill="#A3A4AF"/>
<ellipse cx="791.525" cy="537.768" rx="5.73105" ry="5.7617" transform="rotate(9.65678 791.525 537.768)" fill="#A3A4AF"/>
<ellipse cx="791.525" cy="537.768" rx="5.73105" ry="5.7617" transform="rotate(9.65678 791.525 537.768)" fill="#A3A4AF"/>
<ellipse cx="791.525" cy="537.768" rx="5.73105" ry="5.7617" transform="rotate(9.65678 791.525 537.768)" fill="#A3A4AF"/>
<ellipse cx="800.024" cy="584.946" rx="10.2665" ry="4.12536" transform="rotate(16.9985 800.024 584.946)" fill="#FFACA7" fill-opacity="0.4"/>
<ellipse cx="795.843" cy="624.535" rx="20.4339" ry="4.72926" transform="rotate(15.8919 795.843 624.535)" fill="#FFACA7" fill-opacity="0.4"/>
<ellipse cx="787.608" cy="667.395" rx="12.2301" ry="3.43283" transform="rotate(15.8919 787.608 667.395)" fill="#FFACA7" fill-opacity="0.4"/>
<ellipse cx="938.347" cy="576.477" rx="8.90662" ry="2.75382" transform="rotate(100.214 938.347 576.477)" fill="#FFACA7" fill-opacity="0.4"/>
<ellipse cx="767.811" cy="560.694" rx="14.744" ry="6.41042" transform="rotate(14.4133 767.811 560.694)" fill="#FFACA7" fill-opacity="0.8"/>
<path d="M800.123 520.615C800.452 518.781 800.664 514.377 798.881 511.443" stroke="black"/>
<path d="M796.841 517.329C797.17 515.773 797.382 512.037 795.599 509.548" stroke="black"/>
<path d="M793.56 515.937C793.889 514.381 794.101 510.646 792.318 508.156" stroke="black"/>
<path d="M790.278 515.688C790.607 514.132 790.819 510.397 789.037 507.908" stroke="black"/>
<path d="M786.997 514.296C787.326 512.74 787.538 509.005 785.755 506.516" stroke="black"/>
<path d="M783.715 512.407C784.044 511.407 784.256 509.008 782.474 507.41" stroke="black"/>
<path d="M780.434 511.513C780.763 510.513 780.975 508.114 779.192 506.516" stroke="black"/>
<path d="M777.152 512.407C777.481 511.407 777.693 509.008 775.911 507.41" stroke="black"/>
<path d="M773.871 511.513C774.2 510.513 774.412 508.114 772.629 506.516" stroke="black"/>
<path d="M841.319 527.295C841.494 525.637 842.633 521.911 845.781 520.277" stroke="black"/>
<path d="M846.442 526.311C846.528 524.882 847.454 521.708 850.461 520.441" stroke="black"/>
<path d="M850.961 526.61C851.048 525.181 851.974 522.007 854.981 520.74" stroke="black"/>
<path d="M855.117 527.852C855.204 526.423 856.13 523.249 859.137 521.981" stroke="black"/>
<path d="M859.637 528.15C859.724 526.721 860.65 523.547 863.656 522.28" stroke="black"/>
<path d="M863.788 529.265C863.696 527.97 864.495 525.217 868.428 524.564" stroke="black"/>
<path d="M868.71 530.905C868.62 529.936 869.12 527.863 871.844 527.331" stroke="black"/>
<path d="M871.992 532.546C871.901 531.577 872.402 529.504 875.125 528.972" stroke="black"/>
<path d="M875.273 534.187C875.183 533.217 875.683 531.145 878.406 530.612" stroke="black"/>
<path d="M770.589 510.766C770.918 510.045 771.13 508.314 769.348 507.161" stroke="black"/>
<path d="M848.739 613.164C849.833 614.258 851.528 617.102 849.559 619.727C847.59 622.352 843.816 624.649 842.176 625.469" stroke="black"/>
<path d="M822.219 576.263C820.916 575.959 818.257 574.625 818.05 571.729C817.844 568.832 818.968 565.33 819.556 563.942" stroke="black"/>
<path d="M899.601 669.769C904.524 674.692 913.876 686.997 911.907 696.841C909.446 709.147 887.296 734.578 867.607 746.884C851.856 756.728 826.589 768.487 815.924 773.136L792.133 777.238L774.905 773.136V765.753C768.342 762.744 755.873 753.283 758.498 739.501C761.123 725.718 772.718 699.849 778.187 688.638" stroke="black"/>
<path d="M916.829 700.943C923.939 704.225 940.456 712.264 949.644 718.171C961.129 725.554 961.95 731.297 969.333 732.117C976.716 732.938 984.92 730.477 990.663 734.579C996.405 738.68 999.687 749.345 1005.43 749.345C1010.02 749.345 1022.11 754.267 1027.58 756.728" stroke="black"/>
<path d="M768.342 701.764C763.42 703.131 752.263 706.522 747.013 709.147C740.45 712.428 726.504 714.89 719.941 716.53C713.378 718.171 690.407 731.297 687.946 734.578C685.977 737.204 677.828 745.517 674 749.345" stroke="black"/>
<path d="M788.852 780.519C787.484 784.347 784.422 794.137 783.109 802.669C781.796 811.201 782.562 816.068 783.109 817.436" stroke="black"/>
<path d="M830.691 583.63L835.613 593.475" stroke="black"/>
<path d="M771.06 582.383L779.589 575.427" stroke="black"/>
<path d="M952.105 559.84C952.926 565.035 953.582 576.903 949.644 582.81C944.722 590.193 940.62 600.038 937.339 606.601C934.057 613.164 933.237 618.906 925.853 618.086C919.947 617.43 916.829 617.813 916.009 618.086C911.634 624.375 902.063 640.072 898.781 652.541C895.5 665.011 892.492 675.785 891.398 679.614L843.816 723.093C836.16 728.289 819.862 741.141 815.924 750.986C811.986 760.83 811.002 768.214 811.002 770.675L790.492 774.777L778.187 770.675C783.656 766.846 793.774 756.564 790.492 746.064C786.391 732.938 780.648 723.914 782.289 709.147C783.601 697.334 782.836 689.458 782.289 686.997V673.051M741.27 516.36L744.552 518.001C743.184 523.47 741.598 536.541 746.193 545.073C751.935 555.738 758.498 563.942 769.983 564.762C781.468 565.582 788.852 567.223 793.774 559.84C797.712 553.933 803.071 546.44 805.259 543.432C805.806 542.339 807.72 540.315 811.002 540.971C814.283 541.628 815.65 545.073 815.924 546.714C816.744 553.55 819.369 568.208 823.307 572.145C828.229 577.068 838.074 589.373 857.763 586.092C877.452 582.81 881.553 571.325 883.194 567.223C884.835 563.121 884.835 556.558 889.757 554.918C893.695 553.605 912.181 553.277 920.931 553.277V546.714H891.398C885.655 542.612 870.396 533.916 855.302 531.947C836.433 529.486 822.487 532.768 819.205 534.408C815.924 536.049 806.9 534.408 804.439 531.127C801.978 527.845 787.211 517.181 779.828 513.899C772.444 510.618 761.78 508.977 756.037 508.977C751.443 508.977 744.825 508.43 742.091 508.156L741.27 516.36ZM820.026 541.792C820.846 539.331 824.292 534.408 831.511 534.408C840.535 534.408 866.787 533.588 878.272 543.432C887.46 551.308 881.007 566.95 876.631 573.786C872.256 578.161 860.552 586.092 848.739 582.81C833.972 578.708 824.948 570.505 823.307 559.84C821.995 551.308 820.573 544.253 820.026 541.792ZM748.654 518.001C750.294 515.54 755.217 510.946 761.78 512.258C769.983 513.899 783.929 517.181 790.492 522.923C797.055 528.666 806.079 536.869 801.157 545.073C796.235 553.277 788.031 564.762 778.187 563.121C768.342 561.48 754.164 557.379 748.654 543.432C744.245 532.275 746.817 521.829 748.654 518.001Z" stroke="black"/>
<path d="M841.355 607.421C842.449 609.062 844.309 612.836 842.996 614.804" stroke="black"/>
<path d="M843.816 517.181C841.902 520.189 837.91 526.533 837.254 527.845L843.816 526.205C845.184 526.205 849.723 526.533 856.942 527.845C864.162 529.158 883.468 536.049 892.218 539.331C887.296 534.955 875.647 525.384 868.428 522.103C861.208 518.821 849.012 517.454 843.816 517.181Z" stroke="black"/>
<path d="M804.439 513.079C804.439 514.72 805.259 522.103 804.439 522.923C801.157 520.462 792.625 515.048 784.75 513.079C776.874 511.11 768.342 510.618 765.061 510.618L765.881 508.157C766.975 506.516 769.819 503.234 772.444 503.234C775.726 503.234 781.468 503.234 789.672 504.875C797.876 506.516 804.439 511.438 804.439 513.079Z" stroke="black"/>
<path d="M764.241 517.181C762.6 521.829 758.006 533.424 752.755 542.612C746.192 554.097 748.654 577.888 748.654 591.014C748.654 601.515 754.123 624.923 756.857 635.314C759.318 646.526 770.147 669.605 793.774 672.23C817.401 674.856 845.731 668.949 856.942 665.668C856.942 665.668 870.896 661.879 878.272 656.643C888.722 649.226 897.961 630.392 897.961 630.392" stroke="black"/>
<path d="M767.522 500.773C768.342 493.39 773.757 475.67 788.852 463.857C807.72 449.09 828.229 441.707 840.535 447.449C852.84 453.192 868.427 447.449 881.553 451.551C892.054 454.832 911.634 461.122 920.111 463.857C923.939 461.669 930.119 454.504 924.213 443.347C916.829 429.401 905.344 405.61 881.553 399.868C857.763 394.125 844.637 389.203 819.205 411.353C793.774 433.503 765.061 453.192 760.959 463.857C756.857 474.521 756.037 482.725 756.857 491.749" stroke="black"/>
<path d="M788.031 451.551C800.337 437.058 829.706 408.399 848.739 409.712C872.529 411.353 901.242 430.221 904.524 439.245C907.149 446.465 908.899 455.926 909.446 459.755L902.063 457.294C901.789 454.012 899.273 445.808 891.398 439.245C881.553 431.042 862.685 422.838 850.379 424.479C840.535 425.791 826.042 432.136 820.026 435.144C827.683 432.956 845.457 429.401 855.302 432.682C865.146 435.964 873.076 440.066 875.811 441.707L881.553 448.269L884.015 451.551C878.819 449.363 865.966 444.496 856.122 442.527C843.816 440.066 820.846 439.245 812.642 442.527C804.439 445.808 776.546 463.036 772.444 470.419C768.342 477.803 762.6 494.21 762.6 501.593C762.6 507.5 762.6 506.789 762.6 505.695" stroke="black"/>
<path d="M936.518 458.114C947.457 460.849 970.482 471.732 975.076 493.39C979.67 515.048 963.864 553.824 955.387 570.505C956.207 565.035 956.043 554.589 948.824 556.558C939.8 559.019 939.8 558.199 936.518 576.247C933.237 594.295 923.392 606.601 920.931 608.242C918.47 609.882 927.494 586.912 924.213 563.121C920.931 539.331 912.728 520.462 916.829 502.414C920.111 487.975 923.119 472.881 924.213 467.138C929.408 475.615 939.964 496.343 940.62 511.438C941.276 526.533 938.159 541.245 936.518 546.714" stroke="black"/>
<path d="M792.133 562.301C789.672 564.762 782.781 569.356 781.468 571.325C779.828 573.786 777.366 580.349 781.468 582.81" stroke="black"/>
<path d="M827.043 581.99C827.526 584.315 827.912 589.49 825.594 591.583C823.276 593.676 819.316 593.618 817.626 593.327C818.109 591.292 817.916 587.223 813.28 587.223C808.644 587.223 806.036 592.455 799.516 588.967" stroke="black"/>
<path d="M784.75 580.349C785.297 579.802 787.047 579.365 789.672 581.99C792.954 585.271 793.774 587.732 797.055 587.732" stroke="black"/>
<path d="M838.074 548.354C839.715 548.354 846.278 543.432 859.403 546.714C869.904 549.339 874.99 555.464 876.631 557.378C873.076 558.199 863.998 559.347 856.122 557.378C848.246 555.409 844.637 553.277 843.816 552.456" stroke="black"/>
<path d="M770.804 531.947C775.452 531.4 786.062 530.635 791.313 531.947C796.563 533.26 801.157 537.963 802.798 540.151C801.431 541.792 796.399 544.581 787.211 542.612C778.023 540.643 774.085 536.323 773.265 534.408" stroke="black"/>
<path d="M769.983 599.218C771.624 606.601 776.71 604.304 780.648 604.96C785.57 605.78 791.313 610.703 796.235 611.523C801.157 612.343 808.541 611.523 811.822 613.984C815.104 616.445 826.589 621.368 830.691 621.368C833.972 621.368 837.254 623.008 840.535 618.086" stroke="black"/>
<path d="M774.906 609.062C774.359 612.89 774.577 621.203 779.828 623.829C786.391 627.11 795.415 631.212 803.618 632.032C810.181 632.689 823.854 627.931 829.87 625.469" stroke="black"/>
<path d="M790.492 612.343V617.265L798.696 618.906V612.343" stroke="black"/>
<path d="M799.516 612.343V619.727L807.72 621.367V617.265" stroke="black"/>
<path d="M809.361 616.445V620.137L815.924 621.368V618.291" stroke="black"/>
<path d="M783.109 609.882V613.574L789.672 614.805V611.728" stroke="black"/>
<path d="M784.75 532.768C784.476 533.041 783.93 534.244 783.93 536.869C783.93 539.495 785.57 541.245 786.391 541.792" stroke="black"/>
<path d="M791.313 534.408C791.86 534.682 793.118 535.393 793.774 536.049C794.43 536.705 794.594 538.51 794.594 539.33" stroke="black"/>
<path d="M860.224 549.175C860.771 549.448 862.029 550.159 862.685 550.816C863.341 551.472 863.505 553.277 863.505 554.097" stroke="black"/>
<path d="M796.782 534.408C797.147 534.657 797.876 535.751 797.876 538.137C797.876 540.524 795.688 542.115 794.594 542.612" stroke="black"/>
<path d="M853.114 545.894C852.749 546.242 852.02 547.773 852.02 551.114C852.02 554.455 854.208 556.683 855.302 557.379" stroke="black"/>
<path d="M866.937 551.475C867.148 551.823 867.36 553.089 866.52 555.37C865.679 557.652 863.328 558.513 862.257 558.658" stroke="black"/>
<path d="M931.596 463.856C932.416 463.856 947.183 483.545 949.644 496.671C952.105 509.797 954.566 525.384 952.105 536.049C950.136 544.581 948.55 553.277 948.003 556.558C948.277 555.738 949.48 554.589 952.105 556.558C955.387 559.019 959.489 547.534 960.309 540.151C961.129 532.767 968.513 508.156 964.411 496.671C961.129 487.483 948.824 473.154 943.081 467.138" stroke="black"/>
<path d="M905.344 636.134C908.352 635.587 914.86 633.673 916.829 630.391C918.798 627.11 922.025 620.821 923.392 618.086H918.47L913.548 627.93" stroke="black"/>
<rect x="1053.5" y="577.5" width="144" height="92" rx="13.5" stroke="#FFE608" stroke-width="3"/>
<rect x="575.5" y="468.5" width="144" height="113" rx="12.5" stroke="#FFE608" stroke-width="3"/>
<rect x="585.5" y="478.5" width="124" height="10" rx="5" stroke="#FFE608" stroke-width="3"/>
<rect x="575.5" y="599.5" width="61" height="113" rx="12.5" stroke="#FFE608" stroke-width="3"/>
<rect x="584.5" y="695.5" width="43" height="10" rx="5" stroke="#FFE608" stroke-width="3"/>
<rect x="584.5" y="668.5" width="11" height="10" rx="1.5" stroke="#FFE608" stroke-width="3"/>
<rect x="599.5" y="668.5" width="12" height="10" rx="1.5" stroke="#FFE608" stroke-width="3"/>
<rect x="615.5" y="668.5" width="11" height="10" rx="1.5" stroke="#FFE608" stroke-width="3"/>
<rect x="584.5" y="649.5" width="11" height="10" rx="1.5" stroke="#FFE608" stroke-width="3"/>
<rect x="599.5" y="649.5" width="12" height="10" rx="1.5" stroke="#FFE608" stroke-width="3"/>
<rect x="615.5" y="649.5" width="11" height="10" rx="1.5" stroke="#FFE608" stroke-width="3"/>
<rect x="584.5" y="631.5" width="11" height="10" rx="1.5" stroke="#FFE608" stroke-width="3"/>
<rect x="599.5" y="631.5" width="12" height="10" rx="1.5" stroke="#FFE608" stroke-width="3"/>
<rect x="615.5" y="631.5" width="11" height="10" rx="1.5" stroke="#FFE608" stroke-width="3"/>
<rect x="660.5" y="510.5" width="49" height="10" rx="5" stroke="#FFE608" stroke-width="3"/>
<rect x="660.5" y="529.5" width="49" height="10" rx="5" stroke="#FFE608" stroke-width="3"/>
<rect x="660.5" y="548.5" width="49" height="10" rx="5" stroke="#FFE608" stroke-width="3"/>
<rect x="585.5" y="510.5" width="63" height="48" rx="12.5" stroke="#FFE608" stroke-width="3"/>
<rect x="1127.5" y="489.5" width="144" height="48" rx="13.5" stroke="#FFE608" stroke-width="3"/>
<rect x="1303.5" y="489.5" width="144" height="48" rx="13.5" stroke="#FFE608" stroke-width="3"/>
<rect x="1127.5" y="695.5" width="144" height="48" rx="13.5" stroke="#FFE608" stroke-width="3"/>
<rect x="1303.5" y="695.5" width="144" height="48" rx="13.5" stroke="#FFE608" stroke-width="3"/>
<rect x="1240.5" y="597.5" width="144" height="48" rx="13.5" stroke="#FFE608" stroke-width="3"/>
<path d="M1085 670V720H1126" stroke="#FFE608" stroke-width="3"/>
<path d="M1087 578V513H1128" stroke="#FFE608" stroke-width="3"/>
<path d="M1198 624H1239" stroke="#FFE608" stroke-width="3"/>
<path d="M1272 514H1302" stroke="#FFE608" stroke-width="3"/>
<path d="M1273 720H1303" stroke="#FFE608" stroke-width="3"/>
<path d="M388.621 449.5C397.97 449.5 405.561 457.091 405.561 466.441V657.903C405.561 667.253 397.97 674.844 388.621 674.844C379.273 674.844 371.681 667.253 371.681 657.903V466.441C371.681 457.091 379.273 449.5 388.621 449.5Z" stroke="#FFE608" stroke-width="3"/>
<path d="M517.689 513.983C528.734 513.945 537.314 506.138 537.283 496.976C537.251 487.813 528.618 480.065 517.573 480.103L259.448 480.983C259.448 480.983 259.448 480.983 259.448 480.983C248.403 481.021 239.824 488.828 239.854 497.99L517.689 513.983ZM517.689 513.983L259.564 514.863M517.689 513.983L259.564 514.863M259.564 514.863C248.519 514.901 239.886 507.152 239.854 497.991L259.564 514.863Z" stroke="#FFE608" stroke-width="3"/>
<path d="M321.069 571.604L321.069 571.604C321.101 580.952 328.718 588.518 338.067 588.486C338.067 588.486 338.067 588.486 338.067 588.486L440.566 588.137C449.916 588.104 457.481 580.487 457.45 571.139C457.417 561.79 449.8 554.224 440.452 554.256L440.452 554.256M321.069 571.604L338.072 589.986C327.894 590.021 319.603 581.786 319.569 571.609C319.534 561.432 327.768 553.141 337.946 553.105L440.447 552.756L440.452 554.256M321.069 571.604C321.037 562.255 328.602 554.638 337.951 554.605C337.951 554.605 337.951 554.605 337.951 554.605L440.452 554.256M321.069 571.604L440.452 554.256" stroke="#FFE608" stroke-width="3"/>
<path d="M398.086 631.001L398.086 631.001C390.374 625.716 379.821 627.688 374.536 635.399L310.462 728.906L309.224 728.058L310.462 728.906C305.177 736.618 307.148 747.171 314.86 752.455L314.86 752.455C322.571 757.74 333.124 755.769 338.41 748.057L398.086 631.001ZM398.086 631.001C405.798 636.285 407.769 646.838 402.485 654.551C402.485 654.551 402.485 654.551 402.485 654.551L338.41 748.057L398.086 631.001Z" stroke="#FFE608" stroke-width="3"/>
<path d="M310.536 748.804L310.536 748.804C315.967 756.521 326.641 758.376 334.357 752.944C342.072 747.511 343.926 736.835 338.495 729.118L268.575 629.777C268.575 629.777 268.575 629.777 268.575 629.777C263.143 622.061 252.469 620.207 244.753 625.639L310.536 748.804ZM310.536 748.804L240.615 649.464M310.536 748.804L240.615 649.464M240.615 649.464C240.615 649.464 240.615 649.464 240.615 649.464C235.184 641.748 237.038 631.072 244.753 625.639L240.615 649.464Z" stroke="#FFE608" stroke-width="3"/>
<path d="M531.715 636.082L531.716 636.082C539.428 641.366 541.398 651.92 536.114 659.631L472.039 753.138C466.754 760.849 456.201 762.82 448.49 757.535L448.49 757.535C440.777 752.251 438.806 741.698 444.091 733.986L442.854 733.138L444.091 733.986L508.165 640.48C513.45 632.768 524.003 630.797 531.715 636.082Z" stroke="#FFE608" stroke-width="3"/>
<path d="M444.108 753.215L444.109 753.215C449.49 760.86 460.066 762.698 467.712 757.316C475.356 751.934 477.193 741.357 471.812 733.713L402.479 635.224C397.097 627.578 386.52 625.741 378.875 631.122L444.108 753.215ZM444.108 753.215L374.774 654.726M444.108 753.215L374.774 654.726M374.774 654.726C374.774 654.726 374.774 654.726 374.774 654.726C369.393 647.082 371.23 636.505 378.874 631.122L374.774 654.726Z" stroke="#FFE608" stroke-width="3"/>
</g>
<defs>
<linearGradient id="paint0_linear" x1="848" y1="908.5" x2="840.748" y2="436.162" gradientUnits="userSpaceOnUse">
<stop offset="0.026087" stop-color="white"/>
<stop offset="1" stop-color="#FFF6A5"/>
</linearGradient>
<linearGradient id="paint1_linear" x1="848" y1="1008.5" x2="840.748" y2="536.162" gradientUnits="userSpaceOnUse">
<stop offset="0.026087" stop-color="white"/>
<stop offset="1" stop-color="#FFF6A5"/>
</linearGradient>
<linearGradient id="paint2_linear" x1="851" y1="1092.5" x2="843.748" y2="620.162" gradientUnits="userSpaceOnUse">
<stop offset="0.026087" stop-color="white"/>
<stop offset="0.986957" stop-color="#FFF06B"/>
</linearGradient>
<clipPath id="clip0">
<rect width="1702.4" height="1280" fill="white"/>
</clipPath>
</defs>
</svg>
