<?xml version="1.0" standalone="no"?><!-- Generator: Gravit.io --><svg xmlns="http://www.w3.org/2000/svg" xmlns:xlink="http://www.w3.org/1999/xlink" style="isolation:isolate" viewBox="0 0 1702.4 1280" width="1702.4" height="1280"><defs><clipPath id="_clipPath_gFfHclBeBVv2tUbxp6fqCkh7erlt3LkI"><rect width="1702.4" height="1280"/></clipPath></defs><g clip-path="url(#_clipPath_gFfHclBeBVv2tUbxp6fqCkh7erlt3LkI)"><linearGradient id="_lgradient_97" x1="0.5083798371020607" y1="0.05717905405405399" x2="0.5242027558855059" y2="0.5007319819819818" gradientTransform="matrix(1702.4,0,0,1280,0,5.875)" gradientUnits="userSpaceOnUse"><stop offset="1.7391304347826086%" stop-opacity="1" style="stop-color:rgb(56,59,249)"/><stop offset="99.1304347826087%" stop-opacity="1" style="stop-color:rgb(56,59,249)"/></linearGradient><rect x="0" y="5.875" width="1702.4" height="1280" transform="matrix(1,0,0,1,0,0)" fill="url(#_lgradient_97)"/><path d=" M 1001.437 665.38 Q 1007.78 686.555 1000.92 695.341 Q 995.56 702.207 990.36 708.641 L 990.36 708.641 L 990.36 708.641 C 986.589 709.513 983.093 711.667 980.589 715.001 C 974.938 722.52 976.456 733.212 983.975 738.862 C 991.494 744.512 1002.186 742.995 1007.836 735.476 C 1011.81 730.187 1012.238 723.328 1009.526 717.758 Q 1010.916 708.819 1016.268 699.944 Q 1023.368 688.17 1037.064 680.689 C 1043.421 678.931 1049.268 675.137 1053.534 669.461 C 1054.726 667.874 1055.743 666.209 1056.565 664.484 C 1063.995 651.856 1062.041 639.202 1050.626 628.928 C 1059.47 637.708 1062.078 650.928 1057.562 662.292 Q 1068.613 645.339 1079.028 645.369 Q 1086.769 645.392 1095.523 648.742 L 1095.523 648.742 L 1095.523 648.742 L 1095.523 648.742 L 1095.523 648.742 C 1101.037 654.325 1109.204 657.056 1117.434 655.269 C 1130.218 652.494 1138.345 639.862 1135.57 627.078 C 1132.795 614.293 1120.163 606.167 1107.378 608.942 C 1099.183 610.721 1092.902 616.55 1090.179 623.873 Q 1082.412 629.343 1073.255 630.423 Q 1059.071 632.095 1044.47 624.171 C 1038.522 620.667 1031.765 619.365 1025.254 620.114 Q 1003.434 620.111 997.349 610.292 Q 991.603 601.021 991.123 585.131 L 991.123 585.131 L 991.123 585.131 L 991.123 585.131 L 991.123 585.131 C 992.612 574.22 988.307 562.842 978.885 555.762 C 965.038 545.357 945.348 548.151 934.943 561.998 C 924.537 575.845 927.331 595.535 941.179 605.941 C 947.752 610.881 955.642 612.846 963.231 612.066 Q 979.31 612.592 987.723 623.101 Q 995.792 633.18 998.021 647.395 C 997.333 653.57 998.513 659.859 1001.437 665.38 Z  M 1013.305 677.652 C 1016.099 679.453 1019.173 680.638 1022.549 681.194 C 1019.356 680.538 1016.231 679.371 1013.305 677.652 Z  M 998.994 642.461 C 1001.008 629.619 1008.594 622.215 1022.935 620.459 C 1015.65 621.868 1008.84 625.873 1004.035 632.266 C 1001.667 635.418 999.992 638.877 998.994 642.461 Z " fill-rule="evenodd" fill="none" vector-effect="non-scaling-stroke" stroke-width="3" stroke="rgb(88,91,255)" stroke-linejoin="round" stroke-linecap="round" stroke-miterlimit="3"/><path d=" M 91.472 480.081 Q 98.922 484.514 99.271 488.872 Q 99.545 492.277 99.75 495.514 L 99.75 495.514 L 99.75 495.514 C 98.892 496.767 98.454 498.316 98.615 499.943 C 98.978 503.614 102.252 506.299 105.923 505.937 C 109.593 505.574 112.279 502.299 111.916 498.629 C 111.661 496.047 109.965 493.952 107.704 493.063 Q 105.734 490.112 104.925 486.129 Q 103.852 480.845 105.823 475.051 C 107.193 472.857 107.875 470.21 107.601 467.439 C 107.525 466.665 107.377 465.914 107.156 465.197 C 105.952 459.58 102.031 456.443 96.008 456.504 C 100.892 456.694 105.152 459.82 106.863 464.3 Q 105.557 456.472 108.573 453.718 Q 110.815 451.671 114.232 450.316 L 114.232 450.316 L 114.232 450.316 L 114.232 450.316 L 114.232 450.316 C 117.306 450.465 120.389 449.088 122.292 446.389 C 125.248 442.195 124.244 436.391 120.051 433.435 C 115.858 430.479 110.053 431.483 107.097 435.676 C 105.202 438.364 104.935 441.714 106.091 444.551 Q 105.299 448.191 102.941 450.932 Q 99.288 455.178 92.968 456.763 C 90.321 457.329 88.024 458.746 86.342 460.689 Q 80.04 466.477 75.677 465.256 Q 71.558 464.102 67.204 459.64 L 67.204 459.64 L 67.204 459.64 L 67.204 459.64 L 67.204 459.64 C 64.739 456.094 60.478 453.95 55.879 454.405 C 49.119 455.073 44.173 461.103 44.841 467.863 C 45.51 474.623 51.54 479.568 58.3 478.9 C 61.509 478.583 64.309 477.057 66.294 474.819 Q 71.078 470.705 76.295 471.509 Q 81.3 472.279 85.715 475.793 C 87.154 477.759 89.163 479.262 91.472 480.081 Z  M 98.156 480.477 C 99.44 480.256 100.642 479.783 101.765 479.048 C 100.669 479.705 99.456 480.197 98.156 480.477 Z  M 84.687 474.11 C 81.861 469.867 82.088 465.716 85.764 461.404 C 84.034 463.744 83.129 466.707 83.438 469.828 C 83.59 471.367 84.024 472.81 84.687 474.11 Z " fill-rule="evenodd" fill="none" vector-effect="non-scaling-stroke" stroke-width="3" stroke="rgb(88,91,255)" stroke-linejoin="round" stroke-linecap="round" stroke-miterlimit="3"/><path d=" M 276.268 581.915 Q 288.344 584.222 290.918 589.862 Q 292.929 594.269 294.769 598.487 L 294.769 598.487 L 294.769 598.487 C 294.232 600.571 294.397 602.849 295.398 604.941 C 297.658 609.659 303.323 611.656 308.041 609.396 C 312.759 607.137 314.756 601.472 312.496 596.754 C 310.907 593.435 307.633 591.463 304.188 591.371 Q 300.134 588.39 297.129 583.471 Q 293.143 576.945 292.968 568.267 C 293.733 564.678 293.362 560.82 291.657 557.258 C 291.18 556.262 290.619 555.333 289.979 554.484 C 285.656 547.577 278.911 545.291 270.911 548.286 C 277.514 546.177 284.706 548.284 289.154 553.43 Q 283.626 543.625 286.315 538.493 Q 288.313 534.68 292.214 531.221 L 292.214 531.221 L 292.214 531.221 L 292.214 531.221 L 292.214 531.221 C 296.384 529.933 299.828 526.605 301.06 522.086 C 302.973 515.065 298.826 507.813 291.806 505.9 C 284.786 503.987 277.533 508.133 275.62 515.153 C 274.393 519.653 275.657 524.249 278.571 527.472 Q 279.276 532.709 277.458 537.505 Q 274.641 544.933 266.983 550.102 C 263.727 552.138 261.35 555.137 260.048 558.542 Q 254.444 569.307 248.038 569.789 Q 241.988 570.244 234.025 566.401 L 234.025 566.401 L 234.025 566.401 L 234.025 566.401 L 234.025 566.401 C 229.023 562.865 222.304 562.068 216.392 564.899 C 207.703 569.06 204.026 579.493 208.187 588.182 C 212.348 596.871 222.781 600.547 231.47 596.387 C 235.595 594.411 238.59 591.023 240.153 587.078 Q 244.541 579.28 251.887 577.827 Q 258.931 576.433 266.517 578.983 C 269.387 580.908 272.793 581.94 276.268 581.915 Z  M 285.37 579.21 C 286.976 578.293 288.35 577.081 289.491 575.558 C 288.347 576.965 286.969 578.208 285.37 579.21 Z  M 264.332 577.236 C 258.513 572.946 256.808 567.302 259.623 559.775 C 258.448 563.731 258.675 568.119 260.596 572.131 C 261.543 574.109 262.82 575.824 264.332 577.236 Z " fill-rule="evenodd" fill="none" vector-effect="non-scaling-stroke" stroke-width="3" stroke="rgb(88,91,255)" stroke-linejoin="round" stroke-linecap="round" stroke-miterlimit="3"/><path d=" M 1259.661 541.257 Q 1259.885 528.964 1265.006 525.471 Q 1269.009 522.74 1272.852 520.212 L 1272.852 520.212 L 1272.852 520.212 C 1274.998 520.387 1277.215 519.838 1279.106 518.496 C 1283.373 515.469 1284.379 509.547 1281.351 505.281 C 1278.324 501.014 1272.402 500.008 1268.136 503.036 C 1265.135 505.165 1263.747 508.727 1264.241 512.137 Q 1261.992 516.638 1257.654 520.434 Q 1251.899 525.47 1243.377 527.115 C 1239.71 526.971 1235.971 527.991 1232.75 530.276 C 1231.85 530.915 1231.029 531.625 1230.301 532.4 C 1224.228 537.833 1223.12 544.868 1227.429 552.244 C 1224.23 546.095 1225.086 538.649 1229.402 533.393 Q 1220.678 540.504 1215.164 538.725 Q 1211.067 537.403 1206.996 534.147 L 1206.996 534.147 L 1206.996 534.147 L 1206.996 534.147 L 1206.996 534.147 C 1205.019 530.255 1201.155 527.426 1196.492 526.979 C 1189.249 526.285 1182.805 531.603 1182.111 538.846 C 1181.418 546.089 1186.735 552.533 1193.978 553.227 C 1198.621 553.671 1202.935 551.646 1205.618 548.227 Q 1210.659 546.643 1215.693 547.622 Q 1223.491 549.137 1229.886 555.807 C 1232.444 558.669 1235.804 560.503 1239.38 561.209 Q 1250.94 564.904 1252.502 571.136 Q 1253.977 577.021 1251.542 585.52 L 1251.542 585.52 L 1251.542 585.52 L 1251.542 585.52 L 1251.542 585.52 C 1248.906 591.05 1249.261 597.806 1253.054 603.152 C 1258.63 611.009 1269.535 612.862 1277.392 607.286 C 1285.249 601.711 1287.101 590.806 1281.526 582.949 C 1278.879 579.219 1275.031 576.842 1270.879 575.971 Q 1262.449 572.97 1259.77 565.978 Q 1257.201 559.273 1258.426 551.364 C 1259.836 548.209 1260.275 544.677 1259.661 541.257 Z  M 1255.45 532.746 C 1254.275 531.319 1252.847 530.171 1251.152 529.305 C 1252.733 530.193 1254.191 531.34 1255.45 532.746 Z  M 1257.076 553.813 C 1253.835 560.276 1248.563 562.915 1240.667 561.418 C 1244.765 561.905 1249.052 560.936 1252.679 558.362 C 1254.468 557.093 1255.941 555.544 1257.076 553.813 Z " fill-rule="evenodd" fill="none" vector-effect="non-scaling-stroke" stroke-width="3" stroke="rgb(88,91,255)" stroke-linejoin="round" stroke-linecap="round" stroke-miterlimit="3"/><path d=" M 1590.91 468.616 Q 1584.622 474.584 1580.334 473.739 Q 1576.982 473.078 1573.81 472.398 L 1573.81 472.398 L 1573.81 472.398 C 1572.837 471.233 1571.465 470.391 1569.855 470.104 C 1566.223 469.458 1562.751 471.881 1562.104 475.513 C 1561.458 479.144 1563.882 482.617 1567.513 483.264 C 1570.067 483.718 1572.543 482.654 1574.012 480.719 Q 1577.387 479.623 1581.44 479.924 Q 1586.817 480.325 1591.859 483.793 C 1593.6 485.707 1595.962 487.081 1598.704 487.569 C 1599.47 487.706 1600.233 487.767 1600.982 487.749 C 1606.716 488.114 1610.799 485.19 1612.373 479.377 C 1610.866 484.026 1606.702 487.279 1601.925 487.71 Q 1609.814 488.576 1611.647 492.226 Q 1613.01 494.939 1613.387 498.595 L 1613.387 498.595 L 1613.387 498.595 L 1613.387 498.595 L 1613.387 498.595 C 1612.409 501.513 1612.899 504.855 1614.981 507.418 C 1618.215 511.401 1624.074 512.008 1628.057 508.774 C 1632.04 505.54 1632.647 499.681 1629.413 495.699 C 1627.34 493.146 1624.188 491.98 1621.144 492.323 Q 1617.854 490.573 1615.856 487.56 Q 1612.76 482.892 1612.948 476.38 C 1613.121 473.679 1612.381 471.084 1610.966 468.938 Q 1607.105 461.302 1609.464 457.434 Q 1611.691 453.782 1617.167 450.801 L 1617.167 450.801 L 1617.167 450.801 L 1617.167 450.801 L 1617.167 450.801 C 1621.248 449.391 1624.468 445.87 1625.277 441.32 C 1626.468 434.633 1622.004 428.237 1615.317 427.047 C 1608.629 425.857 1602.233 430.32 1601.043 437.008 C 1600.478 440.182 1601.187 443.291 1602.804 445.809 Q 1605.465 451.529 1603.277 456.333 Q 1601.179 460.941 1596.599 464.237 C 1594.316 465.089 1592.324 466.616 1590.91 468.616 Z  M 1588.716 474.942 C 1588.581 476.238 1588.71 477.524 1589.113 478.803 C 1588.778 477.57 1588.633 476.27 1588.716 474.942 Z  M 1598.498 463.704 C 1603.348 462.136 1607.282 463.48 1610.435 468.187 C 1608.652 465.887 1606.045 464.213 1602.958 463.664 C 1601.435 463.393 1599.928 463.419 1598.498 463.704 Z " fill-rule="evenodd" fill="none" vector-effect="non-scaling-stroke" stroke-width="3" stroke="rgb(88,91,255)" stroke-linejoin="round" stroke-linecap="round" stroke-miterlimit="3"/><path d=" M 1429.312 570.893 Q 1435.946 577.079 1435.336 581.613 Q 1434.86 585.156 1434.351 588.512 L 1434.351 588.512 L 1434.351 588.512 C 1433.196 589.602 1432.404 591.09 1432.207 592.789 C 1431.764 596.624 1434.517 600.096 1438.351 600.54 C 1442.185 600.984 1445.658 598.231 1446.102 594.397 C 1446.414 591.7 1445.144 589.181 1443.029 587.771 Q 1441.669 584.316 1441.726 580.063 Q 1441.802 574.422 1445.103 568.934 C 1446.991 566.994 1448.276 564.439 1448.611 561.544 C 1448.705 560.735 1448.72 559.935 1448.654 559.153 C 1448.669 553.141 1445.355 549.063 1439.183 547.789 C 1444.135 549.067 1447.798 553.209 1448.553 558.17 Q 1448.954 549.875 1452.65 547.728 Q 1455.397 546.132 1459.192 545.505 L 1459.192 545.505 L 1459.192 545.505 L 1459.192 545.505 L 1459.192 545.505 C 1462.302 546.34 1465.761 545.615 1468.306 543.278 C 1472.259 539.646 1472.521 533.487 1468.889 529.534 C 1465.257 525.58 1459.099 525.319 1455.145 528.951 C 1452.611 531.279 1451.593 534.645 1452.146 537.803 Q 1450.528 541.35 1447.508 543.63 Q 1442.83 547.161 1436.016 547.379 C 1433.184 547.371 1430.52 548.309 1428.369 549.923 Q 1420.64 554.443 1416.45 552.226 Q 1412.493 550.133 1409.031 544.603 L 1409.031 544.603 L 1409.031 544.603 L 1409.031 544.603 L 1409.031 544.603 C 1407.297 540.43 1403.415 537.292 1398.611 536.736 C 1391.55 535.919 1385.154 540.988 1384.337 548.049 C 1383.521 555.11 1388.59 561.506 1395.651 562.323 C 1399.003 562.711 1402.205 561.772 1404.732 559.923 Q 1410.536 556.779 1415.694 558.758 Q 1420.64 560.656 1424.375 565.23 C 1425.411 567.559 1427.132 569.543 1429.312 570.893 Z  M 1436.058 572.781 C 1437.421 572.84 1438.755 572.623 1440.067 572.12 C 1438.8 572.549 1437.451 572.784 1436.058 572.781 Z  M 1423.697 563.28 C 1421.75 558.314 1422.903 554.12 1427.619 550.526 C 1425.331 552.535 1423.748 555.364 1423.371 558.624 C 1423.185 560.232 1423.308 561.804 1423.697 563.28 Z " fill-rule="evenodd" fill="none" vector-effect="non-scaling-stroke" stroke-width="3" stroke="rgb(88,91,255)" stroke-linejoin="round" stroke-linecap="round" stroke-miterlimit="3"/><linearGradient id="_lgradient_98" x1="0.39919354838709675" y1="0.6412225977414856" x2="0.5568141624221846" y2="-0.024251616125114395" gradientTransform="matrix(1872.438,0,0,-663.145,-104.74,552)" gradientUnits="userSpaceOnUse"><stop offset="0%" stop-opacity="1" style="stop-color:rgb(40,253,189)"/><stop offset="99.1304347826087%" stop-opacity="1" style="stop-color:rgb(79,197,236)"/><stop offset="99.1304347826087%" stop-opacity="1" style="stop-color:rgb(132,222,255)"/></linearGradient><path d=" M -59.439 296.895 Q 21.971 454.457 163.29 452.319 C 374.695 449.122 340.719 341.673 439.236 338.747 C 565.474 334.997 518.148 431.721 616.3 427.63 C 714.452 423.539 679.708 555 778.244 551.948 C 876.78 548.895 891.88 411.435 1012.683 440.511 C 1133.485 469.588 1175.011 501.567 1258.062 487.496 C 1401.082 463.266 1356.214 377.14 1439.266 358.127 C 1522.318 339.115 1560.069 419.753 1661.996 370.48 Q 1763.923 321.207 1767.698 -88.121 L -104.74 -111.145 L -59.439 296.895 Z " fill="url(#_lgradient_98)" fill-opacity="0.5"/><linearGradient id="_lgradient_99" x1="0.5161290322580644" y1="0.5322391365745657" x2="0.45511460101867596" y2="-0.14101840568255242" gradientTransform="matrix(2112,0,0,-725.065,-128,625.642)" gradientUnits="userSpaceOnUse"><stop offset="0%" stop-opacity="1" style="stop-color:rgb(40,253,189)"/><stop offset="99.1304347826087%" stop-opacity="1" style="stop-color:rgb(79,197,236)"/><stop offset="99.1304347826087%" stop-opacity="1" style="stop-color:rgb(132,222,255)"/></linearGradient><path d=" M -93.11 273.101 Q 112.354 503.185 362.984 512.733 C 576.362 520.862 542.249 387.404 641.786 384.089 C 769.331 379.842 721.515 489.401 820.683 484.767 C 919.851 480.133 884.747 629.04 984.303 625.582 C 1083.859 622.125 1099.116 466.424 1221.169 499.358 C 1343.222 532.293 1385.178 568.516 1469.089 552.578 C 1613.589 525.132 1568.257 427.577 1652.168 406.042 C 1736.08 384.506 1774.221 475.845 1877.204 420.033 Q 1980.186 364.222 1984 -99.424 L -128 -67.679 L -93.11 273.101 Z " fill="url(#_lgradient_99)" fill-opacity="0.5"/><path d=" M 415.499 722.641 Q 393.481 724.594 386.255 716.107 Q 380.608 709.475 375.352 703.087 L 375.352 703.087 L 375.352 703.087 C 375.255 699.218 373.849 695.36 371.088 692.236 C 364.859 685.188 354.08 684.524 347.033 690.752 C 339.985 696.981 339.321 707.76 345.549 714.807 C 349.931 719.764 356.563 721.563 362.565 720.027 Q 371.042 723.187 378.659 730.215 Q 388.764 739.538 393.336 754.459 C 393.779 761.041 396.319 767.531 401.021 772.851 C 402.335 774.339 403.762 775.67 405.287 776.823 C 416.161 786.64 428.95 787.273 441.311 778.158 C 430.93 785.055 417.456 784.95 407.233 778.24 Q 421.616 792.475 419.491 802.672 Q 417.912 810.25 412.869 818.15 L 412.869 818.15 L 412.869 818.15 L 412.869 818.15 L 412.869 818.15 C 406.291 822.429 401.973 829.879 402.067 838.3 C 402.213 851.381 412.952 861.883 426.034 861.737 C 439.115 861.591 449.617 850.851 449.47 837.77 C 449.377 829.385 444.931 822.06 438.305 817.919 Q 434.509 809.21 435.294 800.024 Q 436.509 785.793 447.209 773.084 C 451.837 767.963 454.472 761.606 455.049 755.078 Q 459.441 733.705 470.283 729.719 Q 480.521 725.955 496.183 728.683 L 496.183 728.683 L 496.183 728.683 L 496.183 728.683 L 496.183 728.683 C 506.572 732.336 518.583 730.408 527.413 722.603 C 540.392 711.133 541.616 691.283 530.145 678.305 C 518.674 665.326 498.825 664.102 485.846 675.572 C 479.685 681.018 476.173 688.352 475.41 695.942 Q 471.659 711.586 459.673 717.713 Q 448.177 723.59 433.804 722.913 C 427.894 720.997 421.496 720.888 415.499 722.641 Z  M 401.091 731.797 C 398.764 734.172 396.986 736.945 395.762 740.14 C 397.047 737.145 398.819 734.317 401.091 731.797 Z  M 438.441 724.859 C 450.615 729.415 456.342 738.335 455.177 752.737 C 455.263 745.317 452.71 737.84 447.414 731.848 C 444.803 728.894 441.752 726.557 438.441 724.859 Z " fill-rule="evenodd" fill="none" vector-effect="non-scaling-stroke" stroke-width="3" stroke="rgb(88,91,255)" stroke-linejoin="round" stroke-linecap="round" stroke-miterlimit="3"/><path d=" M 707.358 965.8 Q 717.923 972.087 718.419 978.267 Q 718.807 983.096 719.098 987.688 L 719.098 987.688 L 719.098 987.688 C 717.881 989.465 717.26 991.662 717.488 993.97 C 718.003 999.176 722.647 1002.985 727.853 1002.47 C 733.059 1001.956 736.868 997.311 736.353 992.105 C 735.991 988.443 733.586 985.473 730.379 984.212 Q 727.585 980.027 726.438 974.378 Q 724.916 966.884 727.712 958.666 C 729.654 955.554 730.622 951.8 730.234 947.87 C 730.125 946.771 729.915 945.707 729.603 944.69 C 727.895 936.722 722.333 932.274 713.792 932.36 C 720.718 932.629 726.761 937.063 729.186 943.418 Q 727.334 932.315 731.612 928.409 Q 734.791 925.505 739.638 923.584 L 739.638 923.584 L 739.638 923.584 L 739.638 923.584 L 739.638 923.584 C 743.997 923.796 748.37 921.842 751.069 918.014 C 755.262 912.067 753.837 903.835 747.891 899.642 C 741.944 895.449 733.712 896.873 729.519 902.82 C 726.831 906.632 726.452 911.383 728.092 915.407 Q 726.968 920.571 723.624 924.458 Q 718.442 930.48 709.48 932.728 C 705.725 933.531 702.468 935.54 700.082 938.296 Q 691.143 946.505 684.956 944.773 Q 679.114 943.137 672.939 936.808 L 672.939 936.808 L 672.939 936.808 L 672.939 936.808 L 672.939 936.808 C 669.443 931.779 663.399 928.738 656.876 929.383 C 647.289 930.331 640.274 938.884 641.222 948.471 C 642.17 958.058 650.723 965.072 660.31 964.125 C 664.862 963.675 668.833 961.511 671.648 958.336 Q 678.432 952.502 685.833 953.641 Q 692.93 954.734 699.192 959.718 C 701.233 962.506 704.083 964.638 707.358 965.8 Z  M 716.837 966.361 C 718.659 966.048 720.364 965.376 721.956 964.334 C 720.401 965.266 718.682 965.965 716.837 966.361 Z  M 697.734 957.331 C 693.727 951.313 694.049 945.426 699.262 939.31 C 696.808 942.628 695.525 946.831 695.963 951.258 C 696.179 953.44 696.794 955.487 697.734 957.331 Z " fill-rule="evenodd" fill="none" vector-effect="non-scaling-stroke" stroke-width="3" stroke="rgb(88,91,255)" stroke-linejoin="round" stroke-linecap="round" stroke-miterlimit="3"/><path d=" M 843.398 666.658 Q 846.226 674.658 843.76 678.154 Q 841.833 680.887 839.96 683.451 L 839.96 683.451 L 839.96 683.451 C 838.531 683.856 837.231 684.747 836.333 686.072 C 834.307 689.061 835.089 693.132 838.077 695.157 C 841.066 697.183 845.137 696.401 847.162 693.413 C 848.587 691.311 848.623 688.673 847.479 686.588 Q 847.845 683.135 849.73 679.632 Q 852.232 674.985 857.343 671.861 C 859.748 671.068 861.919 669.504 863.448 667.248 C 863.875 666.617 864.234 665.96 864.517 665.283 C 867.129 660.302 866.144 655.487 861.575 651.762 C 865.13 654.963 866.377 659.982 864.858 664.424 Q 868.778 657.717 872.772 657.534 Q 875.74 657.398 879.159 658.519 L 879.159 658.519 L 879.159 658.519 L 879.159 658.519 L 879.159 658.519 C 881.378 660.556 884.56 661.45 887.682 660.611 C 892.531 659.308 895.411 654.313 894.108 649.463 C 892.805 644.614 887.809 641.734 882.96 643.037 C 879.851 643.873 877.552 646.225 876.645 649.084 Q 873.77 651.326 870.279 651.912 Q 864.872 652.818 859.126 650.053 C 856.78 648.821 854.165 648.448 851.683 648.857 Q 843.317 649.264 840.8 645.613 Q 838.423 642.166 837.942 636.083 L 837.942 636.083 L 837.942 636.083 L 837.942 636.083 L 837.942 636.083 C 838.309 631.872 836.445 627.59 832.701 625.052 C 827.197 621.322 819.7 622.761 815.97 628.265 C 812.239 633.769 813.679 641.265 819.183 644.996 C 821.795 646.767 824.857 647.373 827.752 646.932 Q 833.927 646.833 837.349 650.705 Q 840.631 654.418 841.752 659.826 C 841.603 662.206 842.174 664.595 843.398 666.658 Z  M 848.178 671.141 C 849.283 671.779 850.483 672.176 851.788 672.326 C 850.552 672.134 849.331 671.745 848.178 671.141 Z  M 842.032 657.916 C 842.564 652.955 845.334 649.974 850.8 649.033 C 848.033 649.709 845.497 651.372 843.775 653.913 C 842.925 655.166 842.348 656.523 842.032 657.916 Z " fill-rule="evenodd" fill="none" vector-effect="non-scaling-stroke" stroke-width="3" stroke="rgb(88,91,255)" stroke-linejoin="round" stroke-linecap="round" stroke-miterlimit="3"/><path d=" M 1026.538 944.217 Q 1033.612 954.273 1031.54 960.116 Q 1029.92 964.682 1028.31 968.992 L 1028.31 968.992 L 1028.31 968.992 C 1026.474 970.116 1025.008 971.868 1024.273 974.068 C 1022.616 979.029 1025.299 984.403 1030.261 986.061 C 1035.222 987.718 1040.596 985.036 1042.254 980.074 C 1043.42 976.584 1042.438 972.889 1040.027 970.428 Q 1039.186 965.467 1040.448 959.842 Q 1042.121 952.38 1048.03 946.023 C 1051.075 943.976 1053.492 940.945 1054.743 937.199 C 1055.093 936.152 1055.336 935.095 1055.466 934.039 C 1057.163 926.069 1053.905 919.736 1046.074 916.325 C 1052.286 919.401 1055.989 925.917 1055.607 932.708 Q 1058.453 921.818 1063.953 920 Q 1068.041 918.649 1073.25 918.876 L 1073.25 918.876 L 1073.25 918.876 L 1073.25 918.876 L 1073.25 918.876 C 1077.142 920.85 1081.932 920.854 1085.959 918.462 C 1092.216 914.748 1094.28 906.652 1090.565 900.396 C 1086.85 894.139 1078.755 892.075 1072.498 895.79 C 1068.488 898.171 1066.2 902.352 1066.052 906.695 Q 1062.917 910.949 1058.276 913.13 Q 1051.087 916.51 1041.988 914.899 C 1038.233 914.098 1034.439 914.6 1031.136 916.141 Q 1019.623 919.981 1014.684 915.872 Q 1010.02 911.992 1006.969 903.692 L 1006.969 903.692 L 1006.969 903.692 L 1006.969 903.692 L 1006.969 903.692 C 1005.834 897.674 1001.56 892.428 995.342 890.352 C 986.205 887.299 976.308 892.24 973.256 901.377 C 970.203 910.515 975.144 920.412 984.281 923.464 C 988.619 924.913 993.128 924.561 996.995 922.814 Q 1005.571 920.261 1011.86 924.325 Q 1017.891 928.222 1021.57 935.329 C 1022.294 938.708 1024.024 941.819 1026.538 944.217 Z  M 1034.96 948.603 C 1036.752 949.061 1038.582 949.145 1040.461 948.844 C 1038.661 949.06 1036.806 948.994 1034.96 948.603 Z  M 1021.215 932.555 C 1020.016 925.425 1022.715 920.183 1029.973 916.732 C 1026.377 918.758 1023.489 922.069 1022.08 926.288 C 1021.385 928.368 1021.11 930.488 1021.215 932.555 Z " fill-rule="evenodd" fill="none" vector-effect="non-scaling-stroke" stroke-width="3" stroke="rgb(88,91,255)" stroke-linejoin="round" stroke-linecap="round" stroke-miterlimit="3"/><path d=" M 500.63 907.234 Q 508.079 911.668 508.429 916.025 Q 508.702 919.43 508.907 922.667 L 508.907 922.667 L 508.907 922.667 C 508.05 923.92 507.611 925.469 507.772 927.097 C 508.135 930.767 511.41 933.453 515.08 933.09 C 518.751 932.727 521.437 929.452 521.074 925.782 C 520.818 923.2 519.123 921.105 516.861 920.216 Q 514.891 917.265 514.083 913.283 Q 513.01 907.999 514.981 902.205 C 516.351 900.01 517.033 897.363 516.759 894.593 C 516.682 893.818 516.534 893.067 516.314 892.351 C 515.11 886.733 511.189 883.596 505.166 883.657 C 510.05 883.847 514.31 886.973 516.021 891.453 Q 514.715 883.625 517.731 880.871 Q 519.972 878.824 523.389 877.469 L 523.389 877.469 L 523.389 877.469 L 523.389 877.469 L 523.389 877.469 C 526.463 877.619 529.546 876.241 531.449 873.542 C 534.406 869.349 533.401 863.544 529.208 860.588 C 525.015 857.632 519.211 858.636 516.255 862.829 C 514.36 865.517 514.092 868.867 515.249 871.704 Q 514.457 875.345 512.098 878.086 Q 508.445 882.332 502.126 883.916 C 499.479 884.483 497.182 885.899 495.5 887.842 Q 489.197 893.63 484.835 892.409 Q 480.716 891.255 476.362 886.793 L 476.362 886.793 L 476.362 886.793 L 476.362 886.793 L 476.362 886.793 C 473.897 883.247 469.635 881.103 465.036 881.558 C 458.276 882.226 453.331 888.257 453.999 895.016 C 454.667 901.776 460.698 906.722 467.458 906.053 C 470.667 905.736 473.467 904.21 475.452 901.972 Q 480.235 897.859 485.453 898.662 Q 490.457 899.432 494.872 902.946 C 496.311 904.912 498.321 906.415 500.63 907.234 Z  M 507.313 907.63 C 508.598 907.409 509.8 906.936 510.923 906.201 C 509.826 906.858 508.614 907.351 507.313 907.63 Z  M 493.844 901.263 C 491.019 897.02 491.246 892.869 494.922 888.557 C 493.192 890.897 492.287 893.86 492.596 896.981 C 492.748 898.52 493.181 899.963 493.844 901.263 Z " fill-rule="evenodd" fill="none" vector-effect="non-scaling-stroke" stroke-width="3" stroke="rgb(88,91,255)" stroke-linejoin="round" stroke-linecap="round" stroke-miterlimit="3"/><path d=" M 614.299 776.453 Q 617.276 788.382 613.237 793.086 Q 610.081 796.762 607.026 800.202 L 607.026 800.202 L 607.026 800.202 C 604.908 800.589 602.91 801.695 601.432 803.483 C 598.099 807.514 598.665 813.494 602.697 816.828 C 606.728 820.161 612.708 819.595 616.042 815.563 C 618.387 812.728 618.802 808.928 617.439 805.763 Q 618.442 800.832 621.645 796.04 Q 625.895 789.682 633.698 785.88 C 637.275 785.067 640.622 783.111 643.139 780.068 C 643.842 779.217 644.45 778.318 644.952 777.38 C 649.406 770.557 648.648 763.476 642.572 757.472 C 647.258 762.579 648.366 769.992 645.562 776.189 Q 652.141 767.055 657.927 767.342 Q 662.227 767.554 667.004 769.642 L 667.004 769.642 L 667.004 769.642 L 667.004 769.642 L 667.004 769.642 C 669.923 772.886 674.39 774.615 679.009 773.835 C 686.184 772.624 691.025 765.816 689.814 758.641 C 688.603 751.466 681.795 746.625 674.62 747.836 C 670.021 748.612 666.381 751.688 664.678 755.686 Q 660.221 758.525 655.106 758.888 Q 647.182 759.45 639.274 754.67 C 636.06 752.569 632.34 751.671 628.703 751.919 Q 616.58 751.352 613.453 745.74 Q 610.5 740.44 610.645 731.599 L 610.645 731.599 L 610.645 731.599 L 610.645 731.599 L 610.645 731.599 C 611.754 725.575 609.656 719.143 604.605 714.965 C 597.181 708.826 586.169 709.869 580.029 717.293 C 573.89 724.718 574.933 735.73 582.357 741.869 C 585.882 744.784 590.215 746.08 594.451 745.843 Q 603.371 746.551 607.774 752.608 Q 611.996 758.416 612.867 766.372 C 612.325 769.784 612.818 773.309 614.299 776.453 Z  M 620.576 783.578 C 622.082 784.651 623.759 785.389 625.62 785.785 C 623.863 785.338 622.157 784.608 620.576 783.578 Z  M 613.535 763.655 C 614.986 756.573 619.392 752.655 627.406 752.05 C 623.322 752.645 619.434 754.694 616.6 758.121 C 615.202 759.811 614.182 761.69 613.535 763.655 Z " fill-rule="evenodd" fill="none" vector-effect="non-scaling-stroke" stroke-width="3" stroke="rgb(88,91,255)" stroke-linejoin="round" stroke-linecap="round" stroke-miterlimit="3"/><path d=" M 536.527 563.659 Q 544.427 554.239 550.607 554.741 Q 555.436 555.133 560.015 555.582 L 560.015 555.582 L 560.015 555.582 C 561.573 557.067 563.642 558.033 565.957 558.178 C 571.178 558.505 575.683 554.532 576.01 549.311 C 576.337 544.09 572.363 539.585 567.142 539.258 C 563.469 539.028 560.152 540.926 558.393 543.889 Q 553.814 545.976 548.054 546.202 Q 540.413 546.502 532.75 542.424 C 529.989 540.008 526.439 538.451 522.498 538.204 C 521.396 538.135 520.312 538.171 519.258 538.317 C 511.12 538.724 505.837 543.5 504.552 551.945 C 505.929 545.152 511.274 539.899 517.935 538.523 Q 506.68 538.571 503.51 533.722 Q 501.154 530.118 500.035 525.026 L 500.035 525.026 L 500.035 525.026 L 500.035 525.026 L 500.035 525.026 C 500.943 520.757 499.716 516.128 496.37 512.85 C 491.173 507.757 482.819 507.843 477.726 513.04 C 472.634 518.238 472.719 526.592 477.917 531.684 C 481.249 534.948 485.877 536.085 490.112 535.111 Q 495.029 537.048 498.329 540.973 Q 503.442 547.053 504.223 556.26 C 504.414 560.095 505.874 563.633 508.212 566.429 Q 514.881 576.569 512.179 582.398 Q 509.627 587.903 502.39 592.983 L 502.39 592.983 L 502.39 592.983 L 502.39 592.983 L 502.39 592.983 C 496.865 595.626 492.894 601.105 492.484 607.647 C 491.882 617.262 499.199 625.557 508.815 626.159 C 518.43 626.762 526.725 619.444 527.327 609.829 C 527.613 605.265 526.114 600.997 523.432 597.71 Q 518.762 590.077 521.073 582.955 Q 523.29 576.125 529.214 570.744 C 532.293 569.176 534.855 566.705 536.527 563.659 Z  M 538.601 554.393 C 538.584 552.544 538.195 550.753 537.421 549.015 C 538.092 550.699 538.506 552.508 538.601 554.393 Z  M 526.624 571.8 C 520.041 574.79 514.282 573.528 509.081 567.401 C 511.963 570.356 515.906 572.296 520.345 572.574 C 522.534 572.711 524.653 572.432 526.624 571.8 Z " fill-rule="evenodd" fill="none" vector-effect="non-scaling-stroke" stroke-width="3" stroke="rgb(88,91,255)" stroke-linejoin="round" stroke-linecap="round" stroke-miterlimit="3"/><path d=" M 71.797 673.788 Q 78.14 694.964 71.281 703.749 Q 65.92 710.615 60.721 717.049 L 60.721 717.049 L 60.721 717.049 C 56.95 717.922 53.454 720.076 50.949 723.409 C 45.299 730.928 46.816 741.62 54.335 747.27 C 61.854 752.921 72.546 751.403 78.196 743.884 C 82.171 738.595 82.599 731.736 79.886 726.167 Q 81.276 717.227 86.628 708.352 Q 93.728 696.578 107.424 689.098 C 113.782 687.339 119.629 683.546 123.894 677.87 C 125.086 676.283 126.103 674.618 126.926 672.892 C 134.355 660.265 132.402 647.61 120.986 637.336 C 129.831 646.116 132.439 659.336 127.922 670.701 Q 138.973 653.747 149.389 653.777 Q 157.129 653.8 165.883 657.15 L 165.883 657.15 L 165.883 657.15 L 165.883 657.15 L 165.883 657.15 C 171.398 662.733 179.564 665.464 187.794 663.678 C 200.578 660.903 208.705 648.27 205.93 635.486 C 203.155 622.702 190.523 614.575 177.738 617.35 C 169.543 619.129 163.262 624.958 160.54 632.281 Q 152.773 637.751 143.616 638.831 Q 129.431 640.503 114.83 632.579 C 108.882 629.076 102.125 627.773 95.615 628.522 Q 73.795 628.519 67.709 618.7 Q 61.963 609.429 61.484 593.539 L 61.484 593.539 L 61.484 593.539 L 61.484 593.539 L 61.484 593.539 C 62.972 582.628 58.667 571.25 49.246 564.17 C 35.399 553.765 15.708 556.559 5.303 570.406 C -5.103 584.253 -2.308 603.944 11.539 614.349 C 18.112 619.289 26.003 621.254 33.591 620.474 Q 49.67 621.001 58.084 631.51 Q 66.153 641.588 68.382 655.804 C 67.693 661.978 68.874 668.267 71.797 673.788 Z  M 83.665 686.06 C 86.46 687.861 89.534 689.046 92.91 689.602 C 89.717 688.946 86.591 687.779 83.665 686.06 Z  M 69.354 650.869 C 71.368 638.028 78.954 630.624 93.295 628.867 C 86.01 630.276 79.2 634.281 74.396 640.674 C 72.027 643.826 70.352 647.285 69.354 650.869 Z " fill-rule="evenodd" fill="none" vector-effect="non-scaling-stroke" stroke-width="3" stroke="rgb(88,91,255)" stroke-linejoin="round" stroke-linecap="round" stroke-miterlimit="3"/><path d=" M 254.981 958.08 Q 265.547 964.367 266.042 970.547 Q 266.43 975.376 266.721 979.968 L 266.721 979.968 L 266.721 979.968 C 265.505 981.745 264.883 983.942 265.111 986.25 C 265.626 991.456 270.27 995.265 275.476 994.75 C 280.682 994.236 284.491 989.591 283.976 984.385 C 283.614 980.723 281.209 977.753 278.002 976.492 Q 275.208 972.307 274.061 966.658 Q 272.539 959.164 275.335 950.946 C 277.278 947.834 278.245 944.08 277.857 940.15 C 277.748 939.051 277.538 937.987 277.226 936.97 C 275.518 929.002 269.956 924.554 261.415 924.64 C 268.341 924.909 274.384 929.343 276.81 935.698 Q 274.957 924.595 279.235 920.689 Q 282.415 917.785 287.261 915.864 L 287.261 915.864 L 287.261 915.864 L 287.261 915.864 L 287.261 915.864 C 291.62 916.076 295.993 914.122 298.692 910.294 C 302.885 904.347 301.461 896.115 295.514 891.922 C 289.567 887.729 281.335 889.153 277.142 895.1 C 274.454 898.912 274.075 903.663 275.715 907.687 Q 274.591 912.851 271.247 916.738 Q 266.066 922.76 257.103 925.008 C 253.348 925.811 250.091 927.82 247.706 930.576 Q 238.766 938.785 232.579 937.053 Q 226.737 935.417 220.562 929.088 L 220.562 929.088 L 220.562 929.088 L 220.562 929.088 L 220.562 929.088 C 217.066 924.059 211.022 921.018 204.499 921.663 C 194.912 922.611 187.897 931.164 188.845 940.751 C 189.793 950.338 198.346 957.352 207.933 956.405 C 212.485 955.955 216.456 953.791 219.271 950.616 Q 226.056 944.782 233.456 945.921 Q 240.553 947.014 246.815 951.998 C 248.856 954.786 251.706 956.918 254.981 958.08 Z  M 264.46 958.641 C 266.282 958.328 267.987 957.656 269.579 956.614 C 268.025 957.546 266.305 958.245 264.46 958.641 Z  M 245.357 949.611 C 241.35 943.593 241.672 937.706 246.885 931.59 C 244.431 934.908 243.148 939.111 243.586 943.538 C 243.802 945.72 244.417 947.767 245.357 949.611 Z " fill-rule="evenodd" fill="none" vector-effect="non-scaling-stroke" stroke-width="3" stroke="rgb(88,91,255)" stroke-linejoin="round" stroke-linecap="round" stroke-miterlimit="3"/><path d=" M 147.934 853.817 Q 155.384 858.25 155.733 862.607 Q 156.007 866.012 156.212 869.25 L 156.212 869.25 L 156.212 869.25 C 155.354 870.502 154.916 872.052 155.077 873.679 C 155.44 877.349 158.714 880.035 162.385 879.672 C 166.055 879.309 168.741 876.035 168.378 872.364 C 168.123 869.782 166.427 867.688 164.166 866.798 Q 162.196 863.848 161.387 859.865 Q 160.314 854.581 162.285 848.787 C 163.655 846.592 164.337 843.946 164.063 841.175 C 163.987 840.4 163.839 839.649 163.618 838.933 C 162.414 833.315 158.493 830.178 152.47 830.239 C 157.354 830.429 161.614 833.555 163.325 838.036 Q 162.019 830.208 165.035 827.453 Q 167.277 825.406 170.694 824.051 L 170.694 824.051 L 170.694 824.051 L 170.694 824.051 L 170.694 824.051 C 173.768 824.201 176.851 822.823 178.754 820.124 C 181.71 815.931 180.706 810.127 176.513 807.17 C 172.32 804.214 166.515 805.218 163.559 809.411 C 161.664 812.099 161.397 815.449 162.553 818.286 Q 161.761 821.927 159.403 824.668 Q 155.75 828.914 149.43 830.499 C 146.783 831.065 144.486 832.481 142.804 834.425 Q 136.502 840.212 132.139 838.991 Q 128.02 837.838 123.666 833.375 L 123.666 833.375 L 123.666 833.375 L 123.666 833.375 L 123.666 833.375 C 121.201 829.829 116.94 827.685 112.341 828.14 C 105.581 828.808 100.635 834.839 101.303 841.599 C 101.972 848.358 108.002 853.304 114.762 852.636 C 117.971 852.318 120.771 850.793 122.756 848.554 Q 127.54 844.441 132.757 845.244 Q 137.762 846.014 142.177 849.529 C 143.616 851.494 145.625 852.998 147.934 853.817 Z  M 154.618 854.213 C 155.902 853.991 157.104 853.518 158.227 852.783 C 157.131 853.441 155.918 853.933 154.618 854.213 Z  M 141.149 847.845 C 138.323 843.602 138.55 839.451 142.226 835.139 C 140.496 837.479 139.591 840.442 139.9 843.563 C 140.052 845.102 140.486 846.546 141.149 847.845 Z " fill-rule="evenodd" fill="none" vector-effect="non-scaling-stroke" stroke-width="3" stroke="rgb(88,91,255)" stroke-linejoin="round" stroke-linecap="round" stroke-miterlimit="3"/><path d=" M 265.58 769.035 Q 268.556 780.964 264.517 785.668 Q 261.361 789.344 258.306 792.784 L 258.306 792.784 L 258.306 792.784 C 256.188 793.172 254.19 794.278 252.712 796.065 C 249.379 800.097 249.945 806.076 253.977 809.41 C 258.008 812.744 263.988 812.178 267.322 808.146 C 269.667 805.31 270.082 801.511 268.719 798.346 Q 269.722 793.415 272.925 788.623 Q 277.175 782.264 284.978 778.463 C 288.556 777.65 291.902 775.694 294.419 772.65 C 295.122 771.799 295.73 770.901 296.232 769.963 C 300.686 763.139 299.928 756.058 293.852 750.055 C 298.539 755.162 299.646 762.574 296.842 768.771 Q 303.421 759.638 309.207 759.924 Q 313.507 760.137 318.284 762.225 L 318.284 762.225 L 318.284 762.225 L 318.284 762.225 L 318.284 762.225 C 321.204 765.469 325.67 767.198 330.289 766.418 C 337.464 765.207 342.305 758.399 341.094 751.224 C 339.883 744.049 333.075 739.207 325.9 740.418 C 321.301 741.195 317.661 744.271 315.958 748.269 Q 311.501 751.108 306.386 751.471 Q 298.462 752.033 290.554 747.252 C 287.34 745.152 283.62 744.254 279.983 744.501 Q 267.86 743.935 264.733 738.323 Q 261.78 733.023 261.925 724.182 L 261.925 724.182 L 261.925 724.182 L 261.925 724.182 L 261.925 724.182 C 263.034 718.158 260.937 711.725 255.885 707.548 C 248.461 701.409 237.449 702.452 231.309 709.876 C 225.17 717.3 226.213 728.313 233.637 734.452 C 237.162 737.367 241.495 738.662 245.731 738.425 Q 254.651 739.134 259.054 745.19 Q 263.276 750.999 264.147 758.955 C 263.605 762.367 264.098 765.892 265.58 769.035 Z  M 271.856 776.161 C 273.362 777.233 275.039 777.971 276.901 778.367 C 275.143 777.92 273.437 777.191 271.856 776.161 Z  M 264.815 756.238 C 266.266 749.155 270.672 745.238 278.686 744.633 C 274.602 745.227 270.714 747.276 267.88 750.704 C 266.482 752.394 265.462 754.273 264.815 756.238 Z " fill-rule="evenodd" fill="none" vector-effect="non-scaling-stroke" stroke-width="3" stroke="rgb(88,91,255)" stroke-linejoin="round" stroke-linecap="round" stroke-miterlimit="3"/><path d=" M 1165.197 850.81 Q 1171.54 871.985 1164.68 880.771 Q 1159.32 887.636 1154.12 894.07 L 1154.12 894.07 L 1154.12 894.07 C 1150.349 894.943 1146.854 897.097 1144.349 900.43 C 1138.698 907.949 1140.216 918.641 1147.735 924.292 C 1155.254 929.942 1165.946 928.425 1171.596 920.905 C 1175.57 915.616 1175.999 908.758 1173.286 903.188 Q 1174.676 894.248 1180.028 885.373 Q 1187.128 873.599 1200.824 866.119 C 1207.182 864.36 1213.028 860.567 1217.294 854.891 C 1218.486 853.304 1219.503 851.639 1220.325 849.913 C 1227.755 837.286 1225.802 824.631 1214.386 814.357 C 1223.23 823.138 1225.838 836.358 1221.322 847.722 Q 1232.373 830.768 1242.789 830.799 Q 1250.529 830.821 1259.283 834.171 L 1259.283 834.171 L 1259.283 834.171 L 1259.283 834.171 L 1259.283 834.171 C 1264.798 839.754 1272.964 842.485 1281.194 840.699 C 1293.978 837.924 1302.105 825.292 1299.33 812.507 C 1296.555 799.723 1283.923 791.596 1271.138 794.371 C 1262.943 796.15 1256.662 801.979 1253.94 809.302 Q 1246.172 814.773 1237.015 815.852 Q 1222.831 817.524 1208.23 809.6 C 1202.282 806.097 1195.525 804.794 1189.014 805.543 Q 1167.194 805.54 1161.109 795.722 Q 1155.363 786.45 1154.884 770.56 L 1154.884 770.56 L 1154.884 770.56 L 1154.884 770.56 L 1154.884 770.56 C 1156.372 759.649 1152.067 748.271 1142.645 741.192 C 1128.798 730.786 1109.108 733.58 1098.703 747.428 C 1088.297 761.275 1091.091 780.965 1104.939 791.37 C 1111.512 796.31 1119.403 798.275 1126.991 797.495 Q 1143.07 798.022 1151.483 808.531 Q 1159.552 818.61 1161.781 832.825 C 1161.093 838.999 1162.274 845.288 1165.197 850.81 Z  M 1177.065 863.082 C 1179.86 864.883 1182.933 866.067 1186.31 866.623 C 1183.117 865.967 1179.991 864.8 1177.065 863.082 Z  M 1162.754 827.891 C 1164.768 815.049 1172.354 807.645 1186.695 805.888 C 1179.41 807.297 1172.6 811.302 1167.796 817.695 C 1165.427 820.847 1163.752 824.306 1162.754 827.891 Z " fill-rule="evenodd" fill="none" vector-effect="non-scaling-stroke" stroke-width="3" stroke="rgb(88,91,255)" stroke-linejoin="round" stroke-linecap="round" stroke-miterlimit="3"/><path d=" M 1556.121 703.102 Q 1562.463 724.277 1555.604 733.063 Q 1550.243 739.929 1545.044 746.363 L 1545.044 746.363 L 1545.044 746.363 C 1541.273 747.236 1537.777 749.39 1535.272 752.723 C 1529.622 760.242 1531.139 770.934 1538.658 776.584 C 1546.178 782.235 1556.869 780.717 1562.52 773.198 C 1566.494 767.909 1566.922 761.05 1564.21 755.481 Q 1565.6 746.541 1570.951 737.666 Q 1578.051 725.892 1591.748 718.412 C 1598.105 716.653 1603.952 712.86 1608.217 707.184 C 1609.41 705.596 1610.427 703.932 1611.249 702.206 C 1618.678 689.578 1616.725 676.924 1605.31 666.65 C 1614.154 675.43 1616.762 688.65 1612.246 700.015 Q 1623.296 683.061 1633.712 683.091 Q 1641.453 683.114 1650.207 686.464 L 1650.207 686.464 L 1650.207 686.464 L 1650.207 686.464 L 1650.207 686.464 C 1655.721 692.047 1663.888 694.778 1672.117 692.992 C 1684.902 690.217 1693.028 677.584 1690.253 664.8 C 1687.478 652.016 1674.846 643.889 1662.062 646.664 C 1653.867 648.443 1647.586 654.272 1644.863 661.595 Q 1637.096 667.065 1627.939 668.145 Q 1613.754 669.817 1599.153 661.893 C 1593.206 658.389 1586.449 657.087 1579.938 657.836 Q 1558.118 657.833 1552.033 648.014 Q 1546.286 638.743 1545.807 622.853 L 1545.807 622.853 L 1545.807 622.853 L 1545.807 622.853 L 1545.807 622.853 C 1547.295 611.942 1542.99 600.564 1533.569 593.484 C 1519.722 583.079 1500.032 585.873 1489.626 599.72 C 1479.221 613.567 1482.015 633.258 1495.862 643.663 C 1502.436 648.603 1510.326 650.568 1517.915 649.788 Q 1533.994 650.315 1542.407 660.824 Q 1550.476 670.902 1552.705 685.118 C 1552.017 691.292 1553.197 697.581 1556.121 703.102 Z  M 1567.989 715.374 C 1570.783 717.175 1573.857 718.36 1577.233 718.916 C 1574.04 718.26 1570.914 717.093 1567.989 715.374 Z  M 1553.678 680.183 C 1555.691 667.342 1563.278 659.938 1577.619 658.181 C 1570.334 659.59 1563.523 663.595 1558.719 669.988 C 1556.351 673.14 1554.675 676.599 1553.678 680.183 Z " fill-rule="evenodd" fill="none" vector-effect="non-scaling-stroke" stroke-width="3" stroke="rgb(88,91,255)" stroke-linejoin="round" stroke-linecap="round" stroke-miterlimit="3"/><path d=" M 1500.36 896.997 Q 1494.073 902.965 1489.784 902.12 Q 1486.433 901.459 1483.261 900.779 L 1483.261 900.779 L 1483.261 900.779 C 1482.288 899.614 1480.915 898.772 1479.305 898.485 C 1475.674 897.839 1472.201 900.262 1471.555 903.894 C 1470.909 907.525 1473.332 910.998 1476.964 911.644 C 1479.518 912.099 1481.994 911.035 1483.463 909.1 Q 1486.837 908.004 1490.89 908.305 Q 1496.267 908.706 1501.309 912.174 C 1503.05 914.088 1505.413 915.462 1508.154 915.95 C 1508.921 916.087 1509.683 916.148 1510.433 916.13 C 1516.167 916.495 1520.249 913.571 1521.824 907.758 C 1520.317 912.407 1516.152 915.66 1511.376 916.091 Q 1519.265 916.957 1521.098 920.607 Q 1522.46 923.32 1522.837 926.976 L 1522.837 926.976 L 1522.837 926.976 L 1522.837 926.976 L 1522.837 926.976 C 1521.86 929.894 1522.35 933.236 1524.432 935.799 C 1527.666 939.782 1533.525 940.389 1537.508 937.155 C 1541.49 933.921 1542.098 928.062 1538.864 924.08 C 1536.791 921.527 1533.639 920.361 1530.594 920.704 Q 1527.305 918.954 1525.306 915.941 Q 1522.21 911.273 1522.399 904.761 C 1522.572 902.06 1521.831 899.465 1520.417 897.319 Q 1516.555 889.683 1518.914 885.815 Q 1521.141 882.163 1526.617 879.182 L 1526.617 879.182 L 1526.617 879.182 L 1526.617 879.182 L 1526.617 879.182 C 1530.699 877.772 1533.918 874.251 1534.728 869.701 C 1535.918 863.014 1531.455 856.618 1524.767 855.428 C 1518.08 854.238 1511.684 858.701 1510.494 865.388 C 1509.929 868.563 1510.638 871.672 1512.254 874.19 Q 1514.916 879.91 1512.728 884.714 Q 1510.629 889.322 1506.049 892.618 C 1503.767 893.47 1501.775 894.997 1500.36 896.997 Z  M 1498.167 903.323 C 1498.031 904.619 1498.161 905.905 1498.564 907.184 C 1498.228 905.951 1498.083 904.651 1498.167 903.323 Z  M 1507.948 892.085 C 1512.798 890.517 1516.732 891.861 1519.886 896.568 C 1518.103 894.268 1515.496 892.594 1512.408 892.045 C 1510.886 891.774 1509.379 891.8 1507.948 892.085 Z " fill-rule="evenodd" fill="none" vector-effect="non-scaling-stroke" stroke-width="3" stroke="rgb(88,91,255)" stroke-linejoin="round" stroke-linecap="round" stroke-miterlimit="3"/><path d=" M 1335.719 952.329 Q 1338.695 964.258 1334.657 968.962 Q 1331.501 972.638 1328.445 976.079 L 1328.445 976.079 L 1328.445 976.079 C 1326.328 976.466 1324.33 977.572 1322.852 979.359 C 1319.518 983.391 1320.084 989.371 1324.116 992.704 C 1328.147 996.038 1334.127 995.472 1337.461 991.44 C 1339.806 988.604 1340.221 984.805 1338.858 981.64 Q 1339.862 976.709 1343.065 971.917 Q 1347.314 965.559 1355.117 961.757 C 1358.695 960.944 1362.041 958.988 1364.558 955.945 C 1365.262 955.094 1365.87 954.195 1366.371 953.257 C 1370.826 946.434 1370.068 939.352 1363.991 933.349 C 1368.678 938.456 1369.785 945.868 1366.982 952.066 Q 1373.56 942.932 1379.346 943.218 Q 1383.646 943.431 1388.423 945.519 L 1388.423 945.519 L 1388.423 945.519 L 1388.423 945.519 L 1388.423 945.519 C 1391.343 948.763 1395.809 950.492 1400.428 949.712 C 1407.603 948.501 1412.445 941.693 1411.234 934.518 C 1410.023 927.343 1403.214 922.502 1396.039 923.713 C 1391.44 924.489 1387.8 927.565 1386.098 931.563 Q 1381.641 934.402 1376.525 934.765 Q 1368.601 935.327 1360.694 930.546 C 1357.48 928.446 1353.759 927.548 1350.123 927.795 Q 1337.999 927.229 1334.872 921.617 Q 1331.919 916.317 1332.064 907.476 L 1332.064 907.476 L 1332.064 907.476 L 1332.064 907.476 L 1332.064 907.476 C 1333.173 901.452 1331.076 895.019 1326.024 890.842 C 1318.6 884.703 1307.588 885.746 1301.448 893.17 C 1295.309 900.595 1296.352 911.607 1303.776 917.746 C 1307.301 920.661 1311.634 921.957 1315.871 921.72 Q 1324.79 922.428 1329.193 928.485 Q 1333.415 934.293 1334.286 942.249 C 1333.744 945.661 1334.237 949.186 1335.719 952.329 Z  M 1341.995 959.455 C 1343.501 960.528 1345.178 961.265 1347.04 961.662 C 1345.283 961.214 1343.576 960.485 1341.995 959.455 Z  M 1334.954 939.532 C 1336.405 932.45 1340.812 928.532 1348.825 927.927 C 1344.741 928.522 1340.853 930.571 1338.019 933.998 C 1336.621 935.688 1335.601 937.567 1334.954 939.532 Z " fill-rule="evenodd" fill="none" vector-effect="non-scaling-stroke" stroke-width="3" stroke="rgb(88,91,255)" stroke-linejoin="round" stroke-linecap="round" stroke-miterlimit="3"/><path d=" M 1638.36 912.195 Q 1641.337 924.124 1637.298 928.828 Q 1634.142 932.504 1631.087 935.944 L 1631.087 935.944 L 1631.087 935.944 C 1628.969 936.332 1626.971 937.438 1625.493 939.225 C 1622.16 943.257 1622.726 949.236 1626.757 952.57 C 1630.789 955.904 1636.769 955.338 1640.102 951.306 C 1642.447 948.47 1642.863 944.671 1641.5 941.506 Q 1642.503 936.575 1645.706 931.783 Q 1649.955 925.424 1657.759 921.623 C 1661.336 920.81 1664.683 918.854 1667.2 915.81 C 1667.903 914.959 1668.511 914.061 1669.013 913.123 C 1673.467 906.3 1672.709 899.218 1666.633 893.215 C 1671.319 898.322 1672.426 905.734 1669.623 911.931 Q 1676.202 902.798 1681.988 903.084 Q 1686.288 903.297 1691.065 905.385 L 1691.065 905.385 L 1691.065 905.385 L 1691.065 905.385 L 1691.065 905.385 C 1693.984 908.629 1698.451 910.358 1703.07 909.578 C 1710.245 908.367 1715.086 901.559 1713.875 894.384 C 1712.664 887.209 1705.856 882.367 1698.681 883.578 C 1694.082 884.355 1690.441 887.431 1688.739 891.429 Q 1684.282 894.268 1679.167 894.631 Q 1671.243 895.193 1663.335 890.412 C 1660.121 888.312 1656.401 887.414 1652.764 887.661 Q 1640.641 887.095 1637.514 881.483 Q 1634.561 876.183 1634.706 867.342 L 1634.706 867.342 L 1634.706 867.342 L 1634.706 867.342 L 1634.706 867.342 C 1635.815 861.318 1633.717 854.885 1628.666 850.708 C 1621.242 844.569 1610.23 845.612 1604.09 853.036 C 1597.951 860.46 1598.994 871.473 1606.418 877.612 C 1609.943 880.527 1614.276 881.822 1618.512 881.585 Q 1627.432 882.294 1631.835 888.35 Q 1636.057 894.159 1636.928 902.115 C 1636.386 905.527 1636.879 909.052 1638.36 912.195 Z  M 1644.637 919.321 C 1646.143 920.393 1647.82 921.131 1649.681 921.527 C 1647.924 921.08 1646.218 920.351 1644.637 919.321 Z  M 1637.596 899.398 C 1639.047 892.315 1643.453 888.398 1651.467 887.793 C 1647.383 888.388 1643.495 890.436 1640.661 893.864 C 1639.263 895.554 1638.243 897.433 1637.596 899.398 Z " fill-rule="evenodd" fill="none" vector-effect="non-scaling-stroke" stroke-width="3" stroke="rgb(88,91,255)" stroke-linejoin="round" stroke-linecap="round" stroke-miterlimit="3"/><path d=" M 1351.954 722.356 Q 1364.03 724.663 1366.604 730.303 Q 1368.615 734.711 1370.455 738.928 L 1370.455 738.928 L 1370.455 738.928 C 1369.917 741.013 1370.083 743.291 1371.084 745.383 C 1373.344 750.101 1379.009 752.097 1383.727 749.838 C 1388.445 747.579 1390.441 741.914 1388.182 737.195 C 1386.593 733.876 1383.319 731.904 1379.874 731.813 Q 1375.82 728.832 1372.815 723.913 Q 1368.829 717.387 1368.654 708.708 C 1369.418 705.12 1369.048 701.261 1367.342 697.7 C 1366.865 696.704 1366.305 695.775 1365.665 694.926 C 1361.342 688.018 1354.596 685.733 1346.596 688.728 C 1353.199 686.618 1360.392 688.725 1364.839 693.871 Q 1359.312 684.066 1362.001 678.935 Q 1363.999 675.122 1367.899 671.662 L 1367.899 671.662 L 1367.899 671.662 L 1367.899 671.662 L 1367.899 671.662 C 1372.07 670.375 1375.514 667.046 1376.745 662.527 C 1378.658 655.507 1374.512 648.254 1367.492 646.341 C 1360.471 644.428 1353.219 648.575 1351.306 655.595 C 1350.079 660.095 1351.343 664.691 1354.257 667.914 Q 1354.962 673.151 1353.144 677.946 Q 1350.327 685.374 1342.669 690.544 C 1339.413 692.579 1337.036 695.579 1335.734 698.983 Q 1330.13 709.749 1323.723 710.231 Q 1317.674 710.686 1309.71 706.842 L 1309.71 706.842 L 1309.71 706.842 L 1309.71 706.842 L 1309.71 706.842 C 1304.709 703.307 1297.99 702.51 1292.078 705.341 C 1283.389 709.502 1279.712 719.934 1283.873 728.623 C 1288.034 737.312 1298.466 740.989 1307.155 736.828 C 1311.28 734.853 1314.276 731.464 1315.839 727.52 Q 1320.227 719.722 1327.572 718.268 Q 1334.617 716.875 1342.203 719.424 C 1345.073 721.349 1348.479 722.381 1351.954 722.356 Z  M 1361.056 719.651 C 1362.662 718.735 1364.035 717.523 1365.176 715.999 C 1364.033 717.406 1362.655 718.649 1361.056 719.651 Z  M 1340.018 717.678 C 1334.199 713.387 1332.493 707.743 1335.309 700.216 C 1334.134 704.173 1334.361 708.561 1336.282 712.573 C 1337.229 714.551 1338.506 716.265 1340.018 717.678 Z " fill-rule="evenodd" fill="none" vector-effect="non-scaling-stroke" stroke-width="3" stroke="rgb(88,91,255)" stroke-linejoin="round" stroke-linecap="round" stroke-miterlimit="3"/><path d=" M 981.77 833.388 C 974.098 843.431 946.439 862.606 938.224 846.159 C 917.667 805 918.667 827 917.275 851.553 C 915.961 874.734 917.395 875.125 907.77 873 C 905.115 872.414 903.645 885 894.77 884 C 887.895 883.5 891.02 870.875 885.464 868 C 882.536 866.86 880.573 868.491 876.915 869 C 870.898 869.837 873.448 856.644 865.434 863 C 858.184 868.75 856.441 867.278 857.854 843.979 C 860.374 802.465 859.878 809.094 838.035 833.388 Q 823.939 849.065 835.534 892.547 Q 833.203 916.108 824.117 895.124 C 819.436 884.314 810.771 857.468 819.187 830.986 C 821.922 822.379 839.376 792.805 848.937 787.398 C 860.161 781.05 862.849 779.18 887.715 779.509 C 896.279 779.622 913.951 782.486 924.988 791.043 C 945.999 807.333 946.127 837.688 951.77 835 Q 971.184 825.75 976.434 817.572 Q 986.808 803.894 991.77 808 C 999.02 814 989.441 823.345 981.77 833.388 Z " fill="none" vector-effect="non-scaling-stroke" stroke-width="3" stroke="rgb(88,91,255)" stroke-linejoin="miter" stroke-linecap="square" stroke-miterlimit="3"/><path d=" M 928.254 744.673 C 925.662 762.97 911.101 776.059 895.759 773.885 C 880.417 771.711 870.067 755.092 872.659 736.795 C 875.252 718.498 889.813 705.409 905.155 707.583 C 920.497 709.757 930.847 726.377 928.254 744.673 Z " fill="none" vector-effect="non-scaling-stroke" stroke-width="3" stroke="rgb(88,91,255)" stroke-linejoin="miter" stroke-linecap="square" stroke-miterlimit="3"/><path d=" M 928.885 726.998 C 929.278 731.825 927.291 747.879 922 741 C 915.75 732.875 913.628 736.567 908 735 C 902.372 733.433 904.571 729.592 899 728 C 893.75 726.5 892.125 728.75 888.029 725 C 883.575 720.922 887.144 719.235 883.62 718.736 C 880.096 718.237 878.35 717.219 880.091 712.694 C 881.831 708.169 887.394 710.188 890.409 707.383 C 892.997 704.974 897.475 704.228 901.702 705.904 C 905.929 707.581 906.682 706.61 911.964 707.359 C 917.246 708.107 925.767 714.241 926.375 718.637 C 926.984 723.034 928.492 722.17 928.885 726.998 Z " fill="rgb(110,116,208)" vector-effect="non-scaling-stroke" stroke-width="2" stroke="rgb(88,91,255)" stroke-linejoin="miter" stroke-linecap="square" stroke-miterlimit="3"/><path d=" M 897.288 767.469 C 890.016 766.641 884.47 756.166 887.059 757.092 C 889.798 758.07 892.472 761.136 898.14 761.33 C 905.206 761.573 907.273 760.665 909.394 760.256 C 913.437 759.479 904.421 768.281 897.288 767.469 Z " fill="rgb(110,116,208)"/><path d=" M 887.901 740.736 C 891.974 740.839 895.562 746.376 894.081 745.99 C 892.514 745.581 890.881 744.012 887.729 744.181 C 883.799 744.392 882.697 744.997 881.541 745.327 C 879.338 745.956 883.906 740.634 887.901 740.736 Z " fill="rgb(110,116,208)"/><path d=" M 911.634 744.148 C 915.585 745.143 917.869 751.333 916.508 750.631 C 915.07 749.888 913.822 747.998 910.709 747.471 C 906.829 746.814 905.621 747.162 904.421 747.23 C 902.133 747.36 907.759 743.171 911.634 744.148 Z " fill="rgb(110,116,208)"/><path d=" M 883.913 779.473 L 892.913 795.473 L 883.913 805.473 L 879.913 779.473 L 883.913 779.473 Z " fill="none" vector-effect="non-scaling-stroke" stroke-width="2" stroke="rgb(88,91,255)" stroke-linejoin="miter" stroke-linecap="square" stroke-miterlimit="3"/><path d="M 866.852 809.717 L 879.091 811.041 C 879.596 811.096 879.962 811.55 879.907 812.055 L 879.245 818.179 C 879.19 818.684 878.736 819.049 878.231 818.995 L 865.991 817.67 C 865.487 817.616 865.121 817.162 865.176 816.657 L 865.838 810.533 C 865.893 810.028 866.347 809.662 866.852 809.717 Z" style="fill:none;stroke:#585BFF;stroke-width:2;stroke-linecap:square;stroke-miterlimit:2;"/><path d=" M 901.281 781 L 892.913 796.473 L 901.281 806.473 L 905 782 L 901.281 781 Z " fill="none" vector-effect="non-scaling-stroke" stroke-width="2" stroke="rgb(88,91,255)" stroke-linejoin="miter" stroke-linecap="square" stroke-miterlimit="3"/><path d=" M 928.933 904.272 L 910.643 933.123 L 910.643 899.883 L 928.933 904.272 Z " fill="none" vector-effect="non-scaling-stroke" stroke-width="1" stroke="rgb(88,91,255)" stroke-linejoin="miter" stroke-linecap="square" stroke-miterlimit="3"/><g><path d=" M 820.413 863.45 L 909.061 879.225 L 909.061 931.123 L 820.413 909.784 L 820.413 863.45 Z " fill="rgb(56,59,249)" vector-effect="non-scaling-stroke" stroke-width="3" stroke="rgb(88,91,255)" stroke-linejoin="miter" stroke-linecap="square" stroke-miterlimit="3"/><path d=" M 928.933 904.272 L 928.933 911.784 L 910.643 938 L 820.413 916.662 L 820.413 911.784 L 909.061 933.123 L 928.933 904.272 Z " fill="none" vector-effect="non-scaling-stroke" stroke-width="3" stroke="rgb(88,91,255)" stroke-linejoin="miter" stroke-linecap="square" stroke-miterlimit="3"/><polygon points="860.95,905.007,855.166,890.757,870.399,892.873" fill="rgb(88,91,255)"/></g><line x1="811.142" y1="811.814" x2="639.232" y2="886.841" vector-effect="non-scaling-stroke" stroke-width="3" stroke="rgb(88,91,255)" stroke-linejoin="round" stroke-linecap="round" stroke-miterlimit="3"/><line x1="726" y1="810.442" x2="718.754" y2="776.46" vector-effect="non-scaling-stroke" stroke-width="3" stroke="rgb(88,91,255)" stroke-linejoin="round" stroke-linecap="round" stroke-miterlimit="3"/><line x1="755" y1="807.416" x2="762" y2="776.46" vector-effect="non-scaling-stroke" stroke-width="3" stroke="rgb(88,91,255)" stroke-linejoin="round" stroke-linecap="round" stroke-miterlimit="3"/><path d=" M 755 808.273 C 745.125 816.585 736 816.793 726 810.442" fill="none" vector-effect="non-scaling-stroke" stroke-width="3" stroke="rgb(88,91,255)" stroke-linejoin="round" stroke-linecap="round" stroke-miterlimit="3"/><line x1="626.242" y1="1022" x2="626.242" y2="882.259" vector-effect="non-scaling-stroke" stroke-width="3" stroke="rgb(88,91,255)" stroke-linejoin="round" stroke-linecap="round" stroke-miterlimit="3"/><line x1="829.662" y1="792.736" x2="626.242" y2="881.648" vector-effect="non-scaling-stroke" stroke-width="3" stroke="rgb(88,91,255)" stroke-linejoin="round" stroke-linecap="round" stroke-miterlimit="3"/><line x1="555" y1="862" x2="626.242" y2="881.648" vector-effect="non-scaling-stroke" stroke-width="3" stroke="rgb(88,91,255)" stroke-linejoin="round" stroke-linecap="round" stroke-miterlimit="3"/><ellipse vector-effect="non-scaling-stroke" cx="739.4763871529244" cy="776.3041646993593" rx="22.12318138010619" ry="5.723409483176738" fill="none" stroke-width="3" stroke="rgb(88,91,255)" stroke-linejoin="miter" stroke-linecap="square" stroke-miterlimit="3"/><path d=" M 726.987 762.302 C 727.842 764.676 730.771 764.409 731.242 766.29 C 731.712 768.171 731.661 773.702 733.704 774.943 Q 735.747 776.185 737.487 777.275 Q 741.829 772.439 740.305 768.909 C 738.78 765.379 741.877 761.314 741.538 759.125 C 741.043 755.921 738.056 755.168 735.651 752.558 C 732.746 749.406 738.895 747.517 737.459 744.299 C 736.024 741.081 730.699 742.921 730.169 740.602 C 729.639 738.284 731.432 737.048 730.398 734.099 Q 729.363 731.15 722.838 729.457 Q 720.165 735.132 721.38 738.945 C 722.595 742.758 725.214 741.688 725.908 743.895 C 726.601 746.102 721.626 747.323 722.774 751.025 C 723.922 754.727 726.895 752.386 727.957 754.748 C 729.019 757.11 726.133 759.928 726.987 762.302 Z " fill="rgb(56,59,249)" vector-effect="non-scaling-stroke" stroke-width="3" stroke="rgb(88,91,255)" stroke-linejoin="miter" stroke-linecap="square" stroke-miterlimit="3"/><path d=" M 735.771 757.91 C 735.529 760.958 738.304 762.003 737.925 764.322 C 737.545 766.641 735.128 772.804 736.451 775.13 Q 737.774 777.455 738.887 779.473 Q 744.904 776.056 745.033 771.409 C 745.161 766.761 749.716 763.635 750.348 761.032 C 751.271 757.221 748.881 755.008 747.816 750.987 C 746.529 746.128 752.924 746.836 752.999 742.578 C 753.075 738.32 747.45 737.936 747.963 735.1 C 748.476 732.264 750.634 731.704 750.959 727.931 Q 751.284 724.158 746.084 719.271 Q 741.222 724.392 740.691 729.214 C 740.16 734.036 742.998 734.041 742.681 736.827 C 742.365 739.614 737.324 738.697 736.779 743.364 C 736.234 748.032 739.937 746.778 739.889 749.906 C 739.841 753.035 736.013 754.863 735.771 757.91 Z " fill="rgb(56,59,249)" vector-effect="non-scaling-stroke" stroke-width="3" stroke="rgb(88,91,255)" stroke-linejoin="miter" stroke-linecap="square" stroke-miterlimit="3"/><line x1="783.621" y1="782.584" x2="777.173" y2="752.345" vector-effect="non-scaling-stroke" stroke-width="3" stroke="rgb(88,91,255)" stroke-linejoin="round" stroke-linecap="round" stroke-miterlimit="3"/><line x1="809.427" y1="779.892" x2="815.656" y2="752.345" vector-effect="non-scaling-stroke" stroke-width="3" stroke="rgb(88,91,255)" stroke-linejoin="round" stroke-linecap="round" stroke-miterlimit="3"/><path d=" M 809.427 780.654 C 800.639 788.05 792.519 788.235 783.621 782.584" fill="none" vector-effect="non-scaling-stroke" stroke-width="3" stroke="rgb(88,91,255)" stroke-linejoin="round" stroke-linecap="round" stroke-miterlimit="3"/><ellipse vector-effect="non-scaling-stroke" cx="795.6128482014437" cy="752.2064810650435" rx="19.68632301263699" ry="5.092978531592507" fill="none" stroke-width="3" stroke="rgb(88,91,255)" stroke-linejoin="miter" stroke-linecap="square" stroke-miterlimit="3"/><path d=" M 784.5 739.747 C 785.26 741.86 787.867 741.622 788.285 743.295 C 788.704 744.969 788.659 749.891 790.477 750.995 Q 792.294 752.1 793.843 753.07 Q 797.706 748.767 796.35 745.626 C 794.993 742.485 797.749 738.867 797.448 736.919 C 797.007 734.068 794.349 733.398 792.209 731.076 C 789.624 728.271 795.096 726.59 793.818 723.726 C 792.54 720.863 787.802 722.5 787.331 720.437 C 786.859 718.374 788.454 717.274 787.534 714.65 Q 786.614 712.026 780.807 710.519 Q 778.428 715.57 779.51 718.963 C 780.591 722.356 782.922 721.403 783.539 723.367 C 784.155 725.331 779.729 726.417 780.75 729.712 C 781.772 733.006 784.417 730.923 785.362 733.025 C 786.307 735.127 783.739 737.634 784.5 739.747 Z " fill="rgb(56,59,249)" vector-effect="non-scaling-stroke" stroke-width="3" stroke="rgb(88,91,255)" stroke-linejoin="miter" stroke-linecap="square" stroke-miterlimit="3"/><path d=" M 792.315 735.839 C 792.1 738.55 794.569 739.481 794.232 741.544 C 793.895 743.608 791.744 749.092 792.921 751.161 Q 794.098 753.231 795.089 755.026 Q 800.442 751.986 800.557 747.85 C 800.672 743.715 804.725 740.933 805.287 738.616 C 806.109 735.225 803.982 733.256 803.034 729.678 C 801.889 725.354 807.579 725.984 807.646 722.195 C 807.714 718.407 802.708 718.065 803.165 715.541 C 803.621 713.017 805.541 712.519 805.83 709.161 Q 806.12 705.804 801.492 701.456 Q 797.167 706.013 796.694 710.304 C 796.221 714.595 798.747 714.598 798.465 717.078 C 798.183 719.558 793.697 718.742 793.213 722.895 C 792.728 727.048 796.023 725.932 795.98 728.717 C 795.938 731.501 792.531 733.127 792.315 735.839 Z " fill="rgb(56,59,249)" vector-effect="non-scaling-stroke" stroke-width="3" stroke="rgb(88,91,255)" stroke-linejoin="miter" stroke-linecap="square" stroke-miterlimit="3"/><path d=" M 1193.823 853.063 C 1189.651 853.267 1185.562 847.879 1187.106 848.161 C 1188.738 848.46 1190.527 849.94 1193.737 849.527 C 1197.738 849.012 1198.818 848.31 1199.975 847.885 C 1202.18 847.074 1197.915 852.862 1193.823 853.063 Z " fill="rgb(110,116,208)"/><ellipse vector-effect="non-scaling-stroke" cx="1187.8628763704578" cy="840.9627732109931" rx="1.5" ry="2" fill="rgb(110,116,208)"/><ellipse vector-effect="non-scaling-stroke" cx="1198.8628763704578" cy="840.9627732109931" rx="1.5" ry="2" fill="rgb(110,116,208)"/><path d=" M 504.908 716.346 C 500.736 716.55 496.647 711.162 498.191 711.445 C 499.823 711.743 501.612 713.224 504.822 712.811 C 508.823 712.296 509.903 711.594 511.06 711.168 C 513.265 710.358 509 716.146 504.908 716.346 Z " fill="rgb(110,116,208)"/><ellipse vector-effect="non-scaling-stroke" cx="498.94771918398726" cy="704.2463118403042" rx="1.5" ry="2" fill="rgb(110,116,208)"/><ellipse vector-effect="non-scaling-stroke" cx="509.9477191839875" cy="704.2463118403042" rx="1.5" ry="2" fill="rgb(110,116,208)"/><path d=" M 101.088 675.377 C 96.916 675.581 92.827 670.193 94.371 670.475 C 96.003 670.774 97.792 672.254 101.002 671.841 C 105.003 671.326 106.084 670.624 107.24 670.199 C 109.446 669.388 105.18 675.176 101.088 675.377 Z " fill="rgb(110,116,208)"/><ellipse vector-effect="non-scaling-stroke" cx="95.12800416905611" cy="663.2768349619381" rx="1.5" ry="2" fill="rgb(110,116,208)"/><ellipse vector-effect="non-scaling-stroke" cx="106.12800416905634" cy="663.2768349619381" rx="1.5" ry="2" fill="rgb(110,116,208)"/><path d=" M 1584.746 704.59 C 1580.575 704.794 1576.486 699.406 1578.029 699.688 C 1579.662 699.987 1581.45 701.467 1584.66 701.054 C 1588.662 700.539 1589.742 699.837 1590.899 699.412 C 1593.104 698.601 1588.838 704.389 1584.746 704.59 Z " fill="rgb(110,116,208)"/><ellipse vector-effect="non-scaling-stroke" cx="1578.7865173906023" cy="692.4898870807415" rx="1.5" ry="2" fill="rgb(110,116,208)"/><ellipse vector-effect="non-scaling-stroke" cx="1589.7865173906018" cy="692.4898870807415" rx="1.5" ry="2" fill="rgb(110,116,208)"/><path d=" M 1030.133 665.977 C 1025.961 666.181 1021.872 660.794 1023.416 661.076 C 1025.048 661.375 1026.837 662.855 1030.047 662.442 C 1034.048 661.927 1035.128 661.225 1036.285 660.799 C 1038.49 659.989 1034.225 665.777 1030.133 665.977 Z " fill="rgb(110,116,208)"/><ellipse vector-effect="non-scaling-stroke" cx="1024.1727437800382" cy="653.8774621391683" rx="1.5" ry="2" fill="rgb(110,116,208)"/><ellipse vector-effect="non-scaling-stroke" cx="1035.1727437800382" cy="653.8774621391683" rx="1.5" ry="2" fill="rgb(110,116,208)"/><path d=" M 1129.131 782.783 C 1124.959 782.987 1120.87 777.6 1122.414 777.882 C 1124.046 778.18 1125.835 779.661 1129.045 779.248 C 1133.046 778.733 1134.126 778.031 1135.283 777.605 C 1137.488 776.795 1133.223 782.583 1129.131 782.783 Z " fill="rgb(110,116,208)"/><ellipse vector-effect="non-scaling-stroke" cx="1123.1706816971073" cy="770.6834230017341" rx="1.5" ry="2" fill="rgb(110,116,208)"/><ellipse vector-effect="non-scaling-stroke" cx="1134.1706816971073" cy="770.6834230017341" rx="1.5" ry="2" fill="rgb(110,116,208)"/><path d=" M 1516.966 636.37 C 1512.794 636.574 1508.705 631.187 1510.249 631.469 C 1511.881 631.767 1513.67 633.248 1516.88 632.835 C 1520.881 632.32 1521.961 631.618 1523.118 631.192 C 1525.323 630.382 1521.058 636.17 1516.966 636.37 Z " fill="rgb(110,116,208)"/><ellipse vector-effect="non-scaling-stroke" cx="1511.0057492288197" cy="624.2703740800129" rx="1.5" ry="2" fill="rgb(110,116,208)"/><ellipse vector-effect="non-scaling-stroke" cx="1522.0057492288197" cy="624.2703740800129" rx="1.5" ry="2" fill="rgb(110,116,208)"/><path d=" M 425.321 770.364 C 421.15 770.568 417.06 765.18 418.604 765.463 C 420.237 765.761 422.025 767.241 425.235 766.828 C 429.237 766.313 430.317 765.611 431.474 765.186 C 433.679 764.375 429.413 770.163 425.321 770.364 Z " fill="rgb(110,116,208)"/><ellipse vector-effect="non-scaling-stroke" cx="419.3613950423479" cy="758.2640116735348" rx="1.5" ry="2" fill="rgb(110,116,208)"/><ellipse vector-effect="non-scaling-stroke" cx="430.3613950423479" cy="758.2640116735348" rx="1.5" ry="2" fill="rgb(110,116,208)"/><path d=" M 32.642 606.747 C 28.471 606.951 24.381 601.563 25.925 601.846 C 27.557 602.144 29.346 603.625 32.556 603.212 C 36.557 602.697 37.638 601.995 38.795 601.569 C 41 600.759 36.734 606.547 32.642 606.747 Z " fill="rgb(110,116,208)"/><ellipse vector-effect="non-scaling-stroke" cx="26.68233159588226" cy="594.647306275513" rx="1.5" ry="2" fill="rgb(110,116,208)"/><ellipse vector-effect="non-scaling-stroke" cx="37.68233159588226" cy="594.647306275513" rx="1.5" ry="2" fill="rgb(110,116,208)"/><g><path d="M 373.078 575.855 L 415.862 588.826 C 418.388 589.592 419.817 592.264 419.051 594.79 L 411.915 618.329 C 411.15 620.855 408.477 622.284 405.951 621.518 L 363.167 608.548 C 360.641 607.782 359.212 605.109 359.977 602.583 L 367.113 579.045 C 367.879 576.519 370.552 575.09 373.078 575.855 Z" style="fill:none;stroke:#585BFF;stroke-width:3;stroke-linecap:round;stroke-linejoin:round;stroke-miterlimit:2;"/><path d=" M 384.513 579.322 L 387.212 570.419 L 408.97 577.016 L 406.271 585.918" fill="none" vector-effect="non-scaling-stroke" stroke-width="3" stroke="rgb(88,91,255)" stroke-linejoin="round" stroke-linecap="round" stroke-miterlimit="3"/><path d=" M 372.489 578.889 L 372.799 592.447 L 407.207 602.879 L 416.005 592.081" fill="none" vector-effect="non-scaling-stroke" stroke-width="3" stroke="rgb(88,91,255)" stroke-linejoin="round" stroke-linecap="round" stroke-miterlimit="3"/><path d=" M 386.938 596.836 C 387.465 595.098 389.304 594.115 391.042 594.642 C 392.78 595.169 393.763 597.007 393.237 598.745 C 392.71 600.484 390.871 601.467 389.133 600.94 C 387.395 600.413 386.411 598.574 386.938 596.836 Z " fill="rgb(88,91,255)"/></g><g><path d="M 1209.45 655.586 L 1252.234 668.557 C 1254.76 669.323 1256.189 671.995 1255.423 674.521 L 1248.287 698.06 C 1247.522 700.586 1244.849 702.015 1242.323 701.249 L 1199.539 688.279 C 1197.013 687.513 1195.584 684.84 1196.349 682.314 L 1203.485 658.776 C 1204.251 656.25 1206.924 654.821 1209.45 655.586 Z" style="fill:none;stroke:#585BFF;stroke-width:3;stroke-linecap:round;stroke-linejoin:round;stroke-miterlimit:2;"/><path d=" M 1220.885 659.053 L 1223.584 650.15 L 1245.342 656.747 L 1242.643 665.649" fill="none" vector-effect="non-scaling-stroke" stroke-width="3" stroke="rgb(88,91,255)" stroke-linejoin="round" stroke-linecap="round" stroke-miterlimit="3"/><path d=" M 1208.861 658.62 L 1209.171 672.178 L 1243.579 682.61 L 1252.377 671.812" fill="none" vector-effect="non-scaling-stroke" stroke-width="3" stroke="rgb(88,91,255)" stroke-linejoin="round" stroke-linecap="round" stroke-miterlimit="3"/><path d=" M 1223.31 676.567 C 1223.837 674.829 1225.676 673.846 1227.414 674.373 C 1229.152 674.9 1230.135 676.738 1229.609 678.476 C 1229.082 680.215 1227.243 681.198 1225.505 680.671 C 1223.767 680.144 1222.783 678.305 1223.31 676.567 Z " fill="rgb(88,91,255)"/></g><g><path d="M 56.563 921.939 L 99.347 934.909 C 101.873 935.675 103.302 938.348 102.536 940.874 L 95.4 964.412 C 94.635 966.938 91.962 968.368 89.436 967.602 L 46.652 954.631 C 44.126 953.865 42.697 951.193 43.462 948.667 L 50.598 925.128 C 51.364 922.602 54.037 921.173 56.563 921.939 Z" style="fill:none;stroke:#585BFF;stroke-width:3;stroke-linecap:round;stroke-linejoin:round;stroke-miterlimit:2;"/><path d=" M 67.998 925.406 L 70.697 916.503 L 92.455 923.099 L 89.756 932.002" fill="none" vector-effect="non-scaling-stroke" stroke-width="3" stroke="rgb(88,91,255)" stroke-linejoin="round" stroke-linecap="round" stroke-miterlimit="3"/><path d=" M 55.974 924.972 L 56.284 938.531 L 90.692 948.962 L 99.49 938.164" fill="none" vector-effect="non-scaling-stroke" stroke-width="3" stroke="rgb(88,91,255)" stroke-linejoin="round" stroke-linecap="round" stroke-miterlimit="3"/><path d=" M 70.423 942.92 C 70.95 941.181 72.789 940.198 74.527 940.725 C 76.265 941.252 77.248 943.091 76.722 944.829 C 76.195 946.567 74.356 947.55 72.618 947.023 C 70.88 946.496 69.896 944.658 70.423 942.92 Z " fill="rgb(88,91,255)"/></g><g><path d="M 712.585 570.233 L 754.513 554.719 C 756.989 553.803 759.742 555.069 760.658 557.544 L 769.194 580.612 C 770.11 583.088 768.844 585.841 766.368 586.757 L 724.44 602.272 C 721.964 603.188 719.21 601.922 718.294 599.446 L 709.759 576.378 C 708.843 573.903 710.109 571.149 712.585 570.233 Z" style="fill:none;stroke:#585BFF;stroke-width:3;stroke-linecap:round;stroke-linejoin:round;stroke-miterlimit:2;"/><path d=" M 723.791 566.086 L 720.563 557.362 L 741.886 549.472 L 745.114 558.196" fill="none" vector-effect="non-scaling-stroke" stroke-width="3" stroke="rgb(88,91,255)" stroke-linejoin="round" stroke-linecap="round" stroke-miterlimit="3"/><path d=" M 713.948 573.006 L 722.387 583.623 L 756.107 571.146 L 756.594 557.226" fill="none" vector-effect="non-scaling-stroke" stroke-width="3" stroke="rgb(88,91,255)" stroke-linejoin="round" stroke-linecap="round" stroke-miterlimit="3"/><path d=" M 736.305 578.577 C 735.675 576.873 736.546 574.979 738.25 574.349 C 739.953 573.718 741.847 574.59 742.478 576.293 C 743.108 577.996 742.237 579.891 740.534 580.521 C 738.83 581.151 736.936 580.28 736.305 578.577 Z " fill="rgb(88,91,255)"/></g><g><path d="M 1414.543 816.991 L 1456.472 801.476 C 1458.947 800.56 1461.701 801.826 1462.617 804.302 L 1471.152 827.37 C 1472.068 829.845 1470.802 832.599 1468.327 833.515 L 1426.398 849.029 C 1423.923 849.945 1421.169 848.679 1420.253 846.204 L 1411.717 823.136 C 1410.801 820.66 1412.068 817.907 1414.543 816.991 Z" style="fill:none;stroke:#585BFF;stroke-width:3;stroke-linecap:round;stroke-linejoin:round;stroke-miterlimit:2;"/><path d=" M 1425.749 812.844 L 1422.521 804.12 L 1443.844 796.23 L 1447.072 804.954" fill="none" vector-effect="non-scaling-stroke" stroke-width="3" stroke="rgb(88,91,255)" stroke-linejoin="round" stroke-linecap="round" stroke-miterlimit="3"/><path d=" M 1415.906 819.763 L 1424.345 830.381 L 1458.065 817.903 L 1458.553 803.983" fill="none" vector-effect="non-scaling-stroke" stroke-width="3" stroke="rgb(88,91,255)" stroke-linejoin="round" stroke-linecap="round" stroke-miterlimit="3"/><path d=" M 1438.264 825.335 C 1437.634 823.631 1438.505 821.737 1440.208 821.106 C 1441.911 820.476 1443.806 821.347 1444.436 823.051 C 1445.067 824.754 1444.195 826.648 1442.492 827.279 C 1440.789 827.909 1438.894 827.038 1438.264 825.335 Z " fill="rgb(88,91,255)"/></g><g><path d="M 1610.745 571.126 L 1643.092 559.157 C 1645.001 558.45 1647.126 559.427 1647.832 561.337 L 1654.417 579.133 C 1655.124 581.042 1654.147 583.167 1652.237 583.873 L 1619.891 595.842 C 1617.981 596.549 1615.857 595.572 1615.15 593.662 L 1608.565 575.866 C 1607.859 573.957 1608.835 571.832 1610.745 571.126 Z" style="fill:none;stroke:#585BFF;stroke-width:3;stroke-linecap:round;stroke-linejoin:round;stroke-miterlimit:2;"/><path d=" M 1619.39 567.927 L 1616.9 561.196 L 1633.35 555.109 L 1635.84 561.84" fill="none" vector-effect="non-scaling-stroke" stroke-width="3" stroke="rgb(88,91,255)" stroke-linejoin="round" stroke-linecap="round" stroke-miterlimit="3"/><path d=" M 1611.797 573.265 L 1618.307 581.455 L 1644.321 571.83 L 1644.697 561.091" fill="none" vector-effect="non-scaling-stroke" stroke-width="3" stroke="rgb(88,91,255)" stroke-linejoin="round" stroke-linecap="round" stroke-miterlimit="3"/><path d=" M 1629.045 577.563 C 1628.559 576.249 1629.231 574.787 1630.545 574.301 C 1631.859 573.815 1633.32 574.487 1633.807 575.801 C 1634.293 577.115 1633.621 578.576 1632.307 579.062 C 1630.993 579.549 1629.531 578.877 1629.045 577.563 Z " fill="rgb(88,91,255)"/></g><g><path d="M 382.736 954.214 L 424.665 938.7 C 427.141 937.784 429.894 939.05 430.81 941.526 L 439.346 964.593 C 440.262 967.069 438.996 969.822 436.52 970.738 L 394.591 986.253 C 392.116 987.169 389.362 985.903 388.446 983.427 L 379.911 960.359 C 378.995 957.884 380.261 955.13 382.736 954.214 Z" style="fill:none;stroke:#585BFF;stroke-width:3;stroke-linecap:round;stroke-linejoin:round;stroke-miterlimit:2;"/><path d=" M 393.943 950.068 L 390.714 941.343 L 412.037 933.453 L 415.266 942.178" fill="none" vector-effect="non-scaling-stroke" stroke-width="3" stroke="rgb(88,91,255)" stroke-linejoin="round" stroke-linecap="round" stroke-miterlimit="3"/><path d=" M 384.1 956.987 L 392.539 967.604 L 426.259 955.127 L 426.746 941.207" fill="none" vector-effect="non-scaling-stroke" stroke-width="3" stroke="rgb(88,91,255)" stroke-linejoin="round" stroke-linecap="round" stroke-miterlimit="3"/><path d=" M 406.457 962.558 C 405.827 960.855 406.698 958.96 408.401 958.33 C 410.105 957.7 411.999 958.571 412.63 960.274 C 413.26 961.977 412.389 963.872 410.685 964.502 C 408.982 965.133 407.087 964.261 406.457 962.558 Z " fill="rgb(88,91,255)"/></g></g></svg>