<?xml version="1.0" standalone="no"?><!-- Generator: Gravit.io --><svg xmlns="http://www.w3.org/2000/svg" xmlns:xlink="http://www.w3.org/1999/xlink" style="isolation:isolate" viewBox="0 0 1702.4 1280" width="1702.4" height="1280"><defs><clipPath id="_clipPath_xSWA18Pyb2DgLY7ZcfxgbgbfRrS1QOMx"><rect width="1702.4" height="1280"/></clipPath></defs><g clip-path="url(#_clipPath_xSWA18Pyb2DgLY7ZcfxgbgbfRrS1QOMx)"><rect x="-0.998" y="0" width="1702.4" height="1280" transform="matrix(1,0,0,1,0,0)" fill="rgb(255,255,255)"/><linearGradient id="_lgradient_0" x1="0" y1="0.5" x2="1.024029341325437" y2="-0.08128047571815633" gradientTransform="matrix(872.458,0,0,325.001,644,460.309)" gradientUnits="userSpaceOnUse"><stop offset="0%" stop-opacity="1" style="stop-color:rgb(136,8,210)"/><stop offset="48.69565217391305%" stop-opacity="1" style="stop-color:rgb(248,236,255)"/></linearGradient><path d=" M 644 473 Q 819.462 431 984.079 528 C 1098.571 595.464 1117.04 642.579 1258 554 Q 1621.212 325.758 1474 688.455 L 815.99 785.31 L 644 473 Z " fill="url(#_lgradient_0)"/><path d=" M -108 458.824 Q 178 259 162 380 C 135.607 579.598 341.343 455.711 418 440 C 494.657 424.289 609.656 410 730.16 492 C 849.97 573.529 824.464 675.352 998.977 591.25 C 1173.49 507.148 1261.116 534.311 1448 587.811 C 1784 684 1514.264 345.836 1600 338 C 1972 304 1903.603 926.948 1748 1028 C 1592.397 1129.052 1201.656 908.716 898.322 912.878 C 594.989 917.039 805.442 833.014 681.96 919.433 C 558.478 1005.852 537.897 1034.188 396 953.6 C 254.104 873.012 282.827 973.526 162 1028 C 41.173 1082.474 -22.5 1028.25 -59.666 883.321 Q -89.23 768.034 -108 458.824 Z " fill="rgb(163,5,255)"/><path d=" M 1049.759 739.158 Q 1084.072 686.75 1130.796 690.673 C 1177.521 694.596 1156.382 732.659 1181.946 727.03 C 1207.51 721.401 1273.595 588.905 1318.94 609.374 C 1364.285 629.844 1336.593 738.61 1394.594 707.52 C 1452.596 676.43 1436.839 554.221 1526.658 544.322 C 1615.591 534.521 1638.912 632.199 1653.118 708.069 C 1667.323 783.939 1586.486 606.303 1534.875 643.877 C 1483.264 681.452 1463.638 828.365 1362.246 828.71 C 1260.854 829.056 1316.581 669.337 1275.649 701.51 C 1234.717 733.682 1201.54 834.431 1153.776 803.389 C 1106.012 772.347 1161.774 712.461 1121.6 732.567 C 1081.426 752.672 1079.314 829.81 1041.858 813.657 Q 1004.401 797.505 1049.759 739.158 Z " fill="rgb(171,54,238)"/><linearGradient id="_lgradient_1" x1="0.663688593881706" y1="1.2131540030454964" x2="0.2757701070845164" y2="0.22737924942315557" gradientTransform="matrix(291.743,-155.76,59.658,111.741,904.99,598.681)" gradientUnits="userSpaceOnUse"><stop offset="1.7391304347826086%" stop-opacity="1" style="stop-color:rgb(209,13,253)"/><stop offset="98.26086956521739%" stop-opacity="1" style="stop-color:rgb(255,255,255)"/></linearGradient><path d=" M 952.71 655.522 Q 959.962 626.196 982.853 618.217 C 1005.745 610.238 1002.275 630.757 1013.455 623.091 C 1024.635 615.425 1033.146 545.548 1058.242 544.876 C 1083.338 544.205 1088.977 596.086 1111.176 570.918 C 1133.376 545.75 1103.341 493.655 1144.33 470.914 C 1184.915 448.398 1207.183 471.037 1227.053 500.307 C 1246.923 529.578 1181.759 480.629 1163.719 507.23 C 1145.678 533.831 1164.892 607.959 1116.749 629.034 C 1068.607 650.108 1067.487 570.814 1053.59 592.918 C 1039.693 615.022 1041.338 664.632 1013.264 661.315 C 985.19 657.998 1001.346 621.071 985.724 637.896 C 970.101 654.722 982.432 687.899 961.833 688.774 Q 941.233 689.65 952.71 655.522 Z " fill="url(#_lgradient_1)"/><path d=" M 602.883 754.397 Q 570.554 701.515 527.277 704.876 C 484.001 708.237 503.975 746.599 480.221 740.653 C 456.467 734.708 393.889 601.263 352.055 621.205 C 310.222 641.148 336.974 750.371 282.896 718.543 C 228.818 686.715 242.13 556.361 158.767 545.362 C 76.226 534.472 55.249 598.939 42.833 674.721 C 30.417 750.503 103.821 596.675 152.039 634.917 C 200.257 673.16 220.09 838.686 314.087 840.261 C 408.083 841.835 354.838 681.264 393.102 713.968 C 431.367 746.673 463.123 847.936 507.094 817.438 C 551.064 786.941 498.777 726.312 536.219 746.928 C 573.661 767.543 576.384 844.791 610.947 829.075 Q 645.511 813.359 602.883 754.397 Z " fill="rgb(171,54,238)"/><linearGradient id="_lgradient_2" x1="0.5765054692812632" y1="1.3476485693539477" x2="0.26213206442112624" y2="0.26772817588383857" gradientTransform="matrix(-224.575,-153.923,-65.098,108.126,758.747,612.211)" gradientUnits="userSpaceOnUse"><stop offset="1.7391304347826086%" stop-opacity="1" style="stop-color:rgb(209,13,253)"/><stop offset="98.26086956521739%" stop-opacity="1" style="stop-color:rgb(255,255,255)"/></linearGradient><path d=" M 711.021 667.064 Q 708.838 638.491 690.651 630.538 C 672.463 622.585 672.641 642.563 664.261 635.015 C 655.882 627.467 658.055 559.459 637.037 558.592 C 616.02 557.725 604.349 608.115 589.039 583.458 C 573.729 558.8 605.946 508.409 574.509 485.95 C 543.381 463.713 521.629 485.532 501.009 513.819 C 480.388 542.106 541.732 495.074 553.352 521.09 C 564.973 547.106 538.915 619.01 576.591 639.91 C 614.268 660.81 625.798 583.73 634.535 605.338 C 643.271 626.946 635.263 675.164 659.318 672.179 C 683.373 669.194 674.715 633.154 685.608 649.646 C 696.501 666.138 681.699 698.287 698.908 699.314 Q 716.117 700.341 711.021 667.064 Z " fill="url(#_lgradient_2)"/><linearGradient id="_lgradient_3" x1="0.5292955293912196" y1="0.9231242671069898" x2="0.5311782070797397" y2="0.33455887014678776" gradientTransform="matrix(864.785,0,0,510.003,407.347,338)" gradientUnits="userSpaceOnUse"><stop offset="2.1739130434782608%" stop-opacity="1" style="stop-color:rgb(18,196,240)"/><stop offset="97.82608695652173%" stop-opacity="0" style="stop-color:rgb(149,197,255)"/></linearGradient><path d=" M 407.347 338 L 615.305 824.587 Q 739.4 849.589 853.191 847.896 Q 966.981 846.203 1094.952 825.321 L 1272.132 338 L 407.347 338 Z " fill="url(#_lgradient_3)"/><linearGradient id="_lgradient_4" x1="0.4923374637815313" y1="1.0279511984762186" x2="0.4984657459331912" y2="0.06431753090145365" gradientTransform="matrix(1701.402,0,0,498.219,0,781.342)" gradientUnits="userSpaceOnUse"><stop offset="2.608695652173913%" stop-opacity="1" style="stop-color:rgb(255,125,153)"/><stop offset="98.69565217391305%" stop-opacity="1" style="stop-color:rgb(132,32,253)"/></linearGradient><path d=" M 0 970.726 Q 341.549 767.227 851.775 782.394 Q 1362 797.561 1701.402 953.161 L 1701.402 1279.561 L 0 1279.561 L 0 970.726 Z " fill="url(#_lgradient_4)"/><linearGradient id="_lgradient_5" x1="0.5294704950935331" y1="0.9307882593419063" x2="0.523304750475639" y2="-0.010320780424456388" gradientTransform="matrix(497.458,0,0,504.991,588.542,340.506)" gradientUnits="userSpaceOnUse"><stop offset="1.7391304347826086%" stop-opacity="0.6" style="stop-color:rgb(0,251,255)"/><stop offset="97.82608695652173%" stop-opacity="0" style="stop-color:rgb(149,197,255)"/></linearGradient><path d=" M 588.542 340.506 L 708.167 822.311 Q 779.552 847.067 845.008 845.391 Q 910.465 843.714 984.079 823.038 L 1086 340.506 L 588.542 340.506 Z " fill="url(#_lgradient_5)"/><linearGradient id="_lgradient_6" x1="0.5297845829707313" y1="0.9279110895827862" x2="0.5055587854139351" y2="0.15223931096583754" gradientTransform="matrix(269.919,-37.565,56.792,408.07,548.69,456.749)" gradientUnits="userSpaceOnUse"><stop offset="2.1739130434782608%" stop-opacity="0.41" style="stop-color:rgb(227,27,253)"/><stop offset="97.82608695652173%" stop-opacity="0" style="stop-color:rgb(149,197,255)"/></linearGradient><path d=" M 548.69 456.749 L 667.783 837.05 Q 709.3 851.664 744.628 845.367 Q 779.956 839.069 817.573 816.802 L 818.61 419.184 L 548.69 456.749 Z " fill="url(#_lgradient_6)"/><linearGradient id="_lgradient_7" x1="0.5297845829707313" y1="0.9279110895827862" x2="0.5055587854139351" y2="0.15223931096583754" gradientTransform="matrix(267.721,50.92,-76.982,404.747,879.5,407.904)" gradientUnits="userSpaceOnUse"><stop offset="0%" stop-opacity="0.41" style="stop-color:rgb(227,27,253)"/><stop offset="97.82608695652173%" stop-opacity="0" style="stop-color:rgb(149,197,255)"/></linearGradient><path d=" M 879.5 407.904 L 870.433 806.312 Q 905.077 833.461 940.56 838.818 Q 976.043 844.174 1018.812 835.137 L 1147.222 458.823 L 879.5 407.904 Z " fill="url(#_lgradient_7)"/><linearGradient id="_lgradient_8" x1="0.5399201375884224" y1="0.9545785069437249" x2="0.5420071178810114" y2="0.4337966681223472" gradientTransform="matrix(494.202,0,0,112.886,600.17,779.241)" gradientUnits="userSpaceOnUse"><stop offset="0%" stop-opacity="1" style="stop-color:rgb(88,4,244)"/><stop offset="96.95652173913044%" stop-opacity="1" style="stop-color:rgb(149,197,255)"/></linearGradient><ellipse vector-effect="non-scaling-stroke" cx="847.2713824256289" cy="835.6842245804221" rx="247.1010718672087" ry="56.443248675118866" fill="url(#_lgradient_8)" fill-opacity="0.5"/><linearGradient id="_lgradient_9" x1="0.484614831061668" y1="0.8459946532102727" x2="0.5106197093795081" y2="0.1303917572404174" gradientTransform="matrix(277.63,0,0,63.417,708.456,791.35)" gradientUnits="userSpaceOnUse"><stop offset="0%" stop-opacity="1" style="stop-color:rgb(112,39,247)"/><stop offset="96.95652173913044%" stop-opacity="1" style="stop-color:rgb(149,197,255)"/></linearGradient><ellipse vector-effect="non-scaling-stroke" cx="847.2713824256283" cy="823.0581648663682" rx="138.81493413394264" ry="31.70834423313613" fill="url(#_lgradient_9)"/><linearGradient id="_lgradient_10" x1="0.40396451483616036" y1="0.08962564296857511" x2="0.4916123906483154" y2="0.9987578923228052" gradientTransform="matrix(191.765,0,0,418.842,754.853,407.372)" gradientUnits="userSpaceOnUse"><stop offset="1.3043478260869565%" stop-opacity="1" style="stop-color:rgb(255,198,75)"/><stop offset="40%" stop-opacity="1" style="stop-color:rgb(255,61,152)"/><stop offset="62.17391304347826%" stop-opacity="1" style="stop-color:rgb(249,46,120)"/><stop offset="100%" stop-opacity="1" style="stop-color:rgb(236,27,187)"/></linearGradient><path d=" M 820.721 818.381 Q 751.69 839.82 755.005 802.576 C 758.319 765.331 812.741 768.363 810.739 699.842 C 810.051 676.299 779.746 621.647 784.951 583.797 Q 788.674 556.731 814.482 452.78 Q 812.743 443.63 810.739 428.656 C 808.735 413.683 806.365 405.188 814.482 407.86 C 822.599 410.532 833.766 448.318 830.704 456.523 C 827.641 464.728 817.886 551.865 819.113 575.032 C 820.793 606.768 829.477 657.337 841.518 658.249 C 853.962 659.191 853.996 647.435 868.137 649.93 C 883.942 651.594 884.401 655.852 888.102 664.072 C 891.802 672.292 886.854 682.788 877.471 695.266 C 876.042 697.166 874.177 738.363 885.241 741.363 C 904.694 759.696 954.697 781.489 945.5 802.576 Q 932.883 831.502 877.288 818.381 Q 858.218 828.502 857.739 822.125 C 857.26 815.747 869.587 792.052 877.288 796.337 C 884.989 800.622 919.322 809.067 921.376 796.337 C 923.43 783.607 873.317 775.818 848.588 778.452 C 823.86 781.086 791.493 781.641 791.606 791.762 Q 791.72 801.883 817.284 802.576 Q 823.154 786.889 830.704 798.169 C 838.253 809.45 843.938 825.654 834.964 824.204 Q 825.99 822.755 820.721 818.381 Z " fill="url(#_lgradient_10)"/><linearGradient id="_lgradient_11" x1="0.5007254100112685" y1="-0.023219976870971437" x2="0.4673565494929228" y2="1.0448989591937163" gradientTransform="matrix(56.15,0,0,66.964,820.231,757.709)" gradientUnits="userSpaceOnUse"><stop offset="2.1739130434782608%" stop-opacity="1" style="stop-color:rgb(240,82,156)"/><stop offset="100%" stop-opacity="1" style="stop-color:rgb(159,9,132)"/></linearGradient><ellipse vector-effect="non-scaling-stroke" cx="848.3061830920598" cy="791.1910811671951" rx="28.075177828576898" ry="33.48224911408056" fill="url(#_lgradient_11)"/><linearGradient id="_lgradient_12" x1="0.48420865853893913" y1="-0.23216203613728958" x2="0.4903053430994684" y2="0.8395428306202248" gradientTransform="matrix(50.759,0,0,23.158,821.829,803.056)" gradientUnits="userSpaceOnUse"><stop offset="1.7391304347826086%" stop-opacity="1" style="stop-color:rgb(230,166,28)"/><stop offset="100%" stop-opacity="1" style="stop-color:rgb(227,75,151)"/></linearGradient><path d=" M 822.087 808.78 C 821.02 804.055 823.154 800.702 830.622 805.122 C 838.09 809.542 835.804 805.561 841.596 806.323 C 847.388 807.085 844.208 811.852 850 812.005 C 855.792 812.157 853.056 815.639 859 816.706 C 864.944 817.773 866.5 815.731 868.063 812.005 C 869.439 808.723 873.493 811.371 872.405 816.096 C 871.317 820.821 865.525 819.602 862.934 822.803 C 860.71 825.55 856.38 826.918 851.96 825.851 C 847.54 824.784 846.93 825.851 841.596 825.851 C 836.261 825.851 826.964 820.974 825.745 816.706 C 824.525 812.438 823.154 813.505 822.087 808.78 Z " fill="url(#_lgradient_12)"/><linearGradient id="_lgradient_13" x1="0.4337373704078497" y1="0.22765811568029204" x2="0.40782898227202924" y2="1.0582030855002817" gradientTransform="matrix(35.967,0,0,180.635,847.527,539.003)" gradientUnits="userSpaceOnUse"><stop offset="0.8695652173913043%" stop-opacity="1" style="stop-color:rgb(230,166,28)"/><stop offset="41.30434782608695%" stop-opacity="1" style="stop-color:rgb(255,113,122)"/><stop offset="72.17391304347827%" stop-opacity="1" style="stop-color:rgb(255,59,141)"/><stop offset="100%" stop-opacity="1" style="stop-color:rgb(204,5,171)"/></linearGradient><path d=" M 857.432 719.437 C 877.535 722.526 885.085 689.496 883.219 666.528 Q 881.354 643.561 872.405 587.811 Q 878.411 541.842 872.405 539.346 C 866.399 536.851 857.553 548.051 854.104 570.541 Q 851.426 588.01 857.432 594.693 Q 858.541 614.076 852.441 649.322 C 847.582 677.396 842.533 717.147 857.432 719.437 Z " fill="url(#_lgradient_13)"/><linearGradient id="_lgradient_14" x1="0.15480161380470256" y1="0.13134634957568384" x2="0.745344561521663" y2="0.8936836093557602" gradientTransform="matrix(19.698,0,0,19.698,825.135,781.342)" gradientUnits="userSpaceOnUse"><stop offset="1.7391304347826086%" stop-opacity="1" style="stop-color:rgb(255,234,189)"/><stop offset="97.82608695652173%" stop-opacity="1" style="stop-color:rgb(229,134,71)"/></linearGradient><circle vector-effect="non-scaling-stroke" cx="834.9838624780571" cy="791.1910811671949" r="9.848863618779433" fill="url(#_lgradient_14)" stroke-width="3" stroke="rgb(249,221,84)" stroke-linejoin="miter" stroke-linecap="square" stroke-miterlimit="3"/><linearGradient id="_lgradient_15" x1="0.15480161380470256" y1="0.13134634957568384" x2="0.745344561521663" y2="0.8936836093557602" gradientTransform="matrix(19.698,0,0,19.698,850.735,781.342)" gradientUnits="userSpaceOnUse"><stop offset="1.7391304347826086%" stop-opacity="1" style="stop-color:rgb(255,234,189)"/><stop offset="97.82608695652173%" stop-opacity="1" style="stop-color:rgb(229,134,71)"/></linearGradient><circle vector-effect="non-scaling-stroke" cx="860.5840969506063" cy="791.1910811671947" r="9.848863618779433" fill="url(#_lgradient_15)" stroke-width="3" stroke="rgb(249,221,84)" stroke-linejoin="miter" stroke-linecap="square" stroke-miterlimit="3"/><path d=" M 847.693 764.275 C 855.009 764.122 860.496 768.543 859.276 770.981 C 858.057 773.42 853.332 770.524 847.693 770.981 C 840.663 771.551 839.919 773.42 836.719 770.981 C 833.518 768.543 840.516 764.424 847.693 764.275 Z " fill="rgb(133,29,112)"/><linearGradient id="_lgradient_16" x1="0.9289552570350672" y1="0.9390768455098174" x2="-0.3159862424725266" y2="0.3728409031975679" gradientTransform="matrix(74.132,0,0,139.2,668.44,670.574)" gradientUnits="userSpaceOnUse"><stop offset="3.0434782608695654%" stop-opacity="1" style="stop-color:rgb(73,19,211)"/><stop offset="98.69565217391305%" stop-opacity="1" style="stop-color:rgb(77,246,255)"/></linearGradient><path d=" M 668.44 688.455 L 676.635 809.775 L 742.571 785.31 L 735.735 670.574 L 668.44 688.455 Z " fill="url(#_lgradient_16)"/><path d=" M 675.276 697.994 L 681.96 796.938 L 735.735 776.986 L 730.16 683.411 L 675.276 697.994 Z " fill="rgb(255,221,248)"/><linearGradient id="_lgradient_17" x1="0.9289552570350672" y1="0.9390768455098174" x2="-0.3159862424725266" y2="0.3728409031975679" gradientTransform="matrix(3.725,0,0,6.733,681.025,699.345)" gradientUnits="userSpaceOnUse"><stop offset="0.43478260869565216%" stop-opacity="1" style="stop-color:rgb(211,19,156)"/><stop offset="100%" stop-opacity="1" style="stop-color:rgb(255,77,134)"/></linearGradient><ellipse vector-effect="non-scaling-stroke" cx="682.8879652616044" cy="702.7113005326286" rx="1.8625988246781162" ry="3.3667103164347054" fill="url(#_lgradient_17)"/><linearGradient id="_lgradient_18" x1="0.9289552570350672" y1="0.9390768455098174" x2="-0.3159862424725266" y2="0.3728409031975679" gradientTransform="matrix(3.725,0,0,6.733,723.974,686.823)" gradientUnits="userSpaceOnUse"><stop offset="0.43478260869565216%" stop-opacity="1" style="stop-color:rgb(211,19,156)"/><stop offset="100%" stop-opacity="1" style="stop-color:rgb(255,77,134)"/></linearGradient><ellipse vector-effect="non-scaling-stroke" cx="725.8370821271399" cy="690.1897471724114" rx="1.8625988246781162" ry="3.3667103164347054" fill="url(#_lgradient_18)"/><g><defs><linearGradient id="_lgradient_19" x1="0.5" y1="0" x2="0.7555555555555555" y2="0.6413314795990205"><stop offset="0%" style="stop-color:#FFF8C7"/><stop offset="97.82608695652173%" style="stop-color:#FDC05D"/></linearGradient></defs><path d="M 1026.334 804.639 L 1032.065 804.639 C 1033.848 804.639 1035.296 806.087 1035.296 807.87 L 1035.296 853.878 C 1035.296 855.661 1033.848 857.109 1032.065 857.109 L 1026.334 857.109 C 1024.551 857.109 1023.103 855.661 1023.103 853.878 L 1023.103 807.87 C 1023.103 806.087 1024.551 804.639 1026.334 804.639 Z" style="stroke:none;fill:url(#_lgradient_19);stroke-miterlimit:10;"/><radialGradient id="_rgradient_0" fx="0.5" fy="0.5" cx="0.5" cy="0.5" r="0.5" gradientTransform="matrix(59.544,-2.235,0,55.479,1000.647,756.675)" gradientUnits="userSpaceOnUse"><stop offset="1.3043478260869565%" stop-opacity="1" style="stop-color:rgb(255,97,35)"/><stop offset="100%" stop-opacity="1" style="stop-color:rgb(253,255,235)"/></radialGradient><circle vector-effect="non-scaling-stroke" cx="1030.418898338809" cy="783.2970489548475" r="27.739715740012798" fill="url(#_rgradient_0)" fill-opacity="0.5"/><radialGradient id="_rgradient_1" fx="0.5" fy="0.5" cx="0.5" cy="0.5" r="0.5" gradientTransform="matrix(110.581,-4.152,0,103.033,975.128,733.856)" gradientUnits="userSpaceOnUse"><stop offset="1.3043478260869565%" stop-opacity="1" style="stop-color:rgb(255,97,35)"/><stop offset="100%" stop-opacity="1" style="stop-color:rgb(253,255,235)"/></radialGradient><circle vector-effect="non-scaling-stroke" cx="1030.4188983388094" cy="783.2970489548478" r="51.516614945737956" fill="url(#_rgradient_1)" fill-opacity="0.2"/><linearGradient id="_lgradient_20" x1="0.48123438759310494" y1="0.06063304728359675" x2="0.5001646106351482" y2="1.0082400609887405" gradientTransform="matrix(20.77,0,0,33.532,1018.815,767.14)" gradientUnits="userSpaceOnUse"><stop offset="1.7391304347826086%" stop-opacity="1" style="stop-color:rgb(253,103,193)"/><stop offset="99.1304347826087%" stop-opacity="1" style="stop-color:rgb(249,40,95)"/></linearGradient><path d=" M 1029.826 800.673 C 1035.467 800.673 1039.733 796.405 1039.581 790.918 C 1039.428 785.431 1040.038 779.03 1037.752 779.335 C 1035.465 779.64 1037.752 784.669 1035.923 784.822 C 1034.094 784.974 1035.465 766.989 1033.484 767.141 C 1031.502 767.294 1033.484 779.64 1031.655 779.944 C 1029.826 780.249 1031.502 772.933 1029.826 773.238 C 1028.149 773.543 1029.521 786.803 1027.997 786.651 C 1026.473 786.498 1027.692 770.19 1024.949 770.19 C 1022.205 770.19 1025.253 784.822 1023.12 784.822 C 1020.986 784.822 1022.967 781.773 1020.681 781.773 C 1018.395 781.773 1018.852 786.041 1018.852 790.918 C 1018.852 795.796 1024.034 800.673 1029.826 800.673 Z " fill="url(#_lgradient_20)"/><defs><linearGradient id="_lgradient_21" x1="0.48123438759310494" y1="0.06063304728359675" x2="0.5001646106351482" y2="1.0082400609887405"><stop offset="1.7391304347826086%" style="stop-color:#FD67C1"/><stop offset="99.1304347826087%" style="stop-color:#F9285F"/></linearGradient></defs><path d="M 1020.673 774.763 L 1020.673 774.763 C 1021.341 774.763 1021.884 775.305 1021.884 775.974 L 1021.884 777.82 C 1021.884 778.488 1021.341 779.03 1020.673 779.03 L 1020.673 779.03 C 1020.004 779.03 1019.462 778.488 1019.462 777.82 L 1019.462 775.974 C 1019.462 775.305 1020.004 774.763 1020.673 774.763 Z" style="stroke:none;fill:url(#_lgradient_21);stroke-miterlimit:10;"/><defs><linearGradient id="_lgradient_22" x1="0.48123438759310494" y1="0.06063304728359675" x2="0.5001646106351482" y2="1.0082400609887405"><stop offset="1.7391304347826086%" style="stop-color:#FD67C1"/><stop offset="99.1304347826087%" style="stop-color:#F9285F"/></linearGradient></defs><path d="M 1038.353 773.545 L 1038.353 773.545 C 1039.021 773.545 1039.564 774.087 1039.564 774.756 L 1039.564 775.686 C 1039.564 776.354 1039.021 776.897 1038.353 776.897 L 1038.353 776.897 C 1037.685 776.897 1037.142 776.354 1037.142 775.686 L 1037.142 774.756 C 1037.142 774.087 1037.685 773.545 1038.353 773.545 Z" style="stroke:none;fill:url(#_lgradient_22);stroke-miterlimit:10;"/><defs><linearGradient id="_lgradient_23" x1="0.48123438759310494" y1="0.06063304728359675" x2="0.5001646106351482" y2="1.0082400609887405"><stop offset="1.7391304347826086%" style="stop-color:#FD67C1"/><stop offset="99.1304347826087%" style="stop-color:#F9285F"/></linearGradient></defs><path d="M 1029.2 765.314 L 1029.2 765.314 C 1029.868 765.314 1030.411 765.857 1030.411 766.525 L 1030.411 767.455 C 1030.411 768.124 1029.868 768.666 1029.2 768.666 L 1029.2 768.666 C 1028.531 768.666 1027.989 768.124 1027.989 767.455 L 1027.989 766.525 C 1027.989 765.857 1028.531 765.314 1029.2 765.314 Z" style="stroke:none;fill:url(#_lgradient_23);stroke-miterlimit:10;"/></g><linearGradient id="_lgradient_24" x1="0.5120068610634648" y1="-0.15766940163903875" x2="0.4999999999999999" y2="1" gradientTransform="matrix(48.823,-21.482,19.774,44.942,842.083,887.575)" gradientUnits="userSpaceOnUse"><stop offset="0%" stop-opacity="1" style="stop-color:rgb(112,39,247)"/><stop offset="96.95652173913044%" stop-opacity="1" style="stop-color:rgb(149,197,255)"/></linearGradient><polygon points="899.607,912.733,876.366,926.133,853.14,912.706,853.156,885.878,876.397,872.477,899.623,885.905" fill="url(#_lgradient_24)" fill-opacity="0.5"/><linearGradient id="_lgradient_25" x1="0.5120068610634648" y1="-0.15766940163903875" x2="0.4999999999999999" y2="1" gradientTransform="matrix(48.823,-21.482,19.774,44.942,554.243,821.421)" gradientUnits="userSpaceOnUse"><stop offset="0%" stop-opacity="1" style="stop-color:rgb(112,39,247)"/><stop offset="96.95652173913044%" stop-opacity="1" style="stop-color:rgb(149,197,255)"/></linearGradient><polygon points="611.768,846.578,588.526,859.979,565.3,846.551,565.316,819.724,588.557,806.323,611.783,819.751" fill="url(#_lgradient_25)" fill-opacity="0.5"/><linearGradient id="_lgradient_26" x1="0.5120068610634648" y1="-0.15766940163903875" x2="0.4999999999999999" y2="1" gradientTransform="matrix(28.722,-12.637,11.633,26.438,726.662,805.112)" gradientUnits="userSpaceOnUse"><stop offset="0%" stop-opacity="1" style="stop-color:rgb(112,39,247)"/><stop offset="96.95652173913044%" stop-opacity="1" style="stop-color:rgb(149,197,255)"/></linearGradient><polygon points="760.503,819.912,746.831,827.795,733.167,819.896,733.176,804.114,746.849,796.23,760.512,804.13" fill="url(#_lgradient_26)" fill-opacity="0.5"/><linearGradient id="_lgradient_27" x1="0.5120068610634648" y1="-0.15766940163903875" x2="0.4999999999999999" y2="1" gradientTransform="matrix(31.98,-14.071,12.952,29.437,1038.351,889.491)" gradientUnits="userSpaceOnUse"><stop offset="0%" stop-opacity="1" style="stop-color:rgb(112,39,247)"/><stop offset="96.95652173913044%" stop-opacity="1" style="stop-color:rgb(149,197,255)"/></linearGradient><polygon points="1076.03,905.969,1060.807,914.747,1045.594,905.951,1045.604,888.379,1060.827,879.601,1076.041,888.397" fill="url(#_lgradient_27)" fill-opacity="0.5"/><linearGradient id="_lgradient_28" x1="0.5120068610634648" y1="-0.15766940163903875" x2="0.4999999999999999" y2="1" gradientTransform="matrix(48.823,-21.482,19.774,44.942,1070.005,836.102)" gradientUnits="userSpaceOnUse"><stop offset="0%" stop-opacity="1" style="stop-color:rgb(112,39,247)"/><stop offset="96.95652173913044%" stop-opacity="1" style="stop-color:rgb(149,197,255)"/></linearGradient><polygon points="1127.529,861.259,1104.287,874.659,1081.062,861.232,1081.077,834.404,1104.319,821.004,1127.545,834.431" fill="url(#_lgradient_28)" fill-opacity="0.5"/><linearGradient id="_lgradient_29" x1="0.1925654925481251" y1="0.9144144144144145" x2="0.9078087505840178" y2="0.27927927927927976" gradientTransform="matrix(88.648,0,0,67.673,725.76,838.044)" gradientUnits="userSpaceOnUse"><stop offset="0%" stop-opacity="1" style="stop-color:rgb(204,13,159)"/><stop offset="100%" stop-opacity="1" style="stop-color:rgb(255,92,129)"/></linearGradient><path d=" M 725.76 838.044 L 814.408 853.819 L 814.408 905.717 L 725.76 884.379 L 725.76 838.044 Z " fill="url(#_lgradient_29)"/><linearGradient id="_lgradient_30" x1="-0.5855110771861737" y1="0.3654229947704297" x2="1.0130113572708037" y2="0.5029906001162127" gradientTransform="matrix(19.872,0,0,33.24,814.408,872.477)" gradientUnits="userSpaceOnUse"><stop offset="1.3043478260869565%" stop-opacity="1" style="stop-color:rgb(208,19,157)"/><stop offset="100%" stop-opacity="1" style="stop-color:rgb(255,147,176)"/></linearGradient><path d=" M 834.28 876.866 L 814.408 905.717 L 814.408 872.477 L 834.28 876.866 Z " fill="url(#_lgradient_30)"/><linearGradient id="_lgradient_31" x1="-0.21348314606741425" y1="0.322156447779289" x2="0.8679775280898885" y2="1.3976682173028157" gradientTransform="matrix(108.52,0,0,33.728,725.76,876.866)" gradientUnits="userSpaceOnUse"><stop offset="0%" stop-opacity="1" style="stop-color:rgb(253,88,130)"/><stop offset="38.26622984740055%" stop-opacity="1" style="stop-color:rgb(238,66,186)"/><stop offset="100%" stop-opacity="1" style="stop-color:rgb(253,89,130)"/></linearGradient><path d=" M 834.28 876.866 L 834.28 884.379 L 815.99 910.594 L 725.76 889.256 L 725.76 884.379 L 814.408 905.717 L 834.28 876.866 Z " fill="url(#_lgradient_31)"/><polygon points="766.297,879.601,760.512,865.351,775.746,867.467" fill="rgb(255,99,216)"/><linearGradient id="_lgradient_32" x1="0" y1="0.5" x2="1" y2="0.5" gradientTransform="matrix(50.663,0,0,23.259,885.166,840.829)" gradientUnits="userSpaceOnUse"><stop offset="0%" stop-opacity="1" style="stop-color:rgb(224,44,147)"/><stop offset="97.82608695652173%" stop-opacity="1" style="stop-color:rgb(250,84,132)"/></linearGradient><path d=" M 885.166 845.218 L 911.243 864.088 L 935.829 857.863 L 935.829 853.812 L 911.243 858.921 L 885.166 840.829 L 885.166 845.218 Z " fill="url(#_lgradient_32)"/><linearGradient id="_lgradient_33" x1="0" y1="0.5" x2="1" y2="0.5" gradientTransform="matrix(50.663,0,0,24.295,885.166,835.684)" gradientUnits="userSpaceOnUse"><stop offset="0%" stop-opacity="1" style="stop-color:rgb(223,42,148)"/><stop offset="98.26086956521739%" stop-opacity="1" style="stop-color:rgb(253,203,155)"/></linearGradient><path d=" M 885.166 840.811 L 911.243 859.979 L 935.829 853.812 L 904.537 835.684 L 885.166 840.811 Z " fill="url(#_lgradient_33)"/><line x1="892.617" y1="840.811" x2="901.557" y2="838.044" vector-effect="non-scaling-stroke" stroke-width="1" stroke="rgb(251,195,154)" stroke-linejoin="miter" stroke-linecap="square" stroke-miterlimit="3"/><path d=" M 696.671 724.957 C 697.975 712.105 698.72 708.38 705.612 706.331 C 712.503 704.282 721.258 715.086 719.022 723.467 C 716.787 731.849 710.454 732.408 711.572 735.388 C 712.69 738.368 727.404 738.368 727.218 744.328 C 727.032 750.289 717.346 738.554 714.552 744.328 C 711.758 750.102 730.943 752.896 727.218 759.974 C 723.493 767.052 714.552 750.475 708.592 751.779 C 702.632 753.083 713.807 770.032 708.592 771.895 C 703.377 773.757 704.68 742.652 699.651 742.093 C 694.622 741.534 680.28 733.898 683.26 728.683 C 686.241 723.467 693.691 739.299 698.161 735.388 C 702.632 731.476 695.367 737.809 696.671 724.957 Z " fill="rgb(137,11,255)"/><g><linearGradient id="_lgradient_34" x1="0" y1="0.5" x2="1" y2="0.5" gradientTransform="matrix(-81.331,-13.068,-6.602,41.086,683.293,825.221)" gradientUnits="userSpaceOnUse"><stop offset="1.3043478260869565%" stop-opacity="1" style="stop-color:rgb(246,74,255)"/><stop offset="97.82608695652173%" stop-opacity="1" style="stop-color:rgb(217,231,255)"/></linearGradient><path d=" M 661.14 823.347 Q 647.59 817.798 638.441 819.7 C 629.292 821.602 629.649 836.045 618.681 837.654 Q 607.713 839.264 598.037 836.585 L 636.532 859.854 Q 649.071 860.97 653.389 854.92 C 657.708 848.87 656.391 838.319 665.482 837.981 Q 674.572 837.644 680.846 840.45 L 661.14 823.347 Z " fill="url(#_lgradient_34)"/><line x1="656.235" y1="837.208" x2="645.336" y2="829.246" vector-effect="non-scaling-stroke" stroke-width="3" stroke="rgb(249,211,255)" stroke-linejoin="miter" stroke-linecap="square" stroke-miterlimit="3"/><line x1="654.347" y1="840.627" x2="638.037" y2="828.852" vector-effect="non-scaling-stroke" stroke-width="3" stroke="rgb(249,211,255)" stroke-linejoin="miter" stroke-linecap="square" stroke-miterlimit="3"/></g><path d=" M 725.76 886.135 Q 704.618 891.598 700.396 882.906 C 696.174 874.214 713.31 874.71 712.317 869.495 C 711.324 864.28 693.976 867.214 692.946 858.921 Q 692.061 851.8 706.357 848.317" fill="none" vector-effect="non-scaling-stroke" stroke-width="1" stroke="rgb(207,18,157)" stroke-linejoin="miter" stroke-linecap="square" stroke-miterlimit="3"/><linearGradient id="_lgradient_35" x1="-0.13419913419913193" y1="0.4481060606060559" x2="0.737012987012988" y2="1.036174242424238" gradientTransform="matrix(13.924,-7.135,4.077,7.957,700.326,844.453)" gradientUnits="userSpaceOnUse"><stop offset="1.7391304347826086%" stop-opacity="1" style="stop-color:rgb(221,39,149)"/><stop offset="97.3913043478261%" stop-opacity="1" style="stop-color:rgb(244,75,136)"/></linearGradient><path d=" M 702.365 848.432 C 701.24 846.236 703.446 842.855 707.289 840.886 C 711.131 838.917 715.164 839.101 716.289 841.297 C 717.414 843.493 715.208 846.874 711.366 848.843 C 707.523 850.812 703.49 850.627 702.365 848.432 Z " fill="url(#_lgradient_35)"/><path d=" M 707.102 844.164 Q 705.006 845.188 704.122 846.399 Q 703.237 847.609 703.377 848.634 Q 704.308 849.425 705.612 849.379 Q 706.915 849.332 709.337 848.317 Q 709.29 846.492 708.592 845.654 Q 707.893 844.816 707.102 844.164 Z " fill="rgb(238,92,168)"/><path d=" M 702.632 847.889 Q 702.97 846.215 704.087 845.218 Q 705.006 844.396 706.357 843.419 L 704.867 843.419 Q 703.485 844.408 703.035 845.218 Q 702.177 846.76 702.632 847.889 Z " fill="rgb(238,92,168)"/><linearGradient id="_lgradient_36" x1="0" y1="0.5" x2="1" y2="0.5" gradientTransform="matrix(55.133,0,0,55.133,507.209,601.755)" gradientUnits="userSpaceOnUse"><stop offset="0%" stop-opacity="1" style="stop-color:rgb(198,129,255)"/><stop offset="98.69565217391305%" stop-opacity="1" style="stop-color:rgb(255,234,254)"/></linearGradient><circle vector-effect="non-scaling-stroke" cx="534.7750184155838" cy="629.3210605343928" r="27.566462605236552" fill="url(#_lgradient_36)"/><linearGradient id="_lgradient_37" x1="0" y1="0.5" x2="1" y2="0.5" gradientTransform="matrix(41.327,0,0,41.327,1081.062,441.111)" gradientUnits="userSpaceOnUse"><stop offset="1.7391304347826086%" stop-opacity="1" style="stop-color:rgb(214,239,255)"/><stop offset="100%" stop-opacity="1" style="stop-color:rgb(226,215,255)"/></linearGradient><circle vector-effect="non-scaling-stroke" cx="1101.725208868589" cy="461.7741832530014" r="20.663490222019163" fill="url(#_lgradient_37)"/><path d=" M 497.757 939.143 C 491.832 939.143 487.022 934.333 487.022 928.408 C 487.022 922.483 491.832 917.673 497.757 917.673 C 503.682 917.673 508.492 922.483 508.492 928.408 C 508.492 934.333 503.682 939.143 497.757 939.143 L 497.757 939.143 L 497.757 939.143 L 497.757 939.143 L 497.757 939.143 L 497.757 939.143 L 497.757 939.143 L 497.757 939.143 L 497.757 939.143 L 497.757 939.143 L 497.757 939.143 L 497.757 939.143 L 497.757 939.143 L 497.757 939.143 Z  M 497.757 970.143 C 491.832 970.143 487.022 965.333 487.022 959.408 C 487.022 953.483 491.832 948.673 497.757 948.673 C 503.682 948.673 508.492 953.483 508.492 959.408 C 508.492 965.333 503.682 970.143 497.757 970.143 L 497.757 970.143 L 497.757 970.143 L 497.757 970.143 L 497.757 970.143 L 497.757 970.143 L 497.757 970.143 L 497.757 970.143 L 497.757 970.143 L 497.757 970.143 L 497.757 970.143 L 497.757 970.143 L 497.757 970.143 Z  M 403.735 970.143 C 397.81 970.143 393 965.333 393 959.408 C 393 953.483 397.81 948.673 403.735 948.673 C 409.659 948.673 414.47 953.483 414.47 959.408 C 414.47 965.333 409.659 970.143 403.735 970.143 L 403.735 970.143 L 403.735 970.143 L 403.735 970.143 L 403.735 970.143 L 403.735 970.143 L 403.735 970.143 L 403.735 970.143 L 403.735 970.143 L 403.735 970.143 L 403.735 970.143 L 403.735 970.143 L 403.735 970.143 L 403.735 970.143 L 403.735 970.143 L 403.735 970.143 L 403.735 970.143 L 403.735 970.143 L 403.735 970.143 L 403.735 970.143 L 403.735 970.143 L 403.735 970.143 Z  M 435.075 1001.143 C 429.151 1001.143 424.341 996.333 424.341 990.408 C 424.341 984.483 429.151 979.673 435.075 979.673 C 441 979.673 445.81 984.483 445.81 990.408 C 445.81 996.333 441 1001.143 435.075 1001.143 L 435.075 1001.143 L 435.075 1001.143 L 435.075 1001.143 L 435.075 1001.143 L 435.075 1001.143 L 435.075 1001.143 L 435.075 1001.143 L 435.075 1001.143 L 435.075 1001.143 L 435.075 1001.143 L 435.075 1001.143 L 435.075 1001.143 L 435.075 1001.143 L 435.075 1001.143 L 435.075 1001.143 L 435.075 1001.143 L 435.075 1001.143 L 435.075 1001.143 L 435.075 1001.143 L 435.075 1001.143 Z  M 435.075 939.143 C 429.151 939.143 424.341 934.333 424.341 928.408 C 424.341 922.483 429.151 917.673 435.075 917.673 C 441 917.673 445.81 922.483 445.81 928.408 C 445.81 934.333 441 939.143 435.075 939.143 L 435.075 939.143 L 435.075 939.143 L 435.075 939.143 L 435.075 939.143 L 435.075 939.143 L 435.075 939.143 L 435.075 939.143 L 435.075 939.143 L 435.075 939.143 L 435.075 939.143 L 435.075 939.143 L 435.075 939.143 L 435.075 939.143 L 435.075 939.143 L 435.075 939.143 L 435.075 939.143 L 435.075 939.143 L 435.075 939.143 L 435.075 939.143 Z  M 403.735 939.143 C 397.81 939.143 393 934.333 393 928.408 C 393 922.483 397.81 917.673 403.735 917.673 C 409.659 917.673 414.47 922.483 414.47 928.408 C 414.47 934.333 409.659 939.143 403.735 939.143 L 403.735 939.143 L 403.735 939.143 L 403.735 939.143 L 403.735 939.143 L 403.735 939.143 L 403.735 939.143 L 403.735 939.143 L 403.735 939.143 L 403.735 939.143 L 403.735 939.143 L 403.735 939.143 L 403.735 939.143 L 403.735 939.143 L 403.735 939.143 L 403.735 939.143 L 403.735 939.143 L 403.735 939.143 L 403.735 939.143 L 403.735 939.143 L 403.735 939.143 L 403.735 939.143 L 403.735 939.143 Z  M 435.075 970.143 C 429.151 970.143 424.341 965.333 424.341 959.408 C 424.341 953.483 429.151 948.673 435.075 948.673 C 441 948.673 445.81 953.483 445.81 959.408 C 445.81 965.333 441 970.143 435.075 970.143 L 435.075 970.143 L 435.075 970.143 L 435.075 970.143 L 435.075 970.143 L 435.075 970.143 L 435.075 970.143 L 435.075 970.143 L 435.075 970.143 L 435.075 970.143 L 435.075 970.143 L 435.075 970.143 L 435.075 970.143 L 435.075 970.143 L 435.075 970.143 L 435.075 970.143 L 435.075 970.143 L 435.075 970.143 L 435.075 970.143 Z  M 403.735 1001.143 C 397.81 1001.143 393 996.333 393 990.408 C 393 984.483 397.81 979.673 403.735 979.673 C 409.659 979.673 414.47 984.483 414.47 990.408 C 414.47 996.333 409.659 1001.143 403.735 1001.143 L 403.735 1001.143 L 403.735 1001.143 L 403.735 1001.143 L 403.735 1001.143 L 403.735 1001.143 L 403.735 1001.143 L 403.735 1001.143 L 403.735 1001.143 L 403.735 1001.143 L 403.735 1001.143 L 403.735 1001.143 L 403.735 1001.143 L 403.735 1001.143 L 403.735 1001.143 L 403.735 1001.143 L 403.735 1001.143 L 403.735 1001.143 L 403.735 1001.143 L 403.735 1001.143 L 403.735 1001.143 L 403.735 1001.143 L 403.735 1001.143 Z  M 466.416 1001.143 C 460.492 1001.143 455.681 996.333 455.681 990.408 C 455.681 984.483 460.492 979.673 466.416 979.673 C 472.341 979.673 477.151 984.483 477.151 990.408 C 477.151 996.333 472.341 1001.143 466.416 1001.143 L 466.416 1001.143 L 466.416 1001.143 L 466.416 1001.143 L 466.416 1001.143 L 466.416 1001.143 L 466.416 1001.143 L 466.416 1001.143 L 466.416 1001.143 L 466.416 1001.143 L 466.416 1001.143 L 466.416 1001.143 L 466.416 1001.143 L 466.416 1001.143 L 466.416 1001.143 L 466.416 1001.143 L 466.416 1001.143 L 466.416 1001.143 Z  M 466.416 939.143 C 460.492 939.143 455.681 934.333 455.681 928.408 C 455.681 922.483 460.492 917.673 466.416 917.673 C 472.341 917.673 477.151 922.483 477.151 928.408 C 477.151 934.333 472.341 939.143 466.416 939.143 L 466.416 939.143 L 466.416 939.143 L 466.416 939.143 L 466.416 939.143 L 466.416 939.143 L 466.416 939.143 L 466.416 939.143 L 466.416 939.143 L 466.416 939.143 L 466.416 939.143 L 466.416 939.143 L 466.416 939.143 L 466.416 939.143 L 466.416 939.143 L 466.416 939.143 L 466.416 939.143 Z  M 466.416 970.143 C 460.492 970.143 455.681 965.333 455.681 959.408 C 455.681 953.483 460.492 948.673 466.416 948.673 C 472.341 948.673 477.151 953.483 477.151 959.408 C 477.151 965.333 472.341 970.143 466.416 970.143 L 466.416 970.143 L 466.416 970.143 L 466.416 970.143 L 466.416 970.143 L 466.416 970.143 L 466.416 970.143 L 466.416 970.143 L 466.416 970.143 L 466.416 970.143 L 466.416 970.143 L 466.416 970.143 L 466.416 970.143 L 466.416 970.143 L 466.416 970.143 L 466.416 970.143 Z  M 497.757 1001.143 C 491.832 1001.143 487.022 996.333 487.022 990.408 C 487.022 984.483 491.832 979.673 497.757 979.673 C 503.682 979.673 508.492 984.483 508.492 990.408 C 508.492 996.333 503.682 1001.143 497.757 1001.143 L 497.757 1001.143 L 497.757 1001.143 L 497.757 1001.143 L 497.757 1001.143 L 497.757 1001.143 L 497.757 1001.143 L 497.757 1001.143 L 497.757 1001.143 L 497.757 1001.143 L 497.757 1001.143 L 497.757 1001.143 L 497.757 1001.143 L 497.757 1001.143 L 497.757 1001.143 Z  M 403.735 908.143 C 397.81 908.143 393 903.333 393 897.408 C 393 891.483 397.81 886.673 403.735 886.673 C 409.659 886.673 414.47 891.483 414.47 897.408 C 414.47 903.333 409.659 908.143 403.735 908.143 L 403.735 908.143 L 403.735 908.143 L 403.735 908.143 L 403.735 908.143 L 403.735 908.143 L 403.735 908.143 L 403.735 908.143 L 403.735 908.143 L 403.735 908.143 L 403.735 908.143 L 403.735 908.143 Z  M 403.735 846.143 C 397.81 846.143 393 841.333 393 835.408 C 393 829.483 397.81 824.673 403.735 824.673 C 409.659 824.673 414.47 829.483 414.47 835.408 C 414.47 841.333 409.659 846.143 403.735 846.143 L 403.735 846.143 L 403.735 846.143 L 403.735 846.143 L 403.735 846.143 L 403.735 846.143 L 403.735 846.143 L 403.735 846.143 L 403.735 846.143 L 403.735 846.143 L 403.735 846.143 Z  M 403.735 877.143 C 397.81 877.143 393 872.333 393 866.408 C 393 860.483 397.81 855.673 403.735 855.673 C 409.659 855.673 414.47 860.483 414.47 866.408 C 414.47 872.333 409.659 877.143 403.735 877.143 L 403.735 877.143 L 403.735 877.143 L 403.735 877.143 L 403.735 877.143 L 403.735 877.143 L 403.735 877.143 L 403.735 877.143 L 403.735 877.143 L 403.735 877.143 Z  M 435.075 908.143 C 429.151 908.143 424.341 903.333 424.341 897.408 C 424.341 891.483 429.151 886.673 435.075 886.673 C 441 886.673 445.81 891.483 445.81 897.408 C 445.81 903.333 441 908.143 435.075 908.143 L 435.075 908.143 L 435.075 908.143 L 435.075 908.143 L 435.075 908.143 L 435.075 908.143 L 435.075 908.143 L 435.075 908.143 L 435.075 908.143 Z  M 435.075 846.143 C 429.151 846.143 424.341 841.333 424.341 835.408 C 424.341 829.483 429.151 824.673 435.075 824.673 C 441 824.673 445.81 829.483 445.81 835.408 C 445.81 841.333 441 846.143 435.075 846.143 L 435.075 846.143 L 435.075 846.143 L 435.075 846.143 L 435.075 846.143 L 435.075 846.143 L 435.075 846.143 L 435.075 846.143 Z  M 435.075 877.143 C 429.151 877.143 424.341 872.333 424.341 866.408 C 424.341 860.483 429.151 855.673 435.075 855.673 C 441 855.673 445.81 860.483 445.81 866.408 C 445.81 872.333 441 877.143 435.075 877.143 L 435.075 877.143 L 435.075 877.143 L 435.075 877.143 L 435.075 877.143 L 435.075 877.143 L 435.075 877.143 Z  M 466.416 908.143 C 460.492 908.143 455.681 903.333 455.681 897.408 C 455.681 891.483 460.492 886.673 466.416 886.673 C 472.341 886.673 477.151 891.483 477.151 897.408 C 477.151 903.333 472.341 908.143 466.416 908.143 L 466.416 908.143 L 466.416 908.143 L 466.416 908.143 L 466.416 908.143 L 466.416 908.143 Z  M 466.416 846.143 C 460.492 846.143 455.681 841.333 455.681 835.408 C 455.681 829.483 460.492 824.673 466.416 824.673 C 472.341 824.673 477.151 829.483 477.151 835.408 C 477.151 841.333 472.341 846.143 466.416 846.143 L 466.416 846.143 L 466.416 846.143 L 466.416 846.143 L 466.416 846.143 Z  M 466.416 877.143 C 460.492 877.143 455.681 872.333 455.681 866.408 C 455.681 860.483 460.492 855.673 466.416 855.673 C 472.341 855.673 477.151 860.483 477.151 866.408 C 477.151 872.333 472.341 877.143 466.416 877.143 L 466.416 877.143 L 466.416 877.143 L 466.416 877.143 Z  M 497.757 908.143 C 491.832 908.143 487.022 903.333 487.022 897.408 C 487.022 891.483 491.832 886.673 497.757 886.673 C 503.682 886.673 508.492 891.483 508.492 897.408 C 508.492 903.333 503.682 908.143 497.757 908.143 L 497.757 908.143 L 497.757 908.143 Z  M 497.757 846.143 C 491.832 846.143 487.022 841.333 487.022 835.408 C 487.022 829.483 491.832 824.673 497.757 824.673 C 503.682 824.673 508.492 829.483 508.492 835.408 C 508.492 841.333 503.682 846.143 497.757 846.143 L 497.757 846.143 Z  M 497.757 877.143 C 491.832 877.143 487.022 872.333 487.022 866.408 C 487.022 860.483 491.832 855.673 497.757 855.673 C 503.682 855.673 508.492 860.483 508.492 866.408 C 508.492 872.333 503.682 877.143 497.757 877.143 Z " fill-rule="evenodd" fill="rgb(181,69,212)"/><path d=" M 1298.265 974.448 C 1292.341 974.448 1287.53 969.638 1287.53 963.714 C 1287.53 957.789 1292.341 952.979 1298.265 952.979 C 1304.19 952.979 1309 957.789 1309 963.714 C 1309 969.638 1304.19 974.448 1298.265 974.448 L 1298.265 974.448 L 1298.265 974.448 L 1298.265 974.448 L 1298.265 974.448 L 1298.265 974.448 L 1298.265 974.448 L 1298.265 974.448 L 1298.265 974.448 L 1298.265 974.448 L 1298.265 974.448 L 1298.265 974.448 L 1298.265 974.448 L 1298.265 974.448 Z  M 1298.265 1005.448 C 1292.341 1005.448 1287.53 1000.638 1287.53 994.714 C 1287.53 988.789 1292.341 983.979 1298.265 983.979 C 1304.19 983.979 1309 988.789 1309 994.714 C 1309 1000.638 1304.19 1005.448 1298.265 1005.448 L 1298.265 1005.448 L 1298.265 1005.448 L 1298.265 1005.448 L 1298.265 1005.448 L 1298.265 1005.448 L 1298.265 1005.448 L 1298.265 1005.448 L 1298.265 1005.448 L 1298.265 1005.448 L 1298.265 1005.448 L 1298.265 1005.448 L 1298.265 1005.448 Z  M 1204.243 1005.448 C 1198.318 1005.448 1193.508 1000.638 1193.508 994.714 C 1193.508 988.789 1198.318 983.979 1204.243 983.979 C 1210.168 983.979 1214.978 988.789 1214.978 994.714 C 1214.978 1000.638 1210.168 1005.448 1204.243 1005.448 L 1204.243 1005.448 L 1204.243 1005.448 L 1204.243 1005.448 L 1204.243 1005.448 L 1204.243 1005.448 L 1204.243 1005.448 L 1204.243 1005.448 L 1204.243 1005.448 L 1204.243 1005.448 L 1204.243 1005.448 L 1204.243 1005.448 L 1204.243 1005.448 L 1204.243 1005.448 L 1204.243 1005.448 L 1204.243 1005.448 L 1204.243 1005.448 L 1204.243 1005.448 L 1204.243 1005.448 L 1204.243 1005.448 L 1204.243 1005.448 L 1204.243 1005.448 Z  M 1235.584 1036.448 C 1229.659 1036.448 1224.849 1031.638 1224.849 1025.714 C 1224.849 1019.789 1229.659 1014.979 1235.584 1014.979 C 1241.508 1014.979 1246.319 1019.789 1246.319 1025.714 C 1246.319 1031.638 1241.508 1036.448 1235.584 1036.448 L 1235.584 1036.448 L 1235.584 1036.448 L 1235.584 1036.448 L 1235.584 1036.448 L 1235.584 1036.448 L 1235.584 1036.448 L 1235.584 1036.448 L 1235.584 1036.448 L 1235.584 1036.448 L 1235.584 1036.448 L 1235.584 1036.448 L 1235.584 1036.448 L 1235.584 1036.448 L 1235.584 1036.448 L 1235.584 1036.448 L 1235.584 1036.448 L 1235.584 1036.448 L 1235.584 1036.448 L 1235.584 1036.448 L 1235.584 1036.448 Z  M 1235.584 974.448 C 1229.659 974.448 1224.849 969.638 1224.849 963.714 C 1224.849 957.789 1229.659 952.979 1235.584 952.979 C 1241.508 952.979 1246.319 957.789 1246.319 963.714 C 1246.319 969.638 1241.508 974.448 1235.584 974.448 L 1235.584 974.448 L 1235.584 974.448 L 1235.584 974.448 L 1235.584 974.448 L 1235.584 974.448 L 1235.584 974.448 L 1235.584 974.448 L 1235.584 974.448 L 1235.584 974.448 L 1235.584 974.448 L 1235.584 974.448 L 1235.584 974.448 L 1235.584 974.448 L 1235.584 974.448 L 1235.584 974.448 L 1235.584 974.448 L 1235.584 974.448 L 1235.584 974.448 L 1235.584 974.448 Z  M 1204.243 974.448 C 1198.318 974.448 1193.508 969.638 1193.508 963.714 C 1193.508 957.789 1198.318 952.979 1204.243 952.979 C 1210.168 952.979 1214.978 957.789 1214.978 963.714 C 1214.978 969.638 1210.168 974.448 1204.243 974.448 L 1204.243 974.448 L 1204.243 974.448 L 1204.243 974.448 L 1204.243 974.448 L 1204.243 974.448 L 1204.243 974.448 L 1204.243 974.448 L 1204.243 974.448 L 1204.243 974.448 L 1204.243 974.448 L 1204.243 974.448 L 1204.243 974.448 L 1204.243 974.448 L 1204.243 974.448 L 1204.243 974.448 L 1204.243 974.448 L 1204.243 974.448 L 1204.243 974.448 L 1204.243 974.448 L 1204.243 974.448 L 1204.243 974.448 L 1204.243 974.448 Z  M 1235.584 1005.448 C 1229.659 1005.448 1224.849 1000.638 1224.849 994.714 C 1224.849 988.789 1229.659 983.979 1235.584 983.979 C 1241.508 983.979 1246.319 988.789 1246.319 994.714 C 1246.319 1000.638 1241.508 1005.448 1235.584 1005.448 L 1235.584 1005.448 L 1235.584 1005.448 L 1235.584 1005.448 L 1235.584 1005.448 L 1235.584 1005.448 L 1235.584 1005.448 L 1235.584 1005.448 L 1235.584 1005.448 L 1235.584 1005.448 L 1235.584 1005.448 L 1235.584 1005.448 L 1235.584 1005.448 L 1235.584 1005.448 L 1235.584 1005.448 L 1235.584 1005.448 L 1235.584 1005.448 L 1235.584 1005.448 L 1235.584 1005.448 Z  M 1204.243 1036.448 C 1198.318 1036.448 1193.508 1031.638 1193.508 1025.714 C 1193.508 1019.789 1198.318 1014.979 1204.243 1014.979 C 1210.168 1014.979 1214.978 1019.789 1214.978 1025.714 C 1214.978 1031.638 1210.168 1036.448 1204.243 1036.448 L 1204.243 1036.448 L 1204.243 1036.448 L 1204.243 1036.448 L 1204.243 1036.448 L 1204.243 1036.448 L 1204.243 1036.448 L 1204.243 1036.448 L 1204.243 1036.448 L 1204.243 1036.448 L 1204.243 1036.448 L 1204.243 1036.448 L 1204.243 1036.448 L 1204.243 1036.448 L 1204.243 1036.448 L 1204.243 1036.448 L 1204.243 1036.448 L 1204.243 1036.448 L 1204.243 1036.448 L 1204.243 1036.448 L 1204.243 1036.448 L 1204.243 1036.448 L 1204.243 1036.448 Z  M 1266.925 1036.448 C 1261 1036.448 1256.19 1031.638 1256.19 1025.714 C 1256.19 1019.789 1261 1014.979 1266.925 1014.979 C 1272.849 1014.979 1277.659 1019.789 1277.659 1025.714 C 1277.659 1031.638 1272.849 1036.448 1266.925 1036.448 L 1266.925 1036.448 L 1266.925 1036.448 L 1266.925 1036.448 L 1266.925 1036.448 L 1266.925 1036.448 L 1266.925 1036.448 L 1266.925 1036.448 L 1266.925 1036.448 L 1266.925 1036.448 L 1266.925 1036.448 L 1266.925 1036.448 L 1266.925 1036.448 L 1266.925 1036.448 L 1266.925 1036.448 L 1266.925 1036.448 L 1266.925 1036.448 L 1266.925 1036.448 Z  M 1266.925 974.448 C 1261 974.448 1256.19 969.638 1256.19 963.714 C 1256.19 957.789 1261 952.979 1266.925 952.979 C 1272.849 952.979 1277.659 957.789 1277.659 963.714 C 1277.659 969.638 1272.849 974.448 1266.925 974.448 L 1266.925 974.448 L 1266.925 974.448 L 1266.925 974.448 L 1266.925 974.448 L 1266.925 974.448 L 1266.925 974.448 L 1266.925 974.448 L 1266.925 974.448 L 1266.925 974.448 L 1266.925 974.448 L 1266.925 974.448 L 1266.925 974.448 L 1266.925 974.448 L 1266.925 974.448 L 1266.925 974.448 L 1266.925 974.448 Z  M 1266.925 1005.448 C 1261 1005.448 1256.19 1000.638 1256.19 994.714 C 1256.19 988.789 1261 983.979 1266.925 983.979 C 1272.849 983.979 1277.659 988.789 1277.659 994.714 C 1277.659 1000.638 1272.849 1005.448 1266.925 1005.448 L 1266.925 1005.448 L 1266.925 1005.448 L 1266.925 1005.448 L 1266.925 1005.448 L 1266.925 1005.448 L 1266.925 1005.448 L 1266.925 1005.448 L 1266.925 1005.448 L 1266.925 1005.448 L 1266.925 1005.448 L 1266.925 1005.448 L 1266.925 1005.448 L 1266.925 1005.448 L 1266.925 1005.448 L 1266.925 1005.448 Z  M 1298.265 1036.448 C 1292.341 1036.448 1287.53 1031.638 1287.53 1025.714 C 1287.53 1019.789 1292.341 1014.979 1298.265 1014.979 C 1304.19 1014.979 1309 1019.789 1309 1025.714 C 1309 1031.638 1304.19 1036.448 1298.265 1036.448 L 1298.265 1036.448 L 1298.265 1036.448 L 1298.265 1036.448 L 1298.265 1036.448 L 1298.265 1036.448 L 1298.265 1036.448 L 1298.265 1036.448 L 1298.265 1036.448 L 1298.265 1036.448 L 1298.265 1036.448 L 1298.265 1036.448 L 1298.265 1036.448 L 1298.265 1036.448 L 1298.265 1036.448 Z  M 1204.243 943.448 C 1198.318 943.448 1193.508 938.638 1193.508 932.714 C 1193.508 926.789 1198.318 921.979 1204.243 921.979 C 1210.168 921.979 1214.978 926.789 1214.978 932.714 C 1214.978 938.638 1210.168 943.448 1204.243 943.448 L 1204.243 943.448 L 1204.243 943.448 L 1204.243 943.448 L 1204.243 943.448 L 1204.243 943.448 L 1204.243 943.448 L 1204.243 943.448 L 1204.243 943.448 L 1204.243 943.448 L 1204.243 943.448 L 1204.243 943.448 Z  M 1204.243 881.448 C 1198.318 881.448 1193.508 876.638 1193.508 870.714 C 1193.508 864.789 1198.318 859.979 1204.243 859.979 C 1210.168 859.979 1214.978 864.789 1214.978 870.714 C 1214.978 876.638 1210.168 881.448 1204.243 881.448 L 1204.243 881.448 L 1204.243 881.448 L 1204.243 881.448 L 1204.243 881.448 L 1204.243 881.448 L 1204.243 881.448 L 1204.243 881.448 L 1204.243 881.448 L 1204.243 881.448 L 1204.243 881.448 Z  M 1204.243 912.448 C 1198.318 912.448 1193.508 907.638 1193.508 901.714 C 1193.508 895.789 1198.318 890.979 1204.243 890.979 C 1210.168 890.979 1214.978 895.789 1214.978 901.714 C 1214.978 907.638 1210.168 912.448 1204.243 912.448 L 1204.243 912.448 L 1204.243 912.448 L 1204.243 912.448 L 1204.243 912.448 L 1204.243 912.448 L 1204.243 912.448 L 1204.243 912.448 L 1204.243 912.448 L 1204.243 912.448 Z  M 1235.584 943.448 C 1229.659 943.448 1224.849 938.638 1224.849 932.714 C 1224.849 926.789 1229.659 921.979 1235.584 921.979 C 1241.508 921.979 1246.319 926.789 1246.319 932.714 C 1246.319 938.638 1241.508 943.448 1235.584 943.448 L 1235.584 943.448 L 1235.584 943.448 L 1235.584 943.448 L 1235.584 943.448 L 1235.584 943.448 L 1235.584 943.448 L 1235.584 943.448 L 1235.584 943.448 Z  M 1235.584 881.448 C 1229.659 881.448 1224.849 876.638 1224.849 870.714 C 1224.849 864.789 1229.659 859.979 1235.584 859.979 C 1241.508 859.979 1246.319 864.789 1246.319 870.714 C 1246.319 876.638 1241.508 881.448 1235.584 881.448 L 1235.584 881.448 L 1235.584 881.448 L 1235.584 881.448 L 1235.584 881.448 L 1235.584 881.448 L 1235.584 881.448 L 1235.584 881.448 Z  M 1235.584 912.448 C 1229.659 912.448 1224.849 907.638 1224.849 901.714 C 1224.849 895.789 1229.659 890.979 1235.584 890.979 C 1241.508 890.979 1246.319 895.789 1246.319 901.714 C 1246.319 907.638 1241.508 912.448 1235.584 912.448 L 1235.584 912.448 L 1235.584 912.448 L 1235.584 912.448 L 1235.584 912.448 L 1235.584 912.448 L 1235.584 912.448 Z  M 1266.925 943.448 C 1261 943.448 1256.19 938.638 1256.19 932.714 C 1256.19 926.789 1261 921.979 1266.925 921.979 C 1272.849 921.979 1277.659 926.789 1277.659 932.714 C 1277.659 938.638 1272.849 943.448 1266.925 943.448 L 1266.925 943.448 L 1266.925 943.448 L 1266.925 943.448 L 1266.925 943.448 L 1266.925 943.448 Z  M 1266.925 881.448 C 1261 881.448 1256.19 876.638 1256.19 870.714 C 1256.19 864.789 1261 859.979 1266.925 859.979 C 1272.849 859.979 1277.659 864.789 1277.659 870.714 C 1277.659 876.638 1272.849 881.448 1266.925 881.448 L 1266.925 881.448 L 1266.925 881.448 L 1266.925 881.448 L 1266.925 881.448 Z  M 1266.925 912.448 C 1261 912.448 1256.19 907.638 1256.19 901.714 C 1256.19 895.789 1261 890.979 1266.925 890.979 C 1272.849 890.979 1277.659 895.789 1277.659 901.714 C 1277.659 907.638 1272.849 912.448 1266.925 912.448 L 1266.925 912.448 L 1266.925 912.448 L 1266.925 912.448 Z  M 1298.265 943.448 C 1292.341 943.448 1287.53 938.638 1287.53 932.714 C 1287.53 926.789 1292.341 921.979 1298.265 921.979 C 1304.19 921.979 1309 926.789 1309 932.714 C 1309 938.638 1304.19 943.448 1298.265 943.448 L 1298.265 943.448 L 1298.265 943.448 Z  M 1298.265 881.448 C 1292.341 881.448 1287.53 876.638 1287.53 870.714 C 1287.53 864.789 1292.341 859.979 1298.265 859.979 C 1304.19 859.979 1309 864.789 1309 870.714 C 1309 876.638 1304.19 881.448 1298.265 881.448 L 1298.265 881.448 Z  M 1298.265 912.448 C 1292.341 912.448 1287.53 907.638 1287.53 901.714 C 1287.53 895.789 1292.341 890.979 1298.265 890.979 C 1304.19 890.979 1309 895.789 1309 901.714 C 1309 907.638 1304.19 912.448 1298.265 912.448 Z " fill-rule="evenodd" fill="rgb(181,69,213)"/><linearGradient id="_lgradient_38" x1="0" y1="0.5" x2="1" y2="0.5" gradientTransform="matrix(41.327,0,0,41.327,899.623,521.539)" gradientUnits="userSpaceOnUse"><stop offset="1.3043478260869565%" stop-opacity="1" style="stop-color:rgb(192,89,255)"/><stop offset="100%" stop-opacity="1" style="stop-color:rgb(220,226,255)"/></linearGradient><circle vector-effect="non-scaling-stroke" cx="920.2862454273707" cy="542.2021461357858" r="20.663490222019163" fill="url(#_lgradient_38)"/><linearGradient id="_lgradient_39" x1="0" y1="0.5" x2="1" y2="0.5" gradientTransform="matrix(27.831,0,0,27.831,1127.545,674.881)" gradientUnits="userSpaceOnUse"><stop offset="0%" stop-opacity="1" style="stop-color:rgb(246,177,255)"/><stop offset="100%" stop-opacity="1" style="stop-color:rgb(229,210,255)"/></linearGradient><circle vector-effect="non-scaling-stroke" cx="1141.4597958973645" cy="688.7960118512631" r="13.915288681365155" fill="url(#_lgradient_39)"/><linearGradient id="_lgradient_40" x1="0" y1="0.5" x2="1" y2="0.5" gradientTransform="matrix(27.831,0,0,27.831,1309,794.445)" gradientUnits="userSpaceOnUse"><stop offset="0%" stop-opacity="1" style="stop-color:rgb(246,177,255)"/><stop offset="100%" stop-opacity="1" style="stop-color:rgb(229,210,255)"/></linearGradient><circle vector-effect="non-scaling-stroke" cx="1322.915288681365" cy="808.3600927230159" r="13.915288681365155" fill="url(#_lgradient_40)"/><linearGradient id="_lgradient_41" x1="0" y1="0.5" x2="1" y2="0.5" gradientTransform="matrix(27.831,0,0,27.831,1479,633.223)" gradientUnits="userSpaceOnUse"><stop offset="0%" stop-opacity="1" style="stop-color:rgb(246,177,255)"/><stop offset="100%" stop-opacity="1" style="stop-color:rgb(229,210,255)"/></linearGradient><circle vector-effect="non-scaling-stroke" cx="1492.915288681365" cy="647.1387597418797" r="13.915288681365155" fill="url(#_lgradient_41)"/><linearGradient id="_lgradient_42" x1="0" y1="0.5" x2="1" y2="0.5" gradientTransform="matrix(27.831,0,0,27.831,611.783,729.878)" gradientUnits="userSpaceOnUse"><stop offset="0%" stop-opacity="1" style="stop-color:rgb(246,177,255)"/><stop offset="100%" stop-opacity="1" style="stop-color:rgb(229,210,255)"/></linearGradient><circle vector-effect="non-scaling-stroke" cx="625.6985071674135" cy="743.7935433717491" r="13.915288681365269" fill="url(#_lgradient_42)"/><linearGradient id="_lgradient_43" x1="0" y1="0.5" x2="1" y2="0.5" gradientTransform="matrix(27.831,0,0,27.831,365.169,753.512)" gradientUnits="userSpaceOnUse"><stop offset="0%" stop-opacity="1" style="stop-color:rgb(246,177,255)"/><stop offset="100%" stop-opacity="1" style="stop-color:rgb(229,210,255)"/></linearGradient><circle vector-effect="non-scaling-stroke" cx="379.08471131863473" cy="767.42692886705" r="13.915288681365269" fill="url(#_lgradient_43)"/><linearGradient id="_lgradient_44" x1="0" y1="0.5" x2="1" y2="0.5" gradientTransform="matrix(27.831,0,0,27.831,245.169,559.667)" gradientUnits="userSpaceOnUse"><stop offset="0%" stop-opacity="1" style="stop-color:rgb(246,177,255)"/><stop offset="100%" stop-opacity="1" style="stop-color:rgb(229,210,255)"/></linearGradient><circle vector-effect="non-scaling-stroke" cx="259.08471131863473" cy="573.5822398111777" r="13.915288681365254" fill="url(#_lgradient_44)"/><linearGradient id="_lgradient_45" x1="0" y1="0.5" x2="1" y2="0.5" gradientTransform="matrix(26.835,0,0,26.835,741.294,494.703)" gradientUnits="userSpaceOnUse"><stop offset="3.4782608695652173%" stop-opacity="1" style="stop-color:rgb(255,146,195)"/><stop offset="97.3913043478261%" stop-opacity="1" style="stop-color:rgb(255,245,248)"/></linearGradient><circle vector-effect="non-scaling-stroke" cx="754.7112640236448" cy="508.1209780584676" r="13.417677855299075" fill="url(#_lgradient_45)"/></g></svg>