<svg width="1703" height="1280" viewBox="0 0 1703 1280" fill="none" xmlns="http://www.w3.org/2000/svg">
<g clip-path="url(#clip0)">
<path d="M1702.4 0H0V1280H1702.4V0Z" fill="url(#paint0_linear)"/>
<path d="M0 174.475C227.55 68.4662 511.475 16.5309 851.775 18.6689C1205.26 20.8895 1488.47 57.9702 1701.4 129.911V1280H0V174.475Z" fill="url(#paint1_linear)" fill-opacity="0.5"/>
<path d="M-29.258 995.351C26.742 848.448 103.347 775.994 200.556 777.987C418.685 782.459 383.629 932.727 485.28 936.82C615.534 942.064 566.702 806.794 667.976 812.516C769.25 818.237 733.401 634.387 835.072 638.656C936.742 642.925 952.323 835.164 1076.97 794.501C1201.61 753.837 1244.46 709.114 1330.15 728.792C1477.72 762.679 1431.43 883.127 1517.12 909.716C1602.81 936.305 1641.77 823.532 1746.94 892.441C1817.05 938.38 1853.4 1152.17 1856 1533.8L-76 1566L-29.258 995.351Z" fill="url(#paint2_linear)" fill-opacity="0.5"/>
<path d="M649.667 792.341L949.667 965.546C963.334 973.136 976.667 973.136 989.667 965.546C1002.67 957.957 1102.67 900.222 1289.67 792.341C1303.44 785.668 1303.44 777.97 1289.67 769.247C1275.89 760.524 1175.89 702.789 989.667 596.042C978.334 588.629 965 588.629 949.667 596.042C926.667 607.162 669.667 757.662 649.667 769.247C636.776 776.714 636.776 784.412 649.667 792.341Z" fill="url(#paint3_linear)"/>
<path d="M649.667 765.341L949.667 938.546C963.334 946.136 976.667 946.136 989.667 938.546C1002.67 930.957 1102.67 873.222 1289.67 765.341C1303.44 758.668 1303.44 750.97 1289.67 742.247C1275.89 733.524 1175.89 675.789 989.667 569.042C978.334 561.629 965 561.629 949.667 569.042C926.667 580.162 669.667 730.662 649.667 742.247C636.776 749.714 636.776 757.412 649.667 765.341Z" fill="url(#paint4_linear)"/>
<path d="M649.667 736.341L949.667 909.546C963.334 917.136 976.667 917.136 989.667 909.546C1002.67 901.957 1102.67 844.222 1289.67 736.341C1303.44 729.668 1303.44 721.97 1289.67 713.247C1275.89 704.524 1175.89 646.789 989.667 540.042C978.334 532.629 965 532.629 949.667 540.042C926.667 551.162 669.667 701.662 649.667 713.247C636.776 720.714 636.776 728.412 649.667 736.341Z" fill="url(#paint5_linear)"/>
<path d="M1021.14 403.319L1261.14 541.883" stroke="#D6EDF4" stroke-width="3" stroke-miterlimit="3" stroke-linecap="round" stroke-linejoin="round"/>
<path d="M1016.71 585.322L1256.71 723.886" stroke="#1E24D2" stroke-width="3" stroke-miterlimit="3" stroke-linecap="round" stroke-linejoin="round"/>
<path d="M1019.29 736.049L1136.71 802.549" stroke="#090CA6" stroke-width="3" stroke-miterlimit="3" stroke-linecap="round" stroke-linejoin="round"/>
<path d="M1021.14 765.341L1115 817.57" stroke="#090CA6" stroke-width="3" stroke-miterlimit="3" stroke-linecap="round" stroke-linejoin="round"/>
<path d="M1133 769.114L1065 807.797" stroke="#090CA6" stroke-width="3" stroke-miterlimit="3" stroke-linecap="round" stroke-linejoin="round"/>
<path d="M1156.14 786.455L1088.14 825.138" stroke="#090CA6" stroke-width="3" stroke-miterlimit="3" stroke-linecap="round" stroke-linejoin="round"/>
<path d="M904.139 444.204L1204.14 617.409C1217.81 624.998 1231.14 624.998 1244.14 617.409C1257.14 609.819 1357.14 552.084 1544.14 444.204C1557.92 437.531 1557.92 429.833 1544.14 421.11C1530.36 412.386 1430.36 354.651 1244.14 247.905C1232.81 240.492 1219.47 240.492 1204.14 247.905C1181.14 259.024 924.139 409.524 904.139 421.11C891.248 428.577 891.248 436.275 904.139 444.204Z" fill="url(#paint6_linear)"/>
<path d="M904.139 427.204L1204.14 600.409C1217.81 607.998 1231.14 607.998 1244.14 600.409C1257.14 592.819 1357.14 535.084 1544.14 427.204C1557.92 420.531 1557.92 412.833 1544.14 404.11C1530.36 395.386 1430.36 337.651 1244.14 230.905C1232.81 223.492 1219.47 223.492 1204.14 230.905C1181.14 242.024 924.139 392.524 904.139 404.11C891.248 411.577 891.248 419.275 904.139 427.204Z" fill="url(#paint7_linear)"/>
<path d="M1021.14 403.319L1261.14 541.883" stroke="#E3DB39" stroke-width="3" stroke-miterlimit="3" stroke-linecap="round" stroke-linejoin="round"/>
<path d="M1039.14 391.319L1280 531.162" stroke="#E3DB39" stroke-width="3" stroke-miterlimit="3" stroke-linecap="round" stroke-linejoin="round"/>
<path d="M1060 381.051L1300 519.615" stroke="#E3DB39" stroke-width="3" stroke-miterlimit="3" stroke-linecap="round" stroke-linejoin="round"/>
<path d="M1078 369.051L1280 484.974" stroke="#E3DB39" stroke-width="3" stroke-miterlimit="3" stroke-linecap="round" stroke-linejoin="round"/>
<path d="M1333.67 675.06L1633.67 848.265C1647.33 855.854 1660.67 855.854 1673.67 848.265C1686.67 840.675 1786.67 782.94 1973.67 675.06C1987.45 668.387 1987.45 660.689 1973.67 651.966C1959.89 643.242 1859.89 585.507 1673.67 478.761C1662.33 471.348 1649 471.348 1633.67 478.761C1610.67 489.88 1353.67 640.38 1333.67 651.966C1320.78 659.433 1320.78 667.131 1333.67 675.06Z" fill="url(#paint8_linear)"/>
<path d="M414.151 473.029L605.06 583.251C613.757 588.08 622.242 588.08 630.515 583.251C638.788 578.421 702.424 541.68 821.424 473.029C830.192 468.783 830.192 463.884 821.424 458.333C812.657 452.782 749.02 416.041 630.515 348.111C623.303 343.394 614.818 343.394 605.06 348.111C590.424 355.187 426.878 450.96 414.151 458.333C405.948 463.085 405.948 467.984 414.151 473.029Z" fill="url(#paint9_linear)"/>
<path d="M414.151 455.029L605.06 565.251C613.757 570.08 622.242 570.08 630.515 565.251C638.788 560.421 702.424 523.68 821.424 455.029C830.192 450.783 830.192 445.884 821.424 440.333C812.657 434.782 749.02 398.041 630.515 330.111C623.303 325.394 614.818 325.394 605.06 330.111C590.424 337.187 426.878 432.96 414.151 440.333C405.948 445.085 405.948 449.984 414.151 455.029Z" fill="url(#paint10_linear)"/>
<path d="M414.151 434.029L605.06 544.251C613.757 549.08 622.242 549.08 630.515 544.251C638.788 539.421 702.424 502.68 821.424 434.029C830.192 429.783 830.192 424.884 821.424 419.333C812.657 413.782 749.02 377.041 630.515 309.111C623.303 304.394 614.818 304.394 605.06 309.111C590.424 316.187 426.878 411.96 414.151 419.333C405.948 424.085 405.948 428.984 414.151 434.029Z" fill="url(#paint11_linear)"/>
<path d="M144.153 770.541L335.062 880.763C343.759 885.592 352.244 885.592 360.517 880.763C368.79 875.933 432.426 839.192 551.426 770.541C560.193 766.295 560.193 761.396 551.426 755.845C542.658 750.294 479.022 713.553 360.517 645.623C353.304 640.906 344.819 640.906 335.062 645.623C320.426 652.7 156.88 748.473 144.153 755.845C135.949 760.597 135.949 765.496 144.153 770.541Z" fill="url(#paint12_linear)"/>
<path d="M339 671.898L457 740" stroke="#0815A6" stroke-width="3" stroke-miterlimit="3" stroke-linecap="round" stroke-linejoin="round"/>
<path d="M355 707.186C364.389 707.186 372 702.754 372 697.287C372 691.819 364.389 687.387 355 687.387C345.611 687.387 338 691.819 338 697.287C338 702.754 345.611 707.186 355 707.186Z" fill="#535BFF"/>
<path d="M355 700.386C364.389 700.386 372 695.954 372 690.487C372 685.02 364.389 680.587 355 680.587C345.611 680.587 338 685.02 338 690.487C338 695.954 345.611 700.386 355 700.386Z" fill="#6E75FF"/>
<path d="M355 693.586C364.389 693.586 372 689.154 372 683.687C372 678.219 364.389 673.787 355 673.787C345.611 673.787 338 678.219 338 683.687C338 689.154 345.611 693.586 355 693.586Z" fill="#858BFF"/>
<path d="M724 733.785C733.389 733.785 741 729.353 741 723.886C741 718.419 733.389 713.986 724 713.986C714.611 713.986 707 718.419 707 723.886C707 729.353 714.611 733.785 724 733.785Z" fill="#535BFF"/>
<path d="M724 726.985C733.389 726.985 741 722.553 741 717.086C741 711.618 733.389 707.186 724 707.186C714.611 707.186 707 711.618 707 717.086C707 722.553 714.611 726.985 724 726.985Z" fill="#6E75FF"/>
<path d="M724 720.185C733.389 720.185 741 715.753 741 710.286C741 704.818 733.389 700.386 724 700.386C714.611 700.386 707 704.818 707 710.286C707 715.753 714.611 720.185 724 720.185Z" fill="#858BFF"/>
<path d="M1111 807.538C1120.39 807.538 1128 803.106 1128 797.639C1128 792.172 1120.39 787.74 1111 787.74C1101.61 787.74 1094 792.172 1094 797.639C1094 803.106 1101.61 807.538 1111 807.538Z" fill="#535BFF"/>
<path d="M1111 800.738C1120.39 800.738 1128 796.306 1128 790.839C1128 785.372 1120.39 780.939 1111 780.939C1101.61 780.939 1094 785.372 1094 790.839C1094 796.306 1101.61 800.738 1111 800.738Z" fill="#6E75FF"/>
<path d="M1111 793.938C1120.39 793.938 1128 789.506 1128 784.039C1128 778.572 1120.39 774.139 1111 774.139C1101.61 774.139 1094 778.572 1094 784.039C1094 789.506 1101.61 793.938 1111 793.938Z" fill="#858BFF"/>
<path d="M-45.651 600.602L52.616 657.337C57.0927 659.823 61.46 659.823 65.718 657.337C69.9767 654.851 102.732 635.939 163.985 600.602C168.498 598.417 168.498 595.895 163.985 593.038C159.472 590.181 126.717 571.269 65.718 536.303C62.006 533.875 57.6387 533.875 52.616 536.303C45.082 539.946 -39.1 589.243 -45.651 593.038C-49.8737 595.484 -49.8737 598.005 -45.651 600.602Z" fill="url(#paint13_linear)"/>
<path d="M1505.92 329.83L1391.73 395.759C1387.05 399.086 1384.93 405.191 1385.38 414.073C1385.83 422.867 1385.82 499.425 1385.38 663.139C1385.37 665.605 1385.54 677.59 1391.73 681.453C1393.68 682.674 1400.02 685.536 1410.76 690.039L1493.23 542.269L1540.94 336.149L1524.95 326.167C1518.81 324.738 1512.47 325.959 1505.92 329.83Z" fill="#C6D070"/>
<path d="M1543.98 600.873V351.807C1545.03 335.774 1540.8 330.89 1531.29 337.156C1528.2 339.196 1490.13 361.172 1417.1 403.085C1410.31 406.91 1406.08 411.794 1404.41 417.736C1402.74 423.679 1402.74 509.143 1404.41 674.127C1404.42 688.559 1408.65 693.442 1417.1 688.778C1425.66 684.054 1459.5 664.519 1518.61 630.174C1523.28 627.446 1527.51 625.005 1531.29 622.849C1539.59 618.126 1543.82 610.801 1543.98 600.873Z" fill="#E3DB39"/>
<path d="M1537.15 592.287V367.419C1538.1 352.943 1534.28 348.534 1525.69 354.191C1524.21 355.17 1521.66 356.273 1502.34 367.419C1497.84 370.013 1500.95 376.569 1493.23 381.108C1485.48 385.664 1466.36 397.49 1455.17 403.085C1449.16 405.158 1450.61 397.69 1446.95 399.794C1438.22 404.807 1430.1 409.448 1422.6 413.715C1416.47 417.168 1412.65 421.577 1411.14 426.943C1409.63 432.308 1409.63 509.469 1411.14 658.425C1411.15 671.454 1414.96 675.863 1422.6 671.652C1430.32 667.387 1460.87 649.75 1514.24 618.742C1518.46 616.279 1522.27 614.074 1525.69 612.128C1533.19 607.864 1537 601.25 1537.15 592.287Z" fill="#B4AC0A"/>
<path d="M1426 471.427C1426.22 456.254 1432.89 444.707 1446 436.786C1458.45 429.263 1478.45 417.716 1506 402.145C1519.11 394.715 1525.77 398.415 1525.98 413.246C1526.14 423.849 1526.14 439.394 1526 459.88C1526.32 474.429 1521.32 484.859 1510.99 491.17C1500.66 497.481 1478.99 510.145 1446 529.162C1432.22 537.276 1425.56 533.427 1426 517.615C1426.31 506.494 1426.31 491.098 1426 471.427Z" fill="#522FE7"/>
<path d="M1426 577.373C1426.22 562.199 1432.89 550.652 1446 542.732C1458.45 535.209 1478.45 523.662 1506 508.091C1519.11 500.661 1525.77 504.361 1525.98 519.192C1526.14 529.795 1526.14 545.34 1526 565.826C1526.32 580.375 1521.32 590.805 1510.99 597.116C1500.66 603.426 1478.99 616.09 1446 635.108C1432.22 643.222 1425.56 639.373 1426 623.561C1426.31 612.44 1426.31 597.044 1426 577.373Z" fill="#522FE7"/>
<path d="M1436 583.373C1436.22 568.199 1442.89 556.652 1456 548.732C1468.45 541.209 1488.45 529.662 1516 514.091C1529.11 506.661 1535.77 510.361 1535.98 525.192C1536.14 535.795 1536.14 551.34 1536 571.826C1536.32 586.375 1531.32 596.805 1520.99 603.116C1510.66 609.426 1488.99 622.09 1456 641.108C1442.22 649.222 1435.56 645.373 1436 629.561C1436.31 618.44 1436.31 603.044 1436 583.373Z" fill="#623EFF"/>
<path d="M1447 591.373C1447.22 576.199 1453.89 564.652 1467 556.732C1479.45 549.209 1499.45 537.662 1527 522.091C1540.11 514.661 1546.77 518.361 1546.98 533.192C1547.14 543.795 1547.14 559.34 1547 579.826C1547.32 594.375 1542.32 604.805 1531.99 611.116C1521.66 617.426 1499.99 630.09 1467 649.108C1453.22 657.222 1446.56 653.373 1447 637.561C1447.31 626.44 1447.31 611.044 1447 591.373Z" fill="#7A5CFF"/>
<path d="M243.389 393.454L299.18 425.664C301.721 427.076 304.201 427.076 306.618 425.664C309.036 424.253 327.633 413.516 362.408 393.454C364.971 392.213 364.971 390.782 362.408 389.159C359.846 387.537 341.249 376.8 306.618 356.949C304.511 355.57 302.031 355.57 299.18 356.949C294.902 359.017 247.109 387.005 243.389 389.159C240.992 390.548 240.992 391.979 243.389 393.454Z" fill="url(#paint14_linear)"/>
<path d="M174 760.077L338 855" stroke="#0815A6" stroke-width="3" stroke-miterlimit="3" stroke-linecap="round" stroke-linejoin="round"/>
<path d="M246 787L355 724.887" stroke="#0815A6" stroke-width="3" stroke-miterlimit="3" stroke-linecap="round" stroke-linejoin="round"/>
<path d="M174 759.59L283 697.477" stroke="#0815A6" stroke-width="3" stroke-miterlimit="3" stroke-linecap="round" stroke-linejoin="round"/>
<path d="M334.5 769.299L443.5 707.186" stroke="#0815A6" stroke-width="3" stroke-miterlimit="3" stroke-linecap="round" stroke-linejoin="round"/>
<path d="M437.061 665.336L492.851 697.547C495.393 698.958 497.873 698.958 500.29 697.547C502.707 696.136 521.304 685.399 556.08 665.336C558.642 664.095 558.642 662.664 556.08 661.042C553.518 659.419 534.921 648.682 500.29 628.831C498.183 627.452 495.703 627.452 492.851 628.831C488.574 630.899 440.781 658.887 437.061 661.042C434.664 662.431 434.664 663.862 437.061 665.336Z" fill="url(#paint15_linear)"/>
<path d="M364.999 721.154L385.758 733.14C386.704 733.665 387.627 733.665 388.526 733.14C389.425 732.615 396.345 728.619 409.285 721.154C410.238 720.693 410.238 720.16 409.285 719.556C408.332 718.953 401.412 714.958 388.526 707.571C387.742 707.058 386.819 707.058 385.758 707.571C384.167 708.341 366.383 718.755 364.999 719.556C364.107 720.073 364.107 720.605 364.999 721.154Z" fill="#153397"/>
<path d="M364.999 716.154L385.758 728.14C386.704 728.665 387.627 728.665 388.526 728.14C389.425 727.615 396.345 723.619 409.285 716.154C410.238 715.693 410.238 715.16 409.285 714.556C408.332 713.953 401.412 709.958 388.526 702.571C387.742 702.058 386.819 702.058 385.758 702.571C384.167 703.341 366.383 713.755 364.999 714.556C364.107 715.073 364.107 715.605 364.999 716.154Z" fill="#244AC6"/>
<path d="M364.999 710.154L385.758 722.14C386.704 722.665 387.627 722.665 388.526 722.14C389.425 721.615 396.345 717.619 409.285 710.154C410.238 709.693 410.238 709.16 409.285 708.556C408.332 707.953 401.412 703.958 388.526 696.571C387.742 696.058 386.819 696.058 385.758 696.571C384.167 697.341 366.383 707.755 364.999 708.556C364.107 709.073 364.107 709.605 364.999 710.154Z" fill="#3C64EA"/>
<path d="M404.669 592.098L425.428 604.083C426.374 604.608 427.297 604.608 428.196 604.083C429.095 603.558 436.015 599.563 448.955 592.098C449.908 591.636 449.908 591.103 448.955 590.5C448.002 589.896 441.082 585.901 428.196 578.514C427.412 578.001 426.489 578.001 425.428 578.514C423.837 579.284 406.053 589.698 404.669 590.5C403.777 591.017 403.777 591.549 404.669 592.098Z" fill="#153397"/>
<g filter="url(#filter0_f)">
<path d="M571.834 610.81L592.593 622.795C593.539 623.32 594.462 623.32 595.361 622.795C596.26 622.27 603.18 618.275 616.12 610.81C617.073 610.348 617.073 609.815 616.12 609.212C615.167 608.608 608.247 604.613 595.361 597.226C594.577 596.713 593.654 596.713 592.593 597.226C591.002 597.996 573.218 608.41 571.834 609.212C570.942 609.729 570.942 610.261 571.834 610.81Z" fill="#153397"/>
</g>
<g filter="url(#filter1_f)">
<path d="M280.795 568.651L301.554 580.636C302.499 581.161 303.422 581.161 304.322 580.636C305.221 580.111 312.141 576.116 325.081 568.651C326.034 568.189 326.034 567.656 325.081 567.053C324.128 566.45 317.208 562.455 304.322 555.068C303.537 554.555 302.615 554.555 301.554 555.068C299.962 555.837 282.179 566.251 280.795 567.053C279.903 567.57 279.903 568.102 280.795 568.651Z" fill="#153397"/>
</g>
<g filter="url(#filter2_f)">
<path d="M145.204 499.89L165.963 511.875C166.909 512.4 167.832 512.4 168.731 511.875C169.63 511.35 176.55 507.355 189.49 499.89C190.443 499.428 190.443 498.895 189.49 498.292C188.537 497.688 181.617 493.693 168.731 486.307C167.947 485.794 167.024 485.794 165.963 486.307C164.372 487.076 146.588 497.49 145.204 498.292C144.312 498.809 144.312 499.341 145.204 499.89Z" fill="#153397"/>
</g>
<g filter="url(#filter3_f)">
<path d="M690.73 655.398L711.489 667.383C712.434 667.908 713.357 667.908 714.256 667.383C715.156 666.858 722.076 662.863 735.015 655.398C735.969 654.937 735.969 654.404 735.015 653.8C734.062 653.197 727.142 649.202 714.256 641.815C713.472 641.302 712.55 641.302 711.489 641.815C709.897 642.584 692.113 652.999 690.73 653.8C689.837 654.317 689.837 654.849 690.73 655.398Z" fill="#153397"/>
</g>
<g filter="url(#filter4_f)">
<path d="M837.158 395.019L857.917 407.004C858.862 407.529 859.785 407.529 860.684 407.004C861.584 406.479 868.504 402.484 881.444 395.019C882.397 394.558 882.397 394.025 881.444 393.421C880.49 392.818 873.57 388.823 860.684 381.436C859.9 380.923 858.978 380.923 857.917 381.436C856.325 382.205 838.542 392.619 837.158 393.421C836.266 393.938 836.266 394.47 837.158 395.019Z" fill="#153397"/>
</g>
<path d="M404.669 587.098L425.428 599.083C426.374 599.608 427.297 599.608 428.196 599.083C429.095 598.558 436.015 594.563 448.955 587.098C449.908 586.636 449.908 586.103 448.955 585.5C448.002 584.896 441.082 580.901 428.196 573.514C427.412 573.001 426.489 573.001 425.428 573.514C423.837 574.284 406.053 584.698 404.669 585.5C403.777 586.017 403.777 586.549 404.669 587.098Z" fill="#244AC6"/>
<path d="M404.669 581.098L425.428 593.083C426.374 593.608 427.297 593.608 428.196 593.083C429.095 592.558 436.015 588.563 448.955 581.098C449.908 580.636 449.908 580.103 448.955 579.5C448.002 578.896 441.082 574.901 428.196 567.514C427.412 567.001 426.489 567.001 425.428 567.514C423.837 568.284 406.053 578.698 404.669 579.5C403.777 580.017 403.777 580.549 404.669 581.098Z" fill="#3C64EA"/>
<g filter="url(#filter5_f)">
<path d="M372.669 505.165L393.428 517.151C394.374 517.676 395.297 517.676 396.196 517.151C397.095 516.626 404.015 512.63 416.955 505.165C417.908 504.704 417.908 504.171 416.955 503.567C416.002 502.964 409.082 498.969 396.196 491.582C395.412 491.069 394.489 491.069 393.428 491.582C391.837 492.352 374.053 502.766 372.669 503.567C371.777 504.084 371.777 504.616 372.669 505.165Z" fill="#3C64EA"/>
</g>
<g filter="url(#filter6_f)">
<path d="M47.329 435.344L68.088 447.329C69.034 447.854 69.9567 447.854 70.856 447.329C71.7554 446.804 78.675 442.809 91.615 435.344C92.5684 434.882 92.5684 434.349 91.615 433.746C90.6617 433.142 83.742 429.147 70.856 421.761C70.072 421.248 69.1494 421.248 68.088 421.761C66.497 422.53 48.713 432.944 47.329 433.746C46.437 434.263 46.437 434.795 47.329 435.344Z" fill="#3C64EA"/>
</g>
<g filter="url(#filter7_f)">
<path d="M92.999 734.153L113.758 746.139C114.704 746.664 115.627 746.664 116.526 746.139C117.425 745.614 124.345 741.618 137.285 734.153C138.238 733.692 138.238 733.159 137.285 732.555C136.332 731.952 129.412 727.957 116.526 720.57C115.742 720.057 114.819 720.057 113.758 720.57C112.167 721.34 94.383 731.754 92.999 732.555C92.107 733.072 92.107 733.604 92.999 734.153Z" fill="#3C64EA"/>
</g>
<g filter="url(#filter8_f)">
<path d="M548.999 740.794L569.758 752.78C570.704 753.305 571.627 753.305 572.526 752.78C573.425 752.255 580.345 748.259 593.285 740.794C594.238 740.333 594.238 739.8 593.285 739.196C592.332 738.593 585.412 734.598 572.526 727.211C571.742 726.698 570.819 726.698 569.758 727.211C568.167 727.981 550.383 738.395 548.999 739.196C548.107 739.713 548.107 740.245 548.999 740.794Z" fill="#3C64EA"/>
</g>
<g filter="url(#filter9_f)">
<path d="M736.399 550.62L757.159 562.605C758.104 563.13 759.027 563.13 759.926 562.605C760.826 562.08 767.746 558.085 780.685 550.62C781.638 550.158 781.638 549.625 780.685 549.022C779.732 548.418 772.812 544.423 759.926 537.036C759.142 536.523 758.22 536.523 757.159 537.036C755.567 537.806 737.783 548.22 736.399 549.022C735.507 549.538 735.507 550.071 736.399 550.62Z" fill="#3C64EA"/>
</g>
<g filter="url(#filter10_f)">
<path d="M1244.81 642.225L1265.57 654.21C1266.51 654.735 1267.44 654.735 1268.34 654.21C1269.23 653.685 1276.15 649.689 1289.09 642.225C1290.05 641.763 1290.05 641.23 1289.09 640.627C1288.14 640.023 1281.22 636.028 1268.34 628.641C1267.55 628.128 1266.63 628.128 1265.57 628.641C1263.98 629.411 1246.19 639.825 1244.81 640.627C1243.92 641.144 1243.92 641.676 1244.81 642.225Z" fill="#3C64EA"/>
</g>
<path d="M783.198 973.373L838.989 1005.58C841.53 1007 844.01 1007 846.427 1005.58C848.845 1004.17 867.442 993.436 902.217 973.373C904.78 972.132 904.78 970.701 902.217 969.079C899.655 967.456 881.058 956.719 846.427 936.868C844.32 935.489 841.84 935.489 838.989 936.868C834.711 938.936 786.918 966.924 783.198 969.079C780.801 970.468 780.801 971.899 783.198 973.373Z" fill="url(#paint16_linear)"/>
<path d="M1405.16 830.731L1460.95 862.941C1463.49 864.353 1465.97 864.353 1468.39 862.941C1470.81 861.53 1489.4 850.793 1524.18 830.731C1526.74 829.49 1526.74 828.059 1524.18 826.436C1521.62 824.814 1503.02 814.077 1468.39 794.226C1466.28 792.847 1463.8 792.847 1460.95 794.226C1456.67 796.294 1408.88 824.282 1405.16 826.436C1402.76 827.825 1402.76 829.256 1405.16 830.731Z" fill="url(#paint17_linear)"/>
<path d="M-40 1067.99C101.333 869.588 258.201 766.272 430.602 758.039C650.768 747.524 615.57 920.143 718.273 924.43C849.875 929.924 800.538 788.217 902.86 794.211C1005.18 800.205 968.963 607.605 1071.69 612.077C1174.41 616.549 1190.15 817.937 1316.09 775.338C1442.02 732.739 1485.31 685.888 1571.89 706.503C1720.99 742.002 1674.22 868.182 1760.8 896.037C1847.38 923.891 1886.73 805.751 1992.99 877.939C2063.83 926.065 2100.56 1150.03 2103.18 1549.82L-76 1508.76L-40 1067.99Z" fill="url(#paint18_linear)" fill-opacity="0.5"/>
<path d="M281.53 507.155L206.574 550.43C203.503 552.614 202.115 556.621 202.41 562.451C202.701 568.224 202.695 618.476 202.41 725.938C202.405 727.557 202.514 735.424 206.574 737.959C207.857 738.761 212.021 740.64 219.066 743.595L273.201 646.599L304.521 511.303L294.022 504.75C289.994 503.812 285.83 504.614 281.53 507.155Z" fill="#C6D070"/>
<path d="M306.515 685.066V521.58C307.206 511.056 304.43 507.85 298.187 511.963C296.155 513.302 271.17 527.727 223.231 555.239C218.776 557.749 215.999 560.955 214.902 564.856C213.805 568.757 213.805 624.855 214.902 733.151C214.907 742.624 217.683 745.829 223.231 742.767C228.85 739.666 251.059 726.844 289.858 704.3C292.925 702.509 295.701 700.907 298.187 699.492C303.634 696.391 306.41 691.583 306.515 685.066Z" fill="#E3DB3B"/>
<path d="M302.03 679.431V531.828C302.653 522.326 300.147 519.432 294.511 523.145C293.536 523.787 291.86 524.512 279.18 531.828C276.229 533.53 278.27 537.834 273.201 540.814C268.114 543.804 255.561 551.566 248.216 555.239C244.273 556.599 245.225 551.698 242.821 553.078C237.094 556.369 231.766 559.415 226.837 562.216C222.814 564.483 220.308 567.377 219.318 570.899C218.327 574.421 218.327 625.069 219.318 722.844C219.322 731.396 221.828 734.29 226.837 731.526C231.91 728.726 251.962 717.149 286.991 696.796C289.76 695.179 292.266 693.732 294.511 692.455C299.429 689.656 301.935 685.314 302.03 679.431Z" fill="#9FBC83"/>
<path d="M302.03 679.431V664C246.888 696.617 219.317 712.951 219.318 713C219.351 717.081 219.351 720.362 219.318 722.844C219.322 731.396 221.828 734.29 226.837 731.526C231.91 728.726 251.962 717.149 286.991 696.796C289.76 695.179 292.266 693.732 294.511 692.455C299.429 689.656 301.935 685.314 302.03 679.431Z" fill="url(#paint19_linear)"/>
<path d="M887.801 458.1L987.359 515.58C991.437 518.481 993.281 523.803 992.89 531.546C992.503 539.213 992.511 605.96 992.89 748.693C992.896 750.843 992.751 761.292 987.359 764.66C985.655 765.724 980.124 768.22 970.766 772.146L898.863 643.313L857.263 463.609L871.208 454.906C876.558 453.661 882.089 454.725 887.801 458.1Z" fill="#3835F7"/>
<path d="M854.615 694.406V477.26C853.698 463.281 857.385 459.023 865.677 464.486C868.376 466.265 901.562 485.425 965.235 521.966C971.152 525.301 974.84 529.559 976.297 534.74C977.754 539.921 977.754 614.432 976.297 758.273C976.29 770.855 972.603 775.113 965.235 771.046C957.771 766.927 928.272 749.896 876.739 719.953C872.666 717.574 868.978 715.445 865.677 713.566C858.442 709.449 854.754 703.062 854.615 694.406Z" fill="#2218C8"/>
<path d="M860.572 686.921V490.871C859.744 478.25 863.073 474.406 870.559 479.339C871.854 480.192 874.08 481.154 890.921 490.871C894.841 493.133 892.13 498.849 898.863 502.806C905.62 506.779 922.293 517.088 932.049 521.966C937.285 523.774 936.022 517.263 939.214 519.097C946.822 523.468 953.899 527.514 960.445 531.234C965.788 534.245 969.117 538.089 970.432 542.767C971.748 547.444 971.748 614.716 970.432 744.583C970.427 755.942 967.098 759.786 960.445 756.115C953.707 752.396 927.074 737.02 880.547 709.986C876.869 707.838 873.54 705.916 870.559 704.22C864.027 700.502 860.698 694.736 860.572 686.921Z" fill="#E3DB39"/>
<g opacity="0.5">
<path opacity="0.5" d="M792.623 633.991C795.91 634.399 798.819 633.619 801.35 631.652C803.881 629.685 805.524 627.475 806.278 625.02" stroke="#9064E8" stroke-miterlimit="3" stroke-linecap="round"/>
</g>
<g opacity="0.5">
<path opacity="0.5" d="M796.77 648.051C800.069 648.347 802.95 647.469 805.413 645.417C807.876 643.364 809.442 641.099 810.112 638.621" stroke="#9064E8" stroke-miterlimit="3" stroke-linecap="round"/>
</g>
<g opacity="0.5">
<path opacity="0.5" d="M774.681 657.878C777.97 658.267 780.875 657.47 783.394 655.488C785.914 653.505 787.544 651.285 788.283 648.826" stroke="#9064E8" stroke-miterlimit="3" stroke-linecap="round"/>
</g>
<g opacity="0.5">
<path opacity="0.5" d="M776.803 665.116C780.102 665.412 782.983 664.534 785.446 662.481C787.909 660.429 789.475 658.164 790.145 655.685" stroke="#9064E8" stroke-miterlimit="3" stroke-linecap="round"/>
</g>
<path d="M891 528.5L957 565.5" stroke="#1E24D2" stroke-width="3" stroke-miterlimit="3" stroke-linecap="round" stroke-linejoin="round"/>
<path d="M871 531L957 578.5" stroke="#1E24D2" stroke-width="3" stroke-miterlimit="3" stroke-linecap="round" stroke-linejoin="round"/>
<path d="M871 545L957 592.5" stroke="#1E24D2" stroke-width="3" stroke-miterlimit="3" stroke-linecap="round" stroke-linejoin="round"/>
<path d="M871 558L957 605.5" stroke="#1E24D2" stroke-width="3" stroke-miterlimit="3" stroke-linecap="round" stroke-linejoin="round"/>
<path d="M871 572L957 619.5" stroke="#1E24D2" stroke-width="3" stroke-miterlimit="3" stroke-linecap="round" stroke-linejoin="round"/>
<path d="M887 604.5L957 644.5" stroke="#1E24D2" stroke-width="3" stroke-miterlimit="3" stroke-linecap="round" stroke-linejoin="round"/>
<path d="M871 610L957 657.5" stroke="#1E24D2" stroke-width="3" stroke-miterlimit="3" stroke-linecap="round" stroke-linejoin="round"/>
<path d="M871 624L957 671.5" stroke="#1E24D2" stroke-width="3" stroke-miterlimit="3" stroke-linecap="round" stroke-linejoin="round"/>
<path d="M871 637L957 684.5" stroke="#1E24D2" stroke-width="3" stroke-miterlimit="3" stroke-linecap="round" stroke-linejoin="round"/>
<path d="M871 651L957 698.5" stroke="#1E24D2" stroke-width="3" stroke-miterlimit="3" stroke-linecap="round" stroke-linejoin="round"/>
</g>
<defs>
<filter id="filter0_f" x="567.558" y="593.235" width="52.8833" height="33.5607" filterUnits="userSpaceOnUse" color-interpolation-filters="sRGB">
<feFlood flood-opacity="0" result="BackgroundImageFix"/>
<feBlend mode="normal" in="SourceGraphic" in2="BackgroundImageFix" result="shape"/>
<feGaussianBlur stdDeviation="1.80332" result="effect1_foregroundBlur"/>
</filter>
<filter id="filter1_f" x="276.519" y="551.076" width="52.8832" height="33.5603" filterUnits="userSpaceOnUse" color-interpolation-filters="sRGB">
<feFlood flood-opacity="0" result="BackgroundImageFix"/>
<feBlend mode="normal" in="SourceGraphic" in2="BackgroundImageFix" result="shape"/>
<feGaussianBlur stdDeviation="1.80332" result="effect1_foregroundBlur"/>
</filter>
<filter id="filter2_f" x="140.928" y="482.315" width="52.8833" height="33.5603" filterUnits="userSpaceOnUse" color-interpolation-filters="sRGB">
<feFlood flood-opacity="0" result="BackgroundImageFix"/>
<feBlend mode="normal" in="SourceGraphic" in2="BackgroundImageFix" result="shape"/>
<feGaussianBlur stdDeviation="1.80332" result="effect1_foregroundBlur"/>
</filter>
<filter id="filter3_f" x="686.454" y="637.824" width="52.8833" height="33.5598" filterUnits="userSpaceOnUse" color-interpolation-filters="sRGB">
<feFlood flood-opacity="0" result="BackgroundImageFix"/>
<feBlend mode="normal" in="SourceGraphic" in2="BackgroundImageFix" result="shape"/>
<feGaussianBlur stdDeviation="1.80332" result="effect1_foregroundBlur"/>
</filter>
<filter id="filter4_f" x="832.882" y="377.444" width="52.8832" height="33.5603" filterUnits="userSpaceOnUse" color-interpolation-filters="sRGB">
<feFlood flood-opacity="0" result="BackgroundImageFix"/>
<feBlend mode="normal" in="SourceGraphic" in2="BackgroundImageFix" result="shape"/>
<feGaussianBlur stdDeviation="1.80332" result="effect1_foregroundBlur"/>
</filter>
<filter id="filter5_f" x="365.388" y="484.585" width="58.8943" height="39.5713" filterUnits="userSpaceOnUse" color-interpolation-filters="sRGB">
<feFlood flood-opacity="0" result="BackgroundImageFix"/>
<feBlend mode="normal" in="SourceGraphic" in2="BackgroundImageFix" result="shape"/>
<feGaussianBlur stdDeviation="3.30608" result="effect1_foregroundBlur"/>
</filter>
<filter id="filter6_f" x="40.0479" y="414.764" width="58.8943" height="39.5713" filterUnits="userSpaceOnUse" color-interpolation-filters="sRGB">
<feFlood flood-opacity="0" result="BackgroundImageFix"/>
<feBlend mode="normal" in="SourceGraphic" in2="BackgroundImageFix" result="shape"/>
<feGaussianBlur stdDeviation="3.30608" result="effect1_foregroundBlur"/>
</filter>
<filter id="filter7_f" x="85.7178" y="713.573" width="58.8943" height="39.5713" filterUnits="userSpaceOnUse" color-interpolation-filters="sRGB">
<feFlood flood-opacity="0" result="BackgroundImageFix"/>
<feBlend mode="normal" in="SourceGraphic" in2="BackgroundImageFix" result="shape"/>
<feGaussianBlur stdDeviation="3.30608" result="effect1_foregroundBlur"/>
</filter>
<filter id="filter8_f" x="544.723" y="723.22" width="52.8832" height="33.5603" filterUnits="userSpaceOnUse" color-interpolation-filters="sRGB">
<feFlood flood-opacity="0" result="BackgroundImageFix"/>
<feBlend mode="normal" in="SourceGraphic" in2="BackgroundImageFix" result="shape"/>
<feGaussianBlur stdDeviation="1.80332" result="effect1_foregroundBlur"/>
</filter>
<filter id="filter9_f" x="732.123" y="533.045" width="52.8833" height="33.5607" filterUnits="userSpaceOnUse" color-interpolation-filters="sRGB">
<feFlood flood-opacity="0" result="BackgroundImageFix"/>
<feBlend mode="normal" in="SourceGraphic" in2="BackgroundImageFix" result="shape"/>
<feGaussianBlur stdDeviation="1.80332" result="effect1_foregroundBlur"/>
</filter>
<filter id="filter10_f" x="1240.53" y="624.65" width="52.8833" height="33.5608" filterUnits="userSpaceOnUse" color-interpolation-filters="sRGB">
<feFlood flood-opacity="0" result="BackgroundImageFix"/>
<feBlend mode="normal" in="SourceGraphic" in2="BackgroundImageFix" result="shape"/>
<feGaussianBlur stdDeviation="1.80332" result="effect1_foregroundBlur"/>
</filter>
<linearGradient id="paint0_linear" x1="868" y1="748" x2="877.046" y2="11.9146" gradientUnits="userSpaceOnUse">
<stop stop-color="#1C7EFF"/>
<stop offset="1" stop-color="white"/>
</linearGradient>
<linearGradient id="paint1_linear" x1="838.61" y1="1313.49" x2="827.915" y2="170.214" gradientUnits="userSpaceOnUse">
<stop offset="0.0304348" stop-color="#FFE608"/>
<stop offset="0.956522" stop-color="#FFE608"/>
</linearGradient>
<linearGradient id="paint2_linear" x1="695.242" y1="1233.26" x2="768.404" y2="589.785" gradientUnits="userSpaceOnUse">
<stop stop-color="#FFE608"/>
<stop offset="0.991304" stop-color="#FFF6A4"/>
</linearGradient>
<linearGradient id="paint3_linear" x1="1284.85" y1="777.743" x2="718.252" y2="858.597" gradientUnits="userSpaceOnUse">
<stop offset="0.0173913" stop-color="#0F18BF"/>
<stop offset="0.96087" stop-color="#6C0675"/>
</linearGradient>
<linearGradient id="paint4_linear" x1="1284.85" y1="750.743" x2="718.252" y2="831.597" gradientUnits="userSpaceOnUse">
<stop offset="0.0130435" stop-color="#1922DB"/>
<stop offset="0.973913" stop-color="#8C0F97"/>
</linearGradient>
<linearGradient id="paint5_linear" x1="1284.85" y1="721.743" x2="718.252" y2="802.597" gradientUnits="userSpaceOnUse">
<stop stop-color="#2C37FF"/>
<stop offset="0.973913" stop-color="#A720B3"/>
</linearGradient>
<linearGradient id="paint6_linear" x1="1539.32" y1="429.606" x2="972.725" y2="510.46" gradientUnits="userSpaceOnUse">
<stop stop-color="#1620DB"/>
<stop offset="0.978261" stop-color="#881293"/>
</linearGradient>
<linearGradient id="paint7_linear" x1="1539.32" y1="412.606" x2="972.725" y2="493.46" gradientUnits="userSpaceOnUse">
<stop stop-color="#2C37FF"/>
<stop offset="0.973913" stop-color="#A720B3"/>
</linearGradient>
<linearGradient id="paint8_linear" x1="1968.85" y1="660.462" x2="1402.25" y2="741.316" gradientUnits="userSpaceOnUse">
<stop stop-color="#2C37FF"/>
<stop offset="0.973913" stop-color="#A720B3"/>
</linearGradient>
<linearGradient id="paint9_linear" x1="818.358" y1="463.739" x2="457.796" y2="515.192" gradientUnits="userSpaceOnUse">
<stop offset="0.026087" stop-color="#111BD2"/>
<stop offset="0.969565" stop-color="#830A8E"/>
</linearGradient>
<linearGradient id="paint10_linear" x1="818.358" y1="445.739" x2="457.796" y2="497.192" gradientUnits="userSpaceOnUse">
<stop stop-color="#242FF4"/>
<stop offset="0.965217" stop-color="#9B09A8"/>
</linearGradient>
<linearGradient id="paint11_linear" x1="818.358" y1="424.739" x2="457.796" y2="476.192" gradientUnits="userSpaceOnUse">
<stop stop-color="#2C37FF"/>
<stop offset="0.973913" stop-color="#A720B3"/>
</linearGradient>
<linearGradient id="paint12_linear" x1="548.36" y1="761.251" x2="187.798" y2="812.704" gradientUnits="userSpaceOnUse">
<stop stop-color="#2C37FF"/>
<stop offset="0.973913" stop-color="#A720B3"/>
</linearGradient>
<linearGradient id="paint13_linear" x1="162.407" y1="595.82" x2="-23.1853" y2="622.305" gradientUnits="userSpaceOnUse">
<stop stop-color="#2C37FF"/>
<stop offset="0.973913" stop-color="#A720B3"/>
</linearGradient>
<linearGradient id="paint14_linear" x1="361.512" y1="390.739" x2="256.144" y2="405.776" gradientUnits="userSpaceOnUse">
<stop stop-color="#2C37FF"/>
<stop offset="0.973913" stop-color="#A720B3"/>
</linearGradient>
<linearGradient id="paint15_linear" x1="555.184" y1="662.621" x2="449.816" y2="677.658" gradientUnits="userSpaceOnUse">
<stop stop-color="#2C37FF"/>
<stop offset="0.973913" stop-color="#A720B3"/>
</linearGradient>
<linearGradient id="paint16_linear" x1="901.321" y1="970.658" x2="795.953" y2="985.695" gradientUnits="userSpaceOnUse">
<stop stop-color="#2C37FF"/>
<stop offset="0.973913" stop-color="#A720B3"/>
</linearGradient>
<linearGradient id="paint17_linear" x1="1523.28" y1="828.016" x2="1417.92" y2="843.053" gradientUnits="userSpaceOnUse">
<stop stop-color="#2C37FF"/>
<stop offset="0.973913" stop-color="#A720B3"/>
</linearGradient>
<linearGradient id="paint18_linear" x1="1048.74" y1="1111.14" x2="1023.95" y2="475.531" gradientUnits="userSpaceOnUse">
<stop stop-color="#FFE608"/>
<stop offset="0.991304" stop-color="#FFE608"/>
</linearGradient>
<linearGradient id="paint19_linear" x1="280.961" y1="678.704" x2="251.209" y2="720.572" gradientUnits="userSpaceOnUse">
<stop offset="0.0173913" stop-color="#642CDC"/>
<stop offset="0.978261" stop-color="#8226C9"/>
</linearGradient>
<clipPath id="clip0">
<rect width="1702.4" height="1280" fill="white"/>
</clipPath>
</defs>
</svg>
