<svg width="1703" height="1280" viewBox="0 0 1703 1280" fill="none" xmlns="http://www.w3.org/2000/svg">
<g clip-path="url(#clip0)">
<path d="M1702.4 5.875H0V1285.88H1702.4V5.875Z" fill="url(#paint0_linear)"/>
<path fill-rule="evenodd" clip-rule="evenodd" d="M1009.78 701.908C1014.01 716.025 1013.84 726.012 1009.27 731.869C1005.69 736.446 1002.17 740.88 998.708 745.169C994.937 746.041 991.441 748.195 988.937 751.529C983.286 759.048 984.804 769.74 992.323 775.39C999.842 781.04 1010.53 779.523 1016.18 772.004C1020.16 766.715 1020.59 759.856 1017.87 754.286C1018.8 748.327 1021.05 742.389 1024.62 736.472C1029.35 728.623 1036.28 722.204 1045.41 717.217C1051.77 715.459 1057.62 711.665 1061.88 705.989C1063.07 704.402 1064.09 702.737 1064.91 701.012C1072.34 688.384 1070.39 675.73 1058.97 665.456C1067.82 674.236 1070.43 687.456 1065.91 698.82C1073.28 687.518 1080.43 681.877 1087.38 681.897C1092.54 681.912 1098.03 683.037 1103.87 685.27C1109.38 690.853 1117.55 693.584 1125.78 691.797C1138.57 689.022 1146.69 676.39 1143.92 663.606C1141.14 650.821 1128.51 642.695 1115.73 645.47C1107.53 647.249 1101.25 653.078 1098.53 660.401C1093.35 664.048 1087.71 666.231 1081.6 666.951C1072.15 668.066 1062.55 665.982 1052.82 660.699C1046.87 657.195 1040.11 655.893 1033.6 656.642C1019.06 656.64 1009.75 653.366 1005.7 646.82C1001.87 640.639 999.791 632.252 999.471 621.659C1000.96 610.748 996.655 599.37 987.233 592.29C973.386 581.885 953.696 584.679 943.291 598.526C932.885 612.373 935.679 632.063 949.527 642.469C956.1 647.409 963.99 649.374 971.579 648.594C982.298 648.945 990.462 652.623 996.071 659.629C1001.45 666.348 1004.88 674.446 1006.37 683.923C1005.68 690.098 1006.86 696.387 1009.78 701.908ZM1021.65 714.18C1024.45 715.981 1027.52 717.166 1030.9 717.722C1027.7 717.066 1024.58 715.899 1021.65 714.18ZM1007.34 678.989C1009.36 666.147 1016.94 658.743 1031.28 656.987C1024 658.396 1017.19 662.401 1012.38 668.794C1010.01 671.946 1008.34 675.405 1007.34 678.989Z" stroke="#E3DB39" stroke-width="3" stroke-miterlimit="3" stroke-linecap="round" stroke-linejoin="round"/>
<path fill-rule="evenodd" clip-rule="evenodd" d="M91.4722 480.081C96.4389 483.036 99.0385 485.967 99.2712 488.872C99.4539 491.142 99.6135 493.356 99.7502 495.514C98.8922 496.767 98.4542 498.316 98.6152 499.943C98.9782 503.614 102.252 506.299 105.923 505.937C109.593 505.574 112.279 502.299 111.916 498.629C111.661 496.047 109.965 493.952 107.704 493.063C106.391 491.096 105.465 488.784 104.925 486.129C104.21 482.606 104.509 478.914 105.823 475.051C107.193 472.857 107.875 470.21 107.601 467.439C107.525 466.665 107.377 465.914 107.156 465.197C105.952 459.58 102.031 456.443 96.0082 456.504C100.892 456.694 105.152 459.82 106.863 464.3C105.993 459.081 106.563 455.554 108.573 453.718C110.068 452.353 111.954 451.219 114.232 450.316C117.306 450.465 120.389 449.088 122.292 446.389C125.248 442.195 124.244 436.391 120.051 433.435C115.858 430.479 110.053 431.483 107.097 435.676C105.202 438.364 104.935 441.714 106.091 444.551C105.563 446.978 104.513 449.105 102.941 450.932C100.506 453.763 97.1815 455.706 92.9682 456.763C90.3212 457.329 88.0242 458.746 86.3422 460.689C82.1409 464.548 78.5859 466.07 75.6772 465.256C72.9312 464.487 70.1069 462.615 67.2042 459.64C64.7392 456.094 60.4782 453.95 55.8792 454.405C49.1192 455.073 44.1732 461.103 44.8412 467.863C45.5102 474.623 51.5402 479.568 58.3002 478.9C61.5092 478.583 64.3092 477.057 66.2942 474.819C69.4835 472.076 72.8172 470.973 76.2952 471.509C79.6319 472.022 82.7719 473.45 85.7152 475.793C87.1542 477.759 89.1632 479.262 91.4722 480.081ZM98.1562 480.477C99.4402 480.256 100.642 479.783 101.765 479.048C100.669 479.705 99.4562 480.197 98.1562 480.477ZM84.6872 474.11C81.8612 469.867 82.0882 465.716 85.7642 461.404C84.0342 463.744 83.1292 466.707 83.4382 469.828C83.5902 471.367 84.0242 472.81 84.6872 474.11Z" stroke="#E3DB39" stroke-width="3" stroke-miterlimit="3" stroke-linecap="round" stroke-linejoin="round"/>
<path fill-rule="evenodd" clip-rule="evenodd" d="M276.268 581.915C284.319 583.453 289.202 586.102 290.918 589.862C292.259 592.8 293.542 595.675 294.769 598.487C294.232 600.571 294.397 602.849 295.398 604.941C297.658 609.659 303.323 611.656 308.041 609.396C312.759 607.137 314.756 601.472 312.496 596.754C310.907 593.435 307.633 591.463 304.188 591.371C301.485 589.384 299.132 586.75 297.129 583.471C294.472 579.12 293.085 574.052 292.968 568.267C293.733 564.678 293.362 560.82 291.657 557.258C291.18 556.262 290.619 555.333 289.979 554.484C285.656 547.577 278.911 545.291 270.911 548.286C277.514 546.177 284.706 548.284 289.154 553.43C285.469 546.893 284.522 541.914 286.315 538.493C287.647 535.951 289.613 533.527 292.214 531.221C296.384 529.933 299.828 526.605 301.06 522.086C302.973 515.065 298.826 507.813 291.806 505.9C284.786 503.987 277.533 508.133 275.62 515.153C274.393 519.653 275.657 524.249 278.571 527.472C279.041 530.963 278.67 534.308 277.458 537.505C275.58 542.457 272.088 546.656 266.983 550.102C263.727 552.138 261.35 555.137 260.048 558.542C256.312 565.719 252.309 569.468 248.038 569.789C244.005 570.092 239.334 568.963 234.025 566.401C229.023 562.865 222.304 562.068 216.392 564.899C207.703 569.06 204.026 579.493 208.187 588.182C212.348 596.871 222.781 600.547 231.47 596.387C235.595 594.411 238.59 591.023 240.153 587.078C243.078 581.879 246.99 578.796 251.887 577.827C256.583 576.898 261.46 577.283 266.517 578.983C269.387 580.908 272.793 581.94 276.268 581.915ZM285.37 579.21C286.976 578.293 288.35 577.081 289.491 575.558C288.347 576.965 286.969 578.208 285.37 579.21ZM264.332 577.236C258.513 572.946 256.808 567.302 259.623 559.775C258.448 563.731 258.675 568.119 260.596 572.131C261.543 574.109 262.82 575.824 264.332 577.236Z" stroke="#E3DB39" stroke-width="3" stroke-miterlimit="3" stroke-linecap="round" stroke-linejoin="round"/>
<path fill-rule="evenodd" clip-rule="evenodd" d="M1259.66 541.257C1259.81 533.062 1261.59 527.8 1265.01 525.471C1267.67 523.65 1270.29 521.897 1272.85 520.212C1275 520.387 1277.22 519.838 1279.11 518.496C1283.37 515.469 1284.38 509.547 1281.35 505.281C1278.32 501.014 1272.4 500.008 1268.14 503.036C1265.14 505.165 1263.75 508.727 1264.24 512.137C1262.74 515.138 1260.55 517.903 1257.65 520.434C1253.82 523.791 1249.06 526.018 1243.38 527.115C1239.71 526.971 1235.97 527.991 1232.75 530.276C1231.85 530.915 1231.03 531.625 1230.3 532.4C1224.23 537.833 1223.12 544.868 1227.43 552.244C1224.23 546.095 1225.09 538.649 1229.4 533.393C1223.59 538.134 1218.84 539.911 1215.16 538.725C1212.43 537.844 1209.71 536.318 1207 534.147C1205.02 530.255 1201.16 527.426 1196.49 526.979C1189.25 526.285 1182.81 531.603 1182.11 538.846C1181.42 546.089 1186.74 552.533 1193.98 553.227C1198.62 553.671 1202.94 551.646 1205.62 548.227C1208.98 547.171 1212.34 546.969 1215.69 547.622C1220.89 548.632 1225.62 551.36 1229.89 555.807C1232.44 558.669 1235.8 560.503 1239.38 561.209C1247.09 563.672 1251.46 566.981 1252.5 571.136C1253.49 575.059 1253.17 579.854 1251.54 585.52C1248.91 591.05 1249.26 597.806 1253.05 603.152C1258.63 611.009 1269.54 612.862 1277.39 607.286C1285.25 601.711 1287.1 590.806 1281.53 582.949C1278.88 579.219 1275.03 576.842 1270.88 575.971C1265.26 573.97 1261.56 570.639 1259.77 565.978C1258.06 561.508 1257.61 556.637 1258.43 551.364C1259.84 548.209 1260.28 544.677 1259.66 541.257ZM1255.45 532.746C1254.28 531.319 1252.85 530.171 1251.15 529.305C1252.73 530.193 1254.19 531.34 1255.45 532.746ZM1257.08 553.813C1253.84 560.276 1248.56 562.915 1240.67 561.418C1244.77 561.905 1249.05 560.936 1252.68 558.362C1254.47 557.093 1255.94 555.544 1257.08 553.813Z" stroke="#E3DB39" stroke-width="3" stroke-miterlimit="3" stroke-linecap="round" stroke-linejoin="round"/>
<path fill-rule="evenodd" clip-rule="evenodd" d="M1590.91 468.616C1586.72 472.595 1583.19 474.302 1580.33 473.739C1578.1 473.298 1575.92 472.851 1573.81 472.398C1572.84 471.233 1571.47 470.391 1569.86 470.104C1566.22 469.458 1562.75 471.881 1562.1 475.513C1561.46 479.144 1563.88 482.617 1567.51 483.264C1570.07 483.718 1572.54 482.654 1574.01 480.719C1576.26 479.988 1578.74 479.723 1581.44 479.924C1585.02 480.191 1588.5 481.481 1591.86 483.793C1593.6 485.707 1595.96 487.081 1598.7 487.569C1599.47 487.706 1600.23 487.767 1600.98 487.749C1606.72 488.114 1610.8 485.19 1612.37 479.377C1610.87 484.026 1606.7 487.279 1601.93 487.71C1607.18 488.287 1610.43 489.793 1611.65 492.226C1612.56 494.035 1613.14 496.158 1613.39 498.595C1612.41 501.513 1612.9 504.855 1614.98 507.418C1618.22 511.401 1624.07 512.008 1628.06 508.774C1632.04 505.54 1632.65 499.681 1629.41 495.699C1627.34 493.146 1624.19 491.98 1621.14 492.323C1618.95 491.156 1617.19 489.569 1615.86 487.56C1613.79 484.448 1612.82 480.721 1612.95 476.38C1613.12 473.679 1612.38 471.084 1610.97 468.938C1608.39 463.847 1607.89 460.013 1609.46 457.434C1610.95 454.999 1613.52 452.788 1617.17 450.801C1621.25 449.391 1624.47 445.87 1625.28 441.32C1626.47 434.633 1622 428.237 1615.32 427.047C1608.63 425.857 1602.23 430.32 1601.04 437.008C1600.48 440.182 1601.19 443.291 1602.8 445.809C1604.58 449.622 1604.74 453.13 1603.28 456.333C1601.88 459.405 1599.65 462.04 1596.6 464.237C1594.32 465.089 1592.32 466.616 1590.91 468.616ZM1588.72 474.942C1588.58 476.238 1588.71 477.524 1589.11 478.803C1588.78 477.57 1588.63 476.27 1588.72 474.942ZM1598.5 463.704C1603.35 462.136 1607.28 463.48 1610.44 468.187C1608.65 465.887 1606.05 464.213 1602.96 463.664C1601.44 463.393 1599.93 463.419 1598.5 463.704Z" stroke="#E3DB39" stroke-width="3" stroke-miterlimit="3" stroke-linecap="round" stroke-linejoin="round"/>
<path fill-rule="evenodd" clip-rule="evenodd" d="M1429.31 570.893C1433.73 575.017 1435.74 578.59 1435.34 581.613C1435.02 583.975 1434.69 586.275 1434.35 588.512C1433.2 589.602 1432.4 591.09 1432.21 592.789C1431.76 596.624 1434.52 600.096 1438.35 600.54C1442.19 600.984 1445.66 598.231 1446.1 594.397C1446.41 591.7 1445.14 589.181 1443.03 587.771C1442.12 585.468 1441.69 582.898 1441.73 580.063C1441.78 576.302 1442.9 572.593 1445.1 568.934C1446.99 566.994 1448.28 564.439 1448.61 561.544C1448.71 560.735 1448.72 559.935 1448.65 559.153C1448.67 553.141 1445.36 549.063 1439.18 547.789C1444.14 549.067 1447.8 553.209 1448.55 558.17C1448.82 552.64 1450.19 549.159 1452.65 547.728C1454.48 546.664 1456.66 545.923 1459.19 545.505C1462.3 546.34 1465.76 545.615 1468.31 543.278C1472.26 539.646 1472.52 533.487 1468.89 529.534C1465.26 525.58 1459.1 525.319 1455.15 528.951C1452.61 531.279 1451.59 534.645 1452.15 537.803C1451.07 540.168 1449.52 542.11 1447.51 543.63C1444.39 545.984 1440.56 547.234 1436.02 547.379C1433.18 547.371 1430.52 548.309 1428.37 549.923C1423.22 552.936 1419.24 553.704 1416.45 552.226C1413.81 550.831 1411.34 548.29 1409.03 544.603C1407.3 540.43 1403.42 537.292 1398.61 536.736C1391.55 535.919 1385.15 540.988 1384.34 548.049C1383.52 555.11 1388.59 561.506 1395.65 562.323C1399 562.711 1402.21 561.772 1404.73 559.923C1408.6 557.827 1412.26 557.439 1415.69 558.758C1418.99 560.023 1421.89 562.181 1424.38 565.23C1425.41 567.559 1427.13 569.543 1429.31 570.893ZM1436.06 572.781C1437.42 572.84 1438.76 572.623 1440.07 572.12C1438.8 572.549 1437.45 572.784 1436.06 572.781ZM1423.7 563.28C1421.75 558.314 1422.9 554.12 1427.62 550.526C1425.33 552.535 1423.75 555.364 1423.37 558.624C1423.19 560.232 1423.31 561.804 1423.7 563.28Z" stroke="#E3DB39" stroke-width="3" stroke-miterlimit="3" stroke-linecap="round" stroke-linejoin="round"/>
<path d="M-59.439 392.04C-5.16566 497.081 69.0773 548.889 163.29 547.464C374.695 544.267 340.719 436.818 439.236 433.892C565.474 430.142 518.148 526.866 616.3 522.775C714.452 518.684 679.708 650.145 778.244 647.093C876.78 644.04 891.88 506.58 1012.68 535.656C1133.48 564.733 1175.01 596.712 1258.06 582.641C1401.08 558.411 1356.21 472.285 1439.27 453.272C1522.32 434.26 1560.07 514.898 1662 465.625C1729.95 432.776 1765.18 279.909 1767.7 7.02399L-104.74 -16L-59.439 392.04Z" fill="#FEDA2D"/>
<path d="M-93.11 368.246C43.866 521.635 195.897 601.513 362.984 607.878C576.362 616.007 542.249 482.549 641.786 479.234C769.331 474.987 721.515 584.546 820.683 579.912C919.851 575.278 884.747 724.185 984.303 720.727C1083.86 717.27 1099.12 561.569 1221.17 594.503C1343.22 627.438 1385.18 663.661 1469.09 647.723C1613.59 620.277 1568.26 522.722 1652.17 501.187C1736.08 479.651 1774.22 570.99 1877.2 515.178C1945.86 477.971 1981.46 304.818 1984 -4.27905L-128 27.466L-93.11 368.246Z" fill="#EBDB32" fill-opacity="0.6"/>
<path fill-rule="evenodd" clip-rule="evenodd" d="M415.499 722.641C400.82 723.943 391.072 721.765 386.255 716.107C382.49 711.686 378.856 707.346 375.352 703.087C375.255 699.218 373.849 695.36 371.088 692.236C364.859 685.188 354.08 684.524 347.033 690.752C339.985 696.981 339.321 707.76 345.549 714.807C349.931 719.764 356.563 721.563 362.565 720.027C368.216 722.134 373.581 725.53 378.659 730.215C385.395 736.43 390.288 744.512 393.336 754.459C393.779 761.041 396.319 767.531 401.021 772.851C402.335 774.339 403.762 775.67 405.287 776.823C416.161 786.64 428.95 787.273 441.311 778.158C430.93 785.055 417.456 784.95 407.233 778.24C416.822 787.73 420.907 795.874 419.491 802.672C418.438 807.724 416.231 812.883 412.869 818.15C406.291 822.429 401.973 829.879 402.067 838.3C402.213 851.381 412.952 861.883 426.034 861.737C439.115 861.591 449.617 850.851 449.47 837.77C449.377 829.385 444.931 822.06 438.305 817.919C435.774 812.113 434.771 806.148 435.294 800.024C436.104 790.537 440.076 781.557 447.209 773.084C451.837 767.963 454.472 761.606 455.049 755.078C457.977 740.829 463.055 732.376 470.283 729.719C477.108 727.21 485.742 726.864 496.183 728.683C506.572 732.336 518.583 730.408 527.413 722.603C540.392 711.133 541.616 691.283 530.145 678.305C518.674 665.326 498.825 664.102 485.846 675.572C479.685 681.018 476.173 688.352 475.41 695.942C472.909 706.371 467.664 713.628 459.673 717.713C452.009 721.631 443.386 723.364 433.804 722.913C427.894 720.997 421.496 720.888 415.499 722.641ZM401.091 731.797C398.764 734.172 396.986 736.945 395.762 740.14C397.047 737.145 398.819 734.317 401.091 731.797ZM438.441 724.859C450.615 729.415 456.342 738.335 455.177 752.737C455.263 745.317 452.71 737.84 447.414 731.848C444.803 728.894 441.752 726.557 438.441 724.859Z" stroke="#E3DB39" stroke-width="3" stroke-miterlimit="3" stroke-linecap="round" stroke-linejoin="round"/>
<path fill-rule="evenodd" clip-rule="evenodd" d="M707.358 965.8C714.401 969.991 718.088 974.147 718.419 978.267C718.678 981.486 718.904 984.627 719.098 987.688C717.881 989.465 717.26 991.662 717.488 993.97C718.003 999.176 722.647 1002.99 727.853 1002.47C733.059 1001.96 736.868 997.311 736.353 992.105C735.991 988.443 733.586 985.473 730.379 984.212C728.516 981.422 727.203 978.144 726.438 974.378C725.423 969.382 725.848 964.145 727.712 958.666C729.654 955.554 730.622 951.8 730.234 947.87C730.125 946.771 729.915 945.707 729.603 944.69C727.895 936.722 722.333 932.274 713.792 932.36C720.718 932.629 726.761 937.063 729.186 943.418C727.951 936.016 728.76 931.013 731.612 928.409C733.731 926.473 736.407 924.865 739.638 923.584C743.997 923.796 748.37 921.842 751.069 918.014C755.262 912.067 753.837 903.835 747.891 899.642C741.944 895.449 733.712 896.873 729.519 902.82C726.831 906.632 726.452 911.383 728.092 915.407C727.343 918.85 725.853 921.867 723.624 924.458C720.169 928.473 715.455 931.229 709.48 932.728C705.725 933.531 702.468 935.54 700.082 938.296C694.123 943.769 689.081 945.928 684.956 944.773C681.061 943.682 677.056 941.027 672.939 936.808C669.443 931.779 663.399 928.738 656.876 929.383C647.289 930.331 640.274 938.884 641.222 948.471C642.17 958.058 650.723 965.072 660.31 964.125C664.862 963.675 668.833 961.511 671.648 958.336C676.171 954.447 680.899 952.882 685.833 953.641C690.564 954.37 695.017 956.395 699.192 959.718C701.233 962.506 704.083 964.638 707.358 965.8ZM716.837 966.361C718.659 966.048 720.364 965.376 721.956 964.334C720.401 965.266 718.682 965.965 716.837 966.361ZM697.734 957.331C693.727 951.313 694.049 945.426 699.262 939.31C696.808 942.628 695.525 946.831 695.963 951.258C696.179 953.44 696.794 955.487 697.734 957.331Z" stroke="#E3DB39" stroke-width="3" stroke-miterlimit="3" stroke-linecap="round" stroke-linejoin="round"/>
<path fill-rule="evenodd" clip-rule="evenodd" d="M843.398 666.658C845.283 671.991 845.404 675.823 843.76 678.154C842.475 679.976 841.208 681.742 839.96 683.451C838.531 683.856 837.231 684.747 836.333 686.072C834.307 689.061 835.089 693.132 838.077 695.157C841.066 697.183 845.137 696.401 847.162 693.413C848.587 691.311 848.623 688.673 847.479 686.588C847.723 684.286 848.473 681.967 849.73 679.632C851.398 676.534 853.935 673.944 857.343 671.861C859.748 671.068 861.919 669.504 863.448 667.248C863.875 666.617 864.234 665.96 864.517 665.283C867.129 660.302 866.144 655.487 861.575 651.762C865.13 654.963 866.377 659.982 864.858 664.424C867.471 659.953 870.109 657.656 872.772 657.534C874.75 657.443 876.879 657.772 879.159 658.519C881.378 660.556 884.56 661.45 887.682 660.611C892.531 659.308 895.411 654.313 894.108 649.463C892.805 644.614 887.809 641.734 882.96 643.037C879.851 643.873 877.552 646.225 876.645 649.084C874.728 650.579 872.606 651.521 870.279 651.912C866.674 652.516 862.956 651.896 859.126 650.053C856.78 648.821 854.165 648.448 851.683 648.857C846.105 649.128 842.478 648.047 840.8 645.613C839.215 643.315 838.262 640.138 837.942 636.083C838.309 631.872 836.445 627.59 832.701 625.052C827.197 621.322 819.7 622.761 815.97 628.265C812.239 633.769 813.679 641.265 819.183 644.996C821.795 646.767 824.857 647.373 827.752 646.932C831.868 646.866 835.067 648.124 837.349 650.705C839.537 653.18 841.004 656.221 841.752 659.826C841.603 662.206 842.174 664.595 843.398 666.658ZM848.178 671.141C849.283 671.779 850.483 672.176 851.788 672.326C850.552 672.134 849.331 671.745 848.178 671.141ZM842.032 657.916C842.564 652.955 845.334 649.974 850.8 649.033C848.033 649.709 845.497 651.372 843.775 653.913C842.925 655.166 842.348 656.523 842.032 657.916Z" stroke="#E3DB39" stroke-width="3" stroke-miterlimit="3" stroke-linecap="round" stroke-linejoin="round"/>
<path fill-rule="evenodd" clip-rule="evenodd" d="M1026.54 944.217C1031.25 950.921 1032.92 956.221 1031.54 960.116C1030.46 963.16 1029.38 966.119 1028.31 968.992C1026.47 970.116 1025.01 971.868 1024.27 974.068C1022.62 979.029 1025.3 984.403 1030.26 986.061C1035.22 987.718 1040.6 985.036 1042.25 980.074C1043.42 976.584 1042.44 972.889 1040.03 970.428C1039.47 967.121 1039.61 963.592 1040.45 959.842C1041.56 954.867 1044.09 950.261 1048.03 946.023C1051.07 943.976 1053.49 940.945 1054.74 937.199C1055.09 936.152 1055.34 935.095 1055.47 934.039C1057.16 926.069 1053.9 919.736 1046.07 916.325C1052.29 919.401 1055.99 925.917 1055.61 932.708C1057.5 925.448 1060.29 921.212 1063.95 920C1066.68 919.099 1069.78 918.725 1073.25 918.876C1077.14 920.85 1081.93 920.854 1085.96 918.462C1092.22 914.748 1094.28 906.652 1090.56 900.396C1086.85 894.139 1078.76 892.075 1072.5 895.79C1068.49 898.171 1066.2 902.352 1066.05 906.695C1063.96 909.531 1061.37 911.676 1058.28 913.13C1053.48 915.383 1048.05 915.973 1041.99 914.899C1038.23 914.098 1034.44 914.6 1031.14 916.141C1023.46 918.701 1017.98 918.611 1014.68 915.872C1011.57 913.285 1009 909.225 1006.97 903.692C1005.83 897.674 1001.56 892.428 995.342 890.352C986.205 887.299 976.308 892.24 973.256 901.377C970.203 910.515 975.144 920.412 984.281 923.464C988.619 924.913 993.128 924.561 996.995 922.814C1002.71 921.112 1007.67 921.616 1011.86 924.325C1015.88 926.923 1019.12 930.591 1021.57 935.329C1022.29 938.708 1024.02 941.819 1026.54 944.217ZM1034.96 948.603C1036.75 949.061 1038.58 949.145 1040.46 948.844C1038.66 949.06 1036.81 948.994 1034.96 948.603ZM1021.21 932.555C1020.02 925.425 1022.71 920.183 1029.97 916.732C1026.38 918.758 1023.49 922.069 1022.08 926.288C1021.38 928.368 1021.11 930.488 1021.21 932.555Z" stroke="#E3DB39" stroke-width="3" stroke-miterlimit="3" stroke-linecap="round" stroke-linejoin="round"/>
<path fill-rule="evenodd" clip-rule="evenodd" d="M500.63 907.234C505.596 910.19 508.196 913.12 508.429 916.025C508.611 918.295 508.77 920.509 508.907 922.667C508.05 923.92 507.611 925.469 507.772 927.097C508.135 930.767 511.41 933.453 515.08 933.09C518.751 932.727 521.437 929.452 521.074 925.782C520.818 923.2 519.123 921.105 516.861 920.216C515.548 918.249 514.622 915.938 514.083 913.283C513.368 909.76 513.667 906.068 514.981 902.205C516.351 900.01 517.033 897.363 516.759 894.593C516.682 893.818 516.534 893.067 516.314 892.351C515.11 886.733 511.189 883.596 505.166 883.657C510.05 883.847 514.31 886.973 516.021 891.453C515.15 886.234 515.72 882.707 517.731 880.871C519.225 879.506 521.111 878.372 523.389 877.469C526.463 877.619 529.546 876.241 531.449 873.542C534.406 869.349 533.401 863.544 529.208 860.588C525.015 857.632 519.211 858.636 516.255 862.829C514.36 865.517 514.092 868.867 515.249 871.704C514.721 874.131 513.671 876.259 512.098 878.086C509.663 880.917 506.339 882.86 502.126 883.916C499.479 884.483 497.182 885.899 495.5 887.842C491.298 891.701 487.743 893.223 484.835 892.409C482.089 891.64 479.265 889.768 476.362 886.793C473.897 883.247 469.635 881.103 465.036 881.558C458.276 882.226 453.331 888.257 453.999 895.016C454.667 901.776 460.698 906.722 467.458 906.053C470.667 905.736 473.467 904.21 475.452 901.972C478.641 899.23 481.974 898.127 485.453 898.662C488.789 899.175 491.929 900.603 494.872 902.946C496.311 904.912 498.321 906.415 500.63 907.234ZM507.313 907.63C508.598 907.409 509.8 906.936 510.923 906.201C509.826 906.858 508.614 907.351 507.313 907.63ZM493.844 901.263C491.019 897.02 491.246 892.869 494.922 888.557C493.192 890.897 492.287 893.86 492.596 896.981C492.748 898.52 493.181 899.963 493.844 901.263Z" stroke="#E3DB39" stroke-width="3" stroke-miterlimit="3" stroke-linecap="round" stroke-linejoin="round"/>
<path fill-rule="evenodd" clip-rule="evenodd" d="M614.299 776.453C616.283 784.406 615.929 789.95 613.237 793.086C611.133 795.537 609.062 797.909 607.026 800.202C604.908 800.589 602.91 801.695 601.432 803.483C598.099 807.514 598.665 813.494 602.697 816.828C606.728 820.161 612.708 819.595 616.042 815.563C618.387 812.728 618.802 808.928 617.439 805.763C618.108 802.476 619.509 799.235 621.645 796.04C624.478 791.801 628.496 788.415 633.698 785.88C637.275 785.067 640.622 783.111 643.139 780.068C643.842 779.217 644.45 778.318 644.952 777.38C649.406 770.557 648.648 763.476 642.572 757.472C647.258 762.579 648.366 769.992 645.562 776.189C649.948 770.1 654.069 767.151 657.927 767.342C660.793 767.483 663.819 768.25 667.004 769.642C669.923 772.886 674.39 774.615 679.009 773.835C686.184 772.624 691.025 765.816 689.814 758.641C688.603 751.466 681.795 746.625 674.62 747.836C670.021 748.612 666.381 751.688 664.678 755.686C661.706 757.579 658.516 758.646 655.106 758.888C649.823 759.263 644.546 757.857 639.274 754.67C636.06 752.569 632.34 751.671 628.703 751.919C620.621 751.541 615.537 749.481 613.453 745.74C611.484 742.207 610.548 737.493 610.645 731.599C611.754 725.575 609.656 719.143 604.605 714.965C597.181 708.826 586.169 709.869 580.029 717.293C573.89 724.718 574.933 735.73 582.357 741.869C585.882 744.784 590.215 746.08 594.451 745.843C600.397 746.315 604.838 748.57 607.774 752.608C610.588 756.48 612.286 761.068 612.867 766.372C612.325 769.784 612.818 773.309 614.299 776.453ZM620.576 783.578C622.082 784.651 623.759 785.389 625.62 785.785C623.863 785.338 622.157 784.608 620.576 783.578ZM613.535 763.655C614.986 756.573 619.392 752.655 627.406 752.05C623.322 752.645 619.434 754.694 616.6 758.121C615.202 759.811 614.182 761.69 613.535 763.655Z" stroke="#E3DB39" stroke-width="3" stroke-miterlimit="3" stroke-linecap="round" stroke-linejoin="round"/>
<path fill-rule="evenodd" clip-rule="evenodd" d="M536.527 563.659C541.793 557.379 546.487 554.406 550.607 554.741C553.826 555.002 556.962 555.283 560.015 555.582C561.573 557.067 563.642 558.033 565.957 558.178C571.178 558.505 575.683 554.532 576.01 549.311C576.337 544.09 572.363 539.585 567.142 539.258C563.469 539.028 560.152 540.926 558.393 543.889C555.34 545.28 551.894 546.051 548.054 546.202C542.96 546.402 537.859 545.143 532.75 542.424C529.989 540.008 526.439 538.451 522.498 538.204C521.396 538.135 520.312 538.171 519.258 538.317C511.12 538.724 505.837 543.5 504.552 551.945C505.929 545.152 511.274 539.899 517.935 538.523C510.432 538.555 505.623 536.955 503.51 533.722C501.939 531.319 500.781 528.421 500.035 525.026C500.943 520.757 499.716 516.128 496.37 512.85C491.173 507.757 482.819 507.843 477.726 513.04C472.634 518.238 472.719 526.592 477.917 531.684C481.249 534.948 485.877 536.085 490.112 535.111C493.39 536.402 496.129 538.356 498.329 540.973C501.738 545.026 503.702 550.122 504.223 556.26C504.414 560.095 505.874 563.633 508.212 566.429C512.658 573.189 513.98 578.512 512.179 582.398C510.478 586.068 507.215 589.596 502.39 592.983C496.865 595.626 492.894 601.105 492.484 607.647C491.882 617.262 499.199 625.557 508.815 626.159C518.43 626.762 526.725 619.444 527.327 609.829C527.613 605.265 526.114 600.997 523.432 597.71C520.319 592.621 519.532 587.703 521.073 582.955C522.551 578.402 525.265 574.331 529.214 570.744C532.293 569.176 534.855 566.705 536.527 563.659ZM538.601 554.393C538.584 552.544 538.195 550.753 537.421 549.015C538.092 550.699 538.506 552.508 538.601 554.393ZM526.624 571.8C520.041 574.79 514.282 573.528 509.081 567.401C511.963 570.356 515.906 572.296 520.345 572.574C522.534 572.711 524.653 572.432 526.624 571.8Z" stroke="#E3DB39" stroke-width="3" stroke-miterlimit="3" stroke-linecap="round" stroke-linejoin="round"/>
<path fill-rule="evenodd" clip-rule="evenodd" d="M71.7971 673.788C76.0258 687.905 75.8538 697.892 71.2811 703.749C67.7071 708.326 64.1871 712.76 60.7211 717.049C56.9501 717.922 53.4541 720.076 50.9491 723.409C45.2991 730.928 46.8161 741.62 54.3351 747.27C61.8541 752.921 72.5461 751.403 78.1961 743.884C82.1711 738.595 82.5991 731.736 79.8861 726.167C80.8128 720.207 83.0601 714.269 86.6281 708.352C91.3615 700.503 98.2935 694.085 107.424 689.098C113.782 687.339 119.629 683.546 123.894 677.87C125.086 676.283 126.103 674.618 126.926 672.892C134.355 660.265 132.402 647.61 120.986 637.336C129.831 646.116 132.439 659.336 127.922 670.701C135.289 659.398 142.445 653.757 149.389 653.777C154.549 653.792 160.047 654.917 165.883 657.15C171.398 662.733 179.564 665.464 187.794 663.678C200.578 660.903 208.705 648.27 205.93 635.486C203.155 622.702 190.523 614.575 177.738 617.35C169.543 619.129 163.262 624.958 160.54 632.281C155.362 635.928 149.721 638.111 143.616 638.831C134.159 639.946 124.564 637.862 114.83 632.579C108.882 629.076 102.125 627.773 95.6151 628.522C81.0685 628.52 71.7665 625.246 67.7091 618.7C63.8785 612.519 61.8035 604.132 61.4841 593.539C62.9721 582.628 58.6671 571.25 49.2461 564.17C35.3991 553.765 15.7081 556.559 5.30312 570.406C-5.10288 584.253 -2.30788 603.944 11.5391 614.349C18.1121 619.289 26.0031 621.254 33.5911 620.474C44.3105 620.825 52.4748 624.504 58.0841 631.51C63.4635 638.229 66.8961 646.327 68.3821 655.804C67.6931 661.978 68.8741 668.267 71.7971 673.788ZM83.6651 686.06C86.4601 687.861 89.5341 689.046 92.9101 689.602C89.7171 688.946 86.5911 687.779 83.6651 686.06ZM69.3541 650.869C71.3681 638.028 78.9541 630.624 93.2951 628.867C86.0101 630.276 79.2001 634.281 74.3961 640.674C72.0271 643.826 70.3521 647.285 69.3541 650.869Z" stroke="#E3DB39" stroke-width="3" stroke-miterlimit="3" stroke-linecap="round" stroke-linejoin="round"/>
<path fill-rule="evenodd" clip-rule="evenodd" d="M254.981 958.08C262.025 962.271 265.712 966.427 266.042 970.547C266.301 973.766 266.527 976.907 266.721 979.968C265.505 981.745 264.883 983.942 265.111 986.25C265.626 991.456 270.27 995.265 275.476 994.75C280.682 994.236 284.491 989.591 283.976 984.385C283.614 980.723 281.209 977.753 278.002 976.492C276.139 973.702 274.826 970.424 274.061 966.658C273.046 961.662 273.471 956.425 275.335 950.946C277.278 947.834 278.245 944.08 277.857 940.15C277.748 939.051 277.538 937.987 277.226 936.97C275.518 929.002 269.956 924.554 261.415 924.64C268.341 924.909 274.384 929.343 276.81 935.698C275.575 928.296 276.383 923.293 279.235 920.689C281.355 918.753 284.03 917.145 287.261 915.864C291.62 916.076 295.993 914.122 298.692 910.294C302.885 904.347 301.461 896.115 295.514 891.922C289.567 887.729 281.335 889.153 277.142 895.1C274.454 898.912 274.075 903.663 275.715 907.687C274.966 911.13 273.476 914.147 271.247 916.738C267.793 920.753 263.078 923.509 257.103 925.008C253.348 925.811 250.091 927.82 247.706 930.576C241.746 936.049 236.704 938.208 232.579 937.053C228.684 935.962 224.679 933.307 220.562 929.088C217.066 924.059 211.022 921.018 204.499 921.663C194.912 922.611 187.897 931.164 188.845 940.751C189.793 950.338 198.346 957.352 207.933 956.405C212.485 955.955 216.456 953.791 219.271 950.616C223.794 946.727 228.523 945.162 233.456 945.921C238.187 946.65 242.64 948.675 246.815 951.998C248.856 954.786 251.706 956.918 254.981 958.08ZM264.46 958.641C266.282 958.328 267.987 957.656 269.579 956.614C268.025 957.546 266.305 958.245 264.46 958.641ZM245.357 949.611C241.35 943.593 241.672 937.706 246.885 931.59C244.431 934.908 243.148 939.111 243.586 943.538C243.802 945.72 244.417 947.767 245.357 949.611Z" stroke="#E3DB39" stroke-width="3" stroke-miterlimit="3" stroke-linecap="round" stroke-linejoin="round"/>
<path fill-rule="evenodd" clip-rule="evenodd" d="M94.6914 926.344C99.6581 929.3 102.258 932.23 102.49 935.134C102.673 937.404 102.833 939.619 102.969 941.777C102.111 943.029 101.673 944.579 101.834 946.206C102.197 949.876 105.471 952.562 109.142 952.199C112.812 951.836 115.498 948.562 115.135 944.891C114.88 942.309 113.184 940.215 110.923 939.325C109.61 937.359 108.684 935.048 108.144 932.392C107.429 928.87 107.728 925.177 109.042 921.314C110.412 919.119 111.094 916.473 110.82 913.702C110.744 912.927 110.596 912.176 110.375 911.46C109.171 905.842 105.25 902.705 99.2274 902.766C104.111 902.956 108.371 906.082 110.082 910.563C109.212 905.345 109.782 901.817 111.792 899.98C113.287 898.616 115.173 897.482 117.451 896.578C120.525 896.728 123.608 895.35 125.511 892.651C128.467 888.458 127.463 882.654 123.27 879.697C119.077 876.741 113.272 877.745 110.316 881.938C108.421 884.626 108.154 887.976 109.31 890.813C108.782 893.241 107.732 895.368 106.16 897.195C103.725 900.026 100.401 901.97 96.1874 903.026C93.5404 903.592 91.2434 905.008 89.5614 906.952C85.3601 910.81 81.8051 912.332 78.8964 911.518C76.1504 910.75 73.3261 908.878 70.4234 905.902C67.9584 902.356 63.6974 900.212 59.0984 900.667C52.3384 901.335 47.3924 907.366 48.0604 914.126C48.7294 920.885 54.7594 925.831 61.5194 925.163C64.7284 924.845 67.5284 923.32 69.5134 921.081C72.7028 918.339 76.0364 917.236 79.5144 917.771C82.8511 918.285 85.9911 919.713 88.9344 922.056C90.3734 924.021 92.3824 925.525 94.6914 926.344ZM101.375 926.74C102.659 926.518 103.861 926.045 104.984 925.31C103.888 925.968 102.675 926.46 101.375 926.74ZM87.9064 920.372C85.0804 916.129 85.3074 911.978 88.9834 907.666C87.2534 910.006 86.3484 912.969 86.6574 916.09C86.8094 917.629 87.2434 919.073 87.9064 920.372Z" stroke="#E3DB39" stroke-width="3" stroke-miterlimit="3" stroke-linecap="round" stroke-linejoin="round"/>
<path fill-rule="evenodd" clip-rule="evenodd" d="M265.58 769.035C267.564 776.988 267.21 782.532 264.517 785.668C262.413 788.119 260.343 790.491 258.306 792.784C256.188 793.172 254.19 794.278 252.712 796.065C249.379 800.097 249.945 806.076 253.977 809.41C258.008 812.744 263.988 812.178 267.322 808.146C269.667 805.31 270.082 801.511 268.719 798.346C269.388 795.059 270.79 791.818 272.925 788.623C275.758 784.384 279.776 780.997 284.978 778.463C288.556 777.65 291.902 775.694 294.419 772.65C295.122 771.799 295.73 770.901 296.232 769.963C300.686 763.139 299.928 756.058 293.852 750.055C298.539 755.162 299.646 762.574 296.842 768.771C301.228 762.682 305.35 759.733 309.207 759.924C312.074 760.066 315.099 760.833 318.284 762.225C321.204 765.469 325.67 767.198 330.289 766.418C337.464 765.207 342.305 758.399 341.094 751.224C339.883 744.049 333.075 739.207 325.9 740.418C321.301 741.195 317.661 744.271 315.958 748.269C312.987 750.162 309.796 751.229 306.386 751.471C301.103 751.846 295.826 750.439 290.554 747.252C287.34 745.152 283.62 744.254 279.983 744.501C271.901 744.124 266.818 742.064 264.733 738.323C262.764 734.79 261.828 730.076 261.925 724.182C263.034 718.158 260.937 711.725 255.885 707.548C248.461 701.409 237.449 702.452 231.309 709.876C225.17 717.3 226.213 728.313 233.637 734.452C237.162 737.367 241.495 738.662 245.731 738.425C251.678 738.898 256.119 741.153 259.054 745.19C261.869 749.063 263.566 753.651 264.147 758.955C263.605 762.367 264.098 765.892 265.58 769.035ZM271.856 776.161C273.362 777.233 275.039 777.971 276.901 778.367C275.143 777.92 273.437 777.191 271.856 776.161ZM264.815 756.238C266.266 749.155 270.672 745.238 278.686 744.633C274.602 745.227 270.714 747.276 267.88 750.704C266.482 752.394 265.462 754.273 264.815 756.238Z" stroke="#E3DB39" stroke-width="3" stroke-miterlimit="3" stroke-linecap="round" stroke-linejoin="round"/>
<path fill-rule="evenodd" clip-rule="evenodd" d="M1165.2 850.81C1169.43 864.927 1169.25 874.914 1164.68 880.771C1161.11 885.348 1157.59 889.781 1154.12 894.07C1150.35 894.943 1146.85 897.097 1144.35 900.43C1138.7 907.949 1140.22 918.641 1147.73 924.292C1155.25 929.942 1165.95 928.425 1171.6 920.905C1175.57 915.616 1176 908.758 1173.29 903.188C1174.21 897.228 1176.46 891.29 1180.03 885.373C1184.76 877.524 1191.69 871.106 1200.82 866.119C1207.18 864.36 1213.03 860.567 1217.29 854.891C1218.49 853.304 1219.5 851.639 1220.32 849.913C1227.75 837.286 1225.8 824.631 1214.39 814.357C1223.23 823.138 1225.84 836.358 1221.32 847.722C1228.69 836.419 1235.84 830.778 1242.79 830.799C1247.95 830.814 1253.45 831.938 1259.28 834.171C1264.8 839.754 1272.96 842.485 1281.19 840.699C1293.98 837.924 1302.1 825.292 1299.33 812.507C1296.55 799.723 1283.92 791.596 1271.14 794.371C1262.94 796.15 1256.66 801.979 1253.94 809.302C1248.76 812.949 1243.12 815.133 1237.01 815.852C1227.56 816.967 1217.96 814.883 1208.23 809.6C1202.28 806.097 1195.52 804.794 1189.01 805.543C1174.47 805.541 1165.17 802.267 1161.11 795.722C1157.28 789.541 1155.2 781.153 1154.88 770.56C1156.37 759.649 1152.07 748.271 1142.64 741.192C1128.8 730.786 1109.11 733.58 1098.7 747.428C1088.3 761.275 1091.09 780.965 1104.94 791.37C1111.51 796.31 1119.4 798.275 1126.99 797.495C1137.71 797.846 1145.87 801.525 1151.48 808.531C1156.86 815.25 1160.29 823.348 1161.78 832.825C1161.09 838.999 1162.27 845.288 1165.2 850.81ZM1177.06 863.082C1179.86 864.883 1182.93 866.067 1186.31 866.623C1183.12 865.967 1179.99 864.8 1177.06 863.082ZM1162.75 827.891C1164.77 815.049 1172.35 807.645 1186.69 805.888C1179.41 807.297 1172.6 811.302 1167.8 817.695C1165.43 820.847 1163.75 824.306 1162.75 827.891Z" stroke="#E3DB39" stroke-width="3" stroke-miterlimit="3" stroke-linecap="round" stroke-linejoin="round"/>
<path fill-rule="evenodd" clip-rule="evenodd" d="M1556.12 703.102C1560.35 717.219 1560.18 727.206 1555.6 733.063C1552.03 737.64 1548.51 742.073 1545.04 746.363C1541.27 747.236 1537.78 749.39 1535.27 752.723C1529.62 760.242 1531.14 770.934 1538.66 776.584C1546.18 782.235 1556.87 780.717 1562.52 773.198C1566.49 767.909 1566.92 761.05 1564.21 755.481C1565.14 749.521 1567.38 743.583 1570.95 737.666C1575.68 729.817 1582.62 723.399 1591.75 718.412C1598.1 716.653 1603.95 712.86 1608.22 707.184C1609.41 705.596 1610.43 703.932 1611.25 702.206C1618.68 689.578 1616.72 676.924 1605.31 666.65C1614.15 675.43 1616.76 688.65 1612.25 700.015C1619.61 688.712 1626.77 683.071 1633.71 683.091C1638.87 683.106 1644.37 684.231 1650.21 686.464C1655.72 692.047 1663.89 694.778 1672.12 692.992C1684.9 690.217 1693.03 677.584 1690.25 664.8C1687.48 652.016 1674.85 643.889 1662.06 646.664C1653.87 648.443 1647.59 654.272 1644.86 661.595C1639.68 665.241 1634.04 667.425 1627.94 668.145C1618.48 669.26 1608.89 667.176 1599.15 661.893C1593.21 658.389 1586.45 657.087 1579.94 657.836C1565.39 657.834 1556.09 654.56 1552.03 648.014C1548.2 641.833 1546.13 633.446 1545.81 622.853C1547.29 611.942 1542.99 600.564 1533.57 593.484C1519.72 583.079 1500.03 585.873 1489.63 599.72C1479.22 613.567 1482.01 633.258 1495.86 643.663C1502.44 648.603 1510.33 650.568 1517.91 649.788C1528.63 650.139 1536.8 653.818 1542.41 660.824C1547.79 667.542 1551.22 675.641 1552.7 685.118C1552.02 691.292 1553.2 697.581 1556.12 703.102ZM1567.99 715.374C1570.78 717.175 1573.86 718.36 1577.23 718.916C1574.04 718.26 1570.91 717.093 1567.99 715.374ZM1553.68 680.183C1555.69 667.342 1563.28 659.938 1577.62 658.181C1570.33 659.59 1563.52 663.595 1558.72 669.988C1556.35 673.14 1554.67 676.599 1553.68 680.183Z" stroke="#E3DB39" stroke-width="3" stroke-miterlimit="3" stroke-linecap="round" stroke-linejoin="round"/>
<path fill-rule="evenodd" clip-rule="evenodd" d="M1500.36 896.997C1496.17 900.976 1492.64 902.683 1489.78 902.12C1487.55 901.679 1485.38 901.232 1483.26 900.779C1482.29 899.614 1480.91 898.772 1479.3 898.485C1475.67 897.839 1472.2 900.262 1471.55 903.894C1470.91 907.525 1473.33 910.998 1476.96 911.644C1479.52 912.099 1481.99 911.035 1483.46 909.1C1485.71 908.369 1488.19 908.104 1490.89 908.305C1494.47 908.572 1497.95 909.862 1501.31 912.174C1503.05 914.088 1505.41 915.462 1508.15 915.95C1508.92 916.087 1509.68 916.148 1510.43 916.13C1516.17 916.495 1520.25 913.571 1521.82 907.758C1520.32 912.407 1516.15 915.66 1511.38 916.091C1516.64 916.668 1519.88 918.174 1521.1 920.607C1522.01 922.416 1522.59 924.539 1522.84 926.976C1521.86 929.894 1522.35 933.236 1524.43 935.799C1527.67 939.782 1533.52 940.389 1537.51 937.155C1541.49 933.921 1542.1 928.062 1538.86 924.08C1536.79 921.527 1533.64 920.361 1530.59 920.704C1528.4 919.537 1526.64 917.95 1525.31 915.941C1523.24 912.829 1522.27 909.102 1522.4 904.761C1522.57 902.06 1521.83 899.465 1520.42 897.319C1517.84 892.228 1517.34 888.394 1518.91 885.815C1520.4 883.38 1522.97 881.169 1526.62 879.182C1530.7 877.772 1533.92 874.251 1534.73 869.701C1535.92 863.014 1531.45 856.618 1524.77 855.428C1518.08 854.238 1511.68 858.701 1510.49 865.388C1509.93 868.563 1510.64 871.672 1512.25 874.19C1514.03 878.003 1514.19 881.511 1512.73 884.714C1511.33 887.786 1509.1 890.421 1506.05 892.618C1503.77 893.47 1501.77 894.997 1500.36 896.997ZM1498.17 903.323C1498.03 904.619 1498.16 905.905 1498.56 907.184C1498.23 905.951 1498.08 904.651 1498.17 903.323ZM1507.95 892.085C1512.8 890.517 1516.73 891.861 1519.89 896.568C1518.1 894.268 1515.5 892.594 1512.41 892.045C1510.89 891.774 1509.38 891.8 1507.95 892.085Z" stroke="#E3DB39" stroke-width="3" stroke-miterlimit="3" stroke-linecap="round" stroke-linejoin="round"/>
<path fill-rule="evenodd" clip-rule="evenodd" d="M1335.72 952.329C1337.7 960.282 1337.35 965.826 1334.66 968.962C1332.55 971.413 1330.48 973.785 1328.44 976.079C1326.33 976.466 1324.33 977.572 1322.85 979.359C1319.52 983.391 1320.08 989.371 1324.12 992.704C1328.15 996.038 1334.13 995.472 1337.46 991.44C1339.81 988.604 1340.22 984.805 1338.86 981.64C1339.53 978.353 1340.93 975.112 1343.06 971.917C1345.9 967.678 1349.91 964.292 1355.12 961.757C1358.69 960.944 1362.04 958.988 1364.56 955.945C1365.26 955.094 1365.87 954.195 1366.37 953.257C1370.83 946.434 1370.07 939.352 1363.99 933.349C1368.68 938.456 1369.78 945.868 1366.98 952.066C1371.37 945.977 1375.49 943.027 1379.35 943.218C1382.21 943.36 1385.24 944.127 1388.42 945.519C1391.34 948.763 1395.81 950.492 1400.43 949.712C1407.6 948.501 1412.44 941.693 1411.23 934.518C1410.02 927.343 1403.21 922.502 1396.04 923.713C1391.44 924.489 1387.8 927.565 1386.1 931.563C1383.13 933.456 1379.94 934.523 1376.52 934.765C1371.24 935.14 1365.97 933.733 1360.69 930.546C1357.48 928.446 1353.76 927.548 1350.12 927.795C1342.04 927.418 1336.96 925.358 1334.87 921.617C1332.9 918.084 1331.97 913.37 1332.06 907.476C1333.17 901.452 1331.08 895.019 1326.02 890.842C1318.6 884.703 1307.59 885.746 1301.45 893.17C1295.31 900.595 1296.35 911.607 1303.78 917.746C1307.3 920.661 1311.63 921.957 1315.87 921.72C1321.82 922.192 1326.26 924.447 1329.19 928.485C1332.01 932.357 1333.71 936.945 1334.29 942.249C1333.74 945.661 1334.24 949.186 1335.72 952.329ZM1341.99 959.455C1343.5 960.528 1345.18 961.265 1347.04 961.662C1345.28 961.214 1343.58 960.485 1341.99 959.455ZM1334.95 939.532C1336.4 932.45 1340.81 928.532 1348.82 927.927C1344.74 928.522 1340.85 930.571 1338.02 933.998C1336.62 935.688 1335.6 937.567 1334.95 939.532Z" stroke="#E3DB39" stroke-width="3" stroke-miterlimit="3" stroke-linecap="round" stroke-linejoin="round"/>
<path fill-rule="evenodd" clip-rule="evenodd" d="M1638.36 912.195C1640.34 920.148 1639.99 925.692 1637.3 928.828C1635.19 931.279 1633.12 933.651 1631.09 935.944C1628.97 936.332 1626.97 937.438 1625.49 939.225C1622.16 943.257 1622.73 949.236 1626.76 952.57C1630.79 955.904 1636.77 955.338 1640.1 951.306C1642.45 948.47 1642.86 944.671 1641.5 941.506C1642.17 938.219 1643.57 934.978 1645.71 931.783C1648.54 927.544 1652.56 924.157 1657.76 921.623C1661.34 920.81 1664.68 918.854 1667.2 915.81C1667.9 914.959 1668.51 914.061 1669.01 913.123C1673.47 906.3 1672.71 899.218 1666.63 893.215C1671.32 898.322 1672.43 905.734 1669.62 911.931C1674.01 905.842 1678.13 902.893 1681.99 903.084C1684.85 903.226 1687.88 903.993 1691.06 905.385C1693.98 908.629 1698.45 910.358 1703.07 909.578C1710.24 908.367 1715.09 901.559 1713.87 894.384C1712.66 887.209 1705.86 882.367 1698.68 883.578C1694.08 884.355 1690.44 887.431 1688.74 891.429C1685.77 893.322 1682.58 894.389 1679.17 894.631C1673.88 895.006 1668.61 893.599 1663.33 890.412C1660.12 888.312 1656.4 887.414 1652.76 887.661C1644.68 887.284 1639.6 885.224 1637.51 881.483C1635.55 877.95 1634.61 873.236 1634.71 867.342C1635.81 861.318 1633.72 854.885 1628.67 850.708C1621.24 844.569 1610.23 845.612 1604.09 853.036C1597.95 860.46 1598.99 871.473 1606.42 877.612C1609.94 880.527 1614.28 881.822 1618.51 881.585C1624.46 882.058 1628.9 884.313 1631.83 888.35C1634.65 892.223 1636.35 896.811 1636.93 902.115C1636.39 905.527 1636.88 909.052 1638.36 912.195ZM1644.64 919.321C1646.14 920.393 1647.82 921.131 1649.68 921.527C1647.92 921.08 1646.22 920.351 1644.64 919.321ZM1637.6 899.398C1639.05 892.315 1643.45 888.398 1651.47 887.793C1647.38 888.388 1643.49 890.436 1640.66 893.864C1639.26 895.554 1638.24 897.433 1637.6 899.398Z" stroke="#E3DB39" stroke-width="3" stroke-miterlimit="3" stroke-linecap="round" stroke-linejoin="round"/>
<path fill-rule="evenodd" clip-rule="evenodd" d="M1351.95 722.356C1360 723.894 1364.89 726.543 1366.6 730.303C1367.94 733.242 1369.23 736.117 1370.45 738.928C1369.92 741.013 1370.08 743.291 1371.08 745.383C1373.34 750.101 1379.01 752.097 1383.73 749.838C1388.44 747.579 1390.44 741.914 1388.18 737.195C1386.59 733.876 1383.32 731.904 1379.87 731.813C1377.17 729.826 1374.82 727.192 1372.81 723.913C1370.16 719.562 1368.77 714.494 1368.65 708.708C1369.42 705.12 1369.05 701.261 1367.34 697.7C1366.86 696.704 1366.3 695.775 1365.66 694.926C1361.34 688.018 1354.6 685.733 1346.6 688.728C1353.2 686.618 1360.39 688.725 1364.84 693.871C1361.15 687.334 1360.21 682.356 1362 678.935C1363.33 676.393 1365.3 673.969 1367.9 671.662C1372.07 670.375 1375.51 667.046 1376.74 662.527C1378.66 655.507 1374.51 648.254 1367.49 646.341C1360.47 644.428 1353.22 648.575 1351.31 655.595C1350.08 660.095 1351.34 664.691 1354.26 667.914C1354.73 671.405 1354.36 674.749 1353.14 677.946C1351.27 682.898 1347.77 687.097 1342.67 690.544C1339.41 692.579 1337.04 695.579 1335.73 698.983C1332 706.16 1327.99 709.91 1323.72 710.231C1319.69 710.534 1315.02 709.405 1309.71 706.842C1304.71 703.307 1297.99 702.51 1292.08 705.341C1283.39 709.502 1279.71 719.934 1283.87 728.623C1288.03 737.312 1298.47 740.989 1307.15 736.828C1311.28 734.853 1314.28 731.464 1315.84 727.52C1318.76 722.321 1322.68 719.237 1327.57 718.268C1332.27 717.339 1337.15 717.725 1342.2 719.424C1345.07 721.349 1348.48 722.381 1351.95 722.356ZM1361.06 719.651C1362.66 718.735 1364.03 717.523 1365.18 715.999C1364.03 717.406 1362.65 718.649 1361.06 719.651ZM1340.02 717.678C1334.2 713.387 1332.49 707.743 1335.31 700.216C1334.13 704.173 1334.36 708.561 1336.28 712.573C1337.23 714.551 1338.51 716.265 1340.02 717.678Z" stroke="#E3DB39" stroke-width="3" stroke-miterlimit="3" stroke-linecap="round" stroke-linejoin="round"/>
<path d="M981.77 833.388C974.098 843.431 946.439 862.606 938.224 846.159C917.667 805 918.667 827 917.275 851.553C915.961 874.734 917.395 875.125 907.77 873C905.115 872.414 903.645 885 894.77 884C887.895 883.5 891.02 870.875 885.464 868C882.536 866.86 880.573 868.491 876.915 869C870.898 869.837 873.448 856.644 865.434 863C858.184 868.75 856.441 867.278 857.854 843.979C860.374 802.465 859.878 809.094 838.035 833.388C828.637 843.839 827.804 863.559 835.534 892.547C833.98 908.254 830.174 909.113 824.117 895.124C819.436 884.314 810.771 857.468 819.187 830.986C821.922 822.379 839.376 792.805 848.937 787.398C860.161 781.05 862.849 779.18 887.715 779.509C896.279 779.622 913.951 782.486 924.988 791.043C945.999 807.333 946.127 837.688 951.77 835C964.713 828.833 972.934 823.024 976.434 817.572C983.35 808.453 988.462 805.263 991.77 808C999.02 814 989.441 823.345 981.77 833.388Z" stroke="#090CCD" stroke-width="3" stroke-miterlimit="3" stroke-linecap="square"/>
<path d="M928.254 744.673C925.662 762.97 911.101 776.059 895.759 773.885C880.417 771.711 870.067 755.092 872.659 736.795C875.252 718.498 889.813 705.409 905.155 707.583C920.497 709.757 930.847 726.377 928.254 744.673Z" stroke="#090CCD" stroke-width="3" stroke-miterlimit="3" stroke-linecap="square"/>
<path d="M935 726C935.393 730.827 930.291 745.879 925 739C918.75 730.875 919.5 727.5 919.5 723.5C914.5 724.5 904.5 716.861 895 719.5C886 722 874.596 732.25 870.5 728.5C870.5 723.5 874 720.5 872.5 717.5C870 712.5 875.759 713.025 877.5 708.5C879.24 703.975 884.485 704.805 887.5 702C890.088 699.591 899.773 696.824 904 698.5C908.227 700.177 908.718 702.251 914 703C919.282 703.748 925.767 714.241 926.375 718.637C926.984 723.034 934.607 721.172 935 726Z" fill="#E3DB39" stroke="#E3DB39" stroke-width="2" stroke-miterlimit="3" stroke-linecap="square"/>
<path d="M897.288 767.469C890.016 766.641 884.47 756.166 887.059 757.092C889.798 758.07 892.472 761.136 898.14 761.33C905.206 761.573 907.273 760.665 909.394 760.256C913.437 759.479 904.421 768.281 897.288 767.469Z" fill="#090CCD"/>
<path d="M887.901 740.736C891.974 740.839 895.562 746.376 894.081 745.99C892.514 745.581 890.881 744.012 887.729 744.181C883.799 744.392 882.697 744.997 881.541 745.327C879.338 745.956 883.906 740.634 887.901 740.736Z" fill="#090CCD"/>
<path d="M911.634 744.148C915.585 745.143 917.869 751.333 916.508 750.631C915.07 749.888 913.822 747.998 910.709 747.471C906.829 746.814 905.621 747.162 904.421 747.23C902.133 747.36 907.759 743.171 911.634 744.148Z" fill="#090CCD"/>
<path d="M883.913 779.473L892.913 795.473L883.913 805.473L879.913 779.473H883.913Z" stroke="#090CCD" stroke-width="2" stroke-miterlimit="3" stroke-linecap="square"/>
<path d="M866.852 809.717L879.091 811.041C879.596 811.096 879.962 811.55 879.907 812.055L879.245 818.179C879.19 818.684 878.736 819.049 878.231 818.995L865.991 817.67C865.487 817.616 865.121 817.162 865.176 816.657L865.838 810.533C865.893 810.028 866.347 809.662 866.852 809.717Z" stroke="#090CCD" stroke-width="2" stroke-miterlimit="2" stroke-linecap="square"/>
<path d="M901.281 781L892.913 796.473L901.281 806.473L905 782L901.281 781Z" stroke="#090CCD" stroke-width="2" stroke-miterlimit="3" stroke-linecap="square"/>
<path d="M928.933 904.272L910.643 933.123V899.883L928.933 904.272Z" stroke="#E3DB39" stroke-miterlimit="3" stroke-linecap="square"/>
<path d="M820.413 863.45L909.061 879.225V931.123L820.413 909.784V863.45Z" fill="#E3DB39" stroke="#E3DB39" stroke-width="3" stroke-miterlimit="3" stroke-linecap="square"/>
<path d="M928.933 904.272V911.784L910.643 938L820.413 916.662V911.784L909.061 933.123L928.933 904.272Z" stroke="#E3DB39" stroke-width="3" stroke-miterlimit="3" stroke-linecap="square"/>
<path d="M860.95 905.007L855.166 890.757L870.399 892.873L860.95 905.007Z" fill="#090CCD"/>
<path d="M811.142 811.814L639.232 886.841" stroke="#E3DB39" stroke-width="3" stroke-miterlimit="3" stroke-linecap="round" stroke-linejoin="round"/>
<path d="M726 810.442L718.754 776.46" stroke="#090CCD" stroke-width="3" stroke-miterlimit="3" stroke-linecap="round" stroke-linejoin="round"/>
<path d="M755 807.416L762 776.46" stroke="#090CCD" stroke-width="3" stroke-miterlimit="3" stroke-linecap="round" stroke-linejoin="round"/>
<path d="M755 808.273C745.125 816.585 736 816.793 726 810.442" stroke="#090CCD" stroke-width="3" stroke-miterlimit="3" stroke-linecap="round" stroke-linejoin="round"/>
<path d="M626.242 1022V882.259" stroke="#E3DB39" stroke-width="3" stroke-miterlimit="3" stroke-linecap="round" stroke-linejoin="round"/>
<path d="M829.662 792.736L626.242 881.648" stroke="#E3DB39" stroke-width="3" stroke-miterlimit="3" stroke-linecap="round" stroke-linejoin="round"/>
<path d="M555 862L626.242 881.648" stroke="#E3DB39" stroke-width="3" stroke-miterlimit="3" stroke-linecap="round" stroke-linejoin="round"/>
<path d="M739.476 782.028C751.694 782.028 761.599 779.465 761.599 776.304C761.599 773.143 751.694 770.581 739.476 770.581C727.258 770.581 717.353 773.143 717.353 776.304C717.353 779.465 727.258 782.028 739.476 782.028Z" stroke="#090CCD" stroke-width="3" stroke-miterlimit="3" stroke-linecap="square"/>
<path d="M726.987 762.302C727.842 764.676 730.771 764.409 731.242 766.29C731.712 768.171 731.661 773.702 733.704 774.943C735.066 775.771 736.327 776.548 737.487 777.275C740.382 774.051 741.321 771.262 740.305 768.909C738.78 765.379 741.877 761.314 741.538 759.125C741.043 755.921 738.056 755.168 735.651 752.558C732.746 749.406 738.895 747.517 737.459 744.299C736.024 741.081 730.699 742.921 730.169 740.602C729.639 738.284 731.432 737.048 730.398 734.099C729.708 732.133 727.188 730.586 722.838 729.457C721.056 733.24 720.57 736.403 721.38 738.945C722.595 742.758 725.214 741.688 725.908 743.895C726.601 746.102 721.626 747.323 722.774 751.025C723.922 754.727 726.895 752.386 727.957 754.748C729.019 757.11 726.133 759.928 726.987 762.302Z" fill="#383BF9" stroke="#090CCD" stroke-width="3" stroke-miterlimit="3" stroke-linecap="square"/>
<path d="M735.771 757.91C735.529 760.958 738.304 762.003 737.925 764.322C737.545 766.641 735.128 772.804 736.451 775.13C737.333 776.68 738.145 778.128 738.887 779.473C742.898 777.195 744.947 774.507 745.033 771.409C745.161 766.761 749.716 763.635 750.348 761.032C751.271 757.221 748.881 755.008 747.816 750.987C746.529 746.128 752.924 746.836 752.999 742.578C753.075 738.32 747.45 737.936 747.963 735.1C748.476 732.264 750.634 731.704 750.959 727.931C751.175 725.416 749.55 722.529 746.084 719.271C742.842 722.685 741.045 725.999 740.691 729.214C740.16 734.036 742.998 734.041 742.681 736.827C742.365 739.614 737.324 738.697 736.779 743.364C736.234 748.032 739.937 746.778 739.889 749.906C739.841 753.035 736.013 754.863 735.771 757.91Z" fill="#383BF9" stroke="#090CCD" stroke-width="3" stroke-miterlimit="3" stroke-linecap="square"/>
<path d="M783.621 782.584L777.173 752.345" stroke="#090CCD" stroke-width="3" stroke-miterlimit="3" stroke-linecap="round" stroke-linejoin="round"/>
<path d="M809.427 779.892L815.656 752.345" stroke="#090CCD" stroke-width="3" stroke-miterlimit="3" stroke-linecap="round" stroke-linejoin="round"/>
<path d="M809.427 780.654C800.639 788.05 792.519 788.235 783.621 782.584" stroke="#090CCD" stroke-width="3" stroke-miterlimit="3" stroke-linecap="round" stroke-linejoin="round"/>
<path d="M795.613 757.299C806.486 757.299 815.299 755.019 815.299 752.206C815.299 749.394 806.486 747.114 795.613 747.114C784.741 747.114 775.927 749.394 775.927 752.206C775.927 755.019 784.741 757.299 795.613 757.299Z" stroke="#090CCD" stroke-width="3" stroke-miterlimit="3" stroke-linecap="square"/>
<path d="M784.5 739.747C785.26 741.86 787.867 741.622 788.285 743.295C788.704 744.969 788.659 749.891 790.477 750.995C791.688 751.732 792.81 752.423 793.843 753.07C796.418 750.201 797.254 747.72 796.35 745.626C794.993 742.485 797.749 738.867 797.448 736.919C797.007 734.068 794.349 733.398 792.209 731.076C789.624 728.271 795.096 726.59 793.818 723.726C792.54 720.863 787.802 722.5 787.331 720.437C786.859 718.374 788.454 717.274 787.534 714.65C786.921 712.901 784.678 711.524 780.807 710.519C779.221 713.886 778.789 716.701 779.51 718.963C780.591 722.356 782.922 721.403 783.539 723.367C784.155 725.331 779.729 726.417 780.75 729.712C781.772 733.006 784.417 730.923 785.362 733.025C786.307 735.127 783.739 737.634 784.5 739.747Z" fill="#383BF9" stroke="#090CCD" stroke-width="3" stroke-miterlimit="3" stroke-linecap="square"/>
<path d="M792.315 735.839C792.1 738.55 794.569 739.481 794.232 741.544C793.895 743.608 791.744 749.092 792.921 751.161C793.706 752.541 794.428 753.829 795.089 755.026C798.658 752.999 800.48 750.607 800.557 747.85C800.672 743.715 804.725 740.933 805.287 738.616C806.109 735.225 803.982 733.256 803.034 729.678C801.889 725.354 807.579 725.984 807.646 722.195C807.714 718.407 802.708 718.065 803.165 715.541C803.621 713.017 805.541 712.519 805.83 709.161C806.023 706.923 804.577 704.355 801.492 701.456C798.609 704.494 797.009 707.443 796.694 710.304C796.221 714.595 798.747 714.598 798.465 717.078C798.183 719.558 793.697 718.742 793.213 722.895C792.728 727.048 796.023 725.932 795.98 728.717C795.938 731.501 792.531 733.127 792.315 735.839Z" fill="#383BF9" stroke="#090CCD" stroke-width="3" stroke-miterlimit="3" stroke-linecap="square"/>
<path d="M1193.82 853.063C1189.65 853.267 1185.56 847.879 1187.11 848.161C1188.74 848.46 1190.53 849.94 1193.74 849.527C1197.74 849.012 1198.82 848.31 1199.97 847.885C1202.18 847.074 1197.91 852.862 1193.82 853.063Z" fill="#6E74D0"/>
<path d="M1187.86 842.963C1188.69 842.963 1189.36 842.067 1189.36 840.963C1189.36 839.858 1188.69 838.963 1187.86 838.963C1187.03 838.963 1186.36 839.858 1186.36 840.963C1186.36 842.067 1187.03 842.963 1187.86 842.963Z" fill="#6E74D0"/>
<path d="M1198.86 842.963C1199.69 842.963 1200.36 842.067 1200.36 840.963C1200.36 839.858 1199.69 838.963 1198.86 838.963C1198.03 838.963 1197.36 839.858 1197.36 840.963C1197.36 842.067 1198.03 842.963 1198.86 842.963Z" fill="#6E74D0"/>
<path d="M504.908 716.346C500.736 716.55 496.647 711.162 498.191 711.445C499.823 711.743 501.612 713.224 504.822 712.811C508.823 712.296 509.903 711.594 511.06 711.168C513.265 710.358 509 716.146 504.908 716.346Z" fill="#6E74D0"/>
<path d="M498.948 706.246C499.776 706.246 500.448 705.351 500.448 704.246C500.448 703.142 499.776 702.246 498.948 702.246C498.119 702.246 497.448 703.142 497.448 704.246C497.448 705.351 498.119 706.246 498.948 706.246Z" fill="#6E74D0"/>
<path d="M509.948 706.246C510.776 706.246 511.448 705.351 511.448 704.246C511.448 703.142 510.776 702.246 509.948 702.246C509.119 702.246 508.448 703.142 508.448 704.246C508.448 705.351 509.119 706.246 509.948 706.246Z" fill="#6E74D0"/>
<path d="M101.088 675.377C96.916 675.581 92.827 670.193 94.371 670.475C96.003 670.774 97.792 672.254 101.002 671.841C105.003 671.326 106.084 670.624 107.24 670.199C109.446 669.388 105.18 675.176 101.088 675.377Z" fill="#6E74D0"/>
<path d="M95.1279 665.277C95.9564 665.277 96.6279 664.381 96.6279 663.277C96.6279 662.172 95.9564 661.277 95.1279 661.277C94.2995 661.277 93.6279 662.172 93.6279 663.277C93.6279 664.381 94.2995 665.277 95.1279 665.277Z" fill="#6E74D0"/>
<path d="M106.128 665.277C106.956 665.277 107.628 664.381 107.628 663.277C107.628 662.172 106.956 661.277 106.128 661.277C105.3 661.277 104.628 662.172 104.628 663.277C104.628 664.381 105.3 665.277 106.128 665.277Z" fill="#6E74D0"/>
<path d="M1584.75 704.59C1580.58 704.794 1576.49 699.406 1578.03 699.688C1579.66 699.987 1581.45 701.467 1584.66 701.054C1588.66 700.539 1589.74 699.837 1590.9 699.412C1593.1 698.601 1588.84 704.389 1584.75 704.59Z" fill="#6E74D0"/>
<path d="M1578.79 694.49C1579.62 694.49 1580.29 693.594 1580.29 692.49C1580.29 691.385 1579.62 690.49 1578.79 690.49C1577.96 690.49 1577.29 691.385 1577.29 692.49C1577.29 693.594 1577.96 694.49 1578.79 694.49Z" fill="#6E74D0"/>
<path d="M1589.79 694.49C1590.62 694.49 1591.29 693.594 1591.29 692.49C1591.29 691.385 1590.62 690.49 1589.79 690.49C1588.96 690.49 1588.29 691.385 1588.29 692.49C1588.29 693.594 1588.96 694.49 1589.79 694.49Z" fill="#6E74D0"/>
<path d="M1038.48 702.505C1034.31 702.709 1030.22 697.322 1031.76 697.604C1033.4 697.903 1035.18 699.383 1038.39 698.97C1042.4 698.455 1043.48 697.753 1044.63 697.327C1046.84 696.517 1042.57 702.305 1038.48 702.505Z" fill="#6E74D0"/>
<path d="M1032.52 692.406C1033.35 692.406 1034.02 691.51 1034.02 690.406C1034.02 689.301 1033.35 688.406 1032.52 688.406C1031.69 688.406 1031.02 689.301 1031.02 690.406C1031.02 691.51 1031.69 692.406 1032.52 692.406Z" fill="#6E74D0"/>
<path d="M1043.52 692.406C1044.35 692.406 1045.02 691.51 1045.02 690.406C1045.02 689.301 1044.35 688.406 1043.52 688.406C1042.69 688.406 1042.02 689.301 1042.02 690.406C1042.02 691.51 1042.69 692.406 1043.52 692.406Z" fill="#6E74D0"/>
<path d="M1129.13 782.783C1124.96 782.987 1120.87 777.6 1122.41 777.882C1124.05 778.18 1125.84 779.661 1129.05 779.248C1133.05 778.733 1134.13 778.031 1135.28 777.605C1137.49 776.795 1133.22 782.583 1129.13 782.783Z" fill="#6E74D0"/>
<path d="M1123.17 772.683C1124 772.683 1124.67 771.788 1124.67 770.683C1124.67 769.579 1124 768.683 1123.17 768.683C1122.34 768.683 1121.67 769.579 1121.67 770.683C1121.67 771.788 1122.34 772.683 1123.17 772.683Z" fill="#6E74D0"/>
<path d="M1134.17 772.683C1135 772.683 1135.67 771.788 1135.67 770.683C1135.67 769.579 1135 768.683 1134.17 768.683C1133.34 768.683 1132.67 769.579 1132.67 770.683C1132.67 771.788 1133.34 772.683 1134.17 772.683Z" fill="#6E74D0"/>
<path d="M1516.97 636.37C1512.79 636.574 1508.7 631.187 1510.25 631.469C1511.88 631.767 1513.67 633.248 1516.88 632.835C1520.88 632.32 1521.96 631.618 1523.12 631.192C1525.32 630.382 1521.06 636.17 1516.97 636.37Z" fill="#6E74D0"/>
<path d="M1511.01 626.271C1511.83 626.271 1512.51 625.375 1512.51 624.271C1512.51 623.166 1511.83 622.271 1511.01 622.271C1510.18 622.271 1509.51 623.166 1509.51 624.271C1509.51 625.375 1510.18 626.271 1511.01 626.271Z" fill="#6E74D0"/>
<path d="M1522.01 626.271C1522.83 626.271 1523.51 625.375 1523.51 624.271C1523.51 623.166 1522.83 622.271 1522.01 622.271C1521.18 622.271 1520.51 623.166 1520.51 624.271C1520.51 625.375 1521.18 626.271 1522.01 626.271Z" fill="#6E74D0"/>
<path d="M425.321 770.364C421.15 770.568 417.06 765.18 418.604 765.463C420.237 765.761 422.025 767.241 425.235 766.828C429.237 766.313 430.317 765.611 431.474 765.186C433.679 764.375 429.413 770.163 425.321 770.364Z" fill="#6E74D0"/>
<path d="M419.361 760.264C420.19 760.264 420.861 759.369 420.861 758.264C420.861 757.16 420.19 756.264 419.361 756.264C418.533 756.264 417.861 757.16 417.861 758.264C417.861 759.369 418.533 760.264 419.361 760.264Z" fill="#6E74D0"/>
<path d="M430.361 760.264C431.19 760.264 431.861 759.369 431.861 758.264C431.861 757.16 431.19 756.264 430.361 756.264C429.533 756.264 428.861 757.16 428.861 758.264C428.861 759.369 429.533 760.264 430.361 760.264Z" fill="#6E74D0"/>
<path d="M32.6421 606.747C28.4711 606.951 24.3811 601.563 25.9251 601.846C27.5571 602.144 29.3461 603.625 32.5561 603.212C36.5571 602.697 37.6381 601.995 38.7951 601.569C41.0001 600.759 36.7341 606.547 32.6421 606.747Z" fill="#6E74D0"/>
<path d="M26.6821 596.647C27.5106 596.647 28.1821 595.752 28.1821 594.647C28.1821 593.543 27.5106 592.647 26.6821 592.647C25.8537 592.647 25.1821 593.543 25.1821 594.647C25.1821 595.752 25.8537 596.647 26.6821 596.647Z" fill="#6E74D0"/>
<path d="M37.6821 596.647C38.5106 596.647 39.1821 595.752 39.1821 594.647C39.1821 593.543 38.5106 592.647 37.6821 592.647C36.8537 592.647 36.1821 593.543 36.1821 594.647C36.1821 595.752 36.8537 596.647 37.6821 596.647Z" fill="#6E74D0"/>
<path d="M384.307 585.436L427.091 598.407C429.617 599.173 431.046 601.845 430.28 604.371L423.144 627.91C422.379 630.436 419.706 631.865 417.18 631.099L374.396 618.129C371.87 617.363 370.441 614.69 371.206 612.164L378.342 588.626C379.108 586.1 381.781 584.671 384.307 585.436Z" stroke="#090CCD" stroke-width="3" stroke-miterlimit="2" stroke-linecap="round" stroke-linejoin="round"/>
<path d="M395.742 588.903L398.441 580L420.199 586.597L417.5 595.499" stroke="#090CCD" stroke-width="3" stroke-miterlimit="3" stroke-linecap="round" stroke-linejoin="round"/>
<path d="M383.718 588.47L384.028 602.028L418.436 612.46L427.234 601.662" stroke="#090CCD" stroke-width="3" stroke-miterlimit="3" stroke-linecap="round" stroke-linejoin="round"/>
<path d="M398.168 606.417C398.695 604.679 400.534 603.696 402.272 604.223C404.01 604.75 404.993 606.588 404.467 608.326C403.94 610.065 402.101 611.048 400.363 610.521C398.625 609.994 397.641 608.155 398.168 606.417Z" fill="#090CCD"/>
<path d="M1209.45 655.586L1252.23 668.557C1254.76 669.323 1256.19 671.995 1255.42 674.521L1248.29 698.06C1247.52 700.586 1244.85 702.015 1242.32 701.249L1199.54 688.279C1197.01 687.513 1195.58 684.84 1196.35 682.314L1203.48 658.776C1204.25 656.25 1206.92 654.821 1209.45 655.586Z" stroke="#090CCD" stroke-width="3" stroke-miterlimit="2" stroke-linecap="round" stroke-linejoin="round"/>
<path d="M1220.88 659.053L1223.58 650.15L1245.34 656.747L1242.64 665.649" stroke="#090CCD" stroke-width="3" stroke-miterlimit="3" stroke-linecap="round" stroke-linejoin="round"/>
<path d="M1208.86 658.62L1209.17 672.178L1243.58 682.61L1252.38 671.812" stroke="#090CCD" stroke-width="3" stroke-miterlimit="3" stroke-linecap="round" stroke-linejoin="round"/>
<path d="M1223.31 676.567C1223.84 674.829 1225.68 673.846 1227.41 674.373C1229.15 674.9 1230.14 676.738 1229.61 678.476C1229.08 680.215 1227.24 681.198 1225.51 680.671C1223.77 680.144 1222.78 678.305 1223.31 676.567Z" fill="#090CCD"/>
<path d="M124.307 791.436L167.091 804.406C169.617 805.172 171.046 807.845 170.28 810.371L163.144 833.909C162.379 836.435 159.706 837.865 157.18 837.099L114.396 824.128C111.87 823.362 110.441 820.69 111.206 818.164L118.342 794.625C119.108 792.099 121.781 790.67 124.307 791.436Z" stroke="#090CCD" stroke-width="3" stroke-miterlimit="2" stroke-linecap="round" stroke-linejoin="round"/>
<path d="M135.742 794.903L138.441 786L160.199 792.596L157.5 801.499" stroke="#090CCD" stroke-width="3" stroke-miterlimit="3" stroke-linecap="round" stroke-linejoin="round"/>
<path d="M123.718 794.469L124.028 808.028L158.436 818.459L167.234 807.661" stroke="#090CCD" stroke-width="3" stroke-miterlimit="3" stroke-linecap="round" stroke-linejoin="round"/>
<path d="M138.167 812.417C138.694 810.678 140.533 809.695 142.271 810.222C144.009 810.749 144.992 812.588 144.466 814.326C143.939 816.064 142.1 817.047 140.362 816.52C138.624 815.993 137.64 814.155 138.167 812.417Z" fill="#090CCD"/>
<path d="M655.124 617.761L697.052 602.247C699.528 601.331 702.281 602.597 703.197 605.072L711.733 628.14C712.649 630.616 711.383 633.369 708.907 634.285L666.979 649.8C664.503 650.716 661.749 649.45 660.833 646.974L652.298 623.906C651.382 621.431 652.648 618.677 655.124 617.761Z" stroke="#090CCD" stroke-width="3" stroke-miterlimit="2" stroke-linecap="round" stroke-linejoin="round"/>
<path d="M666.33 613.614L663.102 604.89L684.425 597L687.653 605.724" stroke="#090CCD" stroke-width="3" stroke-miterlimit="3" stroke-linecap="round" stroke-linejoin="round"/>
<path d="M656.487 620.534L664.926 631.151L698.646 618.674L699.133 604.754" stroke="#090CCD" stroke-width="3" stroke-miterlimit="3" stroke-linecap="round" stroke-linejoin="round"/>
<path d="M678.844 626.105C678.214 624.401 679.085 622.507 680.789 621.877C682.492 621.246 684.386 622.118 685.017 623.821C685.647 625.524 684.776 627.419 683.073 628.049C681.369 628.679 679.475 627.808 678.844 626.105Z" fill="#090CCD"/>
<path d="M1414.54 816.991L1456.47 801.476C1458.95 800.56 1461.7 801.826 1462.62 804.302L1471.15 827.37C1472.07 829.845 1470.8 832.599 1468.33 833.515L1426.4 849.029C1423.92 849.945 1421.17 848.679 1420.25 846.204L1411.72 823.136C1410.8 820.66 1412.07 817.907 1414.54 816.991Z" stroke="#090CCD" stroke-width="3" stroke-miterlimit="2" stroke-linecap="round" stroke-linejoin="round"/>
<path d="M1425.75 812.844L1422.52 804.12L1443.84 796.23L1447.07 804.954" stroke="#090CCD" stroke-width="3" stroke-miterlimit="3" stroke-linecap="round" stroke-linejoin="round"/>
<path d="M1415.91 819.763L1424.34 830.381L1458.06 817.903L1458.55 803.983" stroke="#090CCD" stroke-width="3" stroke-miterlimit="3" stroke-linecap="round" stroke-linejoin="round"/>
<path d="M1438.26 825.335C1437.63 823.631 1438.51 821.737 1440.21 821.106C1441.91 820.476 1443.81 821.347 1444.44 823.051C1445.07 824.754 1444.19 826.648 1442.49 827.279C1440.79 827.909 1438.89 827.038 1438.26 825.335Z" fill="#090CCD"/>
<path d="M1610.74 571.126L1643.09 559.157C1645 558.45 1647.13 559.427 1647.83 561.337L1654.42 579.133C1655.12 581.042 1654.15 583.167 1652.24 583.873L1619.89 595.842C1617.98 596.549 1615.86 595.572 1615.15 593.662L1608.56 575.866C1607.86 573.957 1608.83 571.832 1610.74 571.126Z" stroke="#090CCD" stroke-width="3" stroke-miterlimit="2" stroke-linecap="round" stroke-linejoin="round"/>
<path d="M1619.39 567.927L1616.9 561.196L1633.35 555.109L1635.84 561.84" stroke="#090CCD" stroke-width="3" stroke-miterlimit="3" stroke-linecap="round" stroke-linejoin="round"/>
<path d="M1611.8 573.265L1618.31 581.455L1644.32 571.83L1644.7 561.091" stroke="#090CCD" stroke-width="3" stroke-miterlimit="3" stroke-linecap="round" stroke-linejoin="round"/>
<path d="M1629.04 577.563C1628.56 576.249 1629.23 574.787 1630.54 574.301C1631.86 573.815 1633.32 574.487 1633.81 575.801C1634.29 577.115 1633.62 578.576 1632.31 579.062C1630.99 579.549 1629.53 578.877 1629.04 577.563Z" fill="#090CCD"/>
<path d="M382.736 954.214L424.665 938.7C427.141 937.784 429.894 939.05 430.81 941.526L439.346 964.593C440.262 967.069 438.996 969.822 436.52 970.738L394.591 986.253C392.116 987.169 389.362 985.903 388.446 983.427L379.911 960.359C378.995 957.884 380.261 955.13 382.736 954.214Z" stroke="#090CCD" stroke-width="3" stroke-miterlimit="2" stroke-linecap="round" stroke-linejoin="round"/>
<path d="M393.943 950.068L390.714 941.343L412.037 933.453L415.266 942.178" stroke="#090CCD" stroke-width="3" stroke-miterlimit="3" stroke-linecap="round" stroke-linejoin="round"/>
<path d="M384.1 956.987L392.539 967.604L426.259 955.127L426.746 941.207" stroke="#090CCD" stroke-width="3" stroke-miterlimit="3" stroke-linecap="round" stroke-linejoin="round"/>
<path d="M406.457 962.558C405.827 960.855 406.698 958.96 408.401 958.33C410.105 957.7 411.999 958.571 412.63 960.274C413.26 961.977 412.389 963.872 410.685 964.502C408.982 965.133 407.087 964.261 406.457 962.558Z" fill="#090CCD"/>
</g>
<defs>
<linearGradient id="paint0_linear" x1="851" y1="307" x2="851" y2="1016.5" gradientUnits="userSpaceOnUse">
<stop stop-color="#FBFFB8"/>
<stop offset="1" stop-color="#E9EB78"/>
</linearGradient>
<clipPath id="clip0">
<rect width="1702.4" height="1280" fill="white"/>
</clipPath>
</defs>
</svg>
