<?xml version="1.0" standalone="no"?><!-- Generator: Gravit.io --><svg xmlns="http://www.w3.org/2000/svg" xmlns:xlink="http://www.w3.org/1999/xlink" style="isolation:isolate" viewBox="0 0 1702.4 1280" width="1702.4" height="1280"><defs><clipPath id="_clipPath_B8JK5l4RfNuhnt99oJMVDAKP0Vkh14PN"><rect width="1702.4" height="1280"/></clipPath></defs><g clip-path="url(#_clipPath_B8JK5l4RfNuhnt99oJMVDAKP0Vkh14PN)"><linearGradient id="_lgradient_46" x1="0.5098684210526314" y1="0.584375" x2="0.5192669172932328" y2="0.00937499999999969" gradientTransform="matrix(1702.4,0,0,1280,0,0)" gradientUnits="userSpaceOnUse"><stop offset="0%" stop-opacity="1" style="stop-color:rgb(28,126,255)"/><stop offset="100%" stop-opacity="1" style="stop-color:rgb(255,255,255)"/></linearGradient><rect x="0" y="0" width="1702.4" height="1280" transform="matrix(1,0,0,1,0,0)" fill="url(#_lgradient_46)"/><linearGradient id="_lgradient_47" x1="0.492893423679724" y1="1.0265479986827382" x2="0.48145826043882467" y2="0.12025613991202277" gradientTransform="matrix(1701.402,0,0,1261.394,0,18.606)" gradientUnits="userSpaceOnUse"><stop offset="3.0434782608695654%" stop-opacity="1" style="stop-color:rgb(92,104,232)"/><stop offset="95.65217391304348%" stop-opacity="1" style="stop-color:rgb(255,65,249)"/></linearGradient><path d=" M 0 174.475 Q 341.325 15.462 851.775 18.669 Q 1382 22 1701.402 129.911 L 1701.402 1280 L 0 1280 L 0 174.475 Z " fill="url(#_lgradient_47)" fill-opacity="0.5"/><linearGradient id="_lgradient_48" x1="0.39919354838709675" y1="0.6412225977414856" x2="0.5568141624221846" y2="-0.024251616125114395" gradientTransform="matrix(1932,0,0,927.418,-76,638.582)" gradientUnits="userSpaceOnUse"><stop offset="0%" stop-opacity="1" style="stop-color:rgb(40,253,189)"/><stop offset="99.1304347826087%" stop-opacity="1" style="stop-color:rgb(79,197,236)"/><stop offset="99.1304347826087%" stop-opacity="1" style="stop-color:rgb(132,222,255)"/></linearGradient><path d=" M -29.258 995.351 Q 54.742 774.997 200.556 777.987 C 418.685 782.459 383.629 932.727 485.28 936.82 C 615.534 942.064 566.702 806.794 667.976 812.516 C 769.25 818.237 733.401 634.387 835.072 638.656 C 936.742 642.925 952.323 835.164 1076.968 794.501 C 1201.613 753.837 1244.46 709.114 1330.153 728.792 C 1477.723 762.679 1431.427 883.127 1517.121 909.716 C 1602.815 936.305 1641.766 823.532 1746.935 892.441 Q 1852.105 961.35 1856 1533.8 L -76 1566 L -29.258 995.351 Z " fill="url(#_lgradient_48)" fill-opacity="0.5"/><linearGradient id="_lgradient_49" x1="0.977043220386026" y1="0.4918134982359825" x2="0.10698127301642768" y2="0.5634412828605952" gradientTransform="matrix(660.002,0,0,380.756,639.998,590.482)" gradientUnits="userSpaceOnUse"><stop offset="1.7391304347826086%" stop-opacity="1" style="stop-color:rgb(15,24,191)"/><stop offset="96.08695652173913%" stop-opacity="1" style="stop-color:rgb(108,6,117)"/></linearGradient><path d=" M 649.667 792.341 L 949.667 965.546 Q 970.167 976.931 989.667 965.546 Q 1009.167 954.162 1289.667 792.341 Q 1310.333 782.332 1289.667 769.247 Q 1269 756.162 989.667 596.042 Q 972.667 584.922 949.667 596.042 C 926.667 607.162 669.667 757.662 649.667 769.247 Q 630.33 780.448 649.667 792.341 Z " fill="url(#_lgradient_49)"/><linearGradient id="_lgradient_50" x1="0.977043220386026" y1="0.4918134982359825" x2="0.10698127301642768" y2="0.5634412828605952" gradientTransform="matrix(660.002,0,0,380.756,639.998,563.482)" gradientUnits="userSpaceOnUse"><stop offset="1.3043478260869565%" stop-opacity="1" style="stop-color:rgb(25,34,219)"/><stop offset="97.3913043478261%" stop-opacity="1" style="stop-color:rgb(140,15,151)"/></linearGradient><path d=" M 649.667 765.341 L 949.667 938.546 Q 970.167 949.931 989.667 938.546 Q 1009.167 927.162 1289.667 765.341 Q 1310.333 755.332 1289.667 742.247 Q 1269 729.162 989.667 569.042 Q 972.667 557.922 949.667 569.042 C 926.667 580.162 669.667 730.662 649.667 742.247 Q 630.33 753.448 649.667 765.341 Z " fill="url(#_lgradient_50)"/><linearGradient id="_lgradient_51" x1="0.977043220386026" y1="0.4918134982359825" x2="0.10698127301642768" y2="0.5634412828605952" gradientTransform="matrix(660.002,0,0,380.756,639.998,534.482)" gradientUnits="userSpaceOnUse"><stop offset="0%" stop-opacity="1" style="stop-color:rgb(44,55,255)"/><stop offset="97.3913043478261%" stop-opacity="1" style="stop-color:rgb(167,32,179)"/></linearGradient><path d=" M 649.667 736.341 L 949.667 909.546 Q 970.167 920.931 989.667 909.546 Q 1009.167 898.162 1289.667 736.341 Q 1310.333 726.332 1289.667 713.247 Q 1269 700.162 989.667 540.042 Q 972.667 528.922 949.667 540.042 C 926.667 551.162 669.667 701.662 649.667 713.247 Q 630.33 724.448 649.667 736.341 Z " fill="url(#_lgradient_51)"/><line x1="1021.136" y1="403.319" x2="1261.136" y2="541.883" vector-effect="non-scaling-stroke" stroke-width="3" stroke="rgb(214,237,244)" stroke-linejoin="round" stroke-linecap="round" stroke-miterlimit="3"/><line x1="1016.708" y1="585.322" x2="1256.708" y2="723.886" vector-effect="non-scaling-stroke" stroke-width="3" stroke="rgb(30,36,210)" stroke-linejoin="round" stroke-linecap="round" stroke-miterlimit="3"/><line x1="1019.292" y1="736.049" x2="1136.708" y2="802.549" vector-effect="non-scaling-stroke" stroke-width="3" stroke="rgb(9,12,166)" stroke-linejoin="round" stroke-linecap="round" stroke-miterlimit="3"/><line x1="1021.136" y1="765.341" x2="1115" y2="817.57" vector-effect="non-scaling-stroke" stroke-width="3" stroke="rgb(9,12,166)" stroke-linejoin="round" stroke-linecap="round" stroke-miterlimit="3"/><line x1="1133" y1="769.114" x2="1065" y2="807.797" vector-effect="non-scaling-stroke" stroke-width="3" stroke="rgb(9,12,166)" stroke-linejoin="round" stroke-linecap="round" stroke-miterlimit="3"/><line x1="1156.139" y1="786.455" x2="1088.139" y2="825.138" vector-effect="non-scaling-stroke" stroke-width="3" stroke="rgb(9,12,166)" stroke-linejoin="round" stroke-linecap="round" stroke-miterlimit="3"/><linearGradient id="_lgradient_52" x1="0.977043220386026" y1="0.4918134982359825" x2="0.10698127301642768" y2="0.5634412828605952" gradientTransform="matrix(660.002,0,0,380.756,894.471,242.345)" gradientUnits="userSpaceOnUse"><stop offset="0%" stop-opacity="1" style="stop-color:rgb(22,32,219)"/><stop offset="97.82608695652173%" stop-opacity="1" style="stop-color:rgb(136,18,147)"/></linearGradient><path d=" M 904.139 444.204 L 1204.139 617.409 Q 1224.639 628.793 1244.139 617.409 Q 1263.639 606.024 1544.139 444.204 Q 1564.806 434.195 1544.139 421.11 Q 1523.472 408.024 1244.139 247.905 Q 1227.139 236.785 1204.139 247.905 C 1181.139 259.024 924.139 409.524 904.139 421.11 Q 884.802 432.311 904.139 444.204 Z " fill="url(#_lgradient_52)"/><linearGradient id="_lgradient_53" x1="0.977043220386026" y1="0.4918134982359825" x2="0.10698127301642768" y2="0.5634412828605952" gradientTransform="matrix(660.002,0,0,380.756,894.471,225.345)" gradientUnits="userSpaceOnUse"><stop offset="0%" stop-opacity="1" style="stop-color:rgb(44,55,255)"/><stop offset="97.3913043478261%" stop-opacity="1" style="stop-color:rgb(167,32,179)"/></linearGradient><path d=" M 904.139 427.204 L 1204.139 600.409 Q 1224.639 611.793 1244.139 600.409 Q 1263.639 589.024 1544.139 427.204 Q 1564.806 417.195 1544.139 404.11 Q 1523.472 391.024 1244.139 230.905 Q 1227.139 219.785 1204.139 230.905 C 1181.139 242.024 924.139 392.524 904.139 404.11 Q 884.802 415.311 904.139 427.204 Z " fill="url(#_lgradient_53)"/><line x1="1021.136" y1="403.319" x2="1261.136" y2="541.883" vector-effect="non-scaling-stroke" stroke-width="3" stroke="rgb(214,237,244)" stroke-linejoin="round" stroke-linecap="round" stroke-miterlimit="3"/><line x1="1039.136" y1="391.319" x2="1280" y2="531.162" vector-effect="non-scaling-stroke" stroke-width="3" stroke="rgb(214,237,244)" stroke-linejoin="round" stroke-linecap="round" stroke-miterlimit="3"/><line x1="1060" y1="381.051" x2="1300" y2="519.615" vector-effect="non-scaling-stroke" stroke-width="3" stroke="rgb(214,237,244)" stroke-linejoin="round" stroke-linecap="round" stroke-miterlimit="3"/><line x1="1078" y1="369.051" x2="1280" y2="484.974" vector-effect="non-scaling-stroke" stroke-width="3" stroke="rgb(214,237,244)" stroke-linejoin="round" stroke-linecap="round" stroke-miterlimit="3"/><linearGradient id="_lgradient_54" x1="0.977043220386026" y1="0.4918134982359825" x2="0.10698127301642768" y2="0.5634412828605952" gradientTransform="matrix(660.002,0,0,380.756,1324,473.201)" gradientUnits="userSpaceOnUse"><stop offset="0%" stop-opacity="1" style="stop-color:rgb(44,55,255)"/><stop offset="97.3913043478261%" stop-opacity="1" style="stop-color:rgb(167,32,179)"/></linearGradient><path d=" M 1333.668 675.06 L 1633.668 848.265 Q 1654.168 859.649 1673.668 848.265 Q 1693.168 836.88 1973.668 675.06 Q 1994.335 665.051 1973.668 651.966 Q 1953.002 638.88 1673.668 478.761 Q 1656.668 467.641 1633.668 478.761 C 1610.668 489.88 1353.668 640.38 1333.668 651.966 Q 1314.332 663.167 1333.668 675.06 Z " fill="url(#_lgradient_54)"/><linearGradient id="_lgradient_55" x1="0.977043220386026" y1="0.4918134982359825" x2="0.10698127301642768" y2="0.5634412828605952" gradientTransform="matrix(420.002,0,0,242.3,407.998,344.573)" gradientUnits="userSpaceOnUse"><stop offset="2.608695652173913%" stop-opacity="1" style="stop-color:rgb(17,27,210)"/><stop offset="96.95652173913044%" stop-opacity="1" style="stop-color:rgb(131,10,142)"/></linearGradient><path d=" M 414.151 473.029 L 605.06 583.251 Q 618.106 590.495 630.515 583.251 Q 642.924 576.006 821.424 473.029 Q 834.576 466.66 821.424 458.333 Q 808.273 450.006 630.515 348.111 Q 619.697 341.035 605.06 348.111 C 590.424 355.187 426.878 450.96 414.151 458.333 Q 401.846 465.461 414.151 473.029 Z " fill="url(#_lgradient_55)"/><linearGradient id="_lgradient_56" x1="0.977043220386026" y1="0.4918134982359825" x2="0.10698127301642768" y2="0.5634412828605952" gradientTransform="matrix(420.002,0,0,242.3,407.998,326.573)" gradientUnits="userSpaceOnUse"><stop offset="0%" stop-opacity="1" style="stop-color:rgb(36,47,244)"/><stop offset="96.52173913043478%" stop-opacity="1" style="stop-color:rgb(155,9,168)"/></linearGradient><path d=" M 414.151 455.029 L 605.06 565.251 Q 618.106 572.495 630.515 565.251 Q 642.924 558.006 821.424 455.029 Q 834.576 448.66 821.424 440.333 Q 808.273 432.006 630.515 330.111 Q 619.697 323.035 605.06 330.111 C 590.424 337.187 426.878 432.96 414.151 440.333 Q 401.846 447.461 414.151 455.029 Z " fill="url(#_lgradient_56)"/><linearGradient id="_lgradient_57" x1="0.977043220386026" y1="0.4918134982359825" x2="0.10698127301642768" y2="0.5634412828605952" gradientTransform="matrix(420.002,0,0,242.3,407.998,305.573)" gradientUnits="userSpaceOnUse"><stop offset="0%" stop-opacity="1" style="stop-color:rgb(44,55,255)"/><stop offset="97.3913043478261%" stop-opacity="1" style="stop-color:rgb(167,32,179)"/></linearGradient><path d=" M 414.151 434.029 L 605.06 544.251 Q 618.106 551.495 630.515 544.251 Q 642.924 537.006 821.424 434.029 Q 834.576 427.66 821.424 419.333 Q 808.273 411.006 630.515 309.111 Q 619.697 302.035 605.06 309.111 C 590.424 316.187 426.878 411.96 414.151 419.333 Q 401.846 426.461 414.151 434.029 Z " fill="url(#_lgradient_57)"/><linearGradient id="_lgradient_58" x1="0.977043220386026" y1="0.4918134982359825" x2="0.10698127301642768" y2="0.5634412828605952" gradientTransform="matrix(420.002,0,0,242.3,138,642.085)" gradientUnits="userSpaceOnUse"><stop offset="0%" stop-opacity="1" style="stop-color:rgb(44,55,255)"/><stop offset="97.3913043478261%" stop-opacity="1" style="stop-color:rgb(167,32,179)"/></linearGradient><path d=" M 144.153 770.541 L 335.062 880.763 Q 348.107 888.007 360.517 880.763 Q 372.926 873.518 551.426 770.541 Q 564.577 764.172 551.426 755.845 Q 538.274 747.518 360.517 645.623 Q 349.698 638.547 335.062 645.623 C 320.426 652.7 156.88 748.473 144.153 755.845 Q 131.847 762.973 144.153 770.541 Z " fill="url(#_lgradient_58)"/><line x1="339" y1="671.898" x2="457" y2="740" vector-effect="non-scaling-stroke" stroke-width="3" stroke="rgb(8,21,166)" stroke-linejoin="round" stroke-linecap="round" stroke-miterlimit="3"/><ellipse vector-effect="non-scaling-stroke" cx="354.9999999999999" cy="697.286854898283" rx="17.000000000000114" ry="9.899497391806221" fill="rgb(83,91,255)"/><ellipse vector-effect="non-scaling-stroke" cx="354.9999999999999" cy="690.4868548982831" rx="17.000000000000114" ry="9.899497391806221" fill="rgb(110,117,255)"/><ellipse vector-effect="non-scaling-stroke" cx="354.9999999999999" cy="683.6868548982825" rx="17.000000000000114" ry="9.899497391806221" fill="rgb(133,139,255)"/><ellipse vector-effect="non-scaling-stroke" cx="724.0000000000001" cy="723.885849681896" rx="17.000000000000114" ry="9.899497391806221" fill="rgb(83,91,255)"/><ellipse vector-effect="non-scaling-stroke" cx="724.0000000000001" cy="717.0858496818962" rx="17.000000000000114" ry="9.899497391806221" fill="rgb(110,117,255)"/><ellipse vector-effect="non-scaling-stroke" cx="724.0000000000001" cy="710.2858496818956" rx="17.000000000000114" ry="9.899497391806221" fill="rgb(133,139,255)"/><ellipse vector-effect="non-scaling-stroke" cx="1110.9999999999998" cy="797.6389771696378" rx="17.000000000000227" ry="9.899497391806221" fill="rgb(83,91,255)"/><ellipse vector-effect="non-scaling-stroke" cx="1110.9999999999998" cy="790.8389771696379" rx="17.000000000000227" ry="9.899497391806221" fill="rgb(110,117,255)"/><ellipse vector-effect="non-scaling-stroke" cx="1110.9999999999998" cy="784.0389771696373" rx="17.000000000000227" ry="9.899497391806221" fill="rgb(133,139,255)"/><linearGradient id="_lgradient_59" x1="0.977043220386026" y1="0.4918134982359825" x2="0.10698127301642768" y2="0.5634412828605952" gradientTransform="matrix(216.188,0,0,124.719,-48.818,534.482)" gradientUnits="userSpaceOnUse"><stop offset="0%" stop-opacity="1" style="stop-color:rgb(44,55,255)"/><stop offset="97.3913043478261%" stop-opacity="1" style="stop-color:rgb(167,32,179)"/></linearGradient><path d=" M -45.651 600.602 L 52.616 657.337 Q 59.331 661.066 65.718 657.337 Q 72.106 653.608 163.985 600.602 Q 170.755 597.324 163.985 593.038 Q 157.216 588.752 65.718 536.303 Q 60.15 532.661 52.616 536.303 C 45.082 539.946 -39.1 589.243 -45.651 593.038 Q -51.985 596.707 -45.651 600.602 Z " fill="url(#_lgradient_59)"/><g><linearGradient id="_lgradient_60" x1="0.2858266827708093" y1="0.16061913235384614" x2="1.054203639292771" y2="0.7824499411600819" gradientTransform="matrix(-155.622,0,0,364.45,1540.944,325.589)" gradientUnits="userSpaceOnUse"><stop offset="0%" stop-opacity="1" style="stop-color:rgb(134,223,216)"/><stop offset="100%" stop-opacity="1" style="stop-color:rgb(71,251,236)"/></linearGradient><path d=" M 1505.918 329.83 L 1391.725 395.759 Q 1384.708 400.75 1385.381 414.073 C 1385.825 422.867 1385.816 499.425 1385.381 663.139 C 1385.374 665.605 1385.54 677.59 1391.725 681.453 Q 1394.658 683.285 1410.757 690.039 L 1493.229 542.269 L 1540.944 336.149 L 1524.95 326.167 Q 1515.745 324.024 1505.918 329.83 Z " fill="url(#_lgradient_60)"/><linearGradient id="_lgradient_61" x1="1.2441588642757675" y1="0.10068867065720966" x2="-0.01559768876846146" y2="0.6797572298833859" gradientTransform="matrix(-140.98,0,0,355.972,1544.139,334.515)" gradientUnits="userSpaceOnUse"><stop offset="0%" stop-opacity="1" style="stop-color:rgb(79,242,228)"/><stop offset="98.26086956521739%" stop-opacity="1" style="stop-color:rgb(28,186,191)"/></linearGradient><path d=" M 1543.982 600.873 L 1543.982 351.807 Q 1545.56 327.757 1531.294 337.156 Q 1526.65 340.215 1417.101 403.085 Q 1406.92 408.822 1404.413 417.736 Q 1401.906 426.65 1404.413 674.127 Q 1404.424 695.774 1417.101 688.778 Q 1429.943 681.691 1518.606 630.174 Q 1525.614 626.082 1531.294 622.849 Q 1543.742 615.764 1543.982 600.873 Z " fill="url(#_lgradient_61)"/><linearGradient id="_lgradient_62" x1="0.2547315370884058" y1="0.21452834272510657" x2="0.7090206470407403" y2="0.744284020689198" gradientTransform="matrix(-127.283,0,0,321.388,1537.291,351.807)" gradientUnits="userSpaceOnUse"><stop offset="2.608695652173913%" stop-opacity="1" style="stop-color:rgb(79,242,228)"/><stop offset="100%" stop-opacity="1" style="stop-color:rgb(225,244,253)"/></linearGradient><path d=" M 1537.149 592.287 L 1537.149 367.419 Q 1538.574 345.705 1525.693 354.191 C 1524.208 355.17 1521.655 356.273 1502.338 367.419 C 1497.842 370.013 1500.951 376.569 1493.229 381.108 C 1485.479 385.664 1466.355 397.49 1455.165 403.085 C 1449.159 405.158 1450.608 397.69 1446.947 399.794 Q 1433.857 407.314 1422.595 413.715 Q 1413.403 418.894 1411.139 426.943 Q 1408.876 434.991 1411.139 658.425 Q 1411.149 677.968 1422.595 671.652 Q 1434.189 665.254 1514.238 618.742 Q 1520.565 615.047 1525.693 612.128 Q 1536.932 605.732 1537.149 592.287 Z " fill="url(#_lgradient_62)"/></g><path d=" M 1426 471.427 Q 1426.333 448.667 1446 436.786 Q 1464.681 425.501 1506 402.145 Q 1525.667 391 1525.984 413.246 Q 1526.212 429.151 1526 459.88 Q 1526.484 481.704 1510.988 491.17 Q 1495.492 500.636 1446 529.162 Q 1425.333 541.333 1426 517.615 Q 1426.469 500.934 1426 471.427 Z " fill="rgb(82,47,231)"/><path d=" M 1426 577.373 Q 1426.333 554.612 1446 542.732 Q 1464.681 531.447 1506 508.091 Q 1525.667 496.946 1525.984 519.192 Q 1526.212 535.097 1526 565.826 Q 1526.484 587.65 1510.988 597.116 Q 1495.492 606.581 1446 635.108 Q 1425.333 647.279 1426 623.561 Q 1426.469 606.879 1426 577.373 Z " fill="rgb(82,47,231)"/><path d=" M 1436 583.373 Q 1436.333 560.612 1456 548.732 Q 1474.681 537.447 1516 514.091 Q 1535.667 502.946 1535.984 525.192 Q 1536.212 541.097 1536 571.826 Q 1536.484 593.65 1520.988 603.116 Q 1505.492 612.581 1456 641.108 Q 1435.333 653.279 1436 629.561 Q 1436.469 612.879 1436 583.373 Z " fill="rgb(98,62,255)"/><path d=" M 1447 591.373 Q 1447.333 568.612 1467 556.732 Q 1485.681 545.447 1527 522.091 Q 1546.667 510.946 1546.984 533.192 Q 1547.212 549.097 1547 579.826 Q 1547.484 601.65 1531.988 611.116 Q 1516.492 620.581 1467 649.108 Q 1446.333 661.279 1447 637.561 Q 1447.469 620.879 1447 591.373 Z " fill="rgb(122,92,255)"/><linearGradient id="_lgradient_63" x1="0.977043220386026" y1="0.4918134982359825" x2="0.10698127301642768" y2="0.5634412828605952" gradientTransform="matrix(122.739,0,0,70.808,241.591,355.915)" gradientUnits="userSpaceOnUse"><stop offset="0%" stop-opacity="1" style="stop-color:rgb(44,55,255)"/><stop offset="97.3913043478261%" stop-opacity="1" style="stop-color:rgb(167,32,179)"/></linearGradient><path d=" M 243.389 393.454 L 299.18 425.664 Q 302.992 427.782 306.618 425.664 Q 310.245 423.547 362.408 393.454 Q 366.252 391.593 362.408 389.159 Q 358.565 386.726 306.618 356.949 Q 303.457 354.881 299.18 356.949 C 294.902 359.017 247.109 387.005 243.389 389.159 Q 239.793 391.242 243.389 393.454 Z " fill="url(#_lgradient_63)"/><line x1="174" y1="760.077" x2="338" y2="855" vector-effect="non-scaling-stroke" stroke-width="3" stroke="rgb(8,21,166)" stroke-linejoin="round" stroke-linecap="round" stroke-miterlimit="3"/><line x1="246" y1="787" x2="355" y2="724.887" vector-effect="non-scaling-stroke" stroke-width="3" stroke="rgb(8,21,166)" stroke-linejoin="round" stroke-linecap="round" stroke-miterlimit="3"/><line x1="174" y1="759.59" x2="283" y2="697.477" vector-effect="non-scaling-stroke" stroke-width="3" stroke="rgb(8,21,166)" stroke-linejoin="round" stroke-linecap="round" stroke-miterlimit="3"/><line x1="334.5" y1="769.299" x2="443.5" y2="707.186" vector-effect="non-scaling-stroke" stroke-width="3" stroke="rgb(8,21,166)" stroke-linejoin="round" stroke-linecap="round" stroke-miterlimit="3"/><linearGradient id="_lgradient_64" x1="0.977043220386026" y1="0.4918134982359825" x2="0.10698127301642768" y2="0.5634412828605952" gradientTransform="matrix(122.739,0,0,70.808,435.263,627.797)" gradientUnits="userSpaceOnUse"><stop offset="0%" stop-opacity="1" style="stop-color:rgb(44,55,255)"/><stop offset="97.3913043478261%" stop-opacity="1" style="stop-color:rgb(167,32,179)"/></linearGradient><path d=" M 437.061 665.336 L 492.851 697.547 Q 496.664 699.664 500.29 697.547 Q 503.916 695.43 556.08 665.336 Q 559.923 663.475 556.08 661.042 Q 552.237 658.608 500.29 628.831 Q 497.129 626.763 492.851 628.831 C 488.574 630.899 440.781 658.887 437.061 661.042 Q 433.465 663.125 437.061 665.336 Z " fill="url(#_lgradient_64)"/><path d=" M 364.999 721.154 L 385.758 733.14 Q 387.177 733.927 388.526 733.14 Q 389.875 732.352 409.285 721.154 Q 410.715 720.462 409.285 719.556 Q 407.855 718.651 388.526 707.571 Q 387.35 706.802 385.758 707.571 C 384.167 708.341 366.383 718.755 364.999 719.556 Q 363.661 720.331 364.999 721.154 Z " fill="rgb(21,51,151)"/><path d=" M 364.999 716.154 L 385.758 728.14 Q 387.177 728.927 388.526 728.14 Q 389.875 727.352 409.285 716.154 Q 410.715 715.462 409.285 714.556 Q 407.855 713.651 388.526 702.571 Q 387.35 701.802 385.758 702.571 C 384.167 703.341 366.383 713.755 364.999 714.556 Q 363.661 715.331 364.999 716.154 Z " fill="rgb(36,74,198)"/><path d=" M 364.999 710.154 L 385.758 722.14 Q 387.177 722.927 388.526 722.14 Q 389.875 721.352 409.285 710.154 Q 410.715 709.462 409.285 708.556 Q 407.855 707.651 388.526 696.571 Q 387.35 695.802 385.758 696.571 C 384.167 697.341 366.383 707.755 364.999 708.556 Q 363.661 709.331 364.999 710.154 Z " fill="rgb(60,100,234)"/><path d=" M 404.669 592.098 L 425.428 604.083 Q 426.847 604.871 428.196 604.083 Q 429.545 603.295 448.955 592.098 Q 450.385 591.405 448.955 590.5 Q 447.525 589.594 428.196 578.514 Q 427.02 577.745 425.428 578.514 C 423.837 579.284 406.053 589.698 404.669 590.5 Q 403.331 591.275 404.669 592.098 Z " fill="rgb(21,51,151)"/><defs><filter id="KbCQIpXDCbp00DYAVvC8OKYbAJD9xQp5" x="-200%" y="-200%" width="400%" height="400%" filterUnits="objectBoundingBox" color-interpolation-filters="sRGB"><feGaussianBlur xmlns="http://www.w3.org/2000/svg" stdDeviation="1.803315806392392"/></filter></defs><g filter="url(#KbCQIpXDCbp00DYAVvC8OKYbAJD9xQp5)"><path d=" M 571.834 610.81 L 592.593 622.795 Q 594.012 623.583 595.361 622.795 Q 596.71 622.007 616.12 610.81 Q 617.55 610.117 616.12 609.212 Q 614.69 608.306 595.361 597.226 Q 594.185 596.457 592.593 597.226 C 591.002 597.996 573.218 608.41 571.834 609.212 Q 570.496 609.987 571.834 610.81 Z " fill="rgb(21,51,151)"/></g><defs><filter id="hpyWcEcbfnInwISssv8mJ2n2eYGEZedU" x="-200%" y="-200%" width="400%" height="400%" filterUnits="objectBoundingBox" color-interpolation-filters="sRGB"><feGaussianBlur xmlns="http://www.w3.org/2000/svg" stdDeviation="1.803315806392392"/></filter></defs><g filter="url(#hpyWcEcbfnInwISssv8mJ2n2eYGEZedU)"><path d=" M 280.795 568.651 L 301.554 580.636 Q 302.972 581.424 304.322 580.636 Q 305.671 579.849 325.081 568.651 Q 326.511 567.958 325.081 567.053 Q 323.651 566.148 304.322 555.068 Q 303.145 554.298 301.554 555.068 C 299.962 555.837 282.179 566.251 280.795 567.053 Q 279.457 567.828 280.795 568.651 Z " fill="rgb(21,51,151)"/></g><defs><filter id="GqSsNZbom54dyiPe3sXDR7VPV5FCxPx3" x="-200%" y="-200%" width="400%" height="400%" filterUnits="objectBoundingBox" color-interpolation-filters="sRGB"><feGaussianBlur xmlns="http://www.w3.org/2000/svg" stdDeviation="1.803315806392392"/></filter></defs><g filter="url(#GqSsNZbom54dyiPe3sXDR7VPV5FCxPx3)"><path d=" M 145.204 499.89 L 165.963 511.875 Q 167.382 512.663 168.731 511.875 Q 170.08 511.087 189.49 499.89 Q 190.92 499.197 189.49 498.292 Q 188.06 497.386 168.731 486.307 Q 167.555 485.537 165.963 486.307 C 164.372 487.076 146.588 497.49 145.204 498.292 Q 143.866 499.067 145.204 499.89 Z " fill="rgb(21,51,151)"/></g><defs><filter id="YC4ApWUi7jjeRquVkgllhQhvQyKmTNJ7" x="-200%" y="-200%" width="400%" height="400%" filterUnits="objectBoundingBox" color-interpolation-filters="sRGB"><feGaussianBlur xmlns="http://www.w3.org/2000/svg" stdDeviation="1.803315806392392"/></filter></defs><g filter="url(#YC4ApWUi7jjeRquVkgllhQhvQyKmTNJ7)"><path d=" M 690.73 655.398 L 711.489 667.383 Q 712.907 668.171 714.256 667.383 Q 715.606 666.596 735.015 655.398 Q 736.446 654.706 735.015 653.8 Q 733.585 652.895 714.256 641.815 Q 713.08 641.046 711.489 641.815 C 709.897 642.584 692.113 652.999 690.73 653.8 Q 689.391 654.575 690.73 655.398 Z " fill="rgb(21,51,151)"/></g><defs><filter id="Ks7DcgVYTNEKrzDI9K2VYcKfOlwJZJNa" x="-200%" y="-200%" width="400%" height="400%" filterUnits="objectBoundingBox" color-interpolation-filters="sRGB"><feGaussianBlur xmlns="http://www.w3.org/2000/svg" stdDeviation="1.803315806392392"/></filter></defs><g filter="url(#Ks7DcgVYTNEKrzDI9K2VYcKfOlwJZJNa)"><path d=" M 837.158 395.019 L 857.917 407.004 Q 859.335 407.792 860.684 407.004 Q 862.034 406.217 881.444 395.019 Q 882.874 394.327 881.444 393.421 Q 880.013 392.516 860.684 381.436 Q 859.508 380.666 857.917 381.436 C 856.325 382.205 838.542 392.619 837.158 393.421 Q 835.82 394.196 837.158 395.019 Z " fill="rgb(21,51,151)"/></g><path d=" M 404.669 587.098 L 425.428 599.083 Q 426.847 599.871 428.196 599.083 Q 429.545 598.295 448.955 587.098 Q 450.385 586.405 448.955 585.5 Q 447.525 584.594 428.196 573.514 Q 427.02 572.745 425.428 573.514 C 423.837 574.284 406.053 584.698 404.669 585.5 Q 403.331 586.275 404.669 587.098 Z " fill="rgb(36,74,198)"/><path d=" M 404.669 581.098 L 425.428 593.083 Q 426.847 593.871 428.196 593.083 Q 429.545 592.295 448.955 581.098 Q 450.385 580.405 448.955 579.5 Q 447.525 578.594 428.196 567.514 Q 427.02 566.745 425.428 567.514 C 423.837 568.284 406.053 578.698 404.669 579.5 Q 403.331 580.275 404.669 581.098 Z " fill="rgb(60,100,234)"/><defs><filter id="UuwCKusVjE1cD558xFshZC1Q1h8e2IOM" x="-200%" y="-200%" width="400%" height="400%" filterUnits="objectBoundingBox" color-interpolation-filters="sRGB"><feGaussianBlur xmlns="http://www.w3.org/2000/svg" stdDeviation="3.306078978386052"/></filter></defs><g filter="url(#UuwCKusVjE1cD558xFshZC1Q1h8e2IOM)"><path d=" M 372.669 505.165 L 393.428 517.151 Q 394.847 517.938 396.196 517.151 Q 397.545 516.363 416.955 505.165 Q 418.385 504.473 416.955 503.567 Q 415.525 502.662 396.196 491.582 Q 395.02 490.813 393.428 491.582 C 391.837 492.352 374.053 502.766 372.669 503.567 Q 371.331 504.342 372.669 505.165 Z " fill="rgb(60,100,234)"/></g><defs><filter id="Z6FBYVYWlP7gY1MySojKTYQeYZH0aWtz" x="-200%" y="-200%" width="400%" height="400%" filterUnits="objectBoundingBox" color-interpolation-filters="sRGB"><feGaussianBlur xmlns="http://www.w3.org/2000/svg" stdDeviation="3.306078978386052"/></filter></defs><g filter="url(#Z6FBYVYWlP7gY1MySojKTYQeYZH0aWtz)"><path d=" M 47.329 435.344 L 68.088 447.329 Q 69.507 448.117 70.856 447.329 Q 72.205 446.541 91.615 435.344 Q 93.045 434.651 91.615 433.746 Q 90.185 432.84 70.856 421.761 Q 69.68 420.991 68.088 421.761 C 66.497 422.53 48.713 432.944 47.329 433.746 Q 45.991 434.521 47.329 435.344 Z " fill="rgb(60,100,234)"/></g><defs><filter id="vOgpFDBSqOxdTzwPsP0RDBrJzyIsDBjl" x="-200%" y="-200%" width="400%" height="400%" filterUnits="objectBoundingBox" color-interpolation-filters="sRGB"><feGaussianBlur xmlns="http://www.w3.org/2000/svg" stdDeviation="3.306078978386052"/></filter></defs><g filter="url(#vOgpFDBSqOxdTzwPsP0RDBrJzyIsDBjl)"><path d=" M 92.999 734.153 L 113.758 746.139 Q 115.177 746.926 116.526 746.139 Q 117.875 745.351 137.285 734.153 Q 138.715 733.461 137.285 732.555 Q 135.855 731.65 116.526 720.57 Q 115.35 719.801 113.758 720.57 C 112.167 721.34 94.383 731.754 92.999 732.555 Q 91.661 733.33 92.999 734.153 Z " fill="rgb(60,100,234)"/></g><defs><filter id="B4Z8hlHuaKbDbPUcgrUF0GoX5Oi7EG2G" x="-200%" y="-200%" width="400%" height="400%" filterUnits="objectBoundingBox" color-interpolation-filters="sRGB"><feGaussianBlur xmlns="http://www.w3.org/2000/svg" stdDeviation="1.803315806392392"/></filter></defs><g filter="url(#B4Z8hlHuaKbDbPUcgrUF0GoX5Oi7EG2G)"><path d=" M 548.999 740.794 L 569.758 752.78 Q 571.177 753.567 572.526 752.78 Q 573.875 751.992 593.285 740.794 Q 594.715 740.102 593.285 739.196 Q 591.855 738.291 572.526 727.211 Q 571.35 726.442 569.758 727.211 C 568.167 727.981 550.383 738.395 548.999 739.196 Q 547.661 739.971 548.999 740.794 Z " fill="rgb(60,100,234)"/></g><defs><filter id="KINPIvBrJfjRshDvMYyq7yziCazII4Zf" x="-200%" y="-200%" width="400%" height="400%" filterUnits="objectBoundingBox" color-interpolation-filters="sRGB"><feGaussianBlur xmlns="http://www.w3.org/2000/svg" stdDeviation="1.803315806392392"/></filter></defs><g filter="url(#KINPIvBrJfjRshDvMYyq7yziCazII4Zf)"><path d=" M 736.399 550.62 L 757.159 562.605 Q 758.577 563.393 759.926 562.605 Q 761.276 561.817 780.685 550.62 Q 782.115 549.927 780.685 549.022 Q 779.255 548.116 759.926 537.036 Q 758.75 536.267 757.159 537.036 C 755.567 537.806 737.783 548.22 736.399 549.022 Q 735.061 549.797 736.399 550.62 Z " fill="rgb(60,100,234)"/></g><defs><filter id="3kp7kEXHe8BhGEUCsQmwbIxxNtVaAU00" x="-200%" y="-200%" width="400%" height="400%" filterUnits="objectBoundingBox" color-interpolation-filters="sRGB"><feGaussianBlur xmlns="http://www.w3.org/2000/svg" stdDeviation="1.803315806392392"/></filter></defs><g filter="url(#3kp7kEXHe8BhGEUCsQmwbIxxNtVaAU00)"><path d=" M 1244.808 642.225 L 1265.567 654.21 Q 1266.986 654.998 1268.335 654.21 Q 1269.684 653.422 1289.094 642.225 Q 1290.524 641.532 1289.094 640.627 Q 1287.664 639.721 1268.335 628.641 Q 1267.159 627.872 1265.567 628.641 C 1263.976 629.411 1246.192 639.825 1244.808 640.627 Q 1243.47 641.402 1244.808 642.225 Z " fill="rgb(60,100,234)"/></g><linearGradient id="_lgradient_65" x1="0.977043220386026" y1="0.4918134982359825" x2="0.10698127301642768" y2="0.5634412828605952" gradientTransform="matrix(122.739,0,0,70.808,781.4,935.834)" gradientUnits="userSpaceOnUse"><stop offset="0%" stop-opacity="1" style="stop-color:rgb(44,55,255)"/><stop offset="97.3913043478261%" stop-opacity="1" style="stop-color:rgb(167,32,179)"/></linearGradient><path d=" M 783.198 973.373 L 838.989 1005.584 Q 842.801 1007.701 846.427 1005.584 Q 850.054 1003.467 902.217 973.373 Q 906.061 971.512 902.217 969.079 Q 898.374 966.645 846.427 936.868 Q 843.266 934.8 838.989 936.868 C 834.711 938.936 786.918 966.924 783.198 969.079 Q 779.602 971.162 783.198 973.373 Z " fill="url(#_lgradient_65)"/><linearGradient id="_lgradient_66" x1="0.977043220386026" y1="0.4918134982359825" x2="0.10698127301642768" y2="0.5634412828605952" gradientTransform="matrix(122.739,0,0,70.808,1403.363,793.192)" gradientUnits="userSpaceOnUse"><stop offset="0%" stop-opacity="1" style="stop-color:rgb(44,55,255)"/><stop offset="97.3913043478261%" stop-opacity="1" style="stop-color:rgb(167,32,179)"/></linearGradient><path d=" M 1405.161 830.731 L 1460.952 862.941 Q 1464.764 865.059 1468.39 862.941 Q 1472.017 860.824 1524.18 830.731 Q 1528.024 828.87 1524.18 826.436 Q 1520.337 824.003 1468.39 794.226 Q 1465.229 792.158 1460.952 794.226 C 1456.674 796.294 1408.881 824.282 1405.161 826.436 Q 1401.565 828.519 1405.161 830.731 Z " fill="url(#_lgradient_66)"/><linearGradient id="_lgradient_67" x1="0.5161290322580644" y1="0.5322391365745657" x2="0.45511460101867596" y2="-0.14101840568255242" gradientTransform="matrix(2179.183,0,0,937.82,-76,612)" gradientUnits="userSpaceOnUse"><stop offset="0%" stop-opacity="1" style="stop-color:rgb(40,253,189)"/><stop offset="99.1304347826087%" stop-opacity="1" style="stop-color:rgb(79,197,236)"/><stop offset="99.1304347826087%" stop-opacity="1" style="stop-color:rgb(132,222,255)"/></linearGradient><path d=" M -40 1067.986 Q 172 770.389 430.602 758.039 C 650.768 747.524 615.57 920.143 718.273 924.43 C 849.875 929.924 800.538 788.217 902.86 794.211 C 1005.183 800.205 968.963 607.605 1071.686 612.077 C 1174.409 616.549 1190.151 817.937 1316.086 775.338 C 1442.022 732.739 1485.312 685.888 1571.893 706.503 C 1720.99 742.002 1674.215 868.182 1760.796 896.037 C 1847.376 923.891 1886.731 805.751 1992.989 877.939 Q 2099.247 950.128 2103.183 1549.82 L -76 1508.76 L -40 1067.986 Z " fill="url(#_lgradient_67)" fill-opacity="0.5"/><g><path d=" M 1495.735 -438 C 1489.81 -438 1485 -442.81 1485 -448.735 C 1485 -454.659 1489.81 -459.47 1495.735 -459.47 C 1501.659 -459.47 1506.47 -454.659 1506.47 -448.735 C 1506.47 -442.81 1501.659 -438 1495.735 -438 Z " fill="rgb(204,231,244)"/><path d=" M 1495.735 -500 C 1489.81 -500 1485 -504.81 1485 -510.735 C 1485 -516.659 1489.81 -521.47 1495.735 -521.47 C 1501.659 -521.47 1506.47 -516.659 1506.47 -510.735 C 1506.47 -504.81 1501.659 -500 1495.735 -500 Z " fill="rgb(204,231,244)"/><path d=" M 1495.735 -469 C 1489.81 -469 1485 -473.81 1485 -479.735 C 1485 -485.659 1489.81 -490.47 1495.735 -490.47 C 1501.659 -490.47 1506.47 -485.659 1506.47 -479.735 C 1506.47 -473.81 1501.659 -469 1495.735 -469 Z " fill="rgb(204,231,244)"/><path d=" M 1527.075 -438 C 1521.151 -438 1516.341 -442.81 1516.341 -448.735 C 1516.341 -454.659 1521.151 -459.47 1527.075 -459.47 C 1533 -459.47 1537.81 -454.659 1537.81 -448.735 C 1537.81 -442.81 1533 -438 1527.075 -438 Z " fill="rgb(204,231,244)"/><path d=" M 1527.075 -500 C 1521.151 -500 1516.341 -504.81 1516.341 -510.735 C 1516.341 -516.659 1521.151 -521.47 1527.075 -521.47 C 1533 -521.47 1537.81 -516.659 1537.81 -510.735 C 1537.81 -504.81 1533 -500 1527.075 -500 Z " fill="rgb(204,231,244)"/><path d=" M 1527.075 -469 C 1521.151 -469 1516.341 -473.81 1516.341 -479.735 C 1516.341 -485.659 1521.151 -490.47 1527.075 -490.47 C 1533 -490.47 1537.81 -485.659 1537.81 -479.735 C 1537.81 -473.81 1533 -469 1527.075 -469 Z " fill="rgb(204,231,244)"/><path d=" M 1558.416 -438 C 1552.492 -438 1547.681 -442.81 1547.681 -448.735 C 1547.681 -454.659 1552.492 -459.47 1558.416 -459.47 C 1564.341 -459.47 1569.151 -454.659 1569.151 -448.735 C 1569.151 -442.81 1564.341 -438 1558.416 -438 Z " fill="rgb(204,231,244)"/><path d=" M 1558.416 -500 C 1552.492 -500 1547.681 -504.81 1547.681 -510.735 C 1547.681 -516.659 1552.492 -521.47 1558.416 -521.47 C 1564.341 -521.47 1569.151 -516.659 1569.151 -510.735 C 1569.151 -504.81 1564.341 -500 1558.416 -500 Z " fill="rgb(204,231,244)"/><path d=" M 1558.416 -469 C 1552.492 -469 1547.681 -473.81 1547.681 -479.735 C 1547.681 -485.659 1552.492 -490.47 1558.416 -490.47 C 1564.341 -490.47 1569.151 -485.659 1569.151 -479.735 C 1569.151 -473.81 1564.341 -469 1558.416 -469 Z " fill="rgb(204,231,244)"/><path d=" M 1589.757 -438 C 1583.832 -438 1579.022 -442.81 1579.022 -448.735 C 1579.022 -454.659 1583.832 -459.47 1589.757 -459.47 C 1595.682 -459.47 1600.492 -454.659 1600.492 -448.735 C 1600.492 -442.81 1595.682 -438 1589.757 -438 Z " fill="rgb(204,231,244)"/><path d=" M 1589.757 -500 C 1583.832 -500 1579.022 -504.81 1579.022 -510.735 C 1579.022 -516.659 1583.832 -521.47 1589.757 -521.47 C 1595.682 -521.47 1600.492 -516.659 1600.492 -510.735 C 1600.492 -504.81 1595.682 -500 1589.757 -500 Z " fill="rgb(204,231,244)"/><path d=" M 1589.757 -469 C 1583.832 -469 1579.022 -473.81 1579.022 -479.735 C 1579.022 -485.659 1583.832 -490.47 1589.757 -490.47 C 1595.682 -490.47 1600.492 -485.659 1600.492 -479.735 C 1600.492 -473.81 1595.682 -469 1589.757 -469 Z " fill="rgb(204,231,244)"/><path d=" M 1495.735 -531 C 1489.81 -531 1485 -535.81 1485 -541.735 C 1485 -547.659 1489.81 -552.47 1495.735 -552.47 C 1501.659 -552.47 1506.47 -547.659 1506.47 -541.735 C 1506.47 -535.81 1501.659 -531 1495.735 -531 Z " fill="rgb(204,231,244)"/><path d=" M 1495.735 -593 C 1489.81 -593 1485 -597.81 1485 -603.735 C 1485 -609.659 1489.81 -614.47 1495.735 -614.47 C 1501.659 -614.47 1506.47 -609.659 1506.47 -603.735 C 1506.47 -597.81 1501.659 -593 1495.735 -593 Z " fill="rgb(204,231,244)"/><path d=" M 1495.735 -562 C 1489.81 -562 1485 -566.81 1485 -572.735 C 1485 -578.659 1489.81 -583.47 1495.735 -583.47 C 1501.659 -583.47 1506.47 -578.659 1506.47 -572.735 C 1506.47 -566.81 1501.659 -562 1495.735 -562 Z " fill="rgb(204,231,244)"/><path d=" M 1527.075 -531 C 1521.151 -531 1516.341 -535.81 1516.341 -541.735 C 1516.341 -547.659 1521.151 -552.47 1527.075 -552.47 C 1533 -552.47 1537.81 -547.659 1537.81 -541.735 C 1537.81 -535.81 1533 -531 1527.075 -531 Z " fill="rgb(204,231,244)"/><path d=" M 1527.075 -593 C 1521.151 -593 1516.341 -597.81 1516.341 -603.735 C 1516.341 -609.659 1521.151 -614.47 1527.075 -614.47 C 1533 -614.47 1537.81 -609.659 1537.81 -603.735 C 1537.81 -597.81 1533 -593 1527.075 -593 Z " fill="rgb(204,231,244)"/><path d=" M 1527.075 -562 C 1521.151 -562 1516.341 -566.81 1516.341 -572.735 C 1516.341 -578.659 1521.151 -583.47 1527.075 -583.47 C 1533 -583.47 1537.81 -578.659 1537.81 -572.735 C 1537.81 -566.81 1533 -562 1527.075 -562 Z " fill="rgb(204,231,244)"/><path d=" M 1558.416 -531 C 1552.492 -531 1547.681 -535.81 1547.681 -541.735 C 1547.681 -547.659 1552.492 -552.47 1558.416 -552.47 C 1564.341 -552.47 1569.151 -547.659 1569.151 -541.735 C 1569.151 -535.81 1564.341 -531 1558.416 -531 Z " fill="rgb(204,231,244)"/><path d=" M 1558.416 -593 C 1552.492 -593 1547.681 -597.81 1547.681 -603.735 C 1547.681 -609.659 1552.492 -614.47 1558.416 -614.47 C 1564.341 -614.47 1569.151 -609.659 1569.151 -603.735 C 1569.151 -597.81 1564.341 -593 1558.416 -593 Z " fill="rgb(204,231,244)"/><path d=" M 1558.416 -562 C 1552.492 -562 1547.681 -566.81 1547.681 -572.735 C 1547.681 -578.659 1552.492 -583.47 1558.416 -583.47 C 1564.341 -583.47 1569.151 -578.659 1569.151 -572.735 C 1569.151 -566.81 1564.341 -562 1558.416 -562 Z " fill="rgb(204,231,244)"/><path d=" M 1589.757 -531 C 1583.832 -531 1579.022 -535.81 1579.022 -541.735 C 1579.022 -547.659 1583.832 -552.47 1589.757 -552.47 C 1595.682 -552.47 1600.492 -547.659 1600.492 -541.735 C 1600.492 -535.81 1595.682 -531 1589.757 -531 Z " fill="rgb(204,231,244)"/><path d=" M 1589.757 -593 C 1583.832 -593 1579.022 -597.81 1579.022 -603.735 C 1579.022 -609.659 1583.832 -614.47 1589.757 -614.47 C 1595.682 -614.47 1600.492 -609.659 1600.492 -603.735 C 1600.492 -597.81 1595.682 -593 1589.757 -593 Z " fill="rgb(204,231,244)"/><path d=" M 1589.757 -562 C 1583.832 -562 1579.022 -566.81 1579.022 -572.735 C 1579.022 -578.659 1583.832 -583.47 1589.757 -583.47 C 1595.682 -583.47 1600.492 -578.659 1600.492 -572.735 C 1600.492 -566.81 1595.682 -562 1589.757 -562 Z " fill="rgb(204,231,244)"/></g><g><path d=" M 1066.802 -225 C 1060.878 -225 1056.068 -229.81 1056.068 -235.735 C 1056.068 -241.659 1060.878 -246.47 1066.802 -246.47 C 1072.727 -246.47 1077.537 -241.659 1077.537 -235.735 C 1077.537 -229.81 1072.727 -225 1066.802 -225 Z " fill="rgb(204,231,244)"/><path d=" M 1066.802 -287 C 1060.878 -287 1056.068 -291.81 1056.068 -297.735 C 1056.068 -303.659 1060.878 -308.47 1066.802 -308.47 C 1072.727 -308.47 1077.537 -303.659 1077.537 -297.735 C 1077.537 -291.81 1072.727 -287 1066.802 -287 Z " fill="rgb(204,231,244)"/><path d=" M 1066.802 -256 C 1060.878 -256 1056.068 -260.81 1056.068 -266.735 C 1056.068 -272.659 1060.878 -277.47 1066.802 -277.47 C 1072.727 -277.47 1077.537 -272.659 1077.537 -266.735 C 1077.537 -260.81 1072.727 -256 1066.802 -256 Z " fill="rgb(204,231,244)"/><path d=" M 1098.143 -225 C 1092.218 -225 1087.408 -229.81 1087.408 -235.735 C 1087.408 -241.659 1092.218 -246.47 1098.143 -246.47 C 1104.068 -246.47 1108.878 -241.659 1108.878 -235.735 C 1108.878 -229.81 1104.068 -225 1098.143 -225 Z " fill="rgb(204,231,244)"/><path d=" M 1098.143 -287 C 1092.218 -287 1087.408 -291.81 1087.408 -297.735 C 1087.408 -303.659 1092.218 -308.47 1098.143 -308.47 C 1104.068 -308.47 1108.878 -303.659 1108.878 -297.735 C 1108.878 -291.81 1104.068 -287 1098.143 -287 Z " fill="rgb(204,231,244)"/><path d=" M 1098.143 -256 C 1092.218 -256 1087.408 -260.81 1087.408 -266.735 C 1087.408 -272.659 1092.218 -277.47 1098.143 -277.47 C 1104.068 -277.47 1108.878 -272.659 1108.878 -266.735 C 1108.878 -260.81 1104.068 -256 1098.143 -256 Z " fill="rgb(204,231,244)"/><path d=" M 1129.484 -225 C 1123.559 -225 1118.749 -229.81 1118.749 -235.735 C 1118.749 -241.659 1123.559 -246.47 1129.484 -246.47 C 1135.408 -246.47 1140.218 -241.659 1140.218 -235.735 C 1140.218 -229.81 1135.408 -225 1129.484 -225 Z " fill="rgb(204,231,244)"/><path d=" M 1129.484 -287 C 1123.559 -287 1118.749 -291.81 1118.749 -297.735 C 1118.749 -303.659 1123.559 -308.47 1129.484 -308.47 C 1135.408 -308.47 1140.218 -303.659 1140.218 -297.735 C 1140.218 -291.81 1135.408 -287 1129.484 -287 Z " fill="rgb(204,231,244)"/><path d=" M 1129.484 -256 C 1123.559 -256 1118.749 -260.81 1118.749 -266.735 C 1118.749 -272.659 1123.559 -277.47 1129.484 -277.47 C 1135.408 -277.47 1140.218 -272.659 1140.218 -266.735 C 1140.218 -260.81 1135.408 -256 1129.484 -256 Z " fill="rgb(204,231,244)"/><path d=" M 1160.824 -225 C 1154.9 -225 1150.09 -229.81 1150.09 -235.735 C 1150.09 -241.659 1154.9 -246.47 1160.824 -246.47 C 1166.749 -246.47 1171.559 -241.659 1171.559 -235.735 C 1171.559 -229.81 1166.749 -225 1160.824 -225 Z " fill="rgb(204,231,244)"/><path d=" M 1160.824 -287 C 1154.9 -287 1150.09 -291.81 1150.09 -297.735 C 1150.09 -303.659 1154.9 -308.47 1160.824 -308.47 C 1166.749 -308.47 1171.559 -303.659 1171.559 -297.735 C 1171.559 -291.81 1166.749 -287 1160.824 -287 Z " fill="rgb(204,231,244)"/><path d=" M 1160.824 -256 C 1154.9 -256 1150.09 -260.81 1150.09 -266.735 C 1150.09 -272.659 1154.9 -277.47 1160.824 -277.47 C 1166.749 -277.47 1171.559 -272.659 1171.559 -266.735 C 1171.559 -260.81 1166.749 -256 1160.824 -256 Z " fill="rgb(204,231,244)"/><path d=" M 1066.802 -318 C 1060.878 -318 1056.068 -322.81 1056.068 -328.735 C 1056.068 -334.659 1060.878 -339.47 1066.802 -339.47 C 1072.727 -339.47 1077.537 -334.659 1077.537 -328.735 C 1077.537 -322.81 1072.727 -318 1066.802 -318 Z " fill="rgb(204,231,244)"/><path d=" M 1066.802 -380 C 1060.878 -380 1056.068 -384.81 1056.068 -390.735 C 1056.068 -396.659 1060.878 -401.47 1066.802 -401.47 C 1072.727 -401.47 1077.537 -396.659 1077.537 -390.735 C 1077.537 -384.81 1072.727 -380 1066.802 -380 Z " fill="rgb(204,231,244)"/><path d=" M 1066.802 -349 C 1060.878 -349 1056.068 -353.81 1056.068 -359.735 C 1056.068 -365.659 1060.878 -370.47 1066.802 -370.47 C 1072.727 -370.47 1077.537 -365.659 1077.537 -359.735 C 1077.537 -353.81 1072.727 -349 1066.802 -349 Z " fill="rgb(204,231,244)"/><path d=" M 1098.143 -318 C 1092.218 -318 1087.408 -322.81 1087.408 -328.735 C 1087.408 -334.659 1092.218 -339.47 1098.143 -339.47 C 1104.068 -339.47 1108.878 -334.659 1108.878 -328.735 C 1108.878 -322.81 1104.068 -318 1098.143 -318 Z " fill="rgb(204,231,244)"/><path d=" M 1098.143 -380 C 1092.218 -380 1087.408 -384.81 1087.408 -390.735 C 1087.408 -396.659 1092.218 -401.47 1098.143 -401.47 C 1104.068 -401.47 1108.878 -396.659 1108.878 -390.735 C 1108.878 -384.81 1104.068 -380 1098.143 -380 Z " fill="rgb(204,231,244)"/><path d=" M 1098.143 -349 C 1092.218 -349 1087.408 -353.81 1087.408 -359.735 C 1087.408 -365.659 1092.218 -370.47 1098.143 -370.47 C 1104.068 -370.47 1108.878 -365.659 1108.878 -359.735 C 1108.878 -353.81 1104.068 -349 1098.143 -349 Z " fill="rgb(204,231,244)"/><path d=" M 1129.484 -318 C 1123.559 -318 1118.749 -322.81 1118.749 -328.735 C 1118.749 -334.659 1123.559 -339.47 1129.484 -339.47 C 1135.408 -339.47 1140.218 -334.659 1140.218 -328.735 C 1140.218 -322.81 1135.408 -318 1129.484 -318 Z " fill="rgb(204,231,244)"/><path d=" M 1129.484 -380 C 1123.559 -380 1118.749 -384.81 1118.749 -390.735 C 1118.749 -396.659 1123.559 -401.47 1129.484 -401.47 C 1135.408 -401.47 1140.218 -396.659 1140.218 -390.735 C 1140.218 -384.81 1135.408 -380 1129.484 -380 Z " fill="rgb(204,231,244)"/><path d=" M 1129.484 -349 C 1123.559 -349 1118.749 -353.81 1118.749 -359.735 C 1118.749 -365.659 1123.559 -370.47 1129.484 -370.47 C 1135.408 -370.47 1140.218 -365.659 1140.218 -359.735 C 1140.218 -353.81 1135.408 -349 1129.484 -349 Z " fill="rgb(204,231,244)"/><path d=" M 1160.824 -318 C 1154.9 -318 1150.09 -322.81 1150.09 -328.735 C 1150.09 -334.659 1154.9 -339.47 1160.824 -339.47 C 1166.749 -339.47 1171.559 -334.659 1171.559 -328.735 C 1171.559 -322.81 1166.749 -318 1160.824 -318 Z " fill="rgb(204,231,244)"/><path d=" M 1160.824 -380 C 1154.9 -380 1150.09 -384.81 1150.09 -390.735 C 1150.09 -396.659 1154.9 -401.47 1160.824 -401.47 C 1166.749 -401.47 1171.559 -396.659 1171.559 -390.735 C 1171.559 -384.81 1166.749 -380 1160.824 -380 Z " fill="rgb(204,231,244)"/><path d=" M 1160.824 -349 C 1154.9 -349 1150.09 -353.81 1150.09 -359.735 C 1150.09 -365.659 1154.9 -370.47 1160.824 -370.47 C 1166.749 -370.47 1171.559 -365.659 1171.559 -359.735 C 1171.559 -353.81 1166.749 -349 1160.824 -349 Z " fill="rgb(204,231,244)"/></g><g><path d=" M 1154.243 -494.53 C 1148.318 -494.53 1143.508 -499.341 1143.508 -505.265 C 1143.508 -511.19 1148.318 -516 1154.243 -516 C 1160.168 -516 1164.978 -511.19 1164.978 -505.265 C 1164.978 -499.341 1160.168 -494.53 1154.243 -494.53 Z " fill="rgb(234,224,233)"/><path d=" M 1154.243 -556.53 C 1148.318 -556.53 1143.508 -561.341 1143.508 -567.265 C 1143.508 -573.19 1148.318 -578 1154.243 -578 C 1160.168 -578 1164.978 -573.19 1164.978 -567.265 C 1164.978 -561.341 1160.168 -556.53 1154.243 -556.53 Z " fill="rgb(234,224,233)"/><path d=" M 1154.243 -525.53 C 1148.318 -525.53 1143.508 -530.341 1143.508 -536.265 C 1143.508 -542.19 1148.318 -547 1154.243 -547 C 1160.168 -547 1164.978 -542.19 1164.978 -536.265 C 1164.978 -530.341 1160.168 -525.53 1154.243 -525.53 Z " fill="rgb(234,224,233)"/><path d=" M 1185.584 -494.53 C 1179.659 -494.53 1174.849 -499.341 1174.849 -505.265 C 1174.849 -511.19 1179.659 -516 1185.584 -516 C 1191.508 -516 1196.319 -511.19 1196.319 -505.265 C 1196.319 -499.341 1191.508 -494.53 1185.584 -494.53 Z " fill="rgb(234,224,233)"/><path d=" M 1185.584 -556.53 C 1179.659 -556.53 1174.849 -561.341 1174.849 -567.265 C 1174.849 -573.19 1179.659 -578 1185.584 -578 C 1191.508 -578 1196.319 -573.19 1196.319 -567.265 C 1196.319 -561.341 1191.508 -556.53 1185.584 -556.53 Z " fill="rgb(234,224,233)"/><path d=" M 1185.584 -525.53 C 1179.659 -525.53 1174.849 -530.341 1174.849 -536.265 C 1174.849 -542.19 1179.659 -547 1185.584 -547 C 1191.508 -547 1196.319 -542.19 1196.319 -536.265 C 1196.319 -530.341 1191.508 -525.53 1185.584 -525.53 Z " fill="rgb(234,224,233)"/><path d=" M 1216.925 -494.53 C 1211 -494.53 1206.19 -499.341 1206.19 -505.265 C 1206.19 -511.19 1211 -516 1216.925 -516 C 1222.849 -516 1227.659 -511.19 1227.659 -505.265 C 1227.659 -499.341 1222.849 -494.53 1216.925 -494.53 Z " fill="rgb(234,224,233)"/><path d=" M 1216.925 -556.53 C 1211 -556.53 1206.19 -561.341 1206.19 -567.265 C 1206.19 -573.19 1211 -578 1216.925 -578 C 1222.849 -578 1227.659 -573.19 1227.659 -567.265 C 1227.659 -561.341 1222.849 -556.53 1216.925 -556.53 Z " fill="rgb(234,224,233)"/><path d=" M 1216.925 -525.53 C 1211 -525.53 1206.19 -530.341 1206.19 -536.265 C 1206.19 -542.19 1211 -547 1216.925 -547 C 1222.849 -547 1227.659 -542.19 1227.659 -536.265 C 1227.659 -530.341 1222.849 -525.53 1216.925 -525.53 Z " fill="rgb(234,224,233)"/><path d=" M 1248.265 -494.53 C 1242.341 -494.53 1237.53 -499.341 1237.53 -505.265 C 1237.53 -511.19 1242.341 -516 1248.265 -516 C 1254.19 -516 1259 -511.19 1259 -505.265 C 1259 -499.341 1254.19 -494.53 1248.265 -494.53 Z " fill="rgb(234,224,233)"/><path d=" M 1248.265 -556.53 C 1242.341 -556.53 1237.53 -561.341 1237.53 -567.265 C 1237.53 -573.19 1242.341 -578 1248.265 -578 C 1254.19 -578 1259 -573.19 1259 -567.265 C 1259 -561.341 1254.19 -556.53 1248.265 -556.53 Z " fill="rgb(234,224,233)"/><path d=" M 1248.265 -525.53 C 1242.341 -525.53 1237.53 -530.341 1237.53 -536.265 C 1237.53 -542.19 1242.341 -547 1248.265 -547 C 1254.19 -547 1259 -542.19 1259 -536.265 C 1259 -530.341 1254.19 -525.53 1248.265 -525.53 Z " fill="rgb(234,224,233)"/><path d=" M 1154.243 -587.53 C 1148.318 -587.53 1143.508 -592.341 1143.508 -598.265 C 1143.508 -604.19 1148.318 -609 1154.243 -609 C 1160.168 -609 1164.978 -604.19 1164.978 -598.265 C 1164.978 -592.341 1160.168 -587.53 1154.243 -587.53 Z " fill="rgb(234,224,233)"/><path d=" M 1154.243 -649.53 C 1148.318 -649.53 1143.508 -654.341 1143.508 -660.265 C 1143.508 -666.19 1148.318 -671 1154.243 -671 C 1160.168 -671 1164.978 -666.19 1164.978 -660.265 C 1164.978 -654.341 1160.168 -649.53 1154.243 -649.53 Z " fill="rgb(234,224,233)"/><path d=" M 1154.243 -618.53 C 1148.318 -618.53 1143.508 -623.341 1143.508 -629.265 C 1143.508 -635.19 1148.318 -640 1154.243 -640 C 1160.168 -640 1164.978 -635.19 1164.978 -629.265 C 1164.978 -623.341 1160.168 -618.53 1154.243 -618.53 Z " fill="rgb(234,224,233)"/><path d=" M 1185.584 -587.53 C 1179.659 -587.53 1174.849 -592.341 1174.849 -598.265 C 1174.849 -604.19 1179.659 -609 1185.584 -609 C 1191.508 -609 1196.319 -604.19 1196.319 -598.265 C 1196.319 -592.341 1191.508 -587.53 1185.584 -587.53 Z " fill="rgb(234,224,233)"/><path d=" M 1185.584 -649.53 C 1179.659 -649.53 1174.849 -654.341 1174.849 -660.265 C 1174.849 -666.19 1179.659 -671 1185.584 -671 C 1191.508 -671 1196.319 -666.19 1196.319 -660.265 C 1196.319 -654.341 1191.508 -649.53 1185.584 -649.53 Z " fill="rgb(234,224,233)"/><path d=" M 1185.584 -618.53 C 1179.659 -618.53 1174.849 -623.341 1174.849 -629.265 C 1174.849 -635.19 1179.659 -640 1185.584 -640 C 1191.508 -640 1196.319 -635.19 1196.319 -629.265 C 1196.319 -623.341 1191.508 -618.53 1185.584 -618.53 Z " fill="rgb(234,224,233)"/><path d=" M 1216.925 -587.53 C 1211 -587.53 1206.19 -592.341 1206.19 -598.265 C 1206.19 -604.19 1211 -609 1216.925 -609 C 1222.849 -609 1227.659 -604.19 1227.659 -598.265 C 1227.659 -592.341 1222.849 -587.53 1216.925 -587.53 Z " fill="rgb(234,224,233)"/><path d=" M 1216.925 -649.53 C 1211 -649.53 1206.19 -654.341 1206.19 -660.265 C 1206.19 -666.19 1211 -671 1216.925 -671 C 1222.849 -671 1227.659 -666.19 1227.659 -660.265 C 1227.659 -654.341 1222.849 -649.53 1216.925 -649.53 Z " fill="rgb(234,224,233)"/><path d=" M 1216.925 -618.53 C 1211 -618.53 1206.19 -623.341 1206.19 -629.265 C 1206.19 -635.19 1211 -640 1216.925 -640 C 1222.849 -640 1227.659 -635.19 1227.659 -629.265 C 1227.659 -623.341 1222.849 -618.53 1216.925 -618.53 Z " fill="rgb(234,224,233)"/><path d=" M 1248.265 -587.53 C 1242.341 -587.53 1237.53 -592.341 1237.53 -598.265 C 1237.53 -604.19 1242.341 -609 1248.265 -609 C 1254.19 -609 1259 -604.19 1259 -598.265 C 1259 -592.341 1254.19 -587.53 1248.265 -587.53 Z " fill="rgb(234,224,233)"/><path d=" M 1248.265 -649.53 C 1242.341 -649.53 1237.53 -654.341 1237.53 -660.265 C 1237.53 -666.19 1242.341 -671 1248.265 -671 C 1254.19 -671 1259 -666.19 1259 -660.265 C 1259 -654.341 1254.19 -649.53 1248.265 -649.53 Z " fill="rgb(234,224,233)"/><path d=" M 1248.265 -618.53 C 1242.341 -618.53 1237.53 -623.341 1237.53 -629.265 C 1237.53 -635.19 1242.341 -640 1248.265 -640 C 1254.19 -640 1259 -635.19 1259 -629.265 C 1259 -623.341 1254.19 -618.53 1248.265 -618.53 Z " fill="rgb(234,224,233)"/></g><g><path d=" M 1596.645 -189 C 1590.721 -189 1585.91 -193.81 1585.91 -199.735 C 1585.91 -205.659 1590.721 -210.47 1596.645 -210.47 C 1602.57 -210.47 1607.38 -205.659 1607.38 -199.735 C 1607.38 -193.81 1602.57 -189 1596.645 -189 Z " fill="rgb(234,224,233)"/><path d=" M 1596.645 -251 C 1590.721 -251 1585.91 -255.81 1585.91 -261.735 C 1585.91 -267.659 1590.721 -272.47 1596.645 -272.47 C 1602.57 -272.47 1607.38 -267.659 1607.38 -261.735 C 1607.38 -255.81 1602.57 -251 1596.645 -251 Z " fill="rgb(234,224,233)"/><path d=" M 1596.645 -220 C 1590.721 -220 1585.91 -224.81 1585.91 -230.735 C 1585.91 -236.659 1590.721 -241.47 1596.645 -241.47 C 1602.57 -241.47 1607.38 -236.659 1607.38 -230.735 C 1607.38 -224.81 1602.57 -220 1596.645 -220 Z " fill="rgb(234,224,233)"/><path d=" M 1627.986 -189 C 1622.061 -189 1617.251 -193.81 1617.251 -199.735 C 1617.251 -205.659 1622.061 -210.47 1627.986 -210.47 C 1633.911 -210.47 1638.721 -205.659 1638.721 -199.735 C 1638.721 -193.81 1633.911 -189 1627.986 -189 Z " fill="rgb(234,224,233)"/><path d=" M 1627.986 -251 C 1622.061 -251 1617.251 -255.81 1617.251 -261.735 C 1617.251 -267.659 1622.061 -272.47 1627.986 -272.47 C 1633.911 -272.47 1638.721 -267.659 1638.721 -261.735 C 1638.721 -255.81 1633.911 -251 1627.986 -251 Z " fill="rgb(234,224,233)"/><path d=" M 1627.986 -220 C 1622.061 -220 1617.251 -224.81 1617.251 -230.735 C 1617.251 -236.659 1622.061 -241.47 1627.986 -241.47 C 1633.911 -241.47 1638.721 -236.659 1638.721 -230.735 C 1638.721 -224.81 1633.911 -220 1627.986 -220 Z " fill="rgb(234,224,233)"/><path d=" M 1659.327 -189 C 1653.402 -189 1648.592 -193.81 1648.592 -199.735 C 1648.592 -205.659 1653.402 -210.47 1659.327 -210.47 C 1665.251 -210.47 1670.061 -205.659 1670.061 -199.735 C 1670.061 -193.81 1665.251 -189 1659.327 -189 Z " fill="rgb(234,224,233)"/><path d=" M 1659.327 -251 C 1653.402 -251 1648.592 -255.81 1648.592 -261.735 C 1648.592 -267.659 1653.402 -272.47 1659.327 -272.47 C 1665.251 -272.47 1670.061 -267.659 1670.061 -261.735 C 1670.061 -255.81 1665.251 -251 1659.327 -251 Z " fill="rgb(234,224,233)"/><path d=" M 1659.327 -220 C 1653.402 -220 1648.592 -224.81 1648.592 -230.735 C 1648.592 -236.659 1653.402 -241.47 1659.327 -241.47 C 1665.251 -241.47 1670.061 -236.659 1670.061 -230.735 C 1670.061 -224.81 1665.251 -220 1659.327 -220 Z " fill="rgb(234,224,233)"/><path d=" M 1690.667 -189 C 1684.743 -189 1679.933 -193.81 1679.933 -199.735 C 1679.933 -205.659 1684.743 -210.47 1690.667 -210.47 C 1696.592 -210.47 1701.402 -205.659 1701.402 -199.735 C 1701.402 -193.81 1696.592 -189 1690.667 -189 Z " fill="rgb(234,224,233)"/><path d=" M 1690.667 -251 C 1684.743 -251 1679.933 -255.81 1679.933 -261.735 C 1679.933 -267.659 1684.743 -272.47 1690.667 -272.47 C 1696.592 -272.47 1701.402 -267.659 1701.402 -261.735 C 1701.402 -255.81 1696.592 -251 1690.667 -251 Z " fill="rgb(234,224,233)"/><path d=" M 1690.667 -220 C 1684.743 -220 1679.933 -224.81 1679.933 -230.735 C 1679.933 -236.659 1684.743 -241.47 1690.667 -241.47 C 1696.592 -241.47 1701.402 -236.659 1701.402 -230.735 C 1701.402 -224.81 1696.592 -220 1690.667 -220 Z " fill="rgb(234,224,233)"/><path d=" M 1596.645 -282 C 1590.721 -282 1585.91 -286.81 1585.91 -292.735 C 1585.91 -298.659 1590.721 -303.47 1596.645 -303.47 C 1602.57 -303.47 1607.38 -298.659 1607.38 -292.735 C 1607.38 -286.81 1602.57 -282 1596.645 -282 Z " fill="rgb(234,224,233)"/><path d=" M 1596.645 -344 C 1590.721 -344 1585.91 -348.81 1585.91 -354.735 C 1585.91 -360.659 1590.721 -365.47 1596.645 -365.47 C 1602.57 -365.47 1607.38 -360.659 1607.38 -354.735 C 1607.38 -348.81 1602.57 -344 1596.645 -344 Z " fill="rgb(234,224,233)"/><path d=" M 1596.645 -313 C 1590.721 -313 1585.91 -317.81 1585.91 -323.735 C 1585.91 -329.659 1590.721 -334.47 1596.645 -334.47 C 1602.57 -334.47 1607.38 -329.659 1607.38 -323.735 C 1607.38 -317.81 1602.57 -313 1596.645 -313 Z " fill="rgb(234,224,233)"/><path d=" M 1627.986 -282 C 1622.061 -282 1617.251 -286.81 1617.251 -292.735 C 1617.251 -298.659 1622.061 -303.47 1627.986 -303.47 C 1633.911 -303.47 1638.721 -298.659 1638.721 -292.735 C 1638.721 -286.81 1633.911 -282 1627.986 -282 Z " fill="rgb(234,224,233)"/><path d=" M 1627.986 -344 C 1622.061 -344 1617.251 -348.81 1617.251 -354.735 C 1617.251 -360.659 1622.061 -365.47 1627.986 -365.47 C 1633.911 -365.47 1638.721 -360.659 1638.721 -354.735 C 1638.721 -348.81 1633.911 -344 1627.986 -344 Z " fill="rgb(234,224,233)"/><path d=" M 1627.986 -313 C 1622.061 -313 1617.251 -317.81 1617.251 -323.735 C 1617.251 -329.659 1622.061 -334.47 1627.986 -334.47 C 1633.911 -334.47 1638.721 -329.659 1638.721 -323.735 C 1638.721 -317.81 1633.911 -313 1627.986 -313 Z " fill="rgb(234,224,233)"/><path d=" M 1659.327 -282 C 1653.402 -282 1648.592 -286.81 1648.592 -292.735 C 1648.592 -298.659 1653.402 -303.47 1659.327 -303.47 C 1665.251 -303.47 1670.061 -298.659 1670.061 -292.735 C 1670.061 -286.81 1665.251 -282 1659.327 -282 Z " fill="rgb(234,224,233)"/><path d=" M 1659.327 -344 C 1653.402 -344 1648.592 -348.81 1648.592 -354.735 C 1648.592 -360.659 1653.402 -365.47 1659.327 -365.47 C 1665.251 -365.47 1670.061 -360.659 1670.061 -354.735 C 1670.061 -348.81 1665.251 -344 1659.327 -344 Z " fill="rgb(234,224,233)"/><path d=" M 1659.327 -313 C 1653.402 -313 1648.592 -317.81 1648.592 -323.735 C 1648.592 -329.659 1653.402 -334.47 1659.327 -334.47 C 1665.251 -334.47 1670.061 -329.659 1670.061 -323.735 C 1670.061 -317.81 1665.251 -313 1659.327 -313 Z " fill="rgb(234,224,233)"/><path d=" M 1690.667 -282 C 1684.743 -282 1679.933 -286.81 1679.933 -292.735 C 1679.933 -298.659 1684.743 -303.47 1690.667 -303.47 C 1696.592 -303.47 1701.402 -298.659 1701.402 -292.735 C 1701.402 -286.81 1696.592 -282 1690.667 -282 Z " fill="rgb(234,224,233)"/><path d=" M 1690.667 -344 C 1684.743 -344 1679.933 -348.81 1679.933 -354.735 C 1679.933 -360.659 1684.743 -365.47 1690.667 -365.47 C 1696.592 -365.47 1701.402 -360.659 1701.402 -354.735 C 1701.402 -348.81 1696.592 -344 1690.667 -344 Z " fill="rgb(234,224,233)"/><path d=" M 1690.667 -313 C 1684.743 -313 1679.933 -317.81 1679.933 -323.735 C 1679.933 -329.659 1684.743 -334.47 1690.667 -334.47 C 1696.592 -334.47 1701.402 -329.659 1701.402 -323.735 C 1701.402 -317.81 1696.592 -313 1690.667 -313 Z " fill="rgb(234,224,233)"/></g><g><linearGradient id="_lgradient_68" x1="0.2858266827708093" y1="0.16061913235384614" x2="1.054203639292771" y2="0.7824499411600819" gradientTransform="matrix(-102.15,0,0,239.224,304.521,504.371)" gradientUnits="userSpaceOnUse"><stop offset="0%" stop-opacity="1" style="stop-color:rgb(134,223,216)"/><stop offset="100%" stop-opacity="1" style="stop-color:rgb(71,251,236)"/></linearGradient><path d=" M 281.53 507.155 L 206.574 550.43 Q 201.968 553.706 202.41 562.451 C 202.701 568.224 202.695 618.476 202.41 725.938 C 202.405 727.557 202.514 735.424 206.574 737.959 Q 208.499 739.162 219.066 743.595 L 273.201 646.599 L 304.521 511.303 L 294.022 504.75 Q 287.98 503.343 281.53 507.155 Z " fill="url(#_lgradient_68)"/><linearGradient id="_lgradient_69" x1="1.2441588642757675" y1="0.10068867065720966" x2="-0.01559768876846146" y2="0.6797572298833859" gradientTransform="matrix(-92.539,0,0,233.66,306.618,510.229)" gradientUnits="userSpaceOnUse"><stop offset="0%" stop-opacity="1" style="stop-color:rgb(79,242,228)"/><stop offset="98.26086956521739%" stop-opacity="1" style="stop-color:rgb(28,186,191)"/></linearGradient><path d=" M 306.515 685.066 L 306.515 521.58 Q 307.551 505.794 298.187 511.963 Q 295.139 513.971 223.231 555.239 Q 216.548 559.004 214.902 564.856 Q 213.257 570.707 214.902 733.151 Q 214.909 747.36 223.231 742.767 Q 231.66 738.116 289.858 704.3 Q 294.458 701.614 298.187 699.492 Q 306.357 694.841 306.515 685.066 Z " fill="url(#_lgradient_69)"/><path d=" M 302.03 679.431 L 302.03 531.828 Q 302.965 517.575 294.511 523.145 C 293.536 523.787 291.86 524.512 279.18 531.828 C 276.229 533.53 278.27 537.834 273.201 540.814 C 268.114 543.804 255.561 551.566 248.216 555.239 C 244.273 556.599 245.225 551.698 242.821 553.078 Q 234.23 558.015 226.837 562.216 Q 220.803 565.616 219.318 570.899 Q 217.832 576.182 219.318 722.844 Q 219.324 735.672 226.837 731.526 Q 234.447 727.326 286.991 696.796 Q 291.144 694.37 294.511 692.455 Q 301.888 688.256 302.03 679.431 Z " fill="rgb(104,105,248)"/><linearGradient id="_lgradient_70" x1="0.2547315370884058" y1="0.21452834272510657" x2="0.7090206470407403" y2="0.744284020689198" gradientTransform="matrix(-82.712,0,0,68.539,302.03,664)" gradientUnits="userSpaceOnUse"><stop offset="1.7391304347826086%" stop-opacity="1" style="stop-color:rgb(100,44,220)"/><stop offset="97.82608695652173%" stop-opacity="1" style="stop-color:rgb(130,38,201)"/></linearGradient><path d=" M 302.03 679.431 L 302.03 664 Q 219.317 712.926 219.318 713 Q 219.368 719.121 219.318 722.844 Q 219.324 735.672 226.837 731.526 Q 234.447 727.326 286.991 696.796 Q 291.144 694.37 294.511 692.455 Q 301.888 688.256 302.03 679.431 Z " fill="url(#_lgradient_70)"/></g><linearGradient id="_lgradient_71" x1="0" y1="0.5" x2="1" y2="0.5" gradientTransform="matrix(1.351,63.675,-68.568,1.455,867.948,692.213)" gradientUnits="userSpaceOnUse"><stop offset="0%" stop-opacity="1" style="stop-color:rgb(227,62,242)"/><stop offset="98.69565217391305%" stop-opacity="1" style="stop-color:rgb(42,99,255)"/></linearGradient><path d=" M 868.854 736.813 Q 868.233 722.327 854.104 721.761 Q 839.976 721.196 839.678 707.145 Q 839.538 689.631 819.401 693.951 C 799.265 698.271 793.29 729.128 808.707 745.792 C 822.141 760.312 840.234 756.9 848.978 754.336 Q 870.04 748.159 868.854 736.813 Z " fill="url(#_lgradient_71)"/><linearGradient id="_lgradient_72" x1="0.5" y1="0" x2="0.5000000000000001" y2="0.9999999999999929" gradientTransform="matrix(0.255,12.025,-11.359,0.241,842.041,738.924)" gradientUnits="userSpaceOnUse"><stop offset="0%" stop-opacity="1" style="stop-color:rgb(154,95,255)"/><stop offset="96.95652173913044%" stop-opacity="1" style="stop-color:rgb(255,156,191)"/></linearGradient><path d=" M 836.361 739.044 C 839.496 738.978 842.098 741.618 842.168 744.936 C 842.238 748.255 839.751 751.003 836.616 751.069 C 833.481 751.136 830.879 748.496 830.809 745.177 C 830.739 741.859 833.226 739.111 836.361 739.044 Z " fill="url(#_lgradient_72)"/><linearGradient id="_lgradient_73" x1="0.5" y1="0" x2="0.5000000000000001" y2="0.9999999999999929" gradientTransform="matrix(0.364,17.168,-16.217,0.344,828.057,730.006)" gradientUnits="userSpaceOnUse"><stop offset="0%" stop-opacity="1" style="stop-color:rgb(154,95,255)"/><stop offset="96.95652173913044%" stop-opacity="1" style="stop-color:rgb(255,156,191)"/></linearGradient><path d=" M 819.948 730.178 C 824.424 730.083 828.139 733.853 828.239 738.59 C 828.34 743.328 824.788 747.251 820.312 747.346 C 815.837 747.441 812.122 743.672 812.022 738.934 C 811.921 734.197 815.473 730.273 819.948 730.178 Z " fill="url(#_lgradient_73)"/><linearGradient id="_lgradient_74" x1="0.5" y1="0" x2="0.5000000000000001" y2="0.9999999999999929" gradientTransform="matrix(0.364,17.168,-16.217,0.344,819.584,713.01)" gradientUnits="userSpaceOnUse"><stop offset="0%" stop-opacity="1" style="stop-color:rgb(154,95,255)"/><stop offset="96.95652173913044%" stop-opacity="1" style="stop-color:rgb(255,156,191)"/></linearGradient><path d=" M 811.475 713.182 C 815.951 713.087 819.666 716.857 819.766 721.594 C 819.867 726.332 816.315 730.255 811.84 730.35 C 807.364 730.445 803.649 726.676 803.549 721.938 C 803.448 717.201 807 713.277 811.475 713.182 Z " fill="url(#_lgradient_74)"/><linearGradient id="_lgradient_75" x1="0.5" y1="0" x2="0.5000000000000001" y2="0.9999999999999929" gradientTransform="matrix(0.364,17.168,-16.217,0.344,829.794,697.342)" gradientUnits="userSpaceOnUse"><stop offset="0%" stop-opacity="1" style="stop-color:rgb(154,95,255)"/><stop offset="96.95652173913044%" stop-opacity="1" style="stop-color:rgb(255,156,191)"/></linearGradient><path d=" M 821.686 697.514 C 826.161 697.419 829.876 701.189 829.976 705.926 C 830.077 710.664 826.525 714.587 822.05 714.682 C 817.574 714.777 813.859 711.008 813.759 706.27 C 813.658 701.533 817.21 697.609 821.686 697.514 Z " fill="url(#_lgradient_75)"/><defs><linearGradient id="_lgradient_76" x1="0" y1="0.5" x2="1" y2="0.5"><stop offset="2.1739130434782608%" style="stop-color:#9C22B9"/><stop offset="98.69565217391305%" style="stop-color:#6B20F7"/></linearGradient></defs><path d="M 815.002 577.099 L 816.051 491.721 C 816.077 489.605 817.816 487.908 819.932 487.934 L 824.06 487.985 C 826.176 488.011 827.872 489.75 827.846 491.865 L 826.797 577.244 C 826.771 579.359 825.033 581.056 822.917 581.03 L 818.789 580.979 C 816.673 580.953 814.976 579.214 815.002 577.099 Z" style="stroke:none;fill:url(#_lgradient_76);stroke-miterlimit:10;"/><linearGradient id="_lgradient_77" x1="0" y1="0.5" x2="1" y2="0.5" gradientTransform="matrix(1,0,0.002,4.132,817.929,494.697)" gradientUnits="userSpaceOnUse"><stop offset="1.3043478260869565%" stop-opacity="1" style="stop-color:rgb(255,249,251)"/><stop offset="98.69565217391305%" stop-opacity="1" style="stop-color:rgb(255,191,167)"/></linearGradient><rect x="817.867" y="495.206" width="1" height="4.133" transform="matrix(0.021,1,-1,0.021,1297.942,-331.589)" fill="url(#_lgradient_77)"/><linearGradient id="_lgradient_78" x1="0" y1="0.5" x2="1" y2="0.5" gradientTransform="matrix(1,0,0.004,8.263,820.169,500.581)" gradientUnits="userSpaceOnUse"><stop offset="1.3043478260869565%" stop-opacity="1" style="stop-color:rgb(255,249,251)"/><stop offset="98.69565217391305%" stop-opacity="1" style="stop-color:rgb(255,191,167)"/></linearGradient><rect x="820.104" y="501.094" width="1" height="8.265" transform="matrix(0.021,1,-1,0.021,1308.083,-326.044)" fill="url(#_lgradient_78)"/><linearGradient id="_lgradient_79" x1="0" y1="0.5" x2="1" y2="0.5" gradientTransform="matrix(1,0,0.002,4.132,818.258,509.689)" gradientUnits="userSpaceOnUse"><stop offset="1.3043478260869565%" stop-opacity="1" style="stop-color:rgb(255,249,251)"/><stop offset="98.69565217391305%" stop-opacity="1" style="stop-color:rgb(255,191,167)"/></linearGradient><rect x="818.189" y="510.203" width="1" height="4.133" transform="matrix(0.021,1,-1,0.021,1313.25,-317.237)" fill="url(#_lgradient_79)"/><linearGradient id="_lgradient_80" x1="0" y1="0.5" x2="1" y2="0.5" gradientTransform="matrix(1,0,0.004,8.263,819.521,516.596)" gradientUnits="userSpaceOnUse"><stop offset="1.3043478260869565%" stop-opacity="1" style="stop-color:rgb(255,249,251)"/><stop offset="98.69565217391305%" stop-opacity="1" style="stop-color:rgb(255,191,167)"/></linearGradient><rect x="819.448" y="517.111" width="1" height="8.265" transform="matrix(0.021,1,-1,0.021,1323.455,-309.714)" fill="url(#_lgradient_80)"/><linearGradient id="_lgradient_81" x1="0" y1="0.5" x2="1" y2="0.5" gradientTransform="matrix(1,0,0.002,4.132,817.611,525.704)" gradientUnits="userSpaceOnUse"><stop offset="1.3043478260869565%" stop-opacity="1" style="stop-color:rgb(255,249,251)"/><stop offset="98.69565217391305%" stop-opacity="1" style="stop-color:rgb(255,191,167)"/></linearGradient><rect x="817.533" y="526.22" width="1" height="4.133" transform="matrix(0.021,1,-1,0.021,1328.622,-300.908)" fill="url(#_lgradient_81)"/><linearGradient id="_lgradient_82" x1="0" y1="0.5" x2="1" y2="0.5" gradientTransform="matrix(1,0,0.004,8.263,819.872,532.588)" gradientUnits="userSpaceOnUse"><stop offset="1.3043478260869565%" stop-opacity="1" style="stop-color:rgb(255,249,251)"/><stop offset="98.69565217391305%" stop-opacity="1" style="stop-color:rgb(255,191,167)"/></linearGradient><rect x="819.792" y="533.108" width="1" height="8.265" transform="matrix(0.021,1,-1,0.021,1339.784,-294.405)" fill="url(#_lgradient_82)"/><linearGradient id="_lgradient_83" x1="0" y1="0.5" x2="1" y2="0.5" gradientTransform="matrix(1,0,0.002,4.132,817.962,541.696)" gradientUnits="userSpaceOnUse"><stop offset="1.3043478260869565%" stop-opacity="1" style="stop-color:rgb(255,249,251)"/><stop offset="98.69565217391305%" stop-opacity="1" style="stop-color:rgb(255,191,167)"/></linearGradient><rect x="817.877" y="542.217" width="1" height="4.133" transform="matrix(0.021,1,-1,0.021,1344.951,-285.599)" fill="url(#_lgradient_83)"/><linearGradient id="_lgradient_84" x1="0" y1="0.5" x2="1" y2="0.5" gradientTransform="matrix(1,0,0.004,8.263,819.203,547.604)" gradientUnits="userSpaceOnUse"><stop offset="1.3043478260869565%" stop-opacity="1" style="stop-color:rgb(255,249,251)"/><stop offset="98.69565217391305%" stop-opacity="1" style="stop-color:rgb(255,191,167)"/></linearGradient><rect x="819.115" y="548.126" width="1" height="8.265" transform="matrix(0.021,1,-1,0.021,1354.136,-279.033)" fill="url(#_lgradient_84)"/><linearGradient id="_lgradient_85" x1="0" y1="0.5" x2="1" y2="0.5" gradientTransform="matrix(1,0,0.002,4.132,817.292,556.712)" gradientUnits="userSpaceOnUse"><stop offset="1.3043478260869565%" stop-opacity="1" style="stop-color:rgb(255,249,251)"/><stop offset="98.69565217391305%" stop-opacity="1" style="stop-color:rgb(255,191,167)"/></linearGradient><rect x="817.199" y="557.235" width="1" height="4.133" transform="matrix(0.021,1,-1,0.021,1359.303,-270.226)" fill="url(#_lgradient_85)"/><linearGradient id="_lgradient_86" x1="0.11764705882352944" y1="0.27607294686507355" x2="1" y2="0.5" gradientTransform="matrix(221,0,0,136.929,222,686.959)" gradientUnits="userSpaceOnUse"><stop offset="1.7391304347826086%" stop-opacity="1" style="stop-color:rgb(3,11,162)"/><stop offset="99.1304347826087%" stop-opacity="1" style="stop-color:rgb(41,82,193)"/></linearGradient><path d=" M 222 724.887 Q 242 715.221 251 721.887 C 260 728.554 260.667 773.221 289 778.887 C 317.333 784.554 328 779.554 338 794.887 Q 348 810.221 363 823.887 L 443 778.887 Q 421.029 764.987 414 751.887 C 406.667 738.221 383.789 738.246 365 736.887 C 309.667 732.887 320 701.221 307 692.887 C 296.041 685.863 289 686.333 284 688 Q 279 689.667 222 724.887 Z " fill="url(#_lgradient_86)"/><g><linearGradient id="_lgradient_87" x1="0.2858266827708093" y1="0.16061913235384614" x2="1.054203639292771" y2="0.7824499411600819" gradientTransform="matrix(135.678,0,0,317.743,857.263,454.403)" gradientUnits="userSpaceOnUse"><stop offset="0%" stop-opacity="1" style="stop-color:rgb(103,237,226)"/><stop offset="100%" stop-opacity="1" style="stop-color:rgb(10,204,188)"/></linearGradient><path d=" M 887.801 458.1 L 987.359 515.58 Q 993.476 519.931 992.89 531.546 C 992.503 539.213 992.511 605.96 992.89 748.693 C 992.896 750.843 992.751 761.292 987.359 764.66 Q 984.802 766.257 970.766 772.146 L 898.863 643.313 L 857.263 463.609 L 871.208 454.906 Q 879.233 453.038 887.801 458.1 Z " fill="url(#_lgradient_87)"/><linearGradient id="_lgradient_88" x1="1.2441588642757675" y1="0.10068867065720966" x2="-0.01559768876846146" y2="0.6797572298833859" gradientTransform="matrix(122.912,0,0,310.352,854.477,462.184)" gradientUnits="userSpaceOnUse"><stop offset="0%" stop-opacity="1" style="stop-color:rgb(51,212,208)"/><stop offset="99.1304347826087%" stop-opacity="1" style="stop-color:rgb(26,187,182)"/></linearGradient><path d=" M 854.615 694.406 L 854.615 477.26 Q 853.239 456.292 865.677 464.486 Q 869.725 467.154 965.235 521.966 Q 974.111 526.968 976.297 534.74 Q 978.482 542.512 976.297 758.273 Q 976.287 777.146 965.235 771.046 Q 954.039 764.868 876.739 719.953 Q 870.629 716.385 865.677 713.566 Q 854.824 707.39 854.615 694.406 Z " fill="url(#_lgradient_88)"/><linearGradient id="_lgradient_89" x1="0.8379901382223549" y1="0.89478716969064" x2="0.1771662932499105" y2="0.138865108658905" gradientTransform="matrix(110.971,0,0,280.2,860.448,477.26)" gradientUnits="userSpaceOnUse"><stop offset="3.4782608695652173%" stop-opacity="1" style="stop-color:rgb(107,32,247)"/><stop offset="100%" stop-opacity="1" style="stop-color:rgb(225,244,253)"/></linearGradient><path d=" M 860.572 686.921 L 860.572 490.871 Q 859.33 471.94 870.559 479.339 C 871.854 480.192 874.08 481.154 890.921 490.871 C 894.841 493.133 892.13 498.849 898.863 502.806 C 905.62 506.779 922.293 517.088 932.049 521.966 C 937.285 523.774 936.022 517.263 939.214 519.097 Q 950.626 525.654 960.445 531.234 Q 968.459 535.75 970.432 542.767 Q 972.406 549.783 970.432 744.583 Q 970.424 761.622 960.445 756.115 Q 950.337 750.537 880.547 709.986 Q 875.03 706.764 870.559 704.22 Q 860.761 698.643 860.572 686.921 Z " fill="url(#_lgradient_89)"/><linearGradient id="_lgradient_90" x1="0.09811353510960741" y1="0.561034031682847" x2="0.8064160678675779" y2="0.7003675503224912" gradientTransform="matrix(-163.373,1.213,-2.124,-286.133,973.234,863.42)" gradientUnits="userSpaceOnUse"><stop offset="1.3043478260869565%" stop-opacity="1" style="stop-color:rgb(255,198,75)"/><stop offset="40%" stop-opacity="1" style="stop-color:rgb(255,61,152)"/><stop offset="62.17391304347826%" stop-opacity="1" style="stop-color:rgb(255,57,130)"/><stop offset="100%" stop-opacity="1" style="stop-color:rgb(204,13,160)"/></linearGradient><path d=" M 971.12 593.012 Q 961.926 639.36 951.345 641.428 C 921.681 647.224 929.182 650.293 928.774 677.296 C 928.531 693.355 952.891 730.987 916.392 750.534 Q 894.746 762.126 911.626 824.18 Q 914.775 837.427 909.066 846.002 C 902.76 855.473 896.684 867.724 893.382 862.923 C 886.904 853.503 897.472 839.338 899.519 833.727 C 901.566 828.117 883.749 788.146 882.795 772.355 C 881.489 750.723 909.194 726.411 902.247 722.575 C 894.797 718.462 894.661 718.228 887.927 714.392 C 881.448 710.557 881.335 713.632 885.881 702.079 C 890.427 690.525 888.979 685.95 887.927 670.068 C 886.051 641.769 874.8 651.997 854.513 661.203 Q 841.233 667.229 819.735 644.155 Q 803.369 641.257 810.189 635.291 C 815.324 630.797 830.646 642.962 844.284 648.247 C 850.027 650.472 871.014 633.635 877.016 629.153 C 884.061 623.892 885.718 625.805 902.567 623.883 C 919.416 621.962 943.223 628.926 947.935 623.883 Q 955.436 615.856 962.937 595.74 Q 971.12 572.205 971.12 578.692 Q 971.12 586.534 971.12 593.012 Z " fill="url(#_lgradient_90)"/><linearGradient id="_lgradient_91" x1="0.45638638221250766" y1="0.39107886249448476" x2="1.0000000000000033" y2="1.0000000000000018" gradientTransform="matrix(-37.949,5.093,-6.074,-45.258,920.724,617.414)" gradientUnits="userSpaceOnUse"><stop offset="2.1739130434782608%" stop-opacity="1" style="stop-color:rgb(240,82,156)"/><stop offset="100%" stop-opacity="1" style="stop-color:rgb(91,1,75)"/></linearGradient><path d=" M 917.687 594.785 C 919.363 607.274 912.222 618.555 901.749 619.961 C 891.277 621.366 881.414 612.367 879.737 599.878 C 878.061 587.389 885.203 576.108 895.675 574.702 C 906.148 573.297 916.011 582.296 917.687 594.785 Z " fill="url(#_lgradient_91)"/><g><linearGradient id="_lgradient_92" x1="0.4337373704078497" y1="0.22765811568029204" x2="0.40782898227202924" y2="1.0582030855002817" gradientTransform="matrix(-23.935,-5.527,8.829,-38.235,824.549,647.619)" gradientUnits="userSpaceOnUse"><stop offset="0.8695652173913043%" stop-opacity="1" style="stop-color:rgb(230,166,28)"/><stop offset="41.30434782608695%" stop-opacity="1" style="stop-color:rgb(255,113,122)"/><stop offset="72.17391304347827%" stop-opacity="1" style="stop-color:rgb(255,59,141)"/><stop offset="100%" stop-opacity="1" style="stop-color:rgb(204,5,171)"/></linearGradient><path d=" M 817.46 631.976 C 818.428 629.66 826.952 628.924 827.704 627.241 C 830.177 621.711 832.882 612.005 832.99 610.976 C 833.127 609.665 823.405 606.935 816.332 605.486 C 815.312 605.277 814.177 607.185 813.122 609.036 C 813.28 608.373 812.096 604.727 811.523 604.657 C 810.383 604.518 809.576 604.491 809.27 604.612 C 808.677 607.099 806.453 618.288 806.48 622.173 C 806.495 624.316 813.258 628.31 813.299 630.983 Q 813.357 634.81 810.804 641.434 Q 810.288 644.396 812.298 644.788 Q 814.307 645.181 814.965 642.427 Q 816.197 634.994 817.46 631.976 Z " fill="url(#_lgradient_92)"/><linearGradient id="_lgradient_93" x1="0.4337373704078497" y1="0.22765811568029204" x2="0.40782898227202924" y2="1.0582030855002817" gradientTransform="matrix(-22.333,-5.157,3.367,-14.581,826.005,636.607)" gradientUnits="userSpaceOnUse"><stop offset="1.3043478260869565%" stop-opacity="1" style="stop-color:rgb(123,123,123)"/><stop offset="98.26086956521739%" stop-opacity="1" style="stop-color:rgb(198,198,198)"/></linearGradient><path d=" M 817.46 631.976 C 818.428 629.66 826.952 628.924 827.704 627.241 C 828.053 626.461 828.406 625.598 828.756 624.688 C 829.26 623.378 807.449 615.878 806.925 617.372 C 806.822 617.665 806.474 621.401 806.48 622.173 C 806.495 624.316 813.258 628.31 813.299 630.983 C 813.357 634.81 816.197 634.994 817.46 631.976 Z " fill="url(#_lgradient_93)"/></g><path d=" M 821.099 606.65 C 819.565 606.352 818.839 613.872 819.735 614.151 C 820.694 614.45 820.867 610.394 822.463 610.742 C 824.028 611.083 820.886 618.371 823.827 618.243 Q 826.768 618.115 826.609 610.742 Q 826.65 609.614 827.973 610.06 C 829.112 610.443 828.174 612.191 829.282 612.106 C 830.39 612.02 830.475 610.742 830.701 609.378 C 829.09 608.653 821.44 606.437 821.099 606.65 Z " fill="rgb(79,188,242)"/><linearGradient id="_lgradient_94" x1="0.15480161380470256" y1="0.13134634957568384" x2="0.745344561521663" y2="0.8936836093557602" gradientTransform="matrix(7.376,-11.225,11.225,7.376,898.415,598.048)" gradientUnits="userSpaceOnUse"><stop offset="1.7391304347826086%" stop-opacity="1" style="stop-color:rgb(255,246,225)"/><stop offset="98.26086956521739%" stop-opacity="1" style="stop-color:rgb(255,153,86)"/></linearGradient><path d=" M 904.028 601.736 C 900.93 599.7 900.068 595.533 902.103 592.435 C 904.139 589.337 908.307 588.475 911.404 590.51 C 914.502 592.546 915.364 596.714 913.329 599.811 C 911.293 602.909 907.126 603.771 904.028 601.736 Z " fill="url(#_lgradient_94)" vector-effect="non-scaling-stroke" stroke-width="3" stroke="rgb(255,255,71)" stroke-linejoin="miter" stroke-linecap="square" stroke-miterlimit="3"/><linearGradient id="_lgradient_95" x1="0.15480161380470256" y1="0.13134634957568384" x2="0.745344561521663" y2="0.8936836093557602" gradientTransform="matrix(7.777,-10.952,10.952,7.777,881.05,600.033)" gradientUnits="userSpaceOnUse"><stop offset="1.7391304347826086%" stop-opacity="1" style="stop-color:rgb(255,246,225)"/><stop offset="98.26086956521739%" stop-opacity="1" style="stop-color:rgb(255,153,86)"/></linearGradient><path d=" M 886.526 603.921 C 883.504 601.775 882.792 597.579 884.938 594.557 C 887.084 591.535 891.28 590.823 894.302 592.969 C 897.325 595.115 898.036 599.311 895.89 602.333 C 893.744 605.356 889.548 606.067 886.526 603.921 Z " fill="url(#_lgradient_95)" vector-effect="non-scaling-stroke" stroke-width="3" stroke="rgb(255,255,71)" stroke-linejoin="miter" stroke-linecap="square" stroke-miterlimit="3"/><path d=" M 901.568 615.466 C 896.642 616.266 892.405 612.826 892.938 610.543 C 893.47 608.26 897.01 610.411 900.766 609.492 C 905.449 608.347 905.728 606.615 908.183 608.497 C 910.638 610.379 906.401 614.682 901.568 615.466 Z " fill="rgb(133,29,112)"/><linearGradient id="_lgradient_96" x1="0.48420865853893913" y1="-0.23216203613728958" x2="0.4903053430994684" y2="0.8395428306202248" gradientTransform="matrix(-34.741,3.634,-2.384,-22.793,917.108,594.74)" gradientUnits="userSpaceOnUse"><stop offset="0.8695652173913043%" stop-opacity="1" style="stop-color:rgb(240,191,86)"/><stop offset="98.26086956521739%" stop-opacity="1" style="stop-color:rgb(255,112,184)"/></linearGradient><path d=" M 915.555 583.813 C 916.614 586.942 917.955 597.891 913.317 594.215 C 907.838 589.874 907.045 592.668 903.063 592.562 C 899.08 592.456 899.9 589.551 895.951 589.42 C 892.23 589.296 891.527 591.053 888.197 589.25 C 884.576 587.288 886.658 585.582 884.244 585.835 C 881.83 586.087 880.507 585.703 880.91 582.422 C 881.313 579.14 885.327 579.556 886.857 577.201 C 888.171 575.18 891.01 573.945 894.084 574.355 C 897.157 574.765 897.495 573.999 901.113 573.62 C 904.731 573.242 911.382 575.89 912.512 578.698 C 913.642 581.505 914.497 580.685 915.555 583.813 Z " fill="url(#_lgradient_96)"/></g></g></svg>