<?xml version="1.0" standalone="no"?><!-- Generator: Gravit.io --><svg xmlns="http://www.w3.org/2000/svg" xmlns:xlink="http://www.w3.org/1999/xlink" style="isolation:isolate" viewBox="0 0 255.243 269.69" width="255.243" height="269.69"><defs><clipPath id="_clipPath_SLeKtaxizTG6LtfMGnewhG9SnHOtPt7f"><rect width="255.243" height="269.69"/></clipPath></defs><g clip-path="url(#_clipPath_SLeKtaxizTG6LtfMGnewhG9SnHOtPt7f)"><path d="M 127.672 0 L 127.672 0 C 136.319 0 143.339 7.02 143.339 15.667 L 143.339 178.333 C 143.339 186.98 136.319 194 127.672 194 L 127.672 194 C 119.026 194 112.006 186.98 112.006 178.333 L 112.006 15.667 C 112.006 7.02 119.026 0 127.672 0 Z" style="stroke:none;fill:#626262;stroke-miterlimit:10;"/><path d="M 255.243 46.509 L 255.243 46.509 C 255.272 55.156 247.244 62.203 237.326 62.237 L 18.024 62.985 C 8.106 63.019 0.03 56.026 0 47.38 L 0 47.38 C -0.029 38.733 7.999 31.686 17.917 31.652 L 237.219 30.904 C 247.137 30.87 255.213 37.862 255.243 46.509 Z" style="stroke:none;fill:#626262;stroke-miterlimit:10;"/><path d="M 189.2 106.941 L 189.2 106.941 C 189.229 115.587 182.233 122.631 173.586 122.661 L 86.503 122.958 C 77.856 122.987 70.812 115.991 70.783 107.345 L 70.783 107.345 C 70.753 98.698 77.749 91.654 86.396 91.624 L 173.48 91.327 C 182.126 91.298 189.17 98.294 189.2 106.941 Z" style="stroke:none;fill:#626262;stroke-miterlimit:10;"/><path d="M 136.428 157.426 L 136.428 157.426 C 143.561 162.313 145.383 172.072 140.496 179.205 L 86.058 258.648 C 81.17 265.78 71.411 267.603 64.279 262.715 L 64.279 262.715 C 57.146 257.828 55.323 248.069 60.211 240.936 L 114.648 161.493 C 119.536 154.361 129.295 152.538 136.428 157.426 Z" style="stroke:none;fill:#626262;stroke-miterlimit:10;"/><path d="M 6.652 153.305 L 6.652 153.305 C 13.723 148.328 23.504 150.027 28.482 157.097 L 87.387 240.774 C 92.364 247.844 90.665 257.625 83.595 262.603 L 83.595 262.603 C 76.524 267.58 66.743 265.881 61.766 258.81 L 2.86 175.134 C -2.117 168.064 -0.418 158.283 6.652 153.305 Z" style="stroke:none;fill:#626262;stroke-miterlimit:10;"/><path d="M 248.428 161.659 L 248.428 161.659 C 255.561 166.546 257.383 176.306 252.496 183.438 L 198.058 262.881 C 193.17 270.013 183.411 271.836 176.279 266.948 L 176.279 266.948 C 169.146 262.061 167.323 252.302 172.211 245.169 L 226.648 165.727 C 231.536 158.594 241.295 156.771 248.428 161.659 Z" style="stroke:none;fill:#626262;stroke-miterlimit:10;"/><path d="M 118.652 157.538 L 118.652 157.538 C 125.723 152.561 135.504 154.26 140.482 161.331 L 199.387 245.007 C 204.364 252.077 202.665 261.858 195.595 266.836 L 195.595 266.836 C 188.524 271.813 178.743 270.114 173.766 263.043 L 114.86 179.367 C 109.883 172.297 111.582 162.516 118.652 157.538 Z" style="stroke:none;fill:#626262;stroke-miterlimit:10;"/></g></svg>