<svg width="256" height="270" viewBox="0 0 256 270" fill="none" xmlns="http://www.w3.org/2000/svg">
<g clip-path="url(#clip0)">
<path d="M127.672 0C136.319 0 143.339 7.02 143.339 15.667V178.333C143.339 186.98 136.319 194 127.672 194C119.026 194 112.006 186.98 112.006 178.333V15.667C112.006 7.02 119.026 0 127.672 0Z" fill="#E6D114"/>
<path d="M255.243 46.5091C255.272 55.1561 247.244 62.2031 237.326 62.2371L18.024 62.9851C8.10599 63.0191 0.0299868 56.0261 -1.32308e-05 47.3801C-0.0290132 38.7331 7.99899 31.6861 17.917 31.6521L237.219 30.9041C247.137 30.8701 255.213 37.8621 255.243 46.5091Z" fill="#F4DE18"/>
<path d="M189.2 106.941C189.229 115.587 182.233 122.631 173.586 122.661L86.503 122.958C77.856 122.987 70.812 115.991 70.783 107.345C70.753 98.698 77.749 91.654 86.396 91.624L173.48 91.327C182.126 91.298 189.17 98.294 189.2 106.941Z" fill="#F4DE18"/>
<path d="M136.428 157.426C143.561 162.313 145.383 172.072 140.496 179.205L86.058 258.648C81.17 265.78 71.411 267.603 64.279 262.715C57.146 257.828 55.323 248.069 60.211 240.936L114.648 161.493C119.536 154.361 129.295 152.538 136.428 157.426Z" fill="#F4DE18"/>
<path d="M6.65201 153.305C13.723 148.328 23.504 150.027 28.482 157.097L87.387 240.774C92.364 247.844 90.665 257.625 83.595 262.603C76.524 267.58 66.743 265.881 61.766 258.81L2.86001 175.134C-2.11699 168.064 -0.417989 158.283 6.65201 153.305Z" fill="#E6D114"/>
<path d="M248.428 161.659C255.561 166.546 257.383 176.306 252.496 183.438L198.058 262.881C193.17 270.013 183.411 271.836 176.279 266.948C169.146 262.061 167.323 252.302 172.211 245.169L226.648 165.727C231.536 158.594 241.295 156.771 248.428 161.659Z" fill="#E6D114"/>
<path d="M118.652 157.538C125.723 152.561 135.504 154.26 140.482 161.331L199.387 245.007C204.364 252.077 202.665 261.858 195.595 266.836C188.524 271.813 178.743 270.114 173.766 263.043L114.86 179.367C109.883 172.297 111.582 162.516 118.652 157.538Z" fill="#F4DE18"/>
</g>
<defs>
<clipPath id="clip0">
<rect width="255.243" height="269.69" fill="white"/>
</clipPath>
</defs>
</svg>
